<svg width="112" height="112" viewBox="0 0 112 112" fill="none" xmlns="http://www.w3.org/2000/svg">
<g clip-path="url(#clip0_1734_7191)">
<path d="M56.0078 80.4966C57.0462 80.4966 58.0613 80.1887 58.9246 79.6117C59.788 79.0348 60.4609 78.2148 60.8583 77.2555C61.2556 76.2961 61.3595 75.2405 61.1569 74.222C60.9542 73.2036 60.4541 72.2682 59.7198 71.534C58.9855 70.7998 58.05 70.2998 57.0315 70.0974C56.013 69.8949 54.9574 69.999 53.9981 70.3965C53.0388 70.794 52.2189 71.467 51.6422 72.3305C51.0654 73.1939 50.7576 74.2091 50.7578 75.2475C50.7597 76.6392 51.3135 77.9733 52.2977 78.9573C53.2819 79.9413 54.6161 80.4949 56.0078 80.4966ZM56.0078 73.4966C56.3539 73.4964 56.6923 73.5989 56.9802 73.791C57.2681 73.9832 57.4925 74.2564 57.6251 74.5761C57.7578 74.8958 57.7926 75.2476 57.7252 75.5871C57.6579 75.9266 57.4914 76.2385 57.2467 76.4834C57.0021 76.7283 56.6904 76.8951 56.351 76.9628C56.0115 77.0305 55.6596 76.996 55.3398 76.8637C55.02 76.7314 54.7465 76.5072 54.5541 76.2196C54.3617 75.9319 54.2589 75.5936 54.2587 75.2475C54.2592 74.7835 54.4435 74.3388 54.7714 74.0106C55.0993 73.6824 55.5439 73.4975 56.0078 73.4966Z" fill="#3AA7CB"/>
<path d="M101.654 31.823C101.602 31.7862 57.0091 0.320448 57.0091 0.320448C56.7139 0.111946 56.3614 0 56 0C55.6386 0 55.2861 0.111946 54.9909 0.320448C54.9909 0.320448 10.3505 31.8409 10.3402 31.8486C10.1293 32.0079 9.95626 32.2118 9.8335 32.4458C9.71073 32.6798 9.64129 32.9381 9.63015 33.2022C9.62972 33.215 9.625 40.2534 9.625 40.2534C9.62502 40.7176 9.8094 41.1627 10.1376 41.4908C10.4658 41.819 10.9109 42.0034 11.375 42.0034H13.2058V59.5581C13.2064 59.9857 13.3641 60.3981 13.6488 60.7171C13.9335 61.0361 14.3255 61.2394 14.7502 61.2884C14.7502 61.2884 12.259 92.5979 12.2577 92.6133C12.2462 92.8759 12.2916 93.1379 12.3908 93.3812C12.49 93.6246 12.6406 93.8437 12.8324 94.0234C13.0242 94.203 13.2526 94.3391 13.5019 94.4223C13.7512 94.5055 14.0156 94.5337 14.2768 94.5052C16.0772 94.5052 24.3838 94.1873 26.6358 88.416C26.7131 88.2169 26.6794 88.0785 26.9246 88.0648C27.2814 88.046 27.6599 88.1255 28.0205 88.1255C30.6631 88.0647 33.2129 87.1387 35.2786 85.4894C35.5109 85.2901 35.6869 85.0335 35.789 84.745C35.8912 84.4565 35.916 84.1463 35.8609 83.8453L30.8408 56.4452C34.8441 53.6065 38.4248 49.1103 39.9364 42.0034H40.7661C40.7733 41.906 40.7798 41.8078 40.7896 41.7163C40.5368 41.3638 40.3124 40.9918 40.1184 40.6038C39.8878 40.145 39.7096 39.6617 39.5869 39.1631C39.5268 38.946 39.4783 38.7258 39.4417 38.5034H13.1246V35.0034H39.9389C40.1694 34.4847 40.4546 33.992 40.7896 33.5337C40.7138 32.8581 40.7272 32.1755 40.8293 31.5034H16.8882L56 3.8922L95.1109 31.5034H71.1707C71.2729 32.1755 71.2861 32.8582 71.2099 33.5337C71.5447 33.992 71.8297 34.4847 72.0602 35.0034H98.875V38.5034H72.5583C72.522 38.727 72.4733 38.9484 72.4122 39.1665C72.1767 40.085 71.7687 40.9503 71.2099 41.7163C71.2185 41.8078 71.2253 41.906 71.233 42.0034H72.0661C73.5769 49.1103 77.1581 53.6065 81.1614 56.4461L76.1421 83.8453C76.0868 84.1462 76.1114 84.4564 76.2134 84.7448C76.3153 85.0333 76.4911 85.29 76.7231 85.4894C78.7934 87.131 81.3408 88.0561 83.9821 88.1255C84.793 88.129 85.3184 88.2956 85.3663 88.4169C87.6187 94.1873 95.9244 94.5052 97.7257 94.5052C97.9868 94.533 98.2508 94.5043 98.4997 94.4209C98.7487 94.3374 98.9768 94.2013 99.1683 94.0217C99.3599 93.8422 99.5105 93.6234 99.6098 93.3803C99.7092 93.1373 99.755 92.8757 99.744 92.6133L97.2514 61.2876C97.6762 61.2388 98.0682 61.0357 98.353 60.7168C98.6378 60.398 98.7956 59.9856 98.7964 59.5581V42.0034H100.625C101.089 42.0031 101.534 41.8186 101.862 41.4905C102.19 41.1624 102.375 40.7175 102.375 40.2534V33.4234C102.391 33.1185 102.334 32.8141 102.209 32.5357C102.083 32.2573 101.893 32.013 101.654 31.823ZM32.2152 83.3694C30.5472 84.4198 28.5466 84.8081 26.6067 84.458L25.466 59.3171C26.1821 59.0394 26.9071 58.7207 27.6335 58.3602L32.2152 83.3694ZM16.7053 42.0034H36.3552C33.0898 55.4617 21.1666 57.4936 16.7053 57.7739V42.0034ZM18.2759 61.103C19.5343 60.947 20.7822 60.7147 22.0125 60.4075L23.2388 87.4521C22.0472 89.8413 18.4348 90.6975 15.9025 90.9325L18.2759 61.103ZM85.3954 84.458C83.456 84.8114 81.4547 84.4232 79.7882 83.3703L84.3683 58.3602C85.0946 58.7199 85.8192 59.0394 86.5344 59.3171L85.3954 84.458ZM75.6456 42.0034H95.2955V57.7799C90.8368 57.5142 78.9158 55.5138 75.6456 42.0034ZM88.7638 87.4513L89.9883 60.4075C91.2189 60.7149 92.467 60.9472 93.7258 61.103L96.0987 90.9325C93.566 90.6966 89.9541 89.8413 88.7638 87.4513Z" fill="#3AA7CB"/>
<path d="M45.5 37.625C45.5563 38.4197 45.9028 39.1659 46.4736 39.7216C46.5808 39.8437 46.6818 39.9713 46.7761 40.1037C46.7616 40.2758 46.7375 40.447 46.704 40.6164C46.4928 41.3694 46.5649 42.1736 46.9066 42.877C47.3498 43.5293 48.0164 43.9967 48.7806 44.1909C48.9396 44.2448 49.0957 44.3071 49.2481 44.3776C49.3188 44.5302 49.3812 44.6865 49.435 44.8458C49.6294 45.6092 50.0962 46.2752 50.7476 46.7181C51.1315 46.9335 51.5658 47.0425 52.0058 47.034C52.343 47.0262 52.6787 46.9885 53.0092 46.9212C53.1794 46.8871 53.3517 46.8639 53.5248 46.8515C53.6199 46.9123 53.787 47.0532 53.9028 47.1509C54.4588 47.7219 55.2052 48.0686 56 48.125C56.7946 48.0685 57.5408 47.7221 58.0969 47.1516C58.2308 47.0387 58.4338 46.8679 58.4632 46.8501C58.6403 46.8615 58.8163 46.8853 58.9901 46.9212C59.3208 46.9884 59.6568 47.0261 59.9942 47.034C60.4341 47.0425 60.8683 46.9337 61.2524 46.7188C61.9045 46.2755 62.3718 45.6088 62.566 44.8444C62.6194 44.6854 62.6817 44.5296 62.7526 44.3776C62.9047 44.3069 63.0605 44.2446 63.2194 44.1909C63.9834 43.9967 64.65 43.5296 65.0934 42.8777C65.4357 42.174 65.5077 41.3691 65.2958 40.6157C65.2624 40.4468 65.2384 40.276 65.224 40.1044C65.3184 39.972 65.4194 39.8444 65.5268 39.7223C66.0972 39.1661 66.4435 38.4198 66.5 37.625C66.4435 36.8302 66.0972 36.0839 65.5268 35.5277C65.4194 35.4056 65.3184 35.2781 65.224 35.1456C65.2384 34.974 65.2624 34.8032 65.2958 34.6343C65.5076 33.8812 65.4358 33.0766 65.0941 32.373C64.6505 31.7208 63.9837 31.2535 63.2194 31.0591C63.0605 31.0054 62.9047 30.9431 62.7526 30.8725C62.6817 30.7204 62.6194 30.5646 62.566 30.4056C62.3719 29.6415 61.9049 28.975 61.2531 28.5319C60.8689 28.3165 60.4344 28.2075 59.9942 28.216C59.6568 28.2239 59.3208 28.2616 58.9901 28.3288C58.8202 28.3629 58.6484 28.3862 58.4755 28.3985C58.3812 28.3377 58.2138 28.1962 58.0975 28.0984C57.5411 27.528 56.7948 27.1816 56 27.125C55.2051 27.1814 54.4586 27.5281 53.9025 28.0991C53.7689 28.2119 53.5665 28.3821 53.5371 28.3999C53.3598 28.3884 53.1835 28.3647 53.0095 28.3288C52.6788 28.2615 52.3429 28.2238 52.0055 28.216C51.5654 28.2076 51.131 28.3166 50.7469 28.5319C50.0959 28.975 49.6293 29.6409 49.435 30.4042C49.3812 30.5635 49.3188 30.7198 49.2481 30.8725C49.0957 30.9429 48.9396 31.0052 48.7806 31.0591C48.0167 31.2532 47.3502 31.7204 46.9069 32.3723C46.565 33.0759 46.4928 33.8804 46.704 34.6336C46.7375 34.803 46.7616 34.9742 46.7761 35.1463C46.6818 35.2787 46.5808 35.4063 46.4736 35.5284C45.9028 36.0841 45.5563 36.8303 45.5 37.625ZM48.6142 37.3331C49.0102 36.9202 49.308 36.4232 49.4853 35.8791C49.6067 35.3076 49.5986 34.7162 49.4617 34.1482C49.4439 34.0498 49.422 33.9233 49.4067 33.8153C49.5113 33.7723 49.6363 33.7271 49.733 33.6923C50.2889 33.53 50.8012 33.245 51.2322 32.8583C51.6196 32.4268 51.9053 31.9138 52.0681 31.3571C52.1029 31.26 52.1481 31.1357 52.1908 31.0318C52.2919 31.0454 52.4091 31.0659 52.5243 31.0864C53.0933 31.2128 53.6822 31.221 54.2544 31.1104C54.7977 30.9326 55.2941 30.6352 55.7071 30.2401C55.7926 30.1677 55.9053 30.0726 56 30.0009C56.095 30.0726 56.2071 30.1677 56.2932 30.2401C56.7067 30.6352 57.2034 30.9326 57.747 31.1104C58.3189 31.2209 58.9075 31.2128 59.4761 31.0864C59.5896 31.0659 59.7057 31.0461 59.8103 31.0324C59.8526 31.1364 59.8978 31.2614 59.9326 31.3585C60.0955 31.9146 60.3809 32.427 60.7678 32.8583C61.1987 33.245 61.7109 33.5301 62.2667 33.6923C62.3637 33.7271 62.4888 33.7723 62.5934 33.8153C62.5783 33.924 62.5564 34.0505 62.538 34.1489C62.4018 34.7168 62.3939 35.3078 62.5148 35.8791C62.6925 36.4225 62.9901 36.9189 63.3855 37.3318C63.4572 37.4179 63.5522 37.53 63.6247 37.625C63.5522 37.72 63.4572 37.8321 63.3855 37.9182C62.99 38.3312 62.6924 38.8279 62.5148 39.3716C62.3939 39.9424 62.4018 40.533 62.538 41.1004C62.5564 41.1995 62.5783 41.326 62.5934 41.4347C62.4888 41.4777 62.3637 41.5229 62.2667 41.5577C61.699 41.6908 61.1797 41.9798 60.7674 42.3921C60.355 42.8044 60.0659 43.3237 59.9326 43.8915C59.8978 43.9886 59.8526 44.1136 59.8096 44.2182C59.7085 44.2046 59.5909 44.1841 59.4761 44.1636C58.9076 44.0377 58.3194 44.0293 57.7476 44.139C57.2033 44.3166 56.706 44.6145 56.2925 45.0106C56.2068 45.0823 56.0947 45.1774 56 45.2491C55.9053 45.1774 55.7929 45.0823 55.7078 45.0106C55.2945 44.6145 54.7973 44.3166 54.2531 44.139C54.0194 44.0781 53.7787 44.0482 53.5371 44.0501C53.1968 44.058 52.8579 44.0959 52.5243 44.1636C52.4105 44.1841 52.2946 44.2039 52.1904 44.2176C52.1481 44.1136 52.1029 43.9893 52.0681 43.8929C51.9348 43.3248 51.6457 42.8052 51.2331 42.3926C50.8206 41.9801 50.301 41.6909 49.733 41.5577C49.6363 41.5229 49.5113 41.4777 49.4067 41.4347C49.422 41.326 49.4439 41.2002 49.4617 41.1018C49.5985 40.5347 49.6068 39.9443 49.4859 39.3736C49.3088 38.8285 49.0108 38.3306 48.6142 37.9169C48.5424 37.8314 48.4481 37.7194 48.376 37.625C48.4481 37.5306 48.5424 37.4186 48.6142 37.3331Z" fill="#3AA7CB"/>
<path d="M56.0007 42C56.866 41.9999 57.7118 41.7431 58.4312 41.2623C59.1505 40.7815 59.7112 40.0982 60.0422 39.2987C60.3732 38.4993 60.4597 37.6197 60.2908 36.771C60.122 35.9224 59.7052 35.1429 59.0933 34.5312C58.4814 33.9194 57.7019 33.5028 56.8533 33.334C56.0046 33.1653 55.125 33.2519 54.3256 33.5831C53.5262 33.9143 52.843 34.475 52.3623 35.1945C51.8816 35.9139 51.625 36.7597 51.625 37.625C51.6263 38.785 52.0878 39.8972 52.9081 40.7174C53.7285 41.5376 54.8407 41.9989 56.0007 42ZM56.0007 36.1667C56.2892 36.1667 56.5711 36.2522 56.8109 36.4124C57.0508 36.5727 57.2377 36.8004 57.3481 37.0669C57.4584 37.3334 57.4873 37.6266 57.431 37.9095C57.3748 38.1924 57.2359 38.4522 57.0319 38.6562C56.828 38.8602 56.5681 38.999 56.2852 39.0553C56.0023 39.1116 55.7091 39.0827 55.4426 38.9723C55.1762 38.8619 54.9484 38.675 54.7882 38.4352C54.6279 38.1954 54.5424 37.9134 54.5424 37.625C54.5429 37.2384 54.6967 36.8677 54.9701 36.5944C55.2435 36.321 55.6141 36.1672 56.0007 36.1667Z" fill="#3AA7CB"/>
<path d="M44.2984 83.066L54.5903 97.2727C54.7526 97.4969 54.9657 97.6793 55.2122 97.8051C55.4586 97.9309 55.7314 97.9965 56.0081 97.9965C56.2848 97.9965 56.5576 97.9309 56.8041 97.8051C57.0505 97.6793 57.2637 97.4969 57.426 97.2727C57.426 97.2727 67.579 83.254 67.7148 83.0651C69.2641 80.7962 70.0664 78.1002 70.01 75.3534C70.0237 73.5058 69.6717 71.6738 68.9741 69.9629C68.2766 68.252 67.2473 66.696 65.9457 65.3847C64.6441 64.0734 63.0958 63.0327 61.3901 62.3224C59.6845 61.6122 57.8551 61.2466 56.0075 61.2466C54.1598 61.2466 52.3305 61.6122 50.6248 62.3224C48.9191 63.0327 47.3709 64.0734 46.0692 65.3847C44.7676 66.696 43.7384 68.252 43.0408 69.9629C42.3433 71.6738 41.9912 73.5058 42.0049 75.3534C41.9719 78.097 42.7715 80.7862 44.2984 83.066ZM56.0075 64.7465C58.8057 64.7636 61.4828 65.89 63.4516 67.8784C65.4204 69.8669 66.52 72.5552 66.5092 75.3534C66.5092 76.2429 66.3631 79.1875 64.8831 81.0092L64.8848 81.0101C64.6242 81.3664 63.3057 83.1856 56.0075 93.2626L47.1327 81.0126C46.0411 79.3293 45.4746 77.3594 45.5053 75.3534C45.4946 72.5551 46.5943 69.8668 48.5632 67.8784C50.532 65.8899 53.2093 64.7636 56.0075 64.7465Z" fill="#3AA7CB"/>
</g>
<defs>
<clipPath id="clip0_1734_7191">
<rect width="112" height="112" fill="white"/>
</clipPath>
</defs>
</svg>
