<svg width="93" height="93" viewBox="0 0 93 93" fill="none" xmlns="http://www.w3.org/2000/svg">
<g clip-path="url(#clip0_1734_7196)">
<path d="M74.4 37.2C84.6566 37.2 93 28.8566 93 18.6C93 8.34336 84.6566 0 74.4 0C66.952 0 60.5302 4.41008 57.5627 10.7478L52.5819 8.90947C52.641 8.52803 52.7 8.14658 52.7 7.75C52.7 3.4769 49.2231 0 44.95 0C40.6769 0 37.2 3.4769 37.2 7.75C37.2 12.0231 40.6769 15.5 44.95 15.5C47.7261 15.5 50.1472 14.0196 51.5155 11.8203L56.488 13.6556C56.0513 15.2336 55.8 16.8858 55.8 18.6C55.8 20.6306 56.1375 22.5802 56.7423 24.411L39.6953 31.6357C36.5741 25.7347 30.3786 21.7 23.25 21.7C20.9401 21.7 18.7362 22.1435 16.6935 22.9155L12.4061 13.9053C14.2739 12.4885 15.5 10.2687 15.5 7.75C15.5 3.4769 12.0231 0 7.75 0C3.4769 0 0 3.4769 0 7.75C0 12.0231 3.4769 15.5 7.75 15.5C8.39482 15.5 9.01316 15.3978 9.61333 15.2472L13.8955 24.2483C8.3759 27.4784 4.65 33.4552 4.65 40.3C4.65 46.7293 7.93013 52.4041 12.9025 55.7455L10.0674 60.842C9.32952 60.6097 8.56208 60.45 7.75 60.45C3.4769 60.45 0 63.9269 0 68.2C0 72.4731 3.4769 75.95 7.75 75.95C12.0231 75.95 15.5 72.4731 15.5 68.2C15.5 65.8531 14.4291 63.7718 12.7769 62.3504L15.6181 57.2433C17.9491 58.2983 20.5284 58.9 23.25 58.9C27.5034 58.9 31.4155 57.4491 34.5526 55.0371L40.6534 61.7487C37.5595 65.072 35.65 69.5116 35.65 74.4C35.65 75.3483 35.7446 76.2724 35.8808 77.1821L28.703 78.8858C27.4678 76.2444 24.803 74.4 21.7 74.4C17.4269 74.4 13.95 77.8769 13.95 82.15C13.95 86.4231 17.4269 89.9 21.7 89.9C25.9731 89.9 29.45 86.4231 29.45 82.15C29.45 82.0645 29.4265 81.9843 29.425 81.8987L36.5892 80.2004C39.0323 87.6227 46.0194 93 54.25 93C64.5066 93 72.85 84.6566 72.85 74.4C72.85 71.2198 72.0455 68.225 70.6317 65.6056L79.7365 59.6856C81.1442 61.1115 83.0938 62 85.25 62C89.5231 62 93 58.5231 93 54.25C93 49.9769 89.5231 46.5 85.25 46.5C80.9769 46.5 77.5 49.9769 77.5 54.25C77.5 55.2513 77.7059 56.2026 78.0532 57.0821L68.9273 63.0149C67.1011 60.6672 64.7299 58.7713 62 57.5127L69.5653 36.54C71.1093 36.9563 72.7259 37.2 74.4 37.2ZM44.95 12.4C42.3866 12.4 40.3 10.3134 40.3 7.75C40.3 5.1866 42.3866 3.1 44.95 3.1C47.5134 3.1 49.6 5.1866 49.6 7.75C49.6 10.3134 47.5134 12.4 44.95 12.4ZM3.1 7.75C3.1 5.1866 5.1866 3.1 7.75 3.1C10.3134 3.1 12.4 5.1866 12.4 7.75C12.4 10.3134 10.3134 12.4 7.75 12.4C5.1866 12.4 3.1 10.3134 3.1 7.75ZM7.75 72.85C5.1866 72.85 3.1 70.7634 3.1 68.2C3.1 65.6366 5.1866 63.55 7.75 63.55C10.3134 63.55 12.4 65.6366 12.4 68.2C12.4 70.7634 10.3134 72.85 7.75 72.85ZM21.7 86.8C19.1366 86.8 17.05 84.7134 17.05 82.15C17.05 79.5866 19.1366 77.5 21.7 77.5C24.2634 77.5 26.35 79.5866 26.35 82.15C26.35 84.7134 24.2634 86.8 21.7 86.8ZM85.25 49.6C87.8134 49.6 89.9 51.6866 89.9 54.25C89.9 56.8134 87.8134 58.9 85.25 58.9C82.6866 58.9 80.6 56.8134 80.6 54.25C80.6 51.6866 82.6866 49.6 85.25 49.6ZM65.2718 31.0991C65.9635 27.514 69.1241 24.8 72.85 24.8H75.95C79.6759 24.8 82.8364 27.514 83.5282 31.0991C80.964 32.9761 77.8148 34.1 74.4 34.1C70.9852 34.1 67.836 32.9761 65.2718 31.0991ZM74.4 21.7C71.8366 21.7 69.75 19.6134 69.75 17.05C69.75 14.4866 71.8366 12.4 74.4 12.4C76.9634 12.4 79.05 14.4866 79.05 17.05C79.05 19.6134 76.9634 21.7 74.4 21.7ZM74.4 3.1C82.9469 3.1 89.9 10.0531 89.9 18.6C89.9 22.475 88.4597 26.0155 86.0992 28.7355C85.0131 25.8755 82.7487 23.5928 79.9272 22.4659C81.2993 21.0673 82.15 19.1578 82.15 17.05C82.15 12.7769 78.6731 9.3 74.4 9.3C70.1269 9.3 66.65 12.7769 66.65 17.05C66.65 19.1578 67.5007 21.0673 68.8728 22.4659C66.0513 23.5928 63.7869 25.8755 62.7008 28.7355C60.3403 26.0155 58.9 22.475 58.9 18.6C58.9 10.0531 65.8531 3.1 74.4 3.1ZM7.75 40.3C7.75 31.753 14.7031 24.8 23.25 24.8C31.7969 24.8 38.75 31.753 38.75 40.3C38.75 44.1871 37.3007 47.7367 34.928 50.4605C33.8457 47.5898 31.5767 45.2959 28.7477 44.1659C30.1183 42.7673 30.969 40.8578 30.969 38.75C30.969 34.4769 27.4921 31 23.219 31C18.9459 31 15.469 34.4769 15.469 38.75C15.469 40.8578 16.3197 42.7673 17.6918 44.1659C14.8786 45.2875 12.6172 47.5618 11.5274 50.4106C9.18042 47.6935 7.75 44.1644 7.75 40.3ZM18.569 38.75C18.569 36.1866 20.6556 34.1 23.219 34.1C25.7824 34.1 27.869 36.1866 27.869 38.75C27.869 41.3134 25.7824 43.4 23.219 43.4C20.6556 43.4 18.569 41.3134 18.569 38.75ZM14.0961 52.7787C14.7946 49.2034 17.9506 46.5 21.669 46.5H24.769C28.5017 46.5 31.6683 49.2231 32.3502 52.8196C29.7913 54.6852 26.652 55.8 23.25 55.8C19.823 55.8 16.664 54.6685 14.0961 52.7787ZM45.0961 86.8787C45.7946 83.3034 48.9506 80.6 52.669 80.6H55.769C59.5017 80.6 62.6683 83.3231 63.3502 86.9196C60.7913 88.7852 57.652 89.9 54.25 89.9C50.823 89.9 47.664 88.7685 45.0961 86.8787ZM54.219 77.5C51.6556 77.5 49.569 75.4134 49.569 72.85C49.569 70.2866 51.6556 68.2 54.219 68.2C56.7824 68.2 58.869 70.2866 58.869 72.85C58.869 75.4134 56.7824 77.5 54.219 77.5ZM69.75 74.4C69.75 78.2871 68.3007 81.8367 65.928 84.5605C64.8457 81.6898 62.5767 79.3959 59.7477 78.2659C61.1183 76.8673 61.969 74.9578 61.969 72.85C61.969 68.5769 58.4921 65.1 54.219 65.1C49.9459 65.1 46.469 68.5769 46.469 72.85C46.469 74.9578 47.3197 76.8673 48.6918 78.2659C45.8786 79.3875 43.6172 81.6618 42.5274 84.5106C40.1804 81.7935 38.75 78.2644 38.75 74.4C38.75 65.8531 45.703 58.9 54.25 58.9C62.7969 58.9 69.75 65.8531 69.75 74.4ZM59.0847 56.46C57.5407 56.0437 55.9241 55.8 54.25 55.8C49.9966 55.8 46.0845 57.2509 42.9474 59.6629L36.8466 52.9513C39.9405 49.628 41.85 45.1884 41.85 40.3C41.85 38.2694 41.5125 36.3198 40.9077 34.489L57.9547 27.2643C59.8642 30.8744 62.9286 33.7715 66.6515 35.4873L59.0847 56.46Z" fill="#3AA7CB"/>
</g>
<defs>
<clipPath id="clip0_1734_7196">
<rect width="93" height="93" fill="white"/>
</clipPath>
</defs>
</svg>
