<svg width="106" height="106" viewBox="0 0 106 106" fill="none" xmlns="http://www.w3.org/2000/svg">
<path d="M84.0542 41.4229L66.7464 28.4545L73.7192 7.99981C73.9511 7.32074 73.7192 6.57543 73.1395 6.14481C72.5598 5.71418 71.7814 5.69762 71.1852 6.11168L53.513 18.5501L36.2052 5.59824C35.6255 5.16762 34.847 5.15106 34.2508 5.56512C33.6711 5.97918 33.4061 6.72449 33.6214 7.40355L39.998 28.0736L22.3092 40.512C21.7295 40.9261 21.4645 41.6714 21.6798 42.3504C21.8952 43.0295 22.5245 43.5098 23.2367 43.5264L44.7514 43.8079L49.2067 66.2667H38.0436C36.2217 66.2667 34.7311 67.7573 34.7311 69.5792V74.5479H29.6464C27.9239 74.5479 26.4664 75.9061 26.3339 77.6286L24.9095 97.5036C24.8433 98.4145 25.158 99.3254 25.7873 100.004C26.4167 100.667 27.2945 101.064 28.2055 101.064H77.6445C78.5555 101.064 79.4498 100.684 80.0627 100.004C80.692 99.342 81.0067 98.4311 80.9405 97.5036L79.5161 77.6286C79.4002 75.9061 77.9426 74.5479 76.2036 74.5479H71.1189V69.5792C71.1189 67.7573 69.6283 66.2667 67.8064 66.2667H56.7923L61.4298 44.0895L82.928 44.4207C83.723 44.4207 84.2861 43.9736 84.518 43.2945C84.7498 42.6154 84.518 41.8701 83.9383 41.4395L84.0542 41.4229ZM77.7273 97.7189H28.2883L29.7127 77.8439H76.3195L77.7439 97.7189H77.7273ZM67.9058 74.5314H38.0933V69.5626H67.9058V74.5314ZM61.5623 40.7604C60.0055 40.7604 58.6639 41.8039 58.2995 43.3442L53.513 66.2501H52.6352L48.0308 43.0626C47.6664 41.5886 46.3745 40.5451 44.8508 40.512L28.4208 40.2636L42.913 30.0611C43.4927 29.647 43.7577 28.9017 43.5423 28.2226L38.3252 11.2792L52.5192 21.9123C53.0989 22.3429 53.8773 22.3595 54.4736 21.9454L68.9492 11.7429L63.2186 28.5207C62.9867 29.1998 63.2186 29.9451 63.7983 30.3757L77.9923 41.0089L61.5623 40.7604ZM67.9058 81.1564H38.0933C37.1823 81.1564 36.437 81.9017 36.437 82.8126V92.7501C36.437 93.6611 37.1823 94.4064 38.0933 94.4064H67.9058C68.8167 94.4064 69.562 93.6611 69.562 92.7501V82.8126C69.562 81.9017 68.8167 81.1564 67.9058 81.1564ZM66.2495 91.0939H39.7495V84.4689H66.2495V91.0939Z" fill="#3AA7CB"/>
</svg>
