<svg width="900" height="275" viewBox="0 0 900 275" fill="none" xmlns="http://www.w3.org/2000/svg">
<path d="M885.321 67.2959H363.743L82.4297 186.825V252.211H885.321V67.2959Z" stroke="#F29DAA" stroke-width="2.1" stroke-miterlimit="10"/>
<path d="M874.929 48.6104V241.759H67.793V123.665H133.1H148.829V48.6104H874.929Z" fill="white"/>
<path d="M134.197 15.6338H17.0312V111.328H134.197V15.6338Z" fill="#F29DAA"/>
<path d="M182.488 139.288V113.528H194.008C196.648 113.528 198.901 113.968 200.768 114.848C202.634 115.701 204.061 117.088 205.048 119.008C206.034 120.901 206.528 123.421 206.528 126.568C206.528 130.995 205.448 134.221 203.287 136.248C201.128 138.275 198.034 139.288 194.008 139.288H182.488ZM190.008 133.528H193.048C194.301 133.528 195.354 133.355 196.208 133.008C197.061 132.635 197.714 131.955 198.168 130.968C198.621 129.955 198.848 128.488 198.848 126.568C198.848 124.648 198.634 123.168 198.208 122.128C197.808 121.061 197.181 120.328 196.328 119.928C195.474 119.501 194.381 119.288 193.048 119.288H190.008V133.528ZM209.323 139.288V113.528H228.843V119.288H216.843V123.488H227.363V129.328H216.843V133.528H228.843V139.288H209.323ZM231.238 139.288V113.528H238.558L244.958 126.608L251.318 113.528H258.598V139.288H251.078V126.408L246.958 134.888H242.918L238.758 126.408V139.288H231.238ZM274.574 139.688C270.307 139.688 267.041 138.648 264.774 136.568C262.534 134.488 261.414 131.128 261.414 126.488C261.414 123.288 261.921 120.715 262.934 118.768C263.947 116.795 265.427 115.368 267.374 114.488C269.347 113.581 271.747 113.128 274.574 113.128C277.401 113.128 279.787 113.581 281.734 114.488C283.707 115.368 285.201 116.795 286.214 118.768C287.227 120.715 287.734 123.288 287.734 126.488C287.734 131.128 286.601 134.488 284.334 136.568C282.067 138.648 278.814 139.688 274.574 139.688ZM274.574 133.288C276.494 133.288 277.881 132.755 278.734 131.688C279.614 130.595 280.054 128.861 280.054 126.488C280.054 123.955 279.614 122.168 278.734 121.128C277.881 120.061 276.494 119.528 274.574 119.528C272.654 119.528 271.254 120.061 270.374 121.128C269.521 122.168 269.094 123.955 269.094 126.488C269.094 128.861 269.521 130.595 270.374 131.688C271.254 132.755 272.654 133.288 274.574 133.288ZM290.534 139.288V113.528H296.934L306.654 127.168V113.528H314.174V139.288H307.734L298.054 125.688V139.288H290.534ZM326.201 139.688C324.468 139.688 322.828 139.555 321.281 139.288C319.734 138.995 318.414 138.595 317.321 138.088V131.888C318.521 132.448 319.854 132.901 321.321 133.248C322.788 133.595 324.161 133.768 325.441 133.768C326.774 133.768 327.774 133.661 328.441 133.448C329.134 133.208 329.481 132.688 329.481 131.888C329.481 131.328 329.281 130.888 328.881 130.568C328.508 130.248 327.908 129.955 327.081 129.688C326.281 129.421 325.228 129.088 323.921 128.688C322.188 128.128 320.814 127.515 319.801 126.848C318.788 126.181 318.054 125.368 317.601 124.408C317.174 123.448 316.961 122.275 316.961 120.888C316.961 118.355 317.854 116.435 319.641 115.128C321.454 113.795 324.134 113.128 327.681 113.128C329.094 113.128 330.548 113.248 332.041 113.488C333.561 113.728 334.788 113.995 335.721 114.288V120.528C334.468 120.021 333.268 119.661 332.121 119.448C330.974 119.235 329.894 119.128 328.881 119.128C327.708 119.128 326.708 119.221 325.881 119.408C325.054 119.595 324.641 120.075 324.641 120.848C324.641 121.515 324.988 122.008 325.681 122.328C326.401 122.621 327.668 123.008 329.481 123.488C331.588 124.048 333.188 124.728 334.281 125.528C335.401 126.328 336.161 127.261 336.561 128.328C336.961 129.368 337.161 130.555 337.161 131.888C337.161 134.235 336.254 136.128 334.441 137.568C332.628 138.981 329.881 139.688 326.201 139.688ZM345.588 139.288V119.128H338.348V113.528H360.348V119.128H353.108V139.288H345.588ZM362.331 139.288V113.528H375.731C377.838 113.528 379.558 113.915 380.891 114.688C382.251 115.461 383.265 116.541 383.931 117.928C384.598 119.288 384.931 120.875 384.931 122.688C384.931 124.421 384.491 125.955 383.611 127.288C382.758 128.595 381.611 129.595 380.171 130.288C380.465 130.528 380.718 130.821 380.931 131.168C381.145 131.488 381.385 131.941 381.651 132.528L384.611 139.288H376.771L374.051 133.088C373.838 132.608 373.571 132.275 373.251 132.088C372.958 131.875 372.531 131.768 371.971 131.768H369.851V139.288H362.331ZM369.851 126.008H373.811C374.905 126.008 375.745 125.728 376.331 125.168C376.945 124.581 377.251 123.755 377.251 122.688C377.251 120.421 376.185 119.288 374.051 119.288H369.851V126.008ZM385.125 139.288L395.005 113.528H402.965L412.845 139.288H405.005L402.845 133.808H395.085L392.965 139.288H385.125ZM396.085 128.408H401.845L398.965 120.848L396.085 128.408ZM417.893 139.288V119.128H410.653V113.528H432.653V119.128H425.413V139.288H417.893ZM434.636 139.288V113.528H454.156V119.288H442.156V123.488H452.676V129.328H442.156V133.528H454.156V139.288H434.636ZM478.313 139.688C473.646 139.688 470.086 138.541 467.633 136.248C465.18 133.955 463.953 130.715 463.953 126.528C463.953 122.208 465.153 118.901 467.553 116.608C469.953 114.288 473.526 113.128 478.273 113.128C479.873 113.128 481.3 113.248 482.553 113.488C483.806 113.728 485.006 114.061 486.153 114.488V121.048C483.86 120.035 481.406 119.528 478.793 119.528C476.366 119.528 474.566 120.088 473.393 121.208C472.22 122.301 471.633 124.075 471.633 126.528C471.633 128.928 472.246 130.661 473.473 131.728C474.726 132.768 476.526 133.288 478.873 133.288C480.153 133.288 481.393 133.168 482.593 132.928C483.82 132.688 485.033 132.315 486.233 131.808V138.408C485.086 138.808 483.873 139.115 482.593 139.328C481.34 139.568 479.913 139.688 478.313 139.688ZM501.019 139.688C496.753 139.688 493.486 138.648 491.219 136.568C488.979 134.488 487.859 131.128 487.859 126.488C487.859 123.288 488.366 120.715 489.379 118.768C490.393 116.795 491.873 115.368 493.819 114.488C495.793 113.581 498.193 113.128 501.019 113.128C503.846 113.128 506.233 113.581 508.179 114.488C510.153 115.368 511.646 116.795 512.659 118.768C513.673 120.715 514.179 123.288 514.179 126.488C514.179 131.128 513.046 134.488 510.779 136.568C508.513 138.648 505.259 139.688 501.019 139.688ZM501.019 133.288C502.939 133.288 504.326 132.755 505.179 131.688C506.059 130.595 506.499 128.861 506.499 126.488C506.499 123.955 506.059 122.168 505.179 121.128C504.326 120.061 502.939 119.528 501.019 119.528C499.099 119.528 497.699 120.061 496.819 121.128C495.966 122.168 495.539 123.955 495.539 126.488C495.539 128.861 495.966 130.595 496.819 131.688C497.699 132.755 499.099 133.288 501.019 133.288ZM516.98 139.288V113.528H523.38L533.1 127.168V113.528H540.62V139.288H534.18L524.5 125.688V139.288H516.98ZM552.646 139.688C550.913 139.688 549.273 139.555 547.726 139.288C546.18 138.995 544.86 138.595 543.766 138.088V131.888C544.966 132.448 546.3 132.901 547.766 133.248C549.233 133.595 550.606 133.768 551.886 133.768C553.22 133.768 554.22 133.661 554.886 133.448C555.58 133.208 555.926 132.688 555.926 131.888C555.926 131.328 555.726 130.888 555.326 130.568C554.953 130.248 554.353 129.955 553.526 129.688C552.726 129.421 551.673 129.088 550.366 128.688C548.633 128.128 547.26 127.515 546.246 126.848C545.233 126.181 544.5 125.368 544.046 124.408C543.62 123.448 543.406 122.275 543.406 120.888C543.406 118.355 544.3 116.435 546.086 115.128C547.9 113.795 550.58 113.128 554.126 113.128C555.54 113.128 556.993 113.248 558.486 113.488C560.006 113.728 561.233 113.995 562.166 114.288V120.528C560.913 120.021 559.713 119.661 558.566 119.448C557.42 119.235 556.34 119.128 555.326 119.128C554.153 119.128 553.153 119.221 552.326 119.408C551.5 119.595 551.086 120.075 551.086 120.848C551.086 121.515 551.433 122.008 552.126 122.328C552.846 122.621 554.113 123.008 555.926 123.488C558.033 124.048 559.633 124.728 560.726 125.528C561.846 126.328 562.606 127.261 563.006 128.328C563.406 129.368 563.606 130.555 563.606 131.888C563.606 134.235 562.7 136.128 560.886 137.568C559.073 138.981 556.326 139.688 552.646 139.688ZM566.394 139.288V113.528H573.914V139.288H566.394ZM585.967 139.688C584.233 139.688 582.593 139.555 581.047 139.288C579.5 138.995 578.18 138.595 577.087 138.088V131.888C578.287 132.448 579.62 132.901 581.087 133.248C582.553 133.595 583.927 133.768 585.207 133.768C586.54 133.768 587.54 133.661 588.207 133.448C588.9 133.208 589.247 132.688 589.247 131.888C589.247 131.328 589.047 130.888 588.647 130.568C588.273 130.248 587.673 129.955 586.847 129.688C586.047 129.421 584.993 129.088 583.687 128.688C581.953 128.128 580.58 127.515 579.567 126.848C578.553 126.181 577.82 125.368 577.367 124.408C576.94 123.448 576.727 122.275 576.727 120.888C576.727 118.355 577.62 116.435 579.407 115.128C581.22 113.795 583.9 113.128 587.447 113.128C588.86 113.128 590.313 113.248 591.807 113.488C593.327 113.728 594.553 113.995 595.487 114.288V120.528C594.233 120.021 593.033 119.661 591.887 119.448C590.74 119.235 589.66 119.128 588.647 119.128C587.473 119.128 586.473 119.221 585.647 119.408C584.82 119.595 584.407 120.075 584.407 120.848C584.407 121.515 584.753 122.008 585.447 122.328C586.167 122.621 587.433 123.008 589.247 123.488C591.353 124.048 592.953 124.728 594.047 125.528C595.167 126.328 595.927 127.261 596.327 128.328C596.727 129.368 596.927 130.555 596.927 131.888C596.927 134.235 596.02 136.128 594.207 137.568C592.393 138.981 589.647 139.688 585.967 139.688ZM605.354 139.288V119.128H598.114V113.528H620.114V119.128H612.874V139.288H605.354ZM622.097 139.288V113.528H641.617V119.288H629.617V123.488H640.137V129.328H629.617V133.528H641.617V139.288H622.097ZM644.011 139.288V113.528H650.411L660.131 127.168V113.528H667.651V139.288H661.211L651.531 125.688V139.288H644.011ZM684.798 139.688C680.131 139.688 676.571 138.541 674.118 136.248C671.664 133.955 670.438 130.715 670.438 126.528C670.438 122.208 671.638 118.901 674.038 116.608C676.438 114.288 680.011 113.128 684.758 113.128C686.358 113.128 687.784 113.248 689.038 113.488C690.291 113.728 691.491 114.061 692.638 114.488V121.048C690.344 120.035 687.891 119.528 685.278 119.528C682.851 119.528 681.051 120.088 679.878 121.208C678.704 122.301 678.118 124.075 678.118 126.528C678.118 128.928 678.731 130.661 679.958 131.728C681.211 132.768 683.011 133.288 685.358 133.288C686.638 133.288 687.878 133.168 689.078 132.928C690.304 132.688 691.518 132.315 692.718 131.808V138.408C691.571 138.808 690.358 139.115 689.078 139.328C687.824 139.568 686.398 139.688 684.798 139.688ZM702.999 139.288V129.848L693.719 113.528H701.559L706.759 123.248L711.959 113.528H719.799L710.519 129.848V139.288H702.999Z" fill="#F29DAA"/>
<path d="M186.364 183.535C184.53 183.535 183.056 183.301 181.942 182.831V180.719C182.572 180.954 183.247 181.145 183.966 181.291C184.699 181.438 185.425 181.511 186.144 181.511C187.273 181.511 188.116 181.379 188.674 181.115C189.246 180.851 189.532 180.323 189.532 179.531C189.532 179.047 189.414 178.659 189.18 178.365C188.945 178.072 188.556 177.823 188.014 177.617C187.471 177.397 186.723 177.17 185.77 176.935C184.244 176.539 183.174 176.041 182.558 175.439C181.942 174.823 181.634 173.98 181.634 172.909C181.634 171.663 182.088 170.687 182.998 169.983C183.907 169.279 185.264 168.927 187.068 168.927C187.889 168.927 188.659 168.986 189.378 169.103C190.111 169.221 190.683 169.353 191.094 169.499V171.611C189.979 171.186 188.747 170.973 187.398 170.973C186.342 170.973 185.52 171.113 184.934 171.391C184.347 171.67 184.054 172.176 184.054 172.909C184.054 173.335 184.156 173.679 184.362 173.943C184.567 174.207 184.919 174.435 185.418 174.625C185.931 174.816 186.635 175.029 187.53 175.263C188.688 175.557 189.583 175.909 190.214 176.319C190.859 176.715 191.306 177.185 191.556 177.727C191.82 178.255 191.952 178.857 191.952 179.531C191.952 180.778 191.49 181.761 190.566 182.479C189.642 183.183 188.241 183.535 186.364 183.535ZM197.21 183.535C196.55 183.535 195.934 183.418 195.362 183.183C194.805 182.949 194.358 182.597 194.02 182.127C193.683 181.643 193.514 181.049 193.514 180.345C193.514 179.348 193.852 178.549 194.526 177.947C195.216 177.331 196.272 177.023 197.694 177.023H201.038V176.561C201.038 176.063 200.958 175.667 200.796 175.373C200.65 175.08 200.371 174.867 199.96 174.735C199.564 174.603 198.978 174.537 198.2 174.537C196.968 174.537 195.817 174.721 194.746 175.087V173.305C195.216 173.115 195.788 172.961 196.462 172.843C197.137 172.726 197.863 172.667 198.64 172.667C200.166 172.667 201.324 172.975 202.116 173.591C202.923 174.207 203.326 175.212 203.326 176.605V183.315H201.28L201.126 182.259C200.701 182.67 200.173 182.985 199.542 183.205C198.926 183.425 198.149 183.535 197.21 183.535ZM197.848 181.819C198.567 181.819 199.19 181.702 199.718 181.467C200.261 181.218 200.701 180.888 201.038 180.477V178.651H197.738C197.034 178.651 196.521 178.791 196.198 179.069C195.89 179.333 195.736 179.744 195.736 180.301C195.736 180.844 195.92 181.233 196.286 181.467C196.653 181.702 197.174 181.819 197.848 181.819ZM208.582 183.535C207.731 183.535 207.086 183.33 206.646 182.919C206.206 182.494 205.986 181.797 205.986 180.829V168.487H208.384V180.609C208.384 181.02 208.457 181.299 208.604 181.445C208.75 181.592 208.97 181.665 209.264 181.665C209.616 181.665 209.953 181.621 210.276 181.533V183.271C209.997 183.374 209.726 183.44 209.462 183.469C209.212 183.513 208.919 183.535 208.582 183.535ZM217.432 183.535C215.613 183.535 214.205 183.088 213.208 182.193C212.21 181.299 211.712 179.927 211.712 178.079C211.712 176.407 212.137 175.087 212.988 174.119C213.838 173.151 215.129 172.667 216.86 172.667C218.444 172.667 219.632 173.085 220.424 173.921C221.23 174.743 221.634 175.806 221.634 177.111V179.047H214C214.117 180.059 214.484 180.756 215.1 181.137C215.716 181.519 216.654 181.709 217.916 181.709C218.444 181.709 218.986 181.658 219.544 181.555C220.101 181.453 220.585 181.321 220.996 181.159V182.919C220.526 183.125 219.984 183.279 219.368 183.381C218.766 183.484 218.121 183.535 217.432 183.535ZM214 177.485H219.522V176.759C219.522 176.041 219.324 175.483 218.928 175.087C218.532 174.677 217.864 174.471 216.926 174.471C215.811 174.471 215.041 174.713 214.616 175.197C214.205 175.681 214 176.444 214 177.485ZM227.337 183.535C226.618 183.535 225.929 183.484 225.269 183.381C224.623 183.279 224.088 183.154 223.663 183.007V180.983C224.161 181.174 224.711 181.321 225.313 181.423C225.914 181.526 226.486 181.577 227.029 181.577C227.85 181.577 228.437 181.504 228.789 181.357C229.141 181.211 229.317 180.925 229.317 180.499C229.317 180.191 229.207 179.949 228.987 179.773C228.781 179.597 228.466 179.436 228.041 179.289C227.63 179.143 227.102 178.967 226.457 178.761C225.841 178.556 225.305 178.336 224.851 178.101C224.396 177.852 224.044 177.537 223.795 177.155C223.545 176.774 223.421 176.275 223.421 175.659C223.421 174.706 223.765 173.973 224.455 173.459C225.144 172.931 226.251 172.667 227.777 172.667C228.378 172.667 228.95 172.711 229.493 172.799C230.035 172.887 230.497 172.997 230.879 173.129V175.131C230.468 174.97 230.013 174.845 229.515 174.757C229.031 174.669 228.576 174.625 228.151 174.625C227.388 174.625 226.809 174.691 226.413 174.823C226.031 174.955 225.841 175.219 225.841 175.615C225.841 176.026 226.039 176.319 226.435 176.495C226.845 176.657 227.498 176.884 228.393 177.177C229.214 177.427 229.867 177.691 230.351 177.969C230.835 178.248 231.179 178.585 231.385 178.981C231.605 179.363 231.715 179.861 231.715 180.477C231.715 181.504 231.341 182.274 230.593 182.787C229.845 183.286 228.759 183.535 227.337 183.535ZM239.136 183.315V169.147H245.45C246.535 169.147 247.43 169.353 248.134 169.763C248.838 170.174 249.359 170.739 249.696 171.457C250.033 172.161 250.202 172.968 250.202 173.877C250.202 175.285 249.762 176.415 248.882 177.265C248.017 178.116 246.843 178.541 245.362 178.541H241.534V183.315H239.136ZM241.534 176.649H244.922C245.875 176.649 246.594 176.4 247.078 175.901C247.562 175.403 247.804 174.728 247.804 173.877C247.804 172.968 247.569 172.264 247.1 171.765C246.645 171.267 245.956 171.017 245.032 171.017H241.534V176.649ZM257.393 183.535C255.574 183.535 254.166 183.088 253.169 182.193C252.171 181.299 251.673 179.927 251.673 178.079C251.673 176.407 252.098 175.087 252.949 174.119C253.799 173.151 255.09 172.667 256.821 172.667C258.405 172.667 259.593 173.085 260.385 173.921C261.191 174.743 261.595 175.806 261.595 177.111V179.047H253.961C254.078 180.059 254.445 180.756 255.061 181.137C255.677 181.519 256.615 181.709 257.877 181.709C258.405 181.709 258.947 181.658 259.505 181.555C260.062 181.453 260.546 181.321 260.957 181.159V182.919C260.487 183.125 259.945 183.279 259.329 183.381C258.727 183.484 258.082 183.535 257.393 183.535ZM253.961 177.485H259.483V176.759C259.483 176.041 259.285 175.483 258.889 175.087C258.493 174.677 257.825 174.471 256.887 174.471C255.772 174.471 255.002 174.713 254.577 175.197C254.166 175.681 253.961 176.444 253.961 177.485ZM263.929 183.315V172.887H266.129L266.261 174.097C266.76 173.775 267.354 173.481 268.043 173.217C268.732 172.953 269.414 172.77 270.089 172.667V174.493C269.678 174.567 269.231 174.677 268.747 174.823C268.278 174.955 267.83 175.109 267.405 175.285C266.98 175.447 266.62 175.615 266.327 175.791V183.315H263.929ZM272.473 183.315V174.757H270.955V172.887H272.473V171.611C272.473 170.57 272.759 169.734 273.331 169.103C273.918 168.458 274.783 168.135 275.927 168.135C276.353 168.135 276.741 168.172 277.093 168.245C277.445 168.304 277.768 168.392 278.061 168.509V170.225C277.607 170.064 277.145 169.983 276.675 169.983C275.986 169.983 275.509 170.108 275.245 170.357C274.981 170.607 274.849 171.032 274.849 171.633V172.887H277.577L277.467 174.757H274.849V183.315H272.473ZM283.984 183.535C282.106 183.535 280.728 183.066 279.848 182.127C278.982 181.189 278.55 179.847 278.55 178.101C278.55 176.356 278.99 175.014 279.87 174.075C280.75 173.137 282.121 172.667 283.984 172.667C285.861 172.667 287.24 173.137 288.12 174.075C289 175.014 289.44 176.356 289.44 178.101C289.44 179.847 289 181.189 288.12 182.127C287.254 183.066 285.876 183.535 283.984 183.535ZM283.984 181.511C285.084 181.511 285.861 181.247 286.316 180.719C286.785 180.177 287.02 179.304 287.02 178.101C287.02 176.899 286.785 176.033 286.316 175.505C285.861 174.977 285.084 174.713 283.984 174.713C282.898 174.713 282.121 174.977 281.652 175.505C281.197 176.033 280.97 176.899 280.97 178.101C280.97 179.304 281.197 180.177 281.652 180.719C282.121 181.247 282.898 181.511 283.984 181.511ZM291.773 183.315V172.887H293.973L294.105 174.097C294.603 173.775 295.197 173.481 295.887 173.217C296.576 172.953 297.258 172.77 297.933 172.667V174.493C297.522 174.567 297.075 174.677 296.591 174.823C296.121 174.955 295.674 175.109 295.249 175.285C294.823 175.447 294.464 175.615 294.171 175.791V183.315H291.773ZM299.679 183.315V172.887H301.879L301.989 173.987C302.502 173.577 303.067 173.254 303.683 173.019C304.299 172.785 304.959 172.667 305.663 172.667C306.411 172.667 306.99 172.792 307.401 173.041C307.826 173.276 308.149 173.606 308.369 174.031C308.853 173.635 309.41 173.313 310.041 173.063C310.672 172.799 311.427 172.667 312.307 172.667C313.51 172.667 314.397 172.975 314.969 173.591C315.541 174.207 315.827 175.153 315.827 176.429V183.315H313.473V176.671C313.473 175.865 313.304 175.3 312.967 174.977C312.63 174.655 312.08 174.493 311.317 174.493C310.818 174.493 310.342 174.581 309.887 174.757C309.447 174.933 309.066 175.197 308.743 175.549C308.787 175.711 308.816 175.879 308.831 176.055C308.846 176.231 308.853 176.422 308.853 176.627V183.315H306.631V176.693C306.631 175.931 306.499 175.373 306.235 175.021C305.971 174.669 305.472 174.493 304.739 174.493C304.226 174.493 303.734 174.618 303.265 174.867C302.81 175.102 302.4 175.388 302.033 175.725V183.315H299.679ZM321.455 183.535C320.795 183.535 320.179 183.418 319.607 183.183C319.049 182.949 318.602 182.597 318.264 182.127C317.927 181.643 317.759 181.049 317.759 180.345C317.759 179.348 318.096 178.549 318.771 177.947C319.46 177.331 320.516 177.023 321.939 177.023H325.283V176.561C325.283 176.063 325.202 175.667 325.041 175.373C324.894 175.08 324.615 174.867 324.205 174.735C323.809 174.603 323.222 174.537 322.445 174.537C321.213 174.537 320.061 174.721 318.991 175.087V173.305C319.46 173.115 320.032 172.961 320.707 172.843C321.381 172.726 322.107 172.667 322.885 172.667C324.41 172.667 325.569 172.975 326.361 173.591C327.167 174.207 327.571 175.212 327.571 176.605V183.315H325.525L325.371 182.259C324.945 182.67 324.417 182.985 323.787 183.205C323.171 183.425 322.393 183.535 321.455 183.535ZM322.093 181.819C322.811 181.819 323.435 181.702 323.963 181.467C324.505 181.218 324.945 180.888 325.283 180.477V178.651H321.983C321.279 178.651 320.765 178.791 320.443 179.069C320.135 179.333 319.981 179.744 319.981 180.301C319.981 180.844 320.164 181.233 320.531 181.467C320.897 181.702 321.418 181.819 322.093 181.819ZM330.23 183.315V172.887H332.43L332.54 173.987C333.009 173.621 333.566 173.313 334.212 173.063C334.872 172.799 335.598 172.667 336.39 172.667C337.739 172.667 338.722 172.983 339.338 173.613C339.954 174.244 340.262 175.227 340.262 176.561V183.315H337.886V176.671C337.886 175.865 337.717 175.3 337.38 174.977C337.057 174.655 336.441 174.493 335.532 174.493C334.989 174.493 334.454 174.603 333.926 174.823C333.412 175.043 332.98 175.329 332.628 175.681V183.315H330.23ZM347.86 183.535C346.026 183.535 344.64 183.073 343.702 182.149C342.763 181.211 342.294 179.861 342.294 178.101C342.294 176.268 342.807 174.904 343.834 174.009C344.875 173.115 346.261 172.667 347.992 172.667C348.71 172.667 349.312 172.719 349.796 172.821C350.294 172.924 350.771 173.085 351.226 173.305V175.087C350.463 174.706 349.539 174.515 348.454 174.515C347.251 174.515 346.327 174.787 345.682 175.329C345.036 175.857 344.714 176.781 344.714 178.101C344.714 179.348 345 180.265 345.572 180.851C346.144 181.423 347.09 181.709 348.41 181.709C349.451 181.709 350.397 181.511 351.248 181.115V182.941C350.764 183.132 350.243 183.279 349.686 183.381C349.143 183.484 348.534 183.535 347.86 183.535ZM358.434 183.535C356.615 183.535 355.207 183.088 354.21 182.193C353.212 181.299 352.714 179.927 352.714 178.079C352.714 176.407 353.139 175.087 353.99 174.119C354.84 173.151 356.131 172.667 357.862 172.667C359.446 172.667 360.634 173.085 361.426 173.921C362.232 174.743 362.636 175.806 362.636 177.111V179.047H355.002C355.119 180.059 355.486 180.756 356.102 181.137C356.718 181.519 357.656 181.709 358.918 181.709C359.446 181.709 359.988 181.658 360.546 181.555C361.103 181.453 361.587 181.321 361.998 181.159V182.919C361.528 183.125 360.986 183.279 360.37 183.381C359.768 183.484 359.123 183.535 358.434 183.535ZM355.002 177.485H360.524V176.759C360.524 176.041 360.326 175.483 359.93 175.087C359.534 174.677 358.866 174.471 357.928 174.471C356.813 174.471 356.043 174.713 355.618 175.197C355.207 175.681 355.002 176.444 355.002 177.485ZM363.542 185.955L364.202 181.797H366.292L365.28 185.955H363.542ZM373.693 183.315V169.147H380.557C381.965 169.147 383.006 169.477 383.681 170.137C384.355 170.797 384.693 171.729 384.693 172.931C384.693 173.694 384.539 174.339 384.231 174.867C383.923 175.381 383.512 175.769 382.999 176.033C383.688 176.224 384.231 176.569 384.627 177.067C385.037 177.551 385.243 178.27 385.243 179.223C385.243 180.602 384.869 181.629 384.121 182.303C383.387 182.978 382.302 183.315 380.865 183.315H373.693ZM376.091 175.197H380.227C381.033 175.197 381.605 175.014 381.943 174.647C382.295 174.266 382.471 173.76 382.471 173.129C382.471 172.396 382.295 171.853 381.943 171.501C381.591 171.135 380.931 170.951 379.963 170.951H376.091V175.197ZM376.091 181.555H380.359C381.209 181.555 381.833 181.379 382.229 181.027C382.625 180.661 382.823 180.03 382.823 179.135C382.823 178.402 382.625 177.859 382.229 177.507C381.847 177.141 381.143 176.957 380.117 176.957H376.091V181.555ZM392.566 183.535C390.688 183.535 389.31 183.066 388.43 182.127C387.564 181.189 387.132 179.847 387.132 178.101C387.132 176.356 387.572 175.014 388.452 174.075C389.332 173.137 390.703 172.667 392.566 172.667C394.443 172.667 395.822 173.137 396.702 174.075C397.582 175.014 398.022 176.356 398.022 178.101C398.022 179.847 397.582 181.189 396.702 182.127C395.836 183.066 394.458 183.535 392.566 183.535ZM392.566 181.511C393.666 181.511 394.443 181.247 394.898 180.719C395.367 180.177 395.602 179.304 395.602 178.101C395.602 176.899 395.367 176.033 394.898 175.505C394.443 174.977 393.666 174.713 392.566 174.713C391.48 174.713 390.703 174.977 390.234 175.505C389.779 176.033 389.552 176.899 389.552 178.101C389.552 179.304 389.779 180.177 390.234 180.719C390.703 181.247 391.48 181.511 392.566 181.511ZM405.349 183.535C403.471 183.535 402.093 183.066 401.213 182.127C400.347 181.189 399.915 179.847 399.915 178.101C399.915 176.356 400.355 175.014 401.235 174.075C402.115 173.137 403.486 172.667 405.349 172.667C407.226 172.667 408.605 173.137 409.485 174.075C410.365 175.014 410.805 176.356 410.805 178.101C410.805 179.847 410.365 181.189 409.485 182.127C408.619 183.066 407.241 183.535 405.349 183.535ZM405.349 181.511C406.449 181.511 407.226 181.247 407.681 180.719C408.15 180.177 408.385 179.304 408.385 178.101C408.385 176.899 408.15 176.033 407.681 175.505C407.226 174.977 406.449 174.713 405.349 174.713C404.263 174.713 403.486 174.977 403.017 175.505C402.562 176.033 402.335 176.899 402.335 178.101C402.335 179.304 402.562 180.177 403.017 180.719C403.486 181.247 404.263 181.511 405.349 181.511ZM416.507 183.535C415.788 183.535 415.099 183.484 414.439 183.381C413.793 183.279 413.258 183.154 412.833 183.007V180.983C413.331 181.174 413.881 181.321 414.483 181.423C415.084 181.526 415.656 181.577 416.199 181.577C417.02 181.577 417.607 181.504 417.959 181.357C418.311 181.211 418.487 180.925 418.487 180.499C418.487 180.191 418.377 179.949 418.157 179.773C417.951 179.597 417.636 179.436 417.211 179.289C416.8 179.143 416.272 178.967 415.627 178.761C415.011 178.556 414.475 178.336 414.021 178.101C413.566 177.852 413.214 177.537 412.965 177.155C412.715 176.774 412.591 176.275 412.591 175.659C412.591 174.706 412.935 173.973 413.625 173.459C414.314 172.931 415.421 172.667 416.947 172.667C417.548 172.667 418.12 172.711 418.663 172.799C419.205 172.887 419.667 172.997 420.049 173.129V175.131C419.638 174.97 419.183 174.845 418.685 174.757C418.201 174.669 417.746 174.625 417.321 174.625C416.558 174.625 415.979 174.691 415.583 174.823C415.201 174.955 415.011 175.219 415.011 175.615C415.011 176.026 415.209 176.319 415.605 176.495C416.015 176.657 416.668 176.884 417.563 177.177C418.384 177.427 419.037 177.691 419.521 177.969C420.005 178.248 420.349 178.585 420.555 178.981C420.775 179.363 420.885 179.861 420.885 180.477C420.885 181.504 420.511 182.274 419.763 182.787C419.015 183.286 417.929 183.535 416.507 183.535ZM426.895 183.535C425.781 183.535 424.945 183.242 424.387 182.655C423.845 182.054 423.573 181.24 423.573 180.213V174.757H422.033V172.887H423.573V170.489L425.949 169.763V172.887H428.721L428.567 174.757H425.949V180.081C425.949 180.683 426.089 181.108 426.367 181.357C426.646 181.592 427.101 181.709 427.731 181.709C428.127 181.709 428.545 181.636 428.985 181.489V183.183C428.413 183.418 427.717 183.535 426.895 183.535ZM436.1 183.535C434.281 183.535 432.873 183.088 431.876 182.193C430.878 181.299 430.38 179.927 430.38 178.079C430.38 176.407 430.805 175.087 431.656 174.119C432.506 173.151 433.797 172.667 435.528 172.667C437.112 172.667 438.3 173.085 439.092 173.921C439.898 174.743 440.302 175.806 440.302 177.111V179.047H432.668C432.785 180.059 433.152 180.756 433.768 181.137C434.384 181.519 435.322 181.709 436.584 181.709C437.112 181.709 437.654 181.658 438.212 181.555C438.769 181.453 439.253 181.321 439.664 181.159V182.919C439.194 183.125 438.652 183.279 438.036 183.381C437.434 183.484 436.789 183.535 436.1 183.535ZM432.668 177.485H438.19V176.759C438.19 176.041 437.992 175.483 437.596 175.087C437.2 174.677 436.532 174.471 435.594 174.471C434.479 174.471 433.709 174.713 433.284 175.197C432.873 175.681 432.668 176.444 432.668 177.485ZM442.636 183.315V172.887H444.836L444.968 174.097C445.467 173.775 446.061 173.481 446.75 173.217C447.439 172.953 448.121 172.77 448.796 172.667V174.493C448.385 174.567 447.938 174.677 447.454 174.823C446.985 174.955 446.537 175.109 446.112 175.285C445.687 175.447 445.327 175.615 445.034 175.791V183.315H442.636ZM455.613 183.315V169.147H465.491V171.017H458.011V175.307H464.677V177.155H458.011V181.467H465.491V183.315H455.613ZM470.287 183.315L466.173 172.887H468.659L471.585 180.983L474.511 172.887H476.975L472.883 183.315H470.287ZM483.408 183.535C481.59 183.535 480.182 183.088 479.184 182.193C478.187 181.299 477.688 179.927 477.688 178.079C477.688 176.407 478.114 175.087 478.964 174.119C479.815 173.151 481.106 172.667 482.836 172.667C484.42 172.667 485.608 173.085 486.4 173.921C487.207 174.743 487.61 175.806 487.61 177.111V179.047H479.976C480.094 180.059 480.46 180.756 481.076 181.137C481.692 181.519 482.631 181.709 483.892 181.709C484.42 181.709 484.963 181.658 485.52 181.555C486.078 181.453 486.562 181.321 486.972 181.159V182.919C486.503 183.125 485.96 183.279 485.344 183.381C484.743 183.484 484.098 183.535 483.408 183.535ZM479.976 177.485H485.498V176.759C485.498 176.041 485.3 175.483 484.904 175.087C484.508 174.677 483.841 174.471 482.902 174.471C481.788 174.471 481.018 174.713 480.592 175.197C480.182 175.681 479.976 176.444 479.976 177.485ZM489.945 183.315V172.887H492.145L492.255 173.987C492.724 173.621 493.281 173.313 493.927 173.063C494.587 172.799 495.313 172.667 496.105 172.667C497.454 172.667 498.437 172.983 499.053 173.613C499.669 174.244 499.977 175.227 499.977 176.561V183.315H497.601V176.671C497.601 175.865 497.432 175.3 497.095 174.977C496.772 174.655 496.156 174.493 495.247 174.493C494.704 174.493 494.169 174.603 493.641 174.823C493.127 175.043 492.695 175.329 492.343 175.681V183.315H489.945ZM506.645 183.535C505.531 183.535 504.695 183.242 504.137 182.655C503.595 182.054 503.323 181.24 503.323 180.213V174.757H501.783V172.887H503.323V170.489L505.699 169.763V172.887H508.471L508.317 174.757H505.699V180.081C505.699 180.683 505.839 181.108 506.117 181.357C506.396 181.592 506.851 181.709 507.481 181.709C507.877 181.709 508.295 181.636 508.735 181.489V183.183C508.163 183.418 507.467 183.535 506.645 183.535ZM514.046 183.535C513.327 183.535 512.638 183.484 511.978 183.381C511.332 183.279 510.797 183.154 510.372 183.007V180.983C510.87 181.174 511.42 181.321 512.022 181.423C512.623 181.526 513.195 181.577 513.738 181.577C514.559 181.577 515.146 181.504 515.498 181.357C515.85 181.211 516.026 180.925 516.026 180.499C516.026 180.191 515.916 179.949 515.696 179.773C515.49 179.597 515.175 179.436 514.75 179.289C514.339 179.143 513.811 178.967 513.166 178.761C512.55 178.556 512.014 178.336 511.56 178.101C511.105 177.852 510.753 177.537 510.504 177.155C510.254 176.774 510.13 176.275 510.13 175.659C510.13 174.706 510.474 173.973 511.164 173.459C511.853 172.931 512.96 172.667 514.486 172.667C515.087 172.667 515.659 172.711 516.202 172.799C516.744 172.887 517.206 172.997 517.588 173.129V175.131C517.177 174.97 516.722 174.845 516.224 174.757C515.74 174.669 515.285 174.625 514.86 174.625C514.097 174.625 513.518 174.691 513.122 174.823C512.74 174.955 512.55 175.219 512.55 175.615C512.55 176.026 512.748 176.319 513.144 176.495C513.554 176.657 514.207 176.884 515.102 177.177C515.923 177.427 516.576 177.691 517.06 177.969C517.544 178.248 517.888 178.585 518.094 178.981C518.314 179.363 518.424 179.861 518.424 180.477C518.424 181.504 518.05 182.274 517.302 182.787C516.554 183.286 515.468 183.535 514.046 183.535ZM520.335 185.955L520.995 181.797H523.085L522.073 185.955H520.335ZM530.068 183.315L535.48 169.147H538.164L543.532 183.315H541.068L539.66 179.663H533.962L532.554 183.315H530.068ZM534.336 177.815H539.264L536.8 171.325L534.336 177.815ZM545.89 183.315V172.887H548.09L548.2 173.987C548.669 173.621 549.227 173.313 549.872 173.063C550.532 172.799 551.258 172.667 552.05 172.667C553.399 172.667 554.382 172.983 554.998 173.613C555.614 174.244 555.922 175.227 555.922 176.561V183.315H553.546V176.671C553.546 175.865 553.377 175.3 553.04 174.977C552.717 174.655 552.101 174.493 551.192 174.493C550.649 174.493 550.114 174.603 549.586 174.823C549.073 175.043 548.64 175.329 548.288 175.681V183.315H545.89ZM562.706 183.535C561.767 183.535 560.938 183.374 560.22 183.051C559.501 182.729 558.944 182.193 558.548 181.445C558.152 180.697 557.954 179.693 557.954 178.431C557.954 177.185 558.166 176.136 558.592 175.285C559.017 174.42 559.604 173.767 560.352 173.327C561.114 172.887 561.972 172.667 562.926 172.667C563.556 172.667 564.114 172.741 564.598 172.887C565.096 173.034 565.573 173.261 566.028 173.569V168.487H568.426V183.315H566.38L566.226 182.281C565.756 182.707 565.243 183.022 564.686 183.227C564.128 183.433 563.468 183.535 562.706 183.535ZM563.344 181.731C564.414 181.731 565.309 181.365 566.028 180.631V175.417C565.338 174.801 564.473 174.493 563.432 174.493C562.42 174.493 561.657 174.831 561.144 175.505C560.63 176.18 560.374 177.163 560.374 178.453C560.374 179.7 560.608 180.558 561.078 181.027C561.562 181.497 562.317 181.731 563.344 181.731ZM580.559 183.535C578.725 183.535 577.251 183.301 576.137 182.831V180.719C576.767 180.954 577.442 181.145 578.161 181.291C578.894 181.438 579.62 181.511 580.339 181.511C581.468 181.511 582.311 181.379 582.869 181.115C583.441 180.851 583.727 180.323 583.727 179.531C583.727 179.047 583.609 178.659 583.375 178.365C583.14 178.072 582.751 177.823 582.209 177.617C581.666 177.397 580.918 177.17 579.965 176.935C578.439 176.539 577.369 176.041 576.753 175.439C576.137 174.823 575.829 173.98 575.829 172.909C575.829 171.663 576.283 170.687 577.193 169.983C578.102 169.279 579.459 168.927 581.263 168.927C582.084 168.927 582.854 168.986 583.573 169.103C584.306 169.221 584.878 169.353 585.289 169.499V171.611C584.174 171.186 582.942 170.973 581.593 170.973C580.537 170.973 579.715 171.113 579.129 171.391C578.542 171.67 578.249 172.176 578.249 172.909C578.249 173.335 578.351 173.679 578.557 173.943C578.762 174.207 579.114 174.435 579.613 174.625C580.126 174.816 580.83 175.029 581.725 175.263C582.883 175.557 583.778 175.909 584.409 176.319C585.054 176.715 585.501 177.185 585.751 177.727C586.015 178.255 586.147 178.857 586.147 179.531C586.147 180.778 585.685 181.761 584.761 182.479C583.837 183.183 582.436 183.535 580.559 183.535ZM592.132 183.535C591.017 183.535 590.181 183.242 589.624 182.655C589.081 182.054 588.81 181.24 588.81 180.213V174.757H587.27V172.887H588.81V170.489L591.186 169.763V172.887H593.958L593.804 174.757H591.186V180.081C591.186 180.683 591.325 181.108 591.604 181.357C591.882 181.592 592.337 181.709 592.968 181.709C593.364 181.709 593.782 181.636 594.222 181.489V183.183C593.65 183.418 592.953 183.535 592.132 183.535ZM596.056 183.315V172.887H598.256L598.388 174.097C598.887 173.775 599.481 173.481 600.17 173.217C600.859 172.953 601.541 172.77 602.216 172.667V174.493C601.805 174.567 601.358 174.677 600.874 174.823C600.405 174.955 599.957 175.109 599.532 175.285C599.107 175.447 598.747 175.615 598.454 175.791V183.315H596.056ZM608.812 183.535C606.994 183.535 605.586 183.088 604.588 182.193C603.591 181.299 603.092 179.927 603.092 178.079C603.092 176.407 603.518 175.087 604.368 174.119C605.219 173.151 606.51 172.667 608.24 172.667C609.824 172.667 611.012 173.085 611.804 173.921C612.611 174.743 613.014 175.806 613.014 177.111V179.047H605.38C605.498 180.059 605.864 180.756 606.48 181.137C607.096 181.519 608.035 181.709 609.296 181.709C609.824 181.709 610.367 181.658 610.924 181.555C611.482 181.453 611.966 181.321 612.376 181.159V182.919C611.907 183.125 611.364 183.279 610.748 183.381C610.147 183.484 609.502 183.535 608.812 183.535ZM605.38 177.485H610.902V176.759C610.902 176.041 610.704 175.483 610.308 175.087C609.912 174.677 609.245 174.471 608.306 174.471C607.192 174.471 606.422 174.713 605.996 175.197C605.586 175.681 605.38 176.444 605.38 177.485ZM618.605 183.535C617.945 183.535 617.329 183.418 616.757 183.183C616.2 182.949 615.752 182.597 615.415 182.127C615.078 181.643 614.909 181.049 614.909 180.345C614.909 179.348 615.246 178.549 615.921 177.947C616.61 177.331 617.666 177.023 619.089 177.023H622.433V176.561C622.433 176.063 622.352 175.667 622.191 175.373C622.044 175.08 621.766 174.867 621.355 174.735C620.959 174.603 620.372 174.537 619.595 174.537C618.363 174.537 617.212 174.721 616.141 175.087V173.305C616.61 173.115 617.182 172.961 617.857 172.843C618.532 172.726 619.258 172.667 620.035 172.667C621.56 172.667 622.719 172.975 623.511 173.591C624.318 174.207 624.721 175.212 624.721 176.605V183.315H622.675L622.521 182.259C622.096 182.67 621.568 182.985 620.937 183.205C620.321 183.425 619.544 183.535 618.605 183.535ZM619.243 181.819C619.962 181.819 620.585 181.702 621.113 181.467C621.656 181.218 622.096 180.888 622.433 180.477V178.651H619.133C618.429 178.651 617.916 178.791 617.593 179.069C617.285 179.333 617.131 179.744 617.131 180.301C617.131 180.844 617.314 181.233 617.681 181.467C618.048 181.702 618.568 181.819 619.243 181.819ZM627.38 183.315V168.487H629.778V177.067L634.156 172.887H636.906L632.66 177.089L637.148 183.315H634.618L631.164 178.365L629.778 179.685V183.315H627.38ZM641.899 183.535C641.18 183.535 640.491 183.484 639.831 183.381C639.186 183.279 638.65 183.154 638.225 183.007V180.983C638.724 181.174 639.274 181.321 639.875 181.423C640.476 181.526 641.048 181.577 641.591 181.577C642.412 181.577 642.999 181.504 643.351 181.357C643.703 181.211 643.879 180.925 643.879 180.499C643.879 180.191 643.769 179.949 643.549 179.773C643.344 179.597 643.028 179.436 642.603 179.289C642.192 179.143 641.664 178.967 641.019 178.761C640.403 178.556 639.868 178.336 639.413 178.101C638.958 177.852 638.606 177.537 638.357 177.155C638.108 176.774 637.983 176.275 637.983 175.659C637.983 174.706 638.328 173.973 639.017 173.459C639.706 172.931 640.814 172.667 642.339 172.667C642.94 172.667 643.512 172.711 644.055 172.799C644.598 172.887 645.06 172.997 645.441 173.129V175.131C645.03 174.97 644.576 174.845 644.077 174.757C643.593 174.669 643.138 174.625 642.713 174.625C641.95 174.625 641.371 174.691 640.975 174.823C640.594 174.955 640.403 175.219 640.403 175.615C640.403 176.026 640.601 176.319 640.997 176.495C641.408 176.657 642.06 176.884 642.955 177.177C643.776 177.427 644.429 177.691 644.913 177.969C645.397 178.248 645.742 178.585 645.947 178.981C646.167 179.363 646.277 179.861 646.277 180.477C646.277 181.504 645.903 182.274 645.155 182.787C644.407 183.286 643.322 183.535 641.899 183.535ZM648.188 183.315V181.445H650.212V183.315H648.188Z" fill="#151716"/>
<path d="M57.0473 88.6406V81.3446C58.5167 78.8113 60.1887 76.5313 62.0633 74.5046C63.9887 72.4273 66.1673 70.2993 68.5993 68.1206C70.5753 66.398 72.1713 64.954 73.3873 63.7886C74.654 62.6233 75.566 61.5593 76.1233 60.5966C76.7313 59.5833 77.0353 58.494 77.0353 57.3286C77.0353 54.3393 74.9833 52.8446 70.8793 52.8446C68.7007 52.8446 66.5473 53.098 64.4193 53.6046C62.342 54.1113 60.3913 54.77 58.5673 55.5806V41.8246C60.6953 40.9633 63.2033 40.2793 66.0913 39.7726C69.03 39.2153 72.0447 38.9366 75.1353 38.9366C81.418 38.9366 86.0793 40.406 89.1193 43.3446C92.21 46.2326 93.7553 50.058 93.7553 54.8206C93.7553 56.9993 93.502 58.8993 92.9953 60.5206C92.4887 62.0913 91.7033 63.5606 90.6393 64.9286C89.5753 66.246 88.1567 67.69 86.3833 69.2606C85.1167 70.3753 83.774 71.5406 82.3553 72.7566C80.9873 73.9726 79.9487 75.1126 79.2393 76.1766H94.1353V88.6406H57.0473Z" fill="white"/>
</svg>
