<svg width="900" height="275" viewBox="0 0 900 275" fill="none" xmlns="http://www.w3.org/2000/svg">
<path d="M884.431 67.4688H362.852L81.5391 186.998V252.383H884.431V67.4688Z" stroke="#3AA7CB" stroke-width="2.1" stroke-miterlimit="10"/>
<path d="M874.039 48.7832V241.932H66.9023V123.838H132.21H147.939V48.7832H874.039Z" fill="white"/>
<path d="M133.306 15.8066H16.1406V111.501H133.306V15.8066Z" fill="#3AA7CB"/>
<path d="M189.546 138.481V112.721H208.906V118.321H197.066V122.761H207.386V128.441H197.066V138.481H189.546ZM210.913 138.481V112.721H218.433V138.481H210.913ZM222.046 138.481V112.721H228.446L238.166 126.361V112.721H245.686V138.481H239.246L229.566 124.881V138.481H222.046ZM249.273 138.481V112.721H256.793V138.481H249.273ZM268.845 138.881C267.112 138.881 265.472 138.748 263.925 138.481C262.379 138.188 261.059 137.788 259.965 137.281V131.081C261.165 131.641 262.499 132.095 263.965 132.441C265.432 132.788 266.805 132.961 268.085 132.961C269.419 132.961 270.419 132.855 271.085 132.641C271.779 132.401 272.125 131.881 272.125 131.081C272.125 130.521 271.925 130.081 271.525 129.761C271.152 129.441 270.552 129.148 269.725 128.881C268.925 128.615 267.872 128.281 266.565 127.881C264.832 127.321 263.459 126.708 262.445 126.041C261.432 125.375 260.699 124.561 260.245 123.601C259.819 122.641 259.605 121.468 259.605 120.081C259.605 117.548 260.499 115.628 262.285 114.321C264.099 112.988 266.779 112.321 270.325 112.321C271.739 112.321 273.192 112.441 274.685 112.681C276.205 112.921 277.432 113.188 278.365 113.481V119.721C277.112 119.215 275.912 118.855 274.765 118.641C273.619 118.428 272.539 118.321 271.525 118.321C270.352 118.321 269.352 118.415 268.525 118.601C267.699 118.788 267.285 119.268 267.285 120.041C267.285 120.708 267.632 121.201 268.325 121.521C269.045 121.815 270.312 122.201 272.125 122.681C274.232 123.241 275.832 123.921 276.925 124.721C278.045 125.521 278.805 126.455 279.205 127.521C279.605 128.561 279.805 129.748 279.805 131.081C279.805 133.428 278.899 135.321 277.085 136.761C275.272 138.175 272.525 138.881 268.845 138.881ZM282.593 138.481V112.721H290.113V122.321H298.993V112.721H306.513V138.481H298.993V128.881H290.113V138.481H282.593ZM318.335 138.481V112.721H325.855V138.481H318.335ZM329.468 138.481V112.721H335.868L345.588 126.361V112.721H353.108V138.481H346.668L336.988 124.881V138.481H329.468ZM370.538 138.481V118.321H363.298V112.721H385.298V118.321H378.058V138.481H370.538ZM387.28 138.481V112.721H394.8V122.321H403.68V112.721H411.2V138.481H403.68V128.881H394.8V138.481H387.28ZM414.82 138.481V112.721H434.34V118.481H422.34V122.681H432.86V128.521H422.34V132.721H434.34V138.481H414.82ZM450.577 138.481V118.321H443.337V112.721H465.337V118.321H458.097V138.481H450.577ZM479.289 138.881C475.022 138.881 471.756 137.841 469.489 135.761C467.249 133.681 466.129 130.321 466.129 125.681C466.129 122.481 466.636 119.908 467.649 117.961C468.662 115.988 470.142 114.561 472.089 113.681C474.062 112.775 476.462 112.321 479.289 112.321C482.116 112.321 484.502 112.775 486.449 113.681C488.422 114.561 489.916 115.988 490.929 117.961C491.942 119.908 492.449 122.481 492.449 125.681C492.449 130.321 491.316 133.681 489.049 135.761C486.782 137.841 483.529 138.881 479.289 138.881ZM479.289 132.481C481.209 132.481 482.596 131.948 483.449 130.881C484.329 129.788 484.769 128.055 484.769 125.681C484.769 123.148 484.329 121.361 483.449 120.321C482.596 119.255 481.209 118.721 479.289 118.721C477.369 118.721 475.969 119.255 475.089 120.321C474.236 121.361 473.809 123.148 473.809 125.681C473.809 128.055 474.236 129.788 475.089 130.881C475.969 131.948 477.369 132.481 479.289 132.481ZM495.249 138.481V112.721H508.529C510.636 112.721 512.369 113.148 513.729 114.001C515.116 114.828 516.143 115.961 516.809 117.401C517.476 118.841 517.809 120.441 517.809 122.201C517.809 124.015 517.423 125.628 516.649 127.041C515.876 128.455 514.783 129.561 513.369 130.361C511.956 131.161 510.289 131.561 508.369 131.561H502.769V138.481H495.249ZM502.769 125.801H506.649C507.823 125.801 508.689 125.468 509.249 124.801C509.836 124.135 510.129 123.268 510.129 122.201C510.129 121.055 509.863 120.148 509.329 119.481C508.796 118.815 507.969 118.481 506.849 118.481H502.769V125.801ZM531.503 138.481V119.681L527.223 120.321V114.041L539.023 112.321V138.481H531.503ZM554.152 138.881C551.192 138.881 548.805 138.375 546.992 137.361C545.205 136.321 543.899 134.815 543.072 132.841C542.245 130.868 541.832 128.455 541.832 125.601C541.832 122.748 542.245 120.335 543.072 118.361C543.899 116.388 545.205 114.895 546.992 113.881C548.805 112.841 551.192 112.321 554.152 112.321C558.579 112.321 561.739 113.468 563.632 115.761C565.525 118.028 566.472 121.308 566.472 125.601C566.472 129.868 565.525 133.148 563.632 135.441C561.739 137.735 558.579 138.881 554.152 138.881ZM554.152 132.481C555.885 132.481 557.085 131.908 557.752 130.761C558.445 129.588 558.792 127.868 558.792 125.601C558.792 123.308 558.445 121.588 557.752 120.441C557.085 119.295 555.885 118.721 554.152 118.721C552.419 118.721 551.205 119.295 550.512 120.441C549.845 121.588 549.512 123.308 549.512 125.601C549.512 127.868 549.845 129.588 550.512 130.761C551.205 131.908 552.419 132.481 554.152 132.481ZM574.553 124.721C572.579 124.721 571.073 124.175 570.033 123.081C568.993 121.961 568.473 120.535 568.473 118.801C568.473 116.801 568.993 115.228 570.033 114.081C571.073 112.908 572.579 112.321 574.553 112.321C576.553 112.321 578.073 112.908 579.113 114.081C580.153 115.228 580.673 116.801 580.673 118.801C580.673 120.535 580.153 121.961 579.113 123.081C578.073 124.175 576.553 124.721 574.553 124.721ZM572.633 138.481L586.073 112.721H593.193L579.713 138.481H572.633ZM574.553 120.801C575.299 120.801 575.833 120.615 576.153 120.241C576.473 119.841 576.633 119.308 576.633 118.641C576.633 117.041 575.939 116.241 574.553 116.241C573.833 116.241 573.313 116.428 572.993 116.801C572.673 117.175 572.513 117.788 572.513 118.641C572.513 119.308 572.673 119.841 572.993 120.241C573.313 120.615 573.833 120.801 574.553 120.801ZM591.273 138.881C589.299 138.881 587.793 138.335 586.753 137.241C585.713 136.121 585.193 134.695 585.193 132.961C585.193 130.988 585.713 129.428 586.753 128.281C587.793 127.108 589.299 126.521 591.273 126.521C593.273 126.521 594.793 127.108 595.833 128.281C596.873 129.428 597.393 130.988 597.393 132.961C597.393 134.695 596.873 136.121 595.833 137.241C594.793 138.335 593.273 138.881 591.273 138.881ZM591.273 135.001C592.019 135.001 592.553 134.815 592.873 134.441C593.193 134.041 593.353 133.508 593.353 132.841C593.353 131.241 592.659 130.441 591.273 130.441C590.553 130.441 590.033 130.628 589.713 131.001C589.393 131.375 589.233 131.988 589.233 132.841C589.233 133.508 589.393 134.041 589.713 134.441C590.033 134.815 590.553 135.001 591.273 135.001Z" fill="#3AA7CB"/>
<path d="M189.132 182.51V168.342H195.644C197.228 168.342 198.379 168.752 199.098 169.574C199.831 170.38 200.198 171.48 200.198 172.874C200.198 173.871 199.949 174.722 199.45 175.426C198.951 176.13 198.233 176.621 197.294 176.9C197.558 177.09 197.763 177.296 197.91 177.516C198.057 177.736 198.203 178.029 198.35 178.396L200.132 182.51H197.668L195.93 178.55C195.769 178.168 195.571 177.897 195.336 177.736C195.116 177.574 194.735 177.494 194.192 177.494H191.53V182.51H189.132ZM191.53 175.558H195.006C195.871 175.558 196.553 175.345 197.052 174.92C197.551 174.494 197.8 173.812 197.8 172.874C197.8 171.099 196.942 170.212 195.226 170.212H191.53V175.558ZM207.518 182.73C205.699 182.73 204.291 182.282 203.294 181.388C202.296 180.493 201.798 179.122 201.798 177.274C201.798 175.602 202.223 174.282 203.074 173.314C203.924 172.346 205.215 171.862 206.946 171.862C208.53 171.862 209.718 172.28 210.51 173.116C211.316 173.937 211.72 175 211.72 176.306V178.242H204.086C204.203 179.254 204.57 179.95 205.186 180.332C205.802 180.713 206.74 180.904 208.002 180.904C208.53 180.904 209.072 180.852 209.63 180.75C210.187 180.647 210.671 180.515 211.082 180.354V182.114C210.612 182.319 210.07 182.473 209.454 182.576C208.852 182.678 208.207 182.73 207.518 182.73ZM204.086 176.68H209.608V175.954C209.608 175.235 209.41 174.678 209.014 174.282C208.618 173.871 207.95 173.666 207.012 173.666C205.897 173.666 205.127 173.908 204.702 174.392C204.291 174.876 204.086 175.638 204.086 176.68ZM214.054 187.262V172.082H216.122L216.254 173.116C216.723 172.69 217.237 172.375 217.794 172.17C218.351 171.964 219.011 171.862 219.774 171.862C221.27 171.862 222.436 172.272 223.272 173.094C224.108 173.9 224.526 175.242 224.526 177.12C224.526 178.997 224.093 180.405 223.228 181.344C222.363 182.268 221.182 182.73 219.686 182.73C218.425 182.73 217.347 182.436 216.452 181.85V187.262H214.054ZM219.07 180.926C221.094 180.926 222.106 179.65 222.106 177.098C222.106 175.866 221.879 174.993 221.424 174.48C220.969 173.952 220.207 173.688 219.136 173.688C218.065 173.688 217.171 174.054 216.452 174.788V180.002C216.789 180.28 217.163 180.508 217.574 180.684C217.999 180.845 218.498 180.926 219.07 180.926ZM230.227 182.73C229.509 182.73 228.819 182.678 228.159 182.576C227.514 182.473 226.979 182.348 226.553 182.202V180.178C227.052 180.368 227.602 180.515 228.203 180.618C228.805 180.72 229.377 180.772 229.919 180.772C230.741 180.772 231.327 180.698 231.679 180.552C232.031 180.405 232.207 180.119 232.207 179.694C232.207 179.386 232.097 179.144 231.877 178.968C231.672 178.792 231.357 178.63 230.931 178.484C230.521 178.337 229.993 178.161 229.347 177.956C228.731 177.75 228.196 177.53 227.741 177.296C227.287 177.046 226.935 176.731 226.685 176.35C226.436 175.968 226.311 175.47 226.311 174.854C226.311 173.9 226.656 173.167 227.345 172.654C228.035 172.126 229.142 171.862 230.667 171.862C231.269 171.862 231.841 171.906 232.383 171.994C232.926 172.082 233.388 172.192 233.769 172.324V174.326C233.359 174.164 232.904 174.04 232.405 173.952C231.921 173.864 231.467 173.82 231.041 173.82C230.279 173.82 229.699 173.886 229.303 174.018C228.922 174.15 228.731 174.414 228.731 174.81C228.731 175.22 228.929 175.514 229.325 175.69C229.736 175.851 230.389 176.078 231.283 176.372C232.105 176.621 232.757 176.885 233.241 177.164C233.725 177.442 234.07 177.78 234.275 178.176C234.495 178.557 234.605 179.056 234.605 179.672C234.605 180.698 234.231 181.468 233.483 181.982C232.735 182.48 231.65 182.73 230.227 182.73ZM242.027 182.51V168.342H248.891C250.299 168.342 251.34 168.672 252.015 169.332C252.689 169.992 253.027 170.923 253.027 172.126C253.027 172.888 252.873 173.534 252.565 174.062C252.257 174.575 251.846 174.964 251.333 175.228C252.022 175.418 252.565 175.763 252.961 176.262C253.371 176.746 253.577 177.464 253.577 178.418C253.577 179.796 253.203 180.823 252.455 181.498C251.721 182.172 250.636 182.51 249.199 182.51H242.027ZM244.425 174.392H248.561C249.367 174.392 249.939 174.208 250.277 173.842C250.629 173.46 250.805 172.954 250.805 172.324C250.805 171.59 250.629 171.048 250.277 170.696C249.925 170.329 249.265 170.146 248.297 170.146H244.425V174.392ZM244.425 180.75H248.693C249.543 180.75 250.167 180.574 250.563 180.222C250.959 179.855 251.157 179.224 251.157 178.33C251.157 177.596 250.959 177.054 250.563 176.702C250.181 176.335 249.477 176.152 248.451 176.152H244.425V180.75ZM259.162 182.73C258.502 182.73 257.886 182.612 257.314 182.378C256.756 182.143 256.309 181.791 255.972 181.322C255.634 180.838 255.466 180.244 255.466 179.54C255.466 178.542 255.803 177.743 256.478 177.142C257.167 176.526 258.223 176.218 259.646 176.218H262.99V175.756C262.99 175.257 262.909 174.861 262.748 174.568C262.601 174.274 262.322 174.062 261.912 173.93C261.516 173.798 260.929 173.732 260.152 173.732C258.92 173.732 257.768 173.915 256.698 174.282V172.5C257.167 172.309 257.739 172.155 258.414 172.038C259.088 171.92 259.814 171.862 260.592 171.862C262.117 171.862 263.276 172.17 264.068 172.786C264.874 173.402 265.278 174.406 265.278 175.8V182.51H263.232L263.078 181.454C262.652 181.864 262.124 182.18 261.494 182.4C260.878 182.62 260.1 182.73 259.162 182.73ZM259.8 181.014C260.518 181.014 261.142 180.896 261.67 180.662C262.212 180.412 262.652 180.082 262.99 179.672V177.846H259.69C258.986 177.846 258.472 177.985 258.15 178.264C257.842 178.528 257.688 178.938 257.688 179.496C257.688 180.038 257.871 180.427 258.238 180.662C258.604 180.896 259.125 181.014 259.8 181.014ZM271.413 182.73C270.694 182.73 270.005 182.678 269.345 182.576C268.699 182.473 268.164 182.348 267.739 182.202V180.178C268.237 180.368 268.787 180.515 269.389 180.618C269.99 180.72 270.562 180.772 271.105 180.772C271.926 180.772 272.513 180.698 272.865 180.552C273.217 180.405 273.393 180.119 273.393 179.694C273.393 179.386 273.283 179.144 273.063 178.968C272.857 178.792 272.542 178.63 272.117 178.484C271.706 178.337 271.178 178.161 270.533 177.956C269.917 177.75 269.381 177.53 268.927 177.296C268.472 177.046 268.12 176.731 267.871 176.35C267.621 175.968 267.497 175.47 267.497 174.854C267.497 173.9 267.841 173.167 268.531 172.654C269.22 172.126 270.327 171.862 271.853 171.862C272.454 171.862 273.026 171.906 273.569 171.994C274.111 172.082 274.573 172.192 274.955 172.324V174.326C274.544 174.164 274.089 174.04 273.591 173.952C273.107 173.864 272.652 173.82 272.227 173.82C271.464 173.82 270.885 173.886 270.489 174.018C270.107 174.15 269.917 174.414 269.917 174.81C269.917 175.22 270.115 175.514 270.511 175.69C270.921 175.851 271.574 176.078 272.469 176.372C273.29 176.621 273.943 176.885 274.427 177.164C274.911 177.442 275.255 177.78 275.461 178.176C275.681 178.557 275.791 179.056 275.791 179.672C275.791 180.698 275.417 181.468 274.669 181.982C273.921 182.48 272.835 182.73 271.413 182.73ZM283.1 182.73C281.281 182.73 279.873 182.282 278.876 181.388C277.878 180.493 277.38 179.122 277.38 177.274C277.38 175.602 277.805 174.282 278.656 173.314C279.506 172.346 280.797 171.862 282.528 171.862C284.112 171.862 285.3 172.28 286.092 173.116C286.898 173.937 287.302 175 287.302 176.306V178.242H279.668C279.785 179.254 280.152 179.95 280.768 180.332C281.384 180.713 282.322 180.904 283.584 180.904C284.112 180.904 284.654 180.852 285.212 180.75C285.769 180.647 286.253 180.515 286.664 180.354V182.114C286.194 182.319 285.652 182.473 285.036 182.576C284.434 182.678 283.789 182.73 283.1 182.73ZM279.668 176.68H285.19V175.954C285.19 175.235 284.992 174.678 284.596 174.282C284.2 173.871 283.532 173.666 282.594 173.666C281.479 173.666 280.709 173.908 280.284 174.392C279.873 174.876 279.668 175.638 279.668 176.68ZM293.948 182.73C293.009 182.73 292.181 182.568 291.462 182.246C290.743 181.923 290.186 181.388 289.79 180.64C289.394 179.892 289.196 178.887 289.196 177.626C289.196 176.379 289.409 175.33 289.834 174.48C290.259 173.614 290.846 172.962 291.594 172.522C292.357 172.082 293.215 171.862 294.168 171.862C294.799 171.862 295.356 171.935 295.84 172.082C296.339 172.228 296.815 172.456 297.27 172.764V167.682H299.668V182.51H297.622L297.468 181.476C296.999 181.901 296.485 182.216 295.928 182.422C295.371 182.627 294.711 182.73 293.948 182.73ZM294.586 180.926C295.657 180.926 296.551 180.559 297.27 179.826V174.612C296.581 173.996 295.715 173.688 294.674 173.688C293.662 173.688 292.899 174.025 292.386 174.7C291.873 175.374 291.616 176.357 291.616 177.648C291.616 178.894 291.851 179.752 292.32 180.222C292.804 180.691 293.559 180.926 294.586 180.926ZM313.781 182.73C311.537 182.73 309.858 182.143 308.743 180.97C307.628 179.782 307.071 177.948 307.071 175.47C307.071 172.888 307.628 171.018 308.743 169.86C309.858 168.701 311.537 168.122 313.781 168.122C316.04 168.122 317.719 168.701 318.819 169.86C319.934 171.018 320.491 172.888 320.491 175.47C320.491 177.948 319.934 179.782 318.819 180.97C317.719 182.143 316.04 182.73 313.781 182.73ZM313.781 180.706C315.262 180.706 316.348 180.302 317.037 179.496C317.741 178.674 318.093 177.332 318.093 175.47C318.093 173.504 317.741 172.133 317.037 171.356C316.348 170.564 315.262 170.168 313.781 170.168C312.314 170.168 311.229 170.564 310.525 171.356C309.836 172.133 309.491 173.504 309.491 175.47C309.491 177.332 309.836 178.674 310.525 179.496C311.229 180.302 312.314 180.706 313.781 180.706ZM322.829 182.51V172.082H325.029L325.139 173.182C325.609 172.815 326.166 172.507 326.811 172.258C327.471 171.994 328.197 171.862 328.989 171.862C330.339 171.862 331.321 172.177 331.937 172.808C332.553 173.438 332.861 174.421 332.861 175.756V182.51H330.485V175.866C330.485 175.059 330.317 174.494 329.979 174.172C329.657 173.849 329.041 173.688 328.131 173.688C327.589 173.688 327.053 173.798 326.525 174.018C326.012 174.238 325.579 174.524 325.227 174.876V182.51H322.829ZM344.292 182.51V170.212H339.76V168.342H351.2V170.212H346.69V182.51H344.292ZM356.032 182.73C354.155 182.73 352.776 182.26 351.896 181.322C351.031 180.383 350.598 179.041 350.598 177.296C350.598 175.55 351.038 174.208 351.918 173.27C352.798 172.331 354.17 171.862 356.032 171.862C357.91 171.862 359.288 172.331 360.168 173.27C361.048 174.208 361.488 175.55 361.488 177.296C361.488 179.041 361.048 180.383 360.168 181.322C359.303 182.26 357.924 182.73 356.032 182.73ZM356.032 180.706C357.132 180.706 357.91 180.442 358.364 179.914C358.834 179.371 359.068 178.498 359.068 177.296C359.068 176.093 358.834 175.228 358.364 174.7C357.91 174.172 357.132 173.908 356.032 173.908C354.947 173.908 354.17 174.172 353.7 174.7C353.246 175.228 353.018 176.093 353.018 177.296C353.018 178.498 353.246 179.371 353.7 179.914C354.17 180.442 354.947 180.706 356.032 180.706ZM367.804 182.73C366.689 182.73 365.853 182.436 365.296 181.85C364.753 181.248 364.482 180.434 364.482 179.408V173.952H362.942V172.082H364.482V169.684L366.858 168.958V172.082H369.63L369.476 173.952H366.858V179.276C366.858 179.877 366.997 180.302 367.276 180.552C367.554 180.786 368.009 180.904 368.64 180.904C369.036 180.904 369.454 180.83 369.894 180.684V182.378C369.322 182.612 368.625 182.73 367.804 182.73ZM374.984 182.73C374.324 182.73 373.708 182.612 373.136 182.378C372.578 182.143 372.131 181.791 371.794 181.322C371.456 180.838 371.288 180.244 371.288 179.54C371.288 178.542 371.625 177.743 372.3 177.142C372.989 176.526 374.045 176.218 375.468 176.218H378.812V175.756C378.812 175.257 378.731 174.861 378.57 174.568C378.423 174.274 378.144 174.062 377.734 173.93C377.338 173.798 376.751 173.732 375.974 173.732C374.742 173.732 373.59 173.915 372.52 174.282V172.5C372.989 172.309 373.561 172.155 374.236 172.038C374.91 171.92 375.636 171.862 376.414 171.862C377.939 171.862 379.098 172.17 379.89 172.786C380.696 173.402 381.1 174.406 381.1 175.8V182.51H379.054L378.9 181.454C378.474 181.864 377.946 182.18 377.316 182.4C376.7 182.62 375.922 182.73 374.984 182.73ZM375.622 181.014C376.34 181.014 376.964 180.896 377.492 180.662C378.034 180.412 378.474 180.082 378.812 179.672V177.846H375.512C374.808 177.846 374.294 177.985 373.972 178.264C373.664 178.528 373.51 178.938 373.51 179.496C373.51 180.038 373.693 180.427 374.06 180.662C374.426 180.896 374.947 181.014 375.622 181.014ZM386.355 182.73C385.504 182.73 384.859 182.524 384.419 182.114C383.979 181.688 383.759 180.992 383.759 180.024V167.682H386.157V179.804C386.157 180.214 386.23 180.493 386.377 180.64C386.524 180.786 386.744 180.86 387.037 180.86C387.389 180.86 387.726 180.816 388.049 180.728V182.466C387.77 182.568 387.499 182.634 387.235 182.664C386.986 182.708 386.692 182.73 386.355 182.73ZM394.995 182.51V168.342H397.393V180.662H404.653V182.51H394.995ZM411.275 182.73C409.457 182.73 408.049 182.282 407.051 181.388C406.054 180.493 405.555 179.122 405.555 177.274C405.555 175.602 405.981 174.282 406.831 173.314C407.682 172.346 408.973 171.862 410.703 171.862C412.287 171.862 413.475 172.28 414.267 173.116C415.074 173.937 415.477 175 415.477 176.306V178.242H407.843C407.961 179.254 408.327 179.95 408.943 180.332C409.559 180.713 410.498 180.904 411.759 180.904C412.287 180.904 412.83 180.852 413.387 180.75C413.945 180.647 414.429 180.515 414.839 180.354V182.114C414.37 182.319 413.827 182.473 413.211 182.576C412.61 182.678 411.965 182.73 411.275 182.73ZM407.843 176.68H413.365V175.954C413.365 175.235 413.167 174.678 412.771 174.282C412.375 173.871 411.708 173.666 410.769 173.666C409.655 173.666 408.885 173.908 408.459 174.392C408.049 174.876 407.843 175.638 407.843 176.68ZM421.068 182.73C420.408 182.73 419.792 182.612 419.22 182.378C418.662 182.143 418.215 181.791 417.878 181.322C417.54 180.838 417.372 180.244 417.372 179.54C417.372 178.542 417.709 177.743 418.384 177.142C419.073 176.526 420.129 176.218 421.552 176.218H424.896V175.756C424.896 175.257 424.815 174.861 424.654 174.568C424.507 174.274 424.228 174.062 423.818 173.93C423.422 173.798 422.835 173.732 422.058 173.732C420.826 173.732 419.674 173.915 418.604 174.282V172.5C419.073 172.309 419.645 172.155 420.32 172.038C420.994 171.92 421.72 171.862 422.498 171.862C424.023 171.862 425.182 172.17 425.974 172.786C426.78 173.402 427.184 174.406 427.184 175.8V182.51H425.138L424.984 181.454C424.558 181.864 424.03 182.18 423.4 182.4C422.784 182.62 422.006 182.73 421.068 182.73ZM421.706 181.014C422.424 181.014 423.048 180.896 423.576 180.662C424.118 180.412 424.558 180.082 424.896 179.672V177.846H421.596C420.892 177.846 420.378 177.985 420.056 178.264C419.748 178.528 419.594 178.938 419.594 179.496C419.594 180.038 419.777 180.427 420.144 180.662C420.51 180.896 421.031 181.014 421.706 181.014ZM434.067 186.382C433.29 186.382 432.512 186.33 431.735 186.228C430.958 186.14 430.298 186 429.755 185.81V183.962C430.342 184.152 431.016 184.299 431.779 184.402C432.542 184.504 433.268 184.556 433.957 184.556C435.013 184.556 435.783 184.497 436.267 184.38C436.751 184.262 436.993 183.998 436.993 183.588C436.993 183.28 436.876 183.06 436.641 182.928C436.406 182.81 435.959 182.752 435.299 182.752H432.483C430.591 182.752 429.645 182.084 429.645 180.75C429.645 180.324 429.77 179.928 430.019 179.562C430.268 179.195 430.664 178.916 431.207 178.726C430.606 178.432 430.158 178.029 429.865 177.516C429.586 177.002 429.447 176.386 429.447 175.668C429.447 174.333 429.843 173.365 430.635 172.764C431.442 172.162 432.644 171.862 434.243 171.862C434.58 171.862 434.932 171.891 435.299 171.95C435.666 171.994 435.952 172.038 436.157 172.082H439.985L439.919 173.644H438.159C438.438 173.878 438.643 174.172 438.775 174.524C438.907 174.876 438.973 175.257 438.973 175.668C438.973 176.782 438.636 177.662 437.961 178.308C437.286 178.938 436.267 179.254 434.903 179.254C434.668 179.254 434.448 179.246 434.243 179.232C434.052 179.202 433.84 179.173 433.605 179.144C433.165 179.188 432.769 179.305 432.417 179.496C432.065 179.686 431.889 179.943 431.889 180.266C431.889 180.486 431.977 180.647 432.153 180.75C432.329 180.838 432.622 180.882 433.033 180.882H435.959C437 180.882 437.8 181.109 438.357 181.564C438.929 182.004 439.215 182.649 439.215 183.5C439.215 184.526 438.768 185.26 437.873 185.7C436.993 186.154 435.724 186.382 434.067 186.382ZM434.243 177.736C435.196 177.736 435.856 177.574 436.223 177.252C436.604 176.929 436.795 176.379 436.795 175.602C436.795 174.824 436.604 174.26 436.223 173.908C435.856 173.556 435.196 173.38 434.243 173.38C433.348 173.38 432.696 173.548 432.285 173.886C431.874 174.223 431.669 174.795 431.669 175.602C431.669 176.35 431.86 176.892 432.241 177.23C432.637 177.567 433.304 177.736 434.243 177.736ZM445.787 182.73C444.54 182.73 443.579 182.385 442.905 181.696C442.245 181.006 441.915 179.994 441.915 178.66V172.082H444.313V178.66C444.313 179.437 444.503 180.009 444.885 180.376C445.266 180.742 445.853 180.926 446.645 180.926C447.231 180.926 447.774 180.816 448.273 180.596C448.771 180.376 449.204 180.082 449.571 179.716V172.082H451.947V182.51H449.769L449.659 181.432C449.189 181.798 448.632 182.106 447.987 182.356C447.341 182.605 446.608 182.73 445.787 182.73ZM460.023 182.73C458.205 182.73 456.797 182.282 455.799 181.388C454.802 180.493 454.303 179.122 454.303 177.274C454.303 175.602 454.729 174.282 455.579 173.314C456.43 172.346 457.721 171.862 459.451 171.862C461.035 171.862 462.223 172.28 463.015 173.116C463.822 173.937 464.225 175 464.225 176.306V178.242H456.591C456.709 179.254 457.075 179.95 457.691 180.332C458.307 180.713 459.246 180.904 460.507 180.904C461.035 180.904 461.578 180.852 462.135 180.75C462.693 180.647 463.177 180.515 463.587 180.354V182.114C463.118 182.319 462.575 182.473 461.959 182.576C461.358 182.678 460.713 182.73 460.023 182.73ZM456.591 176.68H462.113V175.954C462.113 175.235 461.915 174.678 461.519 174.282C461.123 173.871 460.456 173.666 459.517 173.666C458.403 173.666 457.633 173.908 457.207 174.392C456.797 174.876 456.591 175.638 456.591 176.68ZM471.63 182.51V168.342H477.944C479.029 168.342 479.924 168.547 480.628 168.958C481.332 169.368 481.853 169.933 482.19 170.652C482.527 171.356 482.696 172.162 482.696 173.072C482.696 174.48 482.256 175.609 481.376 176.46C480.511 177.31 479.337 177.736 477.856 177.736H474.028V182.51H471.63ZM474.028 175.844H477.416C478.369 175.844 479.088 175.594 479.572 175.096C480.056 174.597 480.298 173.922 480.298 173.072C480.298 172.162 480.063 171.458 479.594 170.96C479.139 170.461 478.45 170.212 477.526 170.212H474.028V175.844ZM489.601 182.73C487.723 182.73 486.345 182.26 485.465 181.322C484.599 180.383 484.167 179.041 484.167 177.296C484.167 175.55 484.607 174.208 485.487 173.27C486.367 172.331 487.738 171.862 489.601 171.862C491.478 171.862 492.857 172.331 493.737 173.27C494.617 174.208 495.057 175.55 495.057 177.296C495.057 179.041 494.617 180.383 493.737 181.322C492.871 182.26 491.493 182.73 489.601 182.73ZM489.601 180.706C490.701 180.706 491.478 180.442 491.933 179.914C492.402 179.371 492.637 178.498 492.637 177.296C492.637 176.093 492.402 175.228 491.933 174.7C491.478 174.172 490.701 173.908 489.601 173.908C488.515 173.908 487.738 174.172 487.269 174.7C486.814 175.228 486.587 176.093 486.587 177.296C486.587 178.498 486.814 179.371 487.269 179.914C487.738 180.442 488.515 180.706 489.601 180.706ZM497.84 169.904V167.924H500.458V169.904H497.84ZM498.038 182.51V173.908H496.454L496.674 172.082H500.436V182.51H498.038ZM503.234 182.51V172.082H505.434L505.544 173.182C506.013 172.815 506.57 172.507 507.216 172.258C507.876 171.994 508.602 171.862 509.394 171.862C510.743 171.862 511.726 172.177 512.342 172.808C512.958 173.438 513.266 174.421 513.266 175.756V182.51H510.89V175.866C510.89 175.059 510.721 174.494 510.384 174.172C510.061 173.849 509.445 173.688 508.536 173.688C507.993 173.688 507.458 173.798 506.93 174.018C506.416 174.238 505.984 174.524 505.632 174.876V182.51H503.234ZM519.934 182.73C518.82 182.73 517.984 182.436 517.426 181.85C516.884 181.248 516.612 180.434 516.612 179.408V173.952H515.072V172.082H516.612V169.684L518.988 168.958V172.082H521.76L521.606 173.952H518.988V179.276C518.988 179.877 519.128 180.302 519.406 180.552C519.685 180.786 520.14 180.904 520.77 180.904C521.166 180.904 521.584 180.83 522.024 180.684V182.378C521.452 182.612 520.756 182.73 519.934 182.73ZM527.335 182.73C526.616 182.73 525.927 182.678 525.267 182.576C524.621 182.473 524.086 182.348 523.661 182.202V180.178C524.159 180.368 524.709 180.515 525.311 180.618C525.912 180.72 526.484 180.772 527.027 180.772C527.848 180.772 528.435 180.698 528.787 180.552C529.139 180.405 529.315 180.119 529.315 179.694C529.315 179.386 529.205 179.144 528.985 178.968C528.779 178.792 528.464 178.63 528.039 178.484C527.628 178.337 527.1 178.161 526.455 177.956C525.839 177.75 525.303 177.53 524.849 177.296C524.394 177.046 524.042 176.731 523.793 176.35C523.543 175.968 523.419 175.47 523.419 174.854C523.419 173.9 523.763 173.167 524.453 172.654C525.142 172.126 526.249 171.862 527.775 171.862C528.376 171.862 528.948 171.906 529.491 171.994C530.033 172.082 530.495 172.192 530.877 172.324V174.326C530.466 174.164 530.011 174.04 529.513 173.952C529.029 173.864 528.574 173.82 528.149 173.82C527.386 173.82 526.807 173.886 526.411 174.018C526.029 174.15 525.839 174.414 525.839 174.81C525.839 175.22 526.037 175.514 526.433 175.69C526.843 175.851 527.496 176.078 528.391 176.372C529.212 176.621 529.865 176.885 530.349 177.164C530.833 177.442 531.177 177.78 531.383 178.176C531.603 178.557 531.713 179.056 531.713 179.672C531.713 180.698 531.339 181.468 530.591 181.982C529.843 182.48 528.757 182.73 527.335 182.73ZM538.716 182.51L544.128 168.342H546.812L552.18 182.51H549.716L548.308 178.858H542.61L541.202 182.51H538.716ZM542.984 177.01H547.912L545.448 170.52L542.984 177.01ZM558.676 182.73C556.843 182.73 555.457 182.268 554.518 181.344C553.579 180.405 553.11 179.056 553.11 177.296C553.11 175.462 553.623 174.098 554.65 173.204C555.691 172.309 557.077 171.862 558.808 171.862C559.527 171.862 560.128 171.913 560.612 172.016C561.111 172.118 561.587 172.28 562.042 172.5V174.282C561.279 173.9 560.355 173.71 559.27 173.71C558.067 173.71 557.143 173.981 556.498 174.524C555.853 175.052 555.53 175.976 555.53 177.296C555.53 178.542 555.816 179.459 556.388 180.046C556.96 180.618 557.906 180.904 559.226 180.904C560.267 180.904 561.213 180.706 562.064 180.31V182.136C561.58 182.326 561.059 182.473 560.502 182.576C559.959 182.678 559.351 182.73 558.676 182.73ZM563.97 182.51V172.082H566.17L566.302 173.292C566.801 172.969 567.395 172.676 568.084 172.412C568.773 172.148 569.455 171.964 570.13 171.862V173.688C569.719 173.761 569.272 173.871 568.788 174.018C568.319 174.15 567.871 174.304 567.446 174.48C567.021 174.641 566.661 174.81 566.368 174.986V182.51H563.97ZM576.441 182.73C574.563 182.73 573.185 182.26 572.305 181.322C571.439 180.383 571.007 179.041 571.007 177.296C571.007 175.55 571.447 174.208 572.327 173.27C573.207 172.331 574.578 171.862 576.441 171.862C578.318 171.862 579.697 172.331 580.577 173.27C581.457 174.208 581.897 175.55 581.897 177.296C581.897 179.041 581.457 180.383 580.577 181.322C579.711 182.26 578.333 182.73 576.441 182.73ZM576.441 180.706C577.541 180.706 578.318 180.442 578.773 179.914C579.242 179.371 579.477 178.498 579.477 177.296C579.477 176.093 579.242 175.228 578.773 174.7C578.318 174.172 577.541 173.908 576.441 173.908C575.355 173.908 574.578 174.172 574.109 174.7C573.654 175.228 573.427 176.093 573.427 177.296C573.427 178.498 573.654 179.371 574.109 179.914C574.578 180.442 575.355 180.706 576.441 180.706ZM587.598 182.73C586.88 182.73 586.19 182.678 585.53 182.576C584.885 182.473 584.35 182.348 583.924 182.202V180.178C584.423 180.368 584.973 180.515 585.574 180.618C586.176 180.72 586.748 180.772 587.29 180.772C588.112 180.772 588.698 180.698 589.05 180.552C589.402 180.405 589.578 180.119 589.578 179.694C589.578 179.386 589.468 179.144 589.248 178.968C589.043 178.792 588.728 178.63 588.302 178.484C587.892 178.337 587.364 178.161 586.718 177.956C586.102 177.75 585.567 177.53 585.112 177.296C584.658 177.046 584.306 176.731 584.056 176.35C583.807 175.968 583.682 175.47 583.682 174.854C583.682 173.9 584.027 173.167 584.716 172.654C585.406 172.126 586.513 171.862 588.038 171.862C588.64 171.862 589.212 171.906 589.754 171.994C590.297 172.082 590.759 172.192 591.14 172.324V174.326C590.73 174.164 590.275 174.04 589.776 173.952C589.292 173.864 588.838 173.82 588.412 173.82C587.65 173.82 587.07 173.886 586.674 174.018C586.293 174.15 586.102 174.414 586.102 174.81C586.102 175.22 586.3 175.514 586.696 175.69C587.107 175.851 587.76 176.078 588.654 176.372C589.476 176.621 590.128 176.885 590.612 177.164C591.096 177.442 591.441 177.78 591.646 178.176C591.866 178.557 591.976 179.056 591.976 179.672C591.976 180.698 591.602 181.468 590.854 181.982C590.106 182.48 589.021 182.73 587.598 182.73ZM597.245 182.73C596.526 182.73 595.837 182.678 595.177 182.576C594.531 182.473 593.996 182.348 593.571 182.202V180.178C594.069 180.368 594.619 180.515 595.221 180.618C595.822 180.72 596.394 180.772 596.937 180.772C597.758 180.772 598.345 180.698 598.697 180.552C599.049 180.405 599.225 180.119 599.225 179.694C599.225 179.386 599.115 179.144 598.895 178.968C598.689 178.792 598.374 178.63 597.949 178.484C597.538 178.337 597.01 178.161 596.365 177.956C595.749 177.75 595.213 177.53 594.759 177.296C594.304 177.046 593.952 176.731 593.703 176.35C593.453 175.968 593.329 175.47 593.329 174.854C593.329 173.9 593.673 173.167 594.363 172.654C595.052 172.126 596.159 171.862 597.685 171.862C598.286 171.862 598.858 171.906 599.401 171.994C599.943 172.082 600.405 172.192 600.787 172.324V174.326C600.376 174.164 599.921 174.04 599.423 173.952C598.939 173.864 598.484 173.82 598.059 173.82C597.296 173.82 596.717 173.886 596.321 174.018C595.939 174.15 595.749 174.414 595.749 174.81C595.749 175.22 595.947 175.514 596.343 175.69C596.753 175.851 597.406 176.078 598.301 176.372C599.122 176.621 599.775 176.885 600.259 177.164C600.743 177.442 601.087 177.78 601.293 178.176C601.513 178.557 601.623 179.056 601.623 179.672C601.623 180.698 601.249 181.468 600.501 181.982C599.753 182.48 598.667 182.73 597.245 182.73ZM608.626 182.51L614.038 168.342H616.722L622.09 182.51H619.626L618.218 178.858H612.52L611.112 182.51H608.626ZM612.894 177.01H617.822L615.358 170.52L612.894 177.01ZM625.927 182.73C625.077 182.73 624.431 182.524 623.991 182.114C623.551 181.688 623.331 180.992 623.331 180.024V167.682H625.729V179.804C625.729 180.214 625.803 180.493 625.949 180.64C626.096 180.786 626.316 180.86 626.609 180.86C626.961 180.86 627.299 180.816 627.621 180.728V182.466C627.343 182.568 627.071 182.634 626.807 182.664C626.558 182.708 626.265 182.73 625.927 182.73ZM631.535 182.73C630.684 182.73 630.039 182.524 629.599 182.114C629.159 181.688 628.939 180.992 628.939 180.024V167.682H631.337V179.804C631.337 180.214 631.41 180.493 631.557 180.64C631.703 180.786 631.923 180.86 632.217 180.86C632.569 180.86 632.906 180.816 633.229 180.728V182.466C632.95 182.568 632.679 182.634 632.415 182.664C632.165 182.708 631.872 182.73 631.535 182.73ZM640.175 182.51V168.342H649.811V170.212H642.573V174.502H648.997V176.35H642.573V182.51H640.175ZM655.825 182.73C653.948 182.73 652.569 182.26 651.689 181.322C650.824 180.383 650.391 179.041 650.391 177.296C650.391 175.55 650.831 174.208 651.711 173.27C652.591 172.331 653.963 171.862 655.825 171.862C657.703 171.862 659.081 172.331 659.961 173.27C660.841 174.208 661.281 175.55 661.281 177.296C661.281 179.041 660.841 180.383 659.961 181.322C659.096 182.26 657.717 182.73 655.825 182.73ZM655.825 180.706C656.925 180.706 657.703 180.442 658.157 179.914C658.627 179.371 658.861 178.498 658.861 177.296C658.861 176.093 658.627 175.228 658.157 174.7C657.703 174.172 656.925 173.908 655.825 173.908C654.74 173.908 653.963 174.172 653.493 174.7C653.039 175.228 652.811 176.093 652.811 177.296C652.811 178.498 653.039 179.371 653.493 179.914C653.963 180.442 654.74 180.706 655.825 180.706ZM667.377 182.73C666.13 182.73 665.169 182.385 664.495 181.696C663.835 181.006 663.505 179.994 663.505 178.66V172.082H665.903V178.66C665.903 179.437 666.093 180.009 666.475 180.376C666.856 180.742 667.443 180.926 668.235 180.926C668.821 180.926 669.364 180.816 669.863 180.596C670.361 180.376 670.794 180.082 671.161 179.716V172.082H673.537V182.51H671.359L671.249 181.432C670.779 181.798 670.222 182.106 669.577 182.356C668.931 182.605 668.198 182.73 667.377 182.73ZM676.333 182.51V172.082H678.533L678.665 173.292C679.164 172.969 679.758 172.676 680.447 172.412C681.137 172.148 681.819 171.964 682.493 171.862V173.688C682.083 173.761 681.635 173.871 681.151 174.018C680.682 174.15 680.235 174.304 679.809 174.48C679.384 174.641 679.025 174.81 678.731 174.986V182.51H676.333ZM693.6 182.73C691.766 182.73 690.292 182.495 689.178 182.026V179.914C689.808 180.148 690.483 180.339 691.202 180.486C691.935 180.632 692.661 180.706 693.38 180.706C694.509 180.706 695.352 180.574 695.91 180.31C696.482 180.046 696.768 179.518 696.768 178.726C696.768 178.242 696.65 177.853 696.416 177.56C696.181 177.266 695.792 177.017 695.25 176.812C694.707 176.592 693.959 176.364 693.006 176.13C691.48 175.734 690.41 175.235 689.794 174.634C689.178 174.018 688.87 173.174 688.87 172.104C688.87 170.857 689.324 169.882 690.234 169.178C691.143 168.474 692.5 168.122 694.304 168.122C695.125 168.122 695.895 168.18 696.614 168.298C697.347 168.415 697.919 168.547 698.33 168.694V170.806C697.215 170.38 695.983 170.168 694.634 170.168C693.578 170.168 692.756 170.307 692.17 170.586C691.583 170.864 691.29 171.37 691.29 172.104C691.29 172.529 691.392 172.874 691.598 173.138C691.803 173.402 692.155 173.629 692.654 173.82C693.167 174.01 693.871 174.223 694.766 174.458C695.924 174.751 696.819 175.103 697.45 175.514C698.095 175.91 698.542 176.379 698.792 176.922C699.056 177.45 699.188 178.051 699.188 178.726C699.188 179.972 698.726 180.955 697.802 181.674C696.878 182.378 695.477 182.73 693.6 182.73ZM706.793 182.73C704.974 182.73 703.566 182.282 702.569 181.388C701.572 180.493 701.073 179.122 701.073 177.274C701.073 175.602 701.498 174.282 702.349 173.314C703.2 172.346 704.49 171.862 706.221 171.862C707.805 171.862 708.993 172.28 709.785 173.116C710.592 173.937 710.995 175 710.995 176.306V178.242H703.361C703.478 179.254 703.845 179.95 704.461 180.332C705.077 180.713 706.016 180.904 707.277 180.904C707.805 180.904 708.348 180.852 708.905 180.75C709.462 180.647 709.946 180.515 710.357 180.354V182.114C709.888 182.319 709.345 182.473 708.729 182.576C708.128 182.678 707.482 182.73 706.793 182.73ZM703.361 176.68H708.883V175.954C708.883 175.235 708.685 174.678 708.289 174.282C707.893 173.871 707.226 173.666 706.287 173.666C705.172 173.666 704.402 173.908 703.977 174.392C703.566 174.876 703.361 175.638 703.361 176.68ZM716.585 182.73C715.925 182.73 715.309 182.612 714.737 182.378C714.18 182.143 713.733 181.791 713.395 181.322C713.058 180.838 712.889 180.244 712.889 179.54C712.889 178.542 713.227 177.743 713.901 177.142C714.591 176.526 715.647 176.218 717.069 176.218H720.413V175.756C720.413 175.257 720.333 174.861 720.171 174.568C720.025 174.274 719.746 174.062 719.335 173.93C718.939 173.798 718.353 173.732 717.575 173.732C716.343 173.732 715.192 173.915 714.121 174.282V172.5C714.591 172.309 715.163 172.155 715.837 172.038C716.512 171.92 717.238 171.862 718.015 171.862C719.541 171.862 720.699 172.17 721.491 172.786C722.298 173.402 722.701 174.406 722.701 175.8V182.51H720.655L720.501 181.454C720.076 181.864 719.548 182.18 718.917 182.4C718.301 182.62 717.524 182.73 716.585 182.73ZM717.223 181.014C717.942 181.014 718.565 180.896 719.093 180.662C719.636 180.412 720.076 180.082 720.413 179.672V177.846H717.113C716.409 177.846 715.896 177.985 715.573 178.264C715.265 178.528 715.111 178.938 715.111 179.496C715.111 180.038 715.295 180.427 715.661 180.662C716.028 180.896 716.549 181.014 717.223 181.014ZM728.837 182.73C728.118 182.73 727.429 182.678 726.769 182.576C726.123 182.473 725.588 182.348 725.163 182.202V180.178C725.661 180.368 726.211 180.515 726.813 180.618C727.414 180.72 727.986 180.772 728.529 180.772C729.35 180.772 729.937 180.698 730.289 180.552C730.641 180.405 730.817 180.119 730.817 179.694C730.817 179.386 730.707 179.144 730.487 178.968C730.281 178.792 729.966 178.63 729.541 178.484C729.13 178.337 728.602 178.161 727.957 177.956C727.341 177.75 726.805 177.53 726.351 177.296C725.896 177.046 725.544 176.731 725.295 176.35C725.045 175.968 724.921 175.47 724.921 174.854C724.921 173.9 725.265 173.167 725.955 172.654C726.644 172.126 727.751 171.862 729.277 171.862C729.878 171.862 730.45 171.906 730.993 171.994C731.535 172.082 731.997 172.192 732.379 172.324V174.326C731.968 174.164 731.513 174.04 731.015 173.952C730.531 173.864 730.076 173.82 729.651 173.82C728.888 173.82 728.309 173.886 727.913 174.018C727.531 174.15 727.341 174.414 727.341 174.81C727.341 175.22 727.539 175.514 727.935 175.69C728.345 175.851 728.998 176.078 729.893 176.372C730.714 176.621 731.367 176.885 731.851 177.164C732.335 177.442 732.679 177.78 732.885 178.176C733.105 178.557 733.215 179.056 733.215 179.672C733.215 180.698 732.841 181.468 732.093 181.982C731.345 182.48 730.259 182.73 728.837 182.73ZM740.237 182.73C738.36 182.73 736.981 182.26 736.101 181.322C735.236 180.383 734.803 179.041 734.803 177.296C734.803 175.55 735.243 174.208 736.123 173.27C737.003 172.331 738.375 171.862 740.237 171.862C742.115 171.862 743.493 172.331 744.373 173.27C745.253 174.208 745.693 175.55 745.693 177.296C745.693 179.041 745.253 180.383 744.373 181.322C743.508 182.26 742.129 182.73 740.237 182.73ZM740.237 180.706C741.337 180.706 742.115 180.442 742.569 179.914C743.039 179.371 743.273 178.498 743.273 177.296C743.273 176.093 743.039 175.228 742.569 174.7C742.115 174.172 741.337 173.908 740.237 173.908C739.152 173.908 738.375 174.172 737.905 174.7C737.451 175.228 737.223 176.093 737.223 177.296C737.223 178.498 737.451 179.371 737.905 179.914C738.375 180.442 739.152 180.706 740.237 180.706ZM748.027 182.51V172.082H750.227L750.337 173.182C750.806 172.815 751.363 172.507 752.009 172.258C752.669 171.994 753.395 171.862 754.187 171.862C755.536 171.862 756.519 172.177 757.135 172.808C757.751 173.438 758.059 174.421 758.059 175.756V182.51H755.683V175.866C755.683 175.059 755.514 174.494 755.177 174.172C754.854 173.849 754.238 173.688 753.329 173.688C752.786 173.688 752.251 173.798 751.723 174.018C751.209 174.238 750.777 174.524 750.425 174.876V182.51H748.027ZM764.221 182.73C763.503 182.73 762.813 182.678 762.153 182.576C761.508 182.473 760.973 182.348 760.547 182.202V180.178C761.046 180.368 761.596 180.515 762.197 180.618C762.799 180.72 763.371 180.772 763.913 180.772C764.735 180.772 765.321 180.698 765.673 180.552C766.025 180.405 766.201 180.119 766.201 179.694C766.201 179.386 766.091 179.144 765.871 178.968C765.666 178.792 765.351 178.63 764.925 178.484C764.515 178.337 763.987 178.161 763.341 177.956C762.725 177.75 762.19 177.53 761.735 177.296C761.281 177.046 760.929 176.731 760.679 176.35C760.43 175.968 760.305 175.47 760.305 174.854C760.305 173.9 760.65 173.167 761.339 172.654C762.029 172.126 763.136 171.862 764.661 171.862C765.263 171.862 765.835 171.906 766.377 171.994C766.92 172.082 767.382 172.192 767.763 172.324V174.326C767.353 174.164 766.898 174.04 766.399 173.952C765.915 173.864 765.461 173.82 765.035 173.82C764.273 173.82 763.693 173.886 763.297 174.018C762.916 174.15 762.725 174.414 762.725 174.81C762.725 175.22 762.923 175.514 763.319 175.69C763.73 175.851 764.383 176.078 765.277 176.372C766.099 176.621 766.751 176.885 767.235 177.164C767.719 177.442 768.064 177.78 768.269 178.176C768.489 178.557 768.599 179.056 768.599 179.672C768.599 180.698 768.225 181.468 767.477 181.982C766.729 182.48 765.644 182.73 764.221 182.73ZM770.51 182.51V180.64H772.534V182.51H770.51Z" fill="#151716"/>
<path d="M70.3218 88.8135V55.0695L62.1138 56.2855V42.6815L86.6618 39.1095V88.8135H70.3218Z" fill="white"/>
</svg>
