<svg width="900" height="275" viewBox="0 0 900 275" fill="none" xmlns="http://www.w3.org/2000/svg">
<g clip-path="url(#clip0_1760_18037)">
<path d="M885.212 67.124H363.633L82.3203 186.654V252.039H885.212V67.124Z" stroke="white" stroke-opacity="0.34" stroke-width="2.1" stroke-miterlimit="10"/>
<path d="M874.816 48.4385V241.587H67.6797V123.493H132.987H148.716V48.4385H874.816Z" fill="white"/>
<path d="M134.084 15.4619H16.918V111.156H134.084V15.4619Z" fill="#233D4D"/>
<path d="M185.797 140.495C181.53 140.495 178.263 139.455 175.997 137.375C173.757 135.295 172.637 131.935 172.637 127.295C172.637 124.095 173.143 121.521 174.157 119.575C175.17 117.601 176.65 116.175 178.597 115.295C180.57 114.388 182.97 113.935 185.797 113.935C188.623 113.935 191.01 114.388 192.957 115.295C194.93 116.175 196.423 117.601 197.437 119.575C198.45 121.521 198.957 124.095 198.957 127.295C198.957 131.935 197.823 135.295 195.557 137.375C193.29 139.455 190.037 140.495 185.797 140.495ZM185.797 134.095C187.717 134.095 189.103 133.561 189.957 132.495C190.837 131.401 191.277 129.668 191.277 127.295C191.277 124.761 190.837 122.975 189.957 121.935C189.103 120.868 187.717 120.335 185.797 120.335C183.877 120.335 182.477 120.868 181.597 121.935C180.743 122.975 180.317 124.761 180.317 127.295C180.317 129.668 180.743 131.401 181.597 132.495C182.477 133.561 183.877 134.095 185.797 134.095ZM213.757 140.495C211.357 140.495 209.237 140.108 207.397 139.335C205.584 138.535 204.157 137.375 203.117 135.855C202.077 134.308 201.557 132.415 201.557 130.175V114.335H209.077V129.375C209.077 132.521 210.637 134.095 213.757 134.095C215.25 134.095 216.397 133.708 217.197 132.935C217.997 132.161 218.397 130.975 218.397 129.375V114.335H225.917V130.175C225.917 132.415 225.397 134.308 224.357 135.855C223.344 137.375 221.917 138.535 220.077 139.335C218.264 140.108 216.157 140.495 213.757 140.495ZM234.975 140.095V119.935H227.735V114.335H249.735V119.935H242.495V140.095H234.975ZM251.718 140.095V114.335H264.998C267.105 114.335 268.838 114.761 270.198 115.615C271.585 116.441 272.611 117.575 273.278 119.015C273.945 120.455 274.278 122.055 274.278 123.815C274.278 125.628 273.891 127.241 273.118 128.655C272.345 130.068 271.251 131.175 269.838 131.975C268.425 132.775 266.758 133.175 264.838 133.175H259.238V140.095H251.718ZM259.238 127.415H263.118C264.291 127.415 265.158 127.081 265.718 126.415C266.305 125.748 266.598 124.881 266.598 123.815C266.598 122.668 266.331 121.761 265.798 121.095C265.265 120.428 264.438 120.095 263.318 120.095H259.238V127.415ZM276.288 140.095V114.335H295.808V120.095H283.808V124.295H294.328V130.135H283.808V134.335H295.808V140.095H276.288ZM298.202 140.095V114.335H311.602C313.709 114.335 315.429 114.721 316.762 115.495C318.122 116.268 319.136 117.348 319.802 118.735C320.469 120.095 320.802 121.681 320.802 123.495C320.802 125.228 320.362 126.761 319.482 128.095C318.629 129.401 317.482 130.401 316.042 131.095C316.336 131.335 316.589 131.628 316.802 131.975C317.016 132.295 317.256 132.748 317.522 133.335L320.482 140.095H312.642L309.922 133.895C309.709 133.415 309.442 133.081 309.122 132.895C308.829 132.681 308.402 132.575 307.842 132.575H305.722V140.095H298.202ZM305.722 126.815H309.682C310.776 126.815 311.616 126.535 312.202 125.975C312.816 125.388 313.122 124.561 313.122 123.495C313.122 121.228 312.056 120.095 309.922 120.095H305.722V126.815ZM323.593 140.095V114.335H342.953V119.935H331.113V124.375H341.433V130.055H331.113V140.095H323.593ZM357.32 140.495C353.053 140.495 349.787 139.455 347.52 137.375C345.28 135.295 344.16 131.935 344.16 127.295C344.16 124.095 344.667 121.521 345.68 119.575C346.693 117.601 348.173 116.175 350.12 115.295C352.093 114.388 354.493 113.935 357.32 113.935C360.147 113.935 362.533 114.388 364.48 115.295C366.453 116.175 367.947 117.601 368.96 119.575C369.973 121.521 370.48 124.095 370.48 127.295C370.48 131.935 369.347 135.295 367.08 137.375C364.813 139.455 361.56 140.495 357.32 140.495ZM357.32 134.095C359.24 134.095 360.627 133.561 361.48 132.495C362.36 131.401 362.8 129.668 362.8 127.295C362.8 124.761 362.36 122.975 361.48 121.935C360.627 120.868 359.24 120.335 357.32 120.335C355.4 120.335 354 120.868 353.12 121.935C352.267 122.975 351.84 124.761 351.84 127.295C351.84 129.668 352.267 131.401 353.12 132.495C354 133.561 355.4 134.095 357.32 134.095ZM373.28 140.095V114.335H386.68C388.787 114.335 390.507 114.721 391.84 115.495C393.2 116.268 394.214 117.348 394.88 118.735C395.547 120.095 395.88 121.681 395.88 123.495C395.88 125.228 395.44 126.761 394.56 128.095C393.707 129.401 392.56 130.401 391.12 131.095C391.414 131.335 391.667 131.628 391.88 131.975C392.094 132.295 392.334 132.748 392.6 133.335L395.56 140.095H387.72L385 133.895C384.787 133.415 384.52 133.081 384.2 132.895C383.907 132.681 383.48 132.575 382.92 132.575H380.8V140.095H373.28ZM380.8 126.815H384.76C385.854 126.815 386.694 126.535 387.28 125.975C387.894 125.388 388.2 124.561 388.2 123.495C388.2 121.228 387.134 120.095 385 120.095H380.8V126.815ZM398.671 140.095V114.335H405.991L412.391 127.415L418.751 114.335H426.031V140.095H418.511V127.215L414.391 135.695H410.351L406.191 127.215V140.095H398.671ZM437.851 140.095V114.335H445.371V140.095H437.851ZM448.984 140.095V114.335H455.384L465.104 127.975V114.335H472.624V140.095H466.184L456.504 126.495V140.095H448.984ZM484.413 140.095V114.335H491.933V123.415L499.733 114.335H508.293L499.213 124.895L508.933 140.095H500.933L494.573 129.695L491.933 132.655V140.095H484.413ZM511.718 140.095V114.335H531.238V120.095H519.238V124.295H529.758V130.135H519.238V134.335H531.238V140.095H511.718ZM542.112 140.095V130.655L532.832 114.335H540.672L545.872 124.055L551.072 114.335H558.912L549.632 130.655V140.095H542.112ZM583.481 140.495C578.814 140.495 575.254 139.348 572.801 137.055C570.348 134.761 569.121 131.521 569.121 127.335C569.121 123.015 570.321 119.708 572.721 117.415C575.121 115.095 578.694 113.935 583.441 113.935C585.041 113.935 586.468 114.055 587.721 114.295C588.974 114.535 590.174 114.868 591.321 115.295V121.855C589.028 120.841 586.574 120.335 583.961 120.335C581.534 120.335 579.734 120.895 578.561 122.015C577.388 123.108 576.801 124.881 576.801 127.335C576.801 129.735 577.414 131.468 578.641 132.535C579.894 133.575 581.694 134.095 584.041 134.095C585.321 134.095 586.561 133.975 587.761 133.735C588.988 133.495 590.201 133.121 591.401 132.615V139.215C590.254 139.615 589.041 139.921 587.761 140.135C586.508 140.375 585.081 140.495 583.481 140.495ZM606.187 140.495C601.921 140.495 598.654 139.455 596.387 137.375C594.147 135.295 593.027 131.935 593.027 127.295C593.027 124.095 593.534 121.521 594.547 119.575C595.561 117.601 597.041 116.175 598.987 115.295C600.961 114.388 603.361 113.935 606.187 113.935C609.014 113.935 611.401 114.388 613.347 115.295C615.321 116.175 616.814 117.601 617.827 119.575C618.841 121.521 619.347 124.095 619.347 127.295C619.347 131.935 618.214 135.295 615.947 137.375C613.681 139.455 610.427 140.495 606.187 140.495ZM606.187 134.095C608.107 134.095 609.494 133.561 610.347 132.495C611.227 131.401 611.667 129.668 611.667 127.295C611.667 124.761 611.227 122.975 610.347 121.935C609.494 120.868 608.107 120.335 606.187 120.335C604.267 120.335 602.867 120.868 601.987 121.935C601.134 122.975 600.707 124.761 600.707 127.295C600.707 129.668 601.134 131.401 601.987 132.495C602.867 133.561 604.267 134.095 606.187 134.095ZM622.148 140.095V114.335H629.468L635.868 127.415L642.228 114.335H649.508V140.095H641.988V127.215L637.868 135.695H633.828L629.668 127.215V140.095H622.148ZM653.124 140.095V114.335H666.404C668.511 114.335 670.244 114.761 671.604 115.615C672.991 116.441 674.018 117.575 674.684 119.015C675.351 120.455 675.684 122.055 675.684 123.815C675.684 125.628 675.298 127.241 674.524 128.655C673.751 130.068 672.658 131.175 671.244 131.975C669.831 132.775 668.164 133.175 666.244 133.175H660.644V140.095H653.124ZM660.644 127.415H664.524C665.698 127.415 666.564 127.081 667.124 126.415C667.711 125.748 668.004 124.881 668.004 123.815C668.004 122.668 667.738 121.761 667.204 121.095C666.671 120.428 665.844 120.095 664.724 120.095H660.644V127.415ZM677.695 140.095V114.335H697.215V120.095H685.215V124.295H695.735V130.135H685.215V134.335H697.215V140.095H677.695ZM705.249 140.095V119.935H698.009V114.335H720.009V119.935H712.769V140.095H705.249ZM721.991 140.095V114.335H729.511V140.095H721.991ZM738.764 140.095V119.935H731.524V114.335H753.524V119.935H746.284V140.095H738.764ZM755.507 140.095V114.335H763.027V140.095H755.507ZM779 140.495C774.733 140.495 771.467 139.455 769.2 137.375C766.96 135.295 765.84 131.935 765.84 127.295C765.84 124.095 766.347 121.521 767.36 119.575C768.373 117.601 769.853 116.175 771.8 115.295C773.773 114.388 776.173 113.935 779 113.935C781.827 113.935 784.213 114.388 786.16 115.295C788.133 116.175 789.627 117.601 790.64 119.575C791.653 121.521 792.16 124.095 792.16 127.295C792.16 131.935 791.027 135.295 788.76 137.375C786.493 139.455 783.24 140.495 779 140.495ZM779 134.095C780.92 134.095 782.307 133.561 783.16 132.495C784.04 131.401 784.48 129.668 784.48 127.295C784.48 124.761 784.04 122.975 783.16 121.935C782.307 120.868 780.92 120.335 779 120.335C777.08 120.335 775.68 120.868 774.8 121.935C773.947 122.975 773.52 124.761 773.52 127.295C773.52 129.668 773.947 131.401 774.8 132.495C775.68 133.561 777.08 134.095 779 134.095ZM794.96 140.095V114.335H801.36L811.08 127.975V114.335H818.6V140.095H812.16L802.48 126.495V140.095H794.96ZM830.627 140.495C828.893 140.495 827.253 140.361 825.707 140.095C824.16 139.801 822.84 139.401 821.747 138.895V132.695C822.947 133.255 824.28 133.708 825.747 134.055C827.213 134.401 828.587 134.575 829.867 134.575C831.2 134.575 832.2 134.468 832.867 134.255C833.56 134.015 833.907 133.495 833.907 132.695C833.907 132.135 833.707 131.695 833.307 131.375C832.933 131.055 832.333 130.761 831.507 130.495C830.707 130.228 829.653 129.895 828.347 129.495C826.613 128.935 825.24 128.321 824.227 127.655C823.213 126.988 822.48 126.175 822.027 125.215C821.6 124.255 821.387 123.081 821.387 121.695C821.387 119.161 822.28 117.241 824.067 115.935C825.88 114.601 828.56 113.935 832.107 113.935C833.52 113.935 834.973 114.055 836.467 114.295C837.987 114.535 839.213 114.801 840.147 115.095V121.335C838.893 120.828 837.693 120.468 836.547 120.255C835.4 120.041 834.32 119.935 833.307 119.935C832.133 119.935 831.133 120.028 830.307 120.215C829.48 120.401 829.067 120.881 829.067 121.655C829.067 122.321 829.413 122.815 830.107 123.135C830.827 123.428 832.093 123.815 833.907 124.295C836.013 124.855 837.613 125.535 838.707 126.335C839.827 127.135 840.587 128.068 840.987 129.135C841.387 130.175 841.587 131.361 841.587 132.695C841.587 135.041 840.68 136.935 838.867 138.375C837.053 139.788 834.307 140.495 830.627 140.495Z" fill="#233D4D"/>
<path d="M173.023 182.165V167.997H175.421V180.317H182.681V182.165H173.023ZM184.688 169.559V167.579H187.306V169.559H184.688ZM184.886 182.165V173.563H183.302L183.522 171.737H187.284V182.165H184.886ZM190.081 182.165V167.337H192.479V175.917L196.857 171.737H199.607L195.361 175.939L199.849 182.165H197.319L193.865 177.215L192.479 178.535V182.165H190.081ZM205.738 182.385C203.92 182.385 202.512 181.938 201.514 181.043C200.517 180.148 200.018 178.777 200.018 176.929C200.018 175.257 200.444 173.937 201.294 172.969C202.145 172.001 203.436 171.517 205.166 171.517C206.75 171.517 207.938 171.935 208.73 172.771C209.537 173.592 209.94 174.656 209.94 175.961V177.897H202.306C202.424 178.909 202.79 179.606 203.406 179.987C204.022 180.368 204.961 180.559 206.222 180.559C206.75 180.559 207.293 180.508 207.85 180.405C208.408 180.302 208.892 180.17 209.302 180.009V181.769C208.833 181.974 208.29 182.128 207.674 182.231C207.073 182.334 206.428 182.385 205.738 182.385ZM202.306 176.335H207.828V175.609C207.828 174.89 207.63 174.333 207.234 173.937C206.838 173.526 206.171 173.321 205.232 173.321C204.118 173.321 203.348 173.563 202.922 174.047C202.512 174.531 202.306 175.294 202.306 176.335ZM217.345 182.165V167.997H224.209C225.617 167.997 226.658 168.327 227.333 168.987C228.008 169.647 228.345 170.578 228.345 171.781C228.345 172.544 228.191 173.189 227.883 173.717C227.575 174.23 227.164 174.619 226.651 174.883C227.34 175.074 227.883 175.418 228.279 175.917C228.69 176.401 228.895 177.12 228.895 178.073C228.895 179.452 228.521 180.478 227.773 181.153C227.04 181.828 225.954 182.165 224.517 182.165H217.345ZM219.743 174.047H223.879C224.686 174.047 225.258 173.864 225.595 173.497C225.947 173.116 226.123 172.61 226.123 171.979C226.123 171.246 225.947 170.703 225.595 170.351C225.243 169.984 224.583 169.801 223.615 169.801H219.743V174.047ZM219.743 180.405H224.011C224.862 180.405 225.485 180.229 225.881 179.877C226.277 179.51 226.475 178.88 226.475 177.985C226.475 177.252 226.277 176.709 225.881 176.357C225.5 175.99 224.796 175.807 223.769 175.807H219.743V180.405ZM236.218 182.385C234.341 182.385 232.962 181.916 232.082 180.977C231.217 180.038 230.784 178.696 230.784 176.951C230.784 175.206 231.224 173.864 232.104 172.925C232.984 171.986 234.355 171.517 236.218 171.517C238.095 171.517 239.474 171.986 240.354 172.925C241.234 173.864 241.674 175.206 241.674 176.951C241.674 178.696 241.234 180.038 240.354 180.977C239.489 181.916 238.11 182.385 236.218 182.385ZM236.218 180.361C237.318 180.361 238.095 180.097 238.55 179.569C239.019 179.026 239.254 178.154 239.254 176.951C239.254 175.748 239.019 174.883 238.55 174.355C238.095 173.827 237.318 173.563 236.218 173.563C235.133 173.563 234.355 173.827 233.886 174.355C233.431 174.883 233.204 175.748 233.204 176.951C233.204 178.154 233.431 179.026 233.886 179.569C234.355 180.097 235.133 180.361 236.218 180.361ZM249.001 182.385C247.124 182.385 245.745 181.916 244.865 180.977C244 180.038 243.567 178.696 243.567 176.951C243.567 175.206 244.007 173.864 244.887 172.925C245.767 171.986 247.138 171.517 249.001 171.517C250.878 171.517 252.257 171.986 253.137 172.925C254.017 173.864 254.457 175.206 254.457 176.951C254.457 178.696 254.017 180.038 253.137 180.977C252.272 181.916 250.893 182.385 249.001 182.385ZM249.001 180.361C250.101 180.361 250.878 180.097 251.333 179.569C251.802 179.026 252.037 178.154 252.037 176.951C252.037 175.748 251.802 174.883 251.333 174.355C250.878 173.827 250.101 173.563 249.001 173.563C247.916 173.563 247.138 173.827 246.669 174.355C246.214 174.883 245.987 175.748 245.987 176.951C245.987 178.154 246.214 179.026 246.669 179.569C247.138 180.097 247.916 180.361 249.001 180.361ZM260.159 182.385C259.44 182.385 258.751 182.334 258.091 182.231C257.446 182.128 256.91 182.004 256.485 181.857V179.833C256.984 180.024 257.534 180.17 258.135 180.273C258.736 180.376 259.308 180.427 259.851 180.427C260.672 180.427 261.259 180.354 261.611 180.207C261.963 180.06 262.139 179.774 262.139 179.349C262.139 179.041 262.029 178.799 261.809 178.623C261.604 178.447 261.288 178.286 260.863 178.139C260.452 177.992 259.924 177.816 259.279 177.611C258.663 177.406 258.128 177.186 257.673 176.951C257.218 176.702 256.866 176.386 256.617 176.005C256.368 175.624 256.243 175.125 256.243 174.509C256.243 173.556 256.588 172.822 257.277 172.309C257.966 171.781 259.074 171.517 260.599 171.517C261.2 171.517 261.772 171.561 262.315 171.649C262.858 171.737 263.32 171.847 263.701 171.979V173.981C263.29 173.82 262.836 173.695 262.337 173.607C261.853 173.519 261.398 173.475 260.973 173.475C260.21 173.475 259.631 173.541 259.235 173.673C258.854 173.805 258.663 174.069 258.663 174.465C258.663 174.876 258.861 175.169 259.257 175.345C259.668 175.506 260.32 175.734 261.215 176.027C262.036 176.276 262.689 176.54 263.173 176.819C263.657 177.098 264.002 177.435 264.207 177.831C264.427 178.212 264.537 178.711 264.537 179.327C264.537 180.354 264.163 181.124 263.415 181.637C262.667 182.136 261.582 182.385 260.159 182.385ZM270.548 182.385C269.433 182.385 268.597 182.092 268.04 181.505C267.497 180.904 267.226 180.09 267.226 179.063V173.607H265.686V171.737H267.226V169.339L269.602 168.613V171.737H272.374L272.22 173.607H269.602V178.931C269.602 179.532 269.741 179.958 270.02 180.207C270.298 180.442 270.753 180.559 271.384 180.559C271.78 180.559 272.198 180.486 272.638 180.339V182.033C272.066 182.268 271.369 182.385 270.548 182.385ZM279.752 182.385C277.933 182.385 276.525 181.938 275.528 181.043C274.531 180.148 274.032 178.777 274.032 176.929C274.032 175.257 274.457 173.937 275.308 172.969C276.159 172.001 277.449 171.517 279.18 171.517C280.764 171.517 281.952 171.935 282.744 172.771C283.551 173.592 283.954 174.656 283.954 175.961V177.897H276.32C276.437 178.909 276.804 179.606 277.42 179.987C278.036 180.368 278.975 180.559 280.236 180.559C280.764 180.559 281.307 180.508 281.864 180.405C282.421 180.302 282.905 180.17 283.316 180.009V181.769C282.847 181.974 282.304 182.128 281.688 182.231C281.087 182.334 280.441 182.385 279.752 182.385ZM276.32 176.335H281.842V175.609C281.842 174.89 281.644 174.333 281.248 173.937C280.852 173.526 280.185 173.321 279.246 173.321C278.131 173.321 277.361 173.563 276.936 174.047C276.525 174.531 276.32 175.294 276.32 176.335ZM286.288 182.165V171.737H288.488L288.62 172.947C289.119 172.624 289.713 172.331 290.402 172.067C291.092 171.803 291.774 171.62 292.448 171.517V173.343C292.038 173.416 291.59 173.526 291.106 173.673C290.637 173.805 290.19 173.959 289.764 174.135C289.339 174.296 288.98 174.465 288.686 174.641V182.165H286.288ZM297.563 182.385C296.845 182.385 296.155 182.334 295.495 182.231C294.85 182.128 294.315 182.004 293.889 181.857V179.833C294.388 180.024 294.938 180.17 295.539 180.273C296.141 180.376 296.713 180.427 297.255 180.427C298.077 180.427 298.663 180.354 299.015 180.207C299.367 180.06 299.543 179.774 299.543 179.349C299.543 179.041 299.433 178.799 299.213 178.623C299.008 178.447 298.693 178.286 298.267 178.139C297.857 177.992 297.329 177.816 296.683 177.611C296.067 177.406 295.532 177.186 295.077 176.951C294.623 176.702 294.271 176.386 294.021 176.005C293.772 175.624 293.647 175.125 293.647 174.509C293.647 173.556 293.992 172.822 294.681 172.309C295.371 171.781 296.478 171.517 298.003 171.517C298.605 171.517 299.177 171.561 299.719 171.649C300.262 171.737 300.724 171.847 301.105 171.979V173.981C300.695 173.82 300.24 173.695 299.741 173.607C299.257 173.519 298.803 173.475 298.377 173.475C297.615 173.475 297.035 173.541 296.639 173.673C296.258 173.805 296.067 174.069 296.067 174.465C296.067 174.876 296.265 175.169 296.661 175.345C297.072 175.506 297.725 175.734 298.619 176.027C299.441 176.276 300.093 176.54 300.577 176.819C301.061 177.098 301.406 177.435 301.611 177.831C301.831 178.212 301.941 178.711 301.941 179.327C301.941 180.354 301.567 181.124 300.819 181.637C300.071 182.136 298.986 182.385 297.563 182.385ZM303.852 184.805L304.512 180.647H306.602L305.59 184.805H303.852ZM316.885 182.165L313.585 167.997H315.939L318.337 178.623L321.021 169.713V167.997H322.979L325.993 178.623L328.435 167.997H330.767L327.489 182.165H325.135L322.297 172.243L319.283 182.165H316.885ZM336.75 182.385C334.931 182.385 333.523 181.938 332.526 181.043C331.529 180.148 331.03 178.777 331.03 176.929C331.03 175.257 331.455 173.937 332.306 172.969C333.157 172.001 334.447 171.517 336.178 171.517C337.762 171.517 338.95 171.935 339.742 172.771C340.549 173.592 340.952 174.656 340.952 175.961V177.897H333.318C333.435 178.909 333.802 179.606 334.418 179.987C335.034 180.368 335.973 180.559 337.234 180.559C337.762 180.559 338.305 180.508 338.862 180.405C339.419 180.302 339.903 180.17 340.314 180.009V181.769C339.845 181.974 339.302 182.128 338.686 182.231C338.085 182.334 337.439 182.385 336.75 182.385ZM333.318 176.335H338.84V175.609C338.84 174.89 338.642 174.333 338.246 173.937C337.85 173.526 337.183 173.321 336.244 173.321C335.129 173.321 334.359 173.563 333.934 174.047C333.523 174.531 333.318 175.294 333.318 176.335ZM348.566 182.385C346.748 182.385 345.34 181.938 344.342 181.043C343.345 180.148 342.846 178.777 342.846 176.929C342.846 175.257 343.272 173.937 344.122 172.969C344.973 172.001 346.264 171.517 347.994 171.517C349.578 171.517 350.766 171.935 351.558 172.771C352.365 173.592 352.768 174.656 352.768 175.961V177.897H345.134C345.252 178.909 345.618 179.606 346.234 179.987C346.85 180.368 347.789 180.559 349.05 180.559C349.578 180.559 350.121 180.508 350.678 180.405C351.236 180.302 351.72 180.17 352.13 180.009V181.769C351.661 181.974 351.118 182.128 350.502 182.231C349.901 182.334 349.256 182.385 348.566 182.385ZM345.134 176.335H350.656V175.609C350.656 174.89 350.458 174.333 350.062 173.937C349.666 173.526 348.999 173.321 348.06 173.321C346.946 173.321 346.176 173.563 345.75 174.047C345.34 174.531 345.134 175.294 345.134 176.335ZM355.103 182.165V167.337H357.501V175.917L361.879 171.737H364.629L360.383 175.939L364.871 182.165H362.341L358.887 177.215L357.501 178.535V182.165H355.103ZM370.76 182.385C368.941 182.385 367.533 181.938 366.536 181.043C365.538 180.148 365.04 178.777 365.04 176.929C365.04 175.257 365.465 173.937 366.316 172.969C367.166 172.001 368.457 171.517 370.188 171.517C371.772 171.517 372.96 171.935 373.752 172.771C374.558 173.592 374.962 174.656 374.962 175.961V177.897H367.328C367.445 178.909 367.812 179.606 368.428 179.987C369.044 180.368 369.982 180.559 371.244 180.559C371.772 180.559 372.314 180.508 372.872 180.405C373.429 180.302 373.913 180.17 374.324 180.009V181.769C373.854 181.974 373.312 182.128 372.696 182.231C372.094 182.334 371.449 182.385 370.76 182.385ZM367.328 176.335H372.85V175.609C372.85 174.89 372.652 174.333 372.256 173.937C371.86 173.526 371.192 173.321 370.254 173.321C369.139 173.321 368.369 173.563 367.944 174.047C367.533 174.531 367.328 175.294 367.328 176.335ZM377.296 182.165V171.737H379.496L379.606 172.837C380.075 172.47 380.633 172.162 381.278 171.913C381.938 171.649 382.664 171.517 383.456 171.517C384.805 171.517 385.788 171.832 386.404 172.463C387.02 173.094 387.328 174.076 387.328 175.411V182.165H384.952V175.521C384.952 174.714 384.783 174.15 384.446 173.827C384.123 173.504 383.507 173.343 382.598 173.343C382.055 173.343 381.52 173.453 380.992 173.673C380.479 173.893 380.046 174.179 379.694 174.531V182.165H377.296ZM394.112 182.385C393.173 182.385 392.345 182.224 391.626 181.901C390.907 181.578 390.35 181.043 389.954 180.295C389.558 179.547 389.36 178.542 389.36 177.281C389.36 176.034 389.573 174.986 389.998 174.135C390.423 173.27 391.01 172.617 391.758 172.177C392.521 171.737 393.379 171.517 394.332 171.517C394.963 171.517 395.52 171.59 396.004 171.737C396.503 171.884 396.979 172.111 397.434 172.419V167.337H399.832V182.165H397.786L397.632 181.131C397.163 181.556 396.649 181.872 396.092 182.077C395.535 182.282 394.875 182.385 394.112 182.385ZM394.75 180.581C395.821 180.581 396.715 180.214 397.434 179.481V174.267C396.745 173.651 395.879 173.343 394.838 173.343C393.826 173.343 393.063 173.68 392.55 174.355C392.037 175.03 391.78 176.012 391.78 177.303C391.78 178.55 392.015 179.408 392.484 179.877C392.968 180.346 393.723 180.581 394.75 180.581ZM407.675 182.165V167.997H414.539C415.947 167.997 416.988 168.327 417.663 168.987C418.338 169.647 418.675 170.578 418.675 171.781C418.675 172.544 418.521 173.189 418.213 173.717C417.905 174.23 417.494 174.619 416.981 174.883C417.67 175.074 418.213 175.418 418.609 175.917C419.02 176.401 419.225 177.12 419.225 178.073C419.225 179.452 418.851 180.478 418.103 181.153C417.37 181.828 416.284 182.165 414.847 182.165H407.675ZM410.073 174.047H414.209C415.016 174.047 415.588 173.864 415.925 173.497C416.277 173.116 416.453 172.61 416.453 171.979C416.453 171.246 416.277 170.703 415.925 170.351C415.573 169.984 414.913 169.801 413.945 169.801H410.073V174.047ZM410.073 180.405H414.341C415.192 180.405 415.815 180.229 416.211 179.877C416.607 179.51 416.805 178.88 416.805 177.985C416.805 177.252 416.607 176.709 416.211 176.357C415.83 175.99 415.126 175.807 414.099 175.807H410.073V180.405ZM424.15 182.385C423.299 182.385 422.654 182.18 422.214 181.769C421.774 181.344 421.554 180.647 421.554 179.679V167.337H423.952V179.459C423.952 179.87 424.025 180.148 424.172 180.295C424.319 180.442 424.539 180.515 424.832 180.515C425.184 180.515 425.521 180.471 425.844 180.383V182.121C425.565 182.224 425.294 182.29 425.03 182.319C424.781 182.363 424.487 182.385 424.15 182.385ZM427.827 169.559V167.579H430.445V169.559H427.827ZM428.025 182.165V173.563H426.441L426.661 171.737H430.423V182.165H428.025ZM437.202 182.385C436.087 182.385 435.251 182.092 434.694 181.505C434.151 180.904 433.88 180.09 433.88 179.063V173.607H432.34V171.737H433.88V169.339L436.256 168.613V171.737H439.028L438.874 173.607H436.256V178.931C436.256 179.532 436.395 179.958 436.674 180.207C436.953 180.442 437.407 180.559 438.038 180.559C438.434 180.559 438.852 180.486 439.292 180.339V182.033C438.72 182.268 438.023 182.385 437.202 182.385ZM440.686 182.165V180.911L446.384 173.695H440.95V171.737H449.332V173.211L443.744 180.317H449.486V182.165H440.686ZM456.697 182.385C454.879 182.385 453.471 181.938 452.473 181.043C451.476 180.148 450.977 178.777 450.977 176.929C450.977 175.257 451.403 173.937 452.253 172.969C453.104 172.001 454.395 171.517 456.125 171.517C457.709 171.517 458.897 171.935 459.689 172.771C460.496 173.592 460.899 174.656 460.899 175.961V177.897H453.265C453.383 178.909 453.749 179.606 454.365 179.987C454.981 180.368 455.92 180.559 457.181 180.559C457.709 180.559 458.252 180.508 458.809 180.405C459.367 180.302 459.851 180.17 460.261 180.009V181.769C459.792 181.974 459.249 182.128 458.633 182.231C458.032 182.334 457.387 182.385 456.697 182.385ZM453.265 176.335H458.787V175.609C458.787 174.89 458.589 174.333 458.193 173.937C457.797 173.526 457.13 173.321 456.191 173.321C455.077 173.321 454.307 173.563 453.881 174.047C453.471 174.531 453.265 175.294 453.265 176.335ZM466.602 182.385C465.884 182.385 465.194 182.334 464.534 182.231C463.889 182.128 463.354 182.004 462.928 181.857V179.833C463.427 180.024 463.977 180.17 464.578 180.273C465.18 180.376 465.752 180.427 466.294 180.427C467.116 180.427 467.702 180.354 468.054 180.207C468.406 180.06 468.582 179.774 468.582 179.349C468.582 179.041 468.472 178.799 468.252 178.623C468.047 178.447 467.732 178.286 467.306 178.139C466.896 177.992 466.368 177.816 465.722 177.611C465.106 177.406 464.571 177.186 464.116 176.951C463.662 176.702 463.31 176.386 463.06 176.005C462.811 175.624 462.686 175.125 462.686 174.509C462.686 173.556 463.031 172.822 463.72 172.309C464.41 171.781 465.517 171.517 467.042 171.517C467.644 171.517 468.216 171.561 468.758 171.649C469.301 171.737 469.763 171.847 470.144 171.979V173.981C469.734 173.82 469.279 173.695 468.78 173.607C468.296 173.519 467.842 173.475 467.416 173.475C466.654 173.475 466.074 173.541 465.678 173.673C465.297 173.805 465.106 174.069 465.106 174.465C465.106 174.876 465.304 175.169 465.7 175.345C466.111 175.506 466.764 175.734 467.658 176.027C468.48 176.276 469.132 176.54 469.616 176.819C470.1 177.098 470.445 177.435 470.65 177.831C470.87 178.212 470.98 178.711 470.98 179.327C470.98 180.354 470.606 181.124 469.858 181.637C469.11 182.136 468.025 182.385 466.602 182.385ZM472.891 184.805L473.551 180.647H475.641L474.629 184.805H472.891ZM482.624 182.165L488.036 167.997H490.72L496.088 182.165H493.624L492.216 178.513H486.518L485.11 182.165H482.624ZM486.892 176.665H491.82L489.356 170.175L486.892 176.665ZM498.447 182.165V171.737H500.647L500.757 172.837C501.226 172.47 501.783 172.162 502.429 171.913C503.089 171.649 503.815 171.517 504.607 171.517C505.956 171.517 506.939 171.832 507.555 172.463C508.171 173.094 508.479 174.076 508.479 175.411V182.165H506.103V175.521C506.103 174.714 505.934 174.15 505.597 173.827C505.274 173.504 504.658 173.343 503.749 173.343C503.206 173.343 502.671 173.453 502.143 173.673C501.629 173.893 501.197 174.179 500.845 174.531V182.165H498.447ZM515.262 182.385C514.324 182.385 513.495 182.224 512.776 181.901C512.058 181.578 511.5 181.043 511.104 180.295C510.708 179.547 510.51 178.542 510.51 177.281C510.51 176.034 510.723 174.986 511.148 174.135C511.574 173.27 512.16 172.617 512.908 172.177C513.671 171.737 514.529 171.517 515.482 171.517C516.113 171.517 516.67 171.59 517.154 171.737C517.653 171.884 518.13 172.111 518.584 172.419V167.337H520.982V182.165H518.936L518.782 181.131C518.313 181.556 517.8 181.872 517.242 182.077C516.685 182.282 516.025 182.385 515.262 182.385ZM515.9 180.581C516.971 180.581 517.866 180.214 518.584 179.481V174.267C517.895 173.651 517.03 173.343 515.988 173.343C514.976 173.343 514.214 173.68 513.7 174.355C513.187 175.03 512.93 176.012 512.93 177.303C512.93 178.55 513.165 179.408 513.634 179.877C514.118 180.346 514.874 180.581 515.9 180.581ZM533.115 182.385C531.282 182.385 529.808 182.15 528.693 181.681V179.569C529.324 179.804 529.999 179.994 530.717 180.141C531.451 180.288 532.177 180.361 532.895 180.361C534.025 180.361 534.868 180.229 535.425 179.965C535.997 179.701 536.283 179.173 536.283 178.381C536.283 177.897 536.166 177.508 535.931 177.215C535.697 176.922 535.308 176.672 534.765 176.467C534.223 176.247 533.475 176.02 532.521 175.785C530.996 175.389 529.925 174.89 529.309 174.289C528.693 173.673 528.385 172.83 528.385 171.759C528.385 170.512 528.84 169.537 529.749 168.833C530.659 168.129 532.015 167.777 533.819 167.777C534.641 167.777 535.411 167.836 536.129 167.953C536.863 168.07 537.435 168.202 537.845 168.349V170.461C536.731 170.036 535.499 169.823 534.149 169.823C533.093 169.823 532.272 169.962 531.685 170.241C531.099 170.52 530.805 171.026 530.805 171.759C530.805 172.184 530.908 172.529 531.113 172.793C531.319 173.057 531.671 173.284 532.169 173.475C532.683 173.666 533.387 173.878 534.281 174.113C535.44 174.406 536.335 174.758 536.965 175.169C537.611 175.565 538.058 176.034 538.307 176.577C538.571 177.105 538.703 177.706 538.703 178.381C538.703 179.628 538.241 180.61 537.317 181.329C536.393 182.033 534.993 182.385 533.115 182.385ZM546.309 182.385C544.49 182.385 543.082 181.938 542.085 181.043C541.087 180.148 540.589 178.777 540.589 176.929C540.589 175.257 541.014 173.937 541.865 172.969C542.715 172.001 544.006 171.517 545.737 171.517C547.321 171.517 548.509 171.935 549.301 172.771C550.107 173.592 550.511 174.656 550.511 175.961V177.897H542.877C542.994 178.909 543.361 179.606 543.977 179.987C544.593 180.368 545.531 180.559 546.793 180.559C547.321 180.559 547.863 180.508 548.421 180.405C548.978 180.302 549.462 180.17 549.873 180.009V181.769C549.403 181.974 548.861 182.128 548.245 182.231C547.643 182.334 546.998 182.385 546.309 182.385ZM542.877 176.335H548.399V175.609C548.399 174.89 548.201 174.333 547.805 173.937C547.409 173.526 546.741 173.321 545.803 173.321C544.688 173.321 543.918 173.563 543.493 174.047C543.082 174.531 542.877 175.294 542.877 176.335ZM556.101 182.385C555.441 182.385 554.825 182.268 554.253 182.033C553.696 181.798 553.248 181.446 552.911 180.977C552.574 180.493 552.405 179.899 552.405 179.195C552.405 178.198 552.742 177.398 553.417 176.797C554.106 176.181 555.162 175.873 556.585 175.873H559.929V175.411C559.929 174.912 559.848 174.516 559.687 174.223C559.54 173.93 559.262 173.717 558.851 173.585C558.455 173.453 557.868 173.387 557.091 173.387C555.859 173.387 554.708 173.57 553.637 173.937V172.155C554.106 171.964 554.678 171.81 555.353 171.693C556.028 171.576 556.754 171.517 557.531 171.517C559.056 171.517 560.215 171.825 561.007 172.441C561.814 173.057 562.217 174.062 562.217 175.455V182.165H560.171L560.017 181.109C559.592 181.52 559.064 181.835 558.433 182.055C557.817 182.275 557.04 182.385 556.101 182.385ZM556.739 180.669C557.458 180.669 558.081 180.552 558.609 180.317C559.152 180.068 559.592 179.738 559.929 179.327V177.501H556.629C555.925 177.501 555.412 177.64 555.089 177.919C554.781 178.183 554.627 178.594 554.627 179.151C554.627 179.694 554.81 180.082 555.177 180.317C555.544 180.552 556.064 180.669 556.739 180.669ZM568.352 182.385C567.634 182.385 566.944 182.334 566.284 182.231C565.639 182.128 565.104 182.004 564.678 181.857V179.833C565.177 180.024 565.727 180.17 566.328 180.273C566.93 180.376 567.502 180.427 568.044 180.427C568.866 180.427 569.452 180.354 569.804 180.207C570.156 180.06 570.332 179.774 570.332 179.349C570.332 179.041 570.222 178.799 570.002 178.623C569.797 178.447 569.482 178.286 569.056 178.139C568.646 177.992 568.118 177.816 567.472 177.611C566.856 177.406 566.321 177.186 565.866 176.951C565.412 176.702 565.06 176.386 564.81 176.005C564.561 175.624 564.436 175.125 564.436 174.509C564.436 173.556 564.781 172.822 565.47 172.309C566.16 171.781 567.267 171.517 568.792 171.517C569.394 171.517 569.966 171.561 570.508 171.649C571.051 171.737 571.513 171.847 571.894 171.979V173.981C571.484 173.82 571.029 173.695 570.53 173.607C570.046 173.519 569.592 173.475 569.166 173.475C568.404 173.475 567.824 173.541 567.428 173.673C567.047 173.805 566.856 174.069 566.856 174.465C566.856 174.876 567.054 175.169 567.45 175.345C567.861 175.506 568.514 175.734 569.408 176.027C570.23 176.276 570.882 176.54 571.366 176.819C571.85 177.098 572.195 177.435 572.4 177.831C572.62 178.212 572.73 178.711 572.73 179.327C572.73 180.354 572.356 181.124 571.608 181.637C570.86 182.136 569.775 182.385 568.352 182.385ZM579.753 182.385C577.876 182.385 576.497 181.916 575.617 180.977C574.752 180.038 574.319 178.696 574.319 176.951C574.319 175.206 574.759 173.864 575.639 172.925C576.519 171.986 577.89 171.517 579.753 171.517C581.63 171.517 583.009 171.986 583.889 172.925C584.769 173.864 585.209 175.206 585.209 176.951C585.209 178.696 584.769 180.038 583.889 180.977C583.024 181.916 581.645 182.385 579.753 182.385ZM579.753 180.361C580.853 180.361 581.63 180.097 582.085 179.569C582.554 179.026 582.789 178.154 582.789 176.951C582.789 175.748 582.554 174.883 582.085 174.355C581.63 173.827 580.853 173.563 579.753 173.563C578.668 173.563 577.89 173.827 577.421 174.355C576.966 174.883 576.739 175.748 576.739 176.951C576.739 178.154 576.966 179.026 577.421 179.569C577.89 180.097 578.668 180.361 579.753 180.361ZM587.542 182.165V171.737H589.742L589.852 172.837C590.322 172.47 590.879 172.162 591.524 171.913C592.184 171.649 592.91 171.517 593.702 171.517C595.052 171.517 596.034 171.832 596.65 172.463C597.266 173.094 597.574 174.076 597.574 175.411V182.165H595.198V175.521C595.198 174.714 595.03 174.15 594.692 173.827C594.37 173.504 593.754 173.343 592.844 173.343C592.302 173.343 591.766 173.453 591.238 173.673C590.725 173.893 590.292 174.179 589.94 174.531V182.165H587.542ZM603.195 182.385C602.535 182.385 601.919 182.268 601.347 182.033C600.789 181.798 600.342 181.446 600.005 180.977C599.667 180.493 599.499 179.899 599.499 179.195C599.499 178.198 599.836 177.398 600.511 176.797C601.2 176.181 602.256 175.873 603.679 175.873H607.023V175.411C607.023 174.912 606.942 174.516 606.781 174.223C606.634 173.93 606.355 173.717 605.945 173.585C605.549 173.453 604.962 173.387 604.185 173.387C602.953 173.387 601.801 173.57 600.731 173.937V172.155C601.2 171.964 601.772 171.81 602.447 171.693C603.121 171.576 603.847 171.517 604.625 171.517C606.15 171.517 607.309 171.825 608.101 172.441C608.907 173.057 609.311 174.062 609.311 175.455V182.165H607.265L607.111 181.109C606.685 181.52 606.157 181.835 605.527 182.055C604.911 182.275 604.133 182.385 603.195 182.385ZM603.833 180.669C604.551 180.669 605.175 180.552 605.703 180.317C606.245 180.068 606.685 179.738 607.023 179.327V177.501H603.723C603.019 177.501 602.505 177.64 602.183 177.919C601.875 178.183 601.721 178.594 601.721 179.151C601.721 179.694 601.904 180.082 602.271 180.317C602.637 180.552 603.158 180.669 603.833 180.669ZM614.566 182.385C613.715 182.385 613.07 182.18 612.63 181.769C612.19 181.344 611.97 180.647 611.97 179.679V167.337H614.368V179.459C614.368 179.87 614.441 180.148 614.588 180.295C614.735 180.442 614.955 180.515 615.248 180.515C615.6 180.515 615.937 180.471 616.26 180.383V182.121C615.981 182.224 615.71 182.29 615.446 182.319C615.197 182.363 614.903 182.385 614.566 182.385ZM623.206 182.165V167.997H625.604V180.317H632.864V182.165H623.206ZM639.486 182.385C637.668 182.385 636.26 181.938 635.262 181.043C634.265 180.148 633.766 178.777 633.766 176.929C633.766 175.257 634.192 173.937 635.042 172.969C635.893 172.001 637.184 171.517 638.914 171.517C640.498 171.517 641.686 171.935 642.478 172.771C643.285 173.592 643.688 174.656 643.688 175.961V177.897H636.054C636.172 178.909 636.538 179.606 637.154 179.987C637.77 180.368 638.709 180.559 639.97 180.559C640.498 180.559 641.041 180.508 641.598 180.405C642.156 180.302 642.64 180.17 643.05 180.009V181.769C642.581 181.974 642.038 182.128 641.422 182.231C640.821 182.334 640.176 182.385 639.486 182.385ZM636.054 176.335H641.576V175.609C641.576 174.89 641.378 174.333 640.982 173.937C640.586 173.526 639.919 173.321 638.98 173.321C637.866 173.321 637.096 173.563 636.67 174.047C636.26 174.531 636.054 175.294 636.054 176.335ZM649.279 182.385C648.619 182.385 648.003 182.268 647.431 182.033C646.873 181.798 646.426 181.446 646.089 180.977C645.751 180.493 645.583 179.899 645.583 179.195C645.583 178.198 645.92 177.398 646.595 176.797C647.284 176.181 648.34 175.873 649.763 175.873H653.107V175.411C653.107 174.912 653.026 174.516 652.865 174.223C652.718 173.93 652.439 173.717 652.029 173.585C651.633 173.453 651.046 173.387 650.269 173.387C649.037 173.387 647.885 173.57 646.815 173.937V172.155C647.284 171.964 647.856 171.81 648.531 171.693C649.205 171.576 649.931 171.517 650.709 171.517C652.234 171.517 653.393 171.825 654.185 172.441C654.991 173.057 655.395 174.062 655.395 175.455V182.165H653.349L653.195 181.109C652.769 181.52 652.241 181.835 651.611 182.055C650.995 182.275 650.217 182.385 649.279 182.385ZM649.917 180.669C650.635 180.669 651.259 180.552 651.787 180.317C652.329 180.068 652.769 179.738 653.107 179.327V177.501H649.807C649.103 177.501 648.589 177.64 648.267 177.919C647.959 178.183 647.805 178.594 647.805 179.151C647.805 179.694 647.988 180.082 648.355 180.317C648.721 180.552 649.242 180.669 649.917 180.669ZM662.366 182.385C661.427 182.385 660.599 182.224 659.88 181.901C659.161 181.578 658.604 181.043 658.208 180.295C657.812 179.547 657.614 178.542 657.614 177.281C657.614 176.034 657.827 174.986 658.252 174.135C658.677 173.27 659.264 172.617 660.012 172.177C660.775 171.737 661.633 171.517 662.586 171.517C663.217 171.517 663.774 171.59 664.258 171.737C664.757 171.884 665.233 172.111 665.688 172.419V167.337H668.086V182.165H666.04L665.886 181.131C665.417 181.556 664.903 181.872 664.346 182.077C663.789 182.282 663.129 182.385 662.366 182.385ZM663.004 180.581C664.075 180.581 664.969 180.214 665.688 179.481V174.267C664.999 173.651 664.133 173.343 663.092 173.343C662.08 173.343 661.317 173.68 660.804 174.355C660.291 175.03 660.034 176.012 660.034 177.303C660.034 178.55 660.269 179.408 660.738 179.877C661.222 180.346 661.977 180.581 663.004 180.581ZM675.924 182.385C674.105 182.385 672.697 181.938 671.7 181.043C670.702 180.148 670.204 178.777 670.204 176.929C670.204 175.257 670.629 173.937 671.48 172.969C672.33 172.001 673.621 171.517 675.352 171.517C676.936 171.517 678.124 171.935 678.916 172.771C679.722 173.592 680.126 174.656 680.126 175.961V177.897H672.492C672.609 178.909 672.976 179.606 673.592 179.987C674.208 180.368 675.146 180.559 676.408 180.559C676.936 180.559 677.478 180.508 678.036 180.405C678.593 180.302 679.077 180.17 679.488 180.009V181.769C679.018 181.974 678.476 182.128 677.86 182.231C677.258 182.334 676.613 182.385 675.924 182.385ZM672.492 176.335H678.014V175.609C678.014 174.89 677.816 174.333 677.42 173.937C677.024 173.526 676.356 173.321 675.418 173.321C674.303 173.321 673.533 173.563 673.108 174.047C672.697 174.531 672.492 175.294 672.492 176.335ZM682.46 182.165V171.737H684.66L684.792 172.947C685.291 172.624 685.885 172.331 686.574 172.067C687.264 171.803 687.946 171.62 688.62 171.517V173.343C688.21 173.416 687.762 173.526 687.278 173.673C686.809 173.805 686.362 173.959 685.936 174.135C685.511 174.296 685.152 174.465 684.858 174.641V182.165H682.46ZM696.086 182.385C695.324 182.385 694.664 182.282 694.106 182.077C693.549 181.872 693.036 181.556 692.566 181.131L692.434 182.165H690.366V167.337H692.764V172.419C693.674 171.818 694.766 171.517 696.042 171.517C697.524 171.517 698.69 171.942 699.54 172.793C700.406 173.629 700.838 174.986 700.838 176.863C700.838 178.755 700.413 180.148 699.562 181.043C698.712 181.938 697.553 182.385 696.086 182.385ZM695.448 180.581C696.534 180.581 697.296 180.273 697.736 179.657C698.191 179.041 698.418 178.11 698.418 176.863C698.418 175.572 698.176 174.663 697.692 174.135C697.208 173.607 696.446 173.343 695.404 173.343C694.319 173.343 693.439 173.644 692.764 174.245V179.481C693.454 180.214 694.348 180.581 695.448 180.581ZM708.165 182.385C706.288 182.385 704.909 181.916 704.029 180.977C703.164 180.038 702.731 178.696 702.731 176.951C702.731 175.206 703.171 173.864 704.051 172.925C704.931 171.986 706.302 171.517 708.165 171.517C710.042 171.517 711.421 171.986 712.301 172.925C713.181 173.864 713.621 175.206 713.621 176.951C713.621 178.696 713.181 180.038 712.301 180.977C711.436 181.916 710.057 182.385 708.165 182.385ZM708.165 180.361C709.265 180.361 710.042 180.097 710.497 179.569C710.966 179.026 711.201 178.154 711.201 176.951C711.201 175.748 710.966 174.883 710.497 174.355C710.042 173.827 709.265 173.563 708.165 173.563C707.08 173.563 706.302 173.827 705.833 174.355C705.378 174.883 705.151 175.748 705.151 176.951C705.151 178.154 705.378 179.026 705.833 179.569C706.302 180.097 707.08 180.361 708.165 180.361ZM719.21 182.385C718.55 182.385 717.934 182.268 717.362 182.033C716.805 181.798 716.358 181.446 716.02 180.977C715.683 180.493 715.514 179.899 715.514 179.195C715.514 178.198 715.852 177.398 716.526 176.797C717.216 176.181 718.272 175.873 719.694 175.873H723.038V175.411C723.038 174.912 722.958 174.516 722.796 174.223C722.65 173.93 722.371 173.717 721.96 173.585C721.564 173.453 720.978 173.387 720.2 173.387C718.968 173.387 717.817 173.57 716.746 173.937V172.155C717.216 171.964 717.788 171.81 718.462 171.693C719.137 171.576 719.863 171.517 720.64 171.517C722.166 171.517 723.324 171.825 724.116 172.441C724.923 173.057 725.326 174.062 725.326 175.455V182.165H723.28L723.126 181.109C722.701 181.52 722.173 181.835 721.542 182.055C720.926 182.275 720.149 182.385 719.21 182.385ZM719.848 180.669C720.567 180.669 721.19 180.552 721.718 180.317C722.261 180.068 722.701 179.738 723.038 179.327V177.501H719.738C719.034 177.501 718.521 177.64 718.198 177.919C717.89 178.183 717.736 178.594 717.736 179.151C717.736 179.694 717.92 180.082 718.286 180.317C718.653 180.552 719.174 180.669 719.848 180.669ZM727.986 182.165V171.737H730.186L730.318 172.947C730.816 172.624 731.41 172.331 732.1 172.067C732.789 171.803 733.471 171.62 734.146 171.517V173.343C733.735 173.416 733.288 173.526 732.804 173.673C732.334 173.805 731.887 173.959 731.462 174.135C731.036 174.296 730.677 174.465 730.384 174.641V182.165H727.986ZM739.774 182.385C738.836 182.385 738.007 182.224 737.288 181.901C736.57 181.578 736.012 181.043 735.616 180.295C735.22 179.547 735.022 178.542 735.022 177.281C735.022 176.034 735.235 174.986 735.66 174.135C736.086 173.27 736.672 172.617 737.42 172.177C738.183 171.737 739.041 171.517 739.994 171.517C740.625 171.517 741.182 171.59 741.666 171.737C742.165 171.884 742.642 172.111 743.096 172.419V167.337H745.494V182.165H743.448L743.294 181.131C742.825 181.556 742.312 181.872 741.754 182.077C741.197 182.282 740.537 182.385 739.774 182.385ZM740.412 180.581C741.483 180.581 742.378 180.214 743.096 179.481V174.267C742.407 173.651 741.542 173.343 740.5 173.343C739.488 173.343 738.726 173.68 738.212 174.355C737.699 175.03 737.442 176.012 737.442 177.303C737.442 178.55 737.677 179.408 738.146 179.877C738.63 180.346 739.386 180.581 740.412 180.581ZM751.743 182.385C751.024 182.385 750.335 182.334 749.675 182.231C749.03 182.128 748.494 182.004 748.069 181.857V179.833C748.568 180.024 749.118 180.17 749.719 180.273C750.32 180.376 750.892 180.427 751.435 180.427C752.256 180.427 752.843 180.354 753.195 180.207C753.547 180.06 753.723 179.774 753.723 179.349C753.723 179.041 753.613 178.799 753.393 178.623C753.188 178.447 752.872 178.286 752.447 178.139C752.036 177.992 751.508 177.816 750.863 177.611C750.247 177.406 749.712 177.186 749.257 176.951C748.802 176.702 748.45 176.386 748.201 176.005C747.952 175.624 747.827 175.125 747.827 174.509C747.827 173.556 748.172 172.822 748.861 172.309C749.55 171.781 750.658 171.517 752.183 171.517C752.784 171.517 753.356 171.561 753.899 171.649C754.442 171.737 754.904 171.847 755.285 171.979V173.981C754.874 173.82 754.42 173.695 753.921 173.607C753.437 173.519 752.982 173.475 752.557 173.475C751.794 173.475 751.215 173.541 750.819 173.673C750.438 173.805 750.247 174.069 750.247 174.465C750.247 174.876 750.445 175.169 750.841 175.345C751.252 175.506 751.904 175.734 752.799 176.027C753.62 176.276 754.273 176.54 754.757 176.819C755.241 177.098 755.586 177.435 755.791 177.831C756.011 178.212 756.121 178.711 756.121 179.327C756.121 180.354 755.747 181.124 754.999 181.637C754.251 182.136 753.166 182.385 751.743 182.385ZM758.032 182.165V180.295H760.056V182.165H758.032Z" fill="#151716"/>
<path d="M74.6463 87.2707C73.2276 87.2707 71.4543 87.1441 69.3263 86.8907C67.2489 86.6881 65.1716 86.3841 63.0943 85.9787C61.0169 85.5227 59.2943 85.0161 57.9263 84.4587V71.8427C60.1556 72.8561 62.5369 73.5907 65.0703 74.0467C67.6543 74.5027 69.9596 74.7307 71.9863 74.7307C74.4689 74.7307 76.3183 74.4521 77.5343 73.8947C78.7503 73.2867 79.3583 72.1974 79.3583 70.6267C79.3583 68.3467 77.5089 67.2067 73.8103 67.2067H65.2223L66.2103 56.6427H73.3543C75.2289 56.6427 76.5463 56.3641 77.3063 55.8067C78.1169 55.1987 78.5223 54.2614 78.5223 52.9947C78.5223 51.8294 77.9649 50.9427 76.8503 50.3347C75.7356 49.7267 73.9623 49.4227 71.5303 49.4227C69.1996 49.4227 66.8689 49.7014 64.5383 50.2587C62.2076 50.7654 60.2316 51.4494 58.6103 52.3107V39.6947C60.6369 38.8841 63.0943 38.2001 65.9823 37.6427C68.8703 37.0854 71.7836 36.8067 74.7223 36.8067C79.0289 36.8067 82.7023 37.4401 85.7423 38.7067C88.7823 39.9734 91.1129 41.6961 92.7343 43.8747C94.3556 46.0027 95.1663 48.4601 95.1663 51.2467C95.1663 55.9081 93.6463 59.4801 90.6063 61.9627C92.3289 62.7734 93.6716 64.0147 94.6343 65.6867C95.5969 67.3081 96.0783 69.3854 96.0783 71.9187C96.0783 75.4654 95.1409 78.3787 93.2663 80.6587C91.3916 82.9387 88.8329 84.6107 85.5903 85.6747C82.3983 86.7387 78.7503 87.2707 74.6463 87.2707Z" fill="white"/>
</g>
<defs>
<clipPath id="clip0_1760_18037">
<rect width="899.108" height="274.081" fill="white" transform="translate(0.777344 0.483398)"/>
</clipPath>
</defs>
</svg>
