<svg width="699" height="206" viewBox="0 0 699 206" fill="none" xmlns="http://www.w3.org/2000/svg">
<path fill-rule="evenodd" clip-rule="evenodd" d="M336.81 138.51L33.6719 141.488L334.612 147.879L336.81 138.51Z" fill="white"/>
<path d="M416.188 167.169C410.591 167.169 406.194 165.881 402.993 163.304C399.793 160.729 398.191 157.064 398.191 152.314C398.191 150.784 398.373 149.114 398.735 147.301C400.143 140.778 402.881 135.777 406.948 132.294C411.014 128.813 416.932 127.07 424.702 127.07C427.119 127.07 429.221 127.252 431.012 127.614C432.803 127.977 434.505 128.48 436.115 129.124L434.001 139.028C430.9 137.499 427.378 136.733 423.433 136.733C419.769 136.733 416.872 137.569 414.737 139.24C412.602 140.91 411.134 143.598 410.329 147.301C410.167 148.026 410.048 148.7 409.967 149.324C409.886 149.948 409.845 150.542 409.845 151.105C409.845 153.319 410.56 154.94 411.989 155.966C413.418 156.993 415.784 157.506 419.084 157.506C421.017 157.506 422.939 157.325 424.852 156.963C426.764 156.6 428.707 156.037 430.68 155.271L428.566 165.235C426.714 165.839 424.792 166.312 422.798 166.654C420.806 166.996 418.6 167.168 416.185 167.168L416.188 167.169Z" fill="white"/>
<path d="M432.555 166.566L440.767 127.676H452.12L445.719 157.871H463.232L461.421 166.567H432.555V166.566Z" fill="white"/>
<path d="M482.438 167.17C479.136 167.17 476.339 166.615 474.044 165.51C471.749 164.402 470.008 162.892 468.82 160.981C467.632 159.069 467.039 156.904 467.039 154.489C467.039 153.444 467.16 152.356 467.402 151.228L472.414 127.676H483.767L478.936 150.381C478.695 151.51 478.573 152.495 478.573 153.34C478.573 154.831 479.036 155.898 479.962 156.54C480.888 157.184 482.398 157.507 484.491 157.507C487.068 157.507 488.999 156.963 490.289 155.877C491.577 154.789 492.482 152.958 493.006 150.381L497.838 127.676H509.191L504.118 151.59C502.99 157.066 500.654 161.032 497.113 163.487C493.569 165.943 488.678 167.171 482.438 167.171V167.17Z" fill="white"/>
<path d="M506.109 166.566L514.322 127.676H535.7C539.041 127.676 541.567 128.39 543.28 129.82C544.99 131.249 545.846 133.211 545.846 135.707C545.846 136.11 545.816 136.543 545.754 137.006C545.695 137.469 545.624 137.942 545.543 138.425C545.14 140.438 544.415 142.13 543.369 143.498C542.322 144.867 541.095 145.953 539.685 146.759C540.933 147.282 541.91 147.996 542.614 148.903C543.318 149.809 543.672 151.027 543.672 152.557C543.672 152.919 543.642 153.312 543.581 153.734C543.521 154.157 543.45 154.59 543.369 155.033C542.604 158.698 540.883 161.535 538.207 163.549C535.528 165.562 532.117 166.567 527.97 166.567H506.109V166.566ZM518.67 158.656H526.52C528.05 158.656 529.247 158.334 530.112 157.689C530.978 157.045 531.572 155.978 531.894 154.489C531.933 154.289 531.964 154.097 531.984 153.916C532.003 153.734 532.014 153.564 532.014 153.402C532.014 152.476 531.691 151.791 531.047 151.348C530.403 150.906 529.377 150.684 527.967 150.684H520.358L518.667 158.656H518.67ZM521.991 143.195H529.359C530.809 143.195 531.925 142.873 532.71 142.229C533.495 141.584 534.029 140.659 534.31 139.451C534.391 139.25 534.432 139.05 534.432 138.847V138.304C534.432 137.418 534.139 136.754 533.557 136.311C532.972 135.869 531.996 135.647 530.628 135.647H523.563L521.993 143.196L521.991 143.195Z" fill="white"/>
<path d="M101.929 35.7433C98.3782 35.0212 94.2119 34.6602 89.4268 34.6602C74.032 34.6602 62.3062 38.1328 54.2507 45.0752C46.1938 52.019 40.7705 61.9906 37.9795 74.9929C37.2709 78.5569 36.9113 81.8483 36.9038 84.8656C36.9023 84.906 36.9023 84.9465 36.9023 84.9869C36.9023 86.7592 37.0132 88.4566 37.2349 90.0776L61.9181 89.8798C60.9803 88.494 60.3856 86.8221 60.1354 84.8656C60.041 84.142 59.9945 83.3809 59.9945 82.5794C59.9945 81.4558 60.0725 80.2723 60.2328 79.0273C60.3916 77.7839 60.6313 76.4386 60.9519 74.9929C62.5459 67.6101 65.4567 62.2528 69.6845 58.9209C73.9122 55.5906 79.6545 53.9246 86.913 53.9246C94.7302 53.9246 101.709 55.4497 107.851 58.4984L112.038 38.7531C108.847 37.4707 105.476 36.4669 101.929 35.7433Z" fill="white"/>
<path d="M101.271 90.8866L97.0833 110.752C93.4128 111.956 89.6046 112.9 85.657 113.582C81.7079 114.262 77.3424 114.605 72.5558 114.605C61.4682 114.605 52.755 112.037 46.4134 106.899C41.2599 102.725 38.1992 97.1159 37.2344 90.0776L61.9176 89.8799C62.5378 90.8042 63.3139 91.6012 64.2412 92.2709C67.0712 94.3173 71.7573 95.3406 78.2982 95.3406C82.1274 95.3406 85.9357 94.9795 89.7244 94.2574C93.5117 93.5353 97.3619 92.4117 101.271 90.8866Z" fill="white"/>
<path d="M156.664 55.1279C153.233 55.1279 149.944 55.5699 146.794 56.4523C143.642 57.3362 140.911 58.4598 138.598 59.8231L144.46 32.2529H121.967L110.875 84.8658L109.898 89.4981L132.43 89.3198L133.37 84.8658L135.248 75.9564C136.604 74.8343 138.219 73.871 140.093 73.068C141.967 72.2665 143.902 71.8635 145.897 71.8635C149.884 71.8635 151.879 73.3497 151.879 76.319C151.879 77.122 151.759 78.0853 151.52 79.2074L150.332 84.8658L149.425 89.1834L172.078 89.0037L172.947 84.8658L174.49 77.522C174.808 76.1587 175.03 74.8733 175.15 73.6688C175.268 72.4658 175.328 71.3422 175.328 70.298C175.328 60.1856 169.108 55.1279 156.664 55.1279Z" fill="white"/>
<path d="M172.078 89.0039L166.953 113.401H144.34L149.425 89.1837L172.078 89.0039Z" fill="white"/>
<path d="M132.431 89.3193L127.352 113.4H104.859L109.899 89.4976L132.431 89.3193Z" fill="white"/>
<path d="M226.656 56.3324L226.057 59.101C224.781 57.9789 223.025 57.0351 220.793 56.2725C218.559 55.51 215.927 55.1279 212.897 55.1279C207.471 55.1279 202.407 56.4133 197.702 58.9811C192.995 61.5504 188.968 65.2223 185.618 69.9969C182.625 74.2651 180.397 79.2209 178.932 84.8659C178.756 85.5385 178.593 86.2217 178.44 86.9138C178.301 87.6104 178.178 88.2906 178.07 88.9557L201.043 88.773C201.143 88.2187 201.266 87.6389 201.411 87.0337C201.573 86.2846 201.747 85.561 201.934 84.8659C204.321 75.958 208.733 71.5025 215.17 71.5025C218.52 71.5025 221.071 72.5063 222.827 74.5123L220.622 84.8659L219.822 88.6232L242.415 88.4434L243.166 84.8659L249.148 56.3324H226.656Z" fill="white"/>
<path d="M242.416 88.4434L237.185 113.401H217.684L217.444 108.947C214.812 110.713 212.019 112.097 209.07 113.1C206.118 114.102 202.768 114.605 199.02 114.605C192.398 114.605 187.155 113.1 183.287 110.09C179.417 107.08 177.484 102.285 177.484 95.7018C177.484 94.3385 177.562 92.9333 177.723 91.4891C177.812 90.6696 177.928 89.8261 178.072 88.9557L201.044 88.773C200.812 90.0568 200.695 91.2014 200.695 92.2112C200.695 94.4584 201.332 96.0239 202.61 96.9063C203.883 97.7902 205.998 98.2307 208.95 98.2307C210.704 98.2307 212.419 97.9295 214.094 97.3273C215.769 96.725 217.245 95.8636 218.521 94.7385L219.823 88.6231L242.416 88.4434Z" fill="white"/>
<path d="M345.641 58.7399C343.128 56.3324 339.16 55.1279 333.737 55.1279C329.349 55.1279 325.44 55.6912 322.011 56.8133C318.582 57.9384 315.391 59.4231 312.441 61.2688C311.642 59.2628 310.286 57.7377 308.372 56.6935C306.459 55.6508 303.665 55.1279 299.997 55.1279C296.33 55.1279 292.838 55.6703 289.528 56.7534C286.217 57.8366 283.167 59.2223 280.376 60.9077L280.734 56.3324H259.918L253.936 84.8659L253.203 88.358L275.046 88.1827L275.746 84.8659L277.624 75.9565C278.98 74.8344 280.454 73.8711 282.051 73.0681C283.645 72.2666 285.2 71.8636 286.716 71.8636C289.828 71.8636 291.383 73.149 291.383 75.7168C291.383 76.5198 291.263 77.4831 291.023 78.6052L289.711 84.8659L289.038 88.0719L309.858 87.9056L310.492 84.8659L311.244 81.2554C311.483 80.1318 311.702 79.1085 311.901 78.1842C312.099 77.2628 312.24 76.2786 312.321 75.2344C314.791 72.9887 317.585 71.8636 320.695 71.8636C324.363 71.8636 326.2 73.3078 326.2 76.1977C326.2 76.9198 326.08 77.8441 325.84 78.9677L324.61 84.8659L324 87.7932L346.203 87.6164L346.781 84.8659L348.573 76.319C348.89 74.9542 349.111 73.6688 349.23 72.4658C349.35 71.2613 349.41 70.1377 349.41 69.095C349.41 64.6006 348.153 61.1474 345.641 58.7399Z" fill="white"/>
<path d="M346.202 87.6162L340.795 113.401H318.66L323.999 87.793L346.202 87.6162Z" fill="white"/>
<path d="M309.855 87.9053L304.541 113.4H283.723L289.035 88.0716L309.855 87.9053Z" fill="white"/>
<path d="M275.043 88.1826L269.725 113.401H247.949L253.2 88.3579L275.043 88.1826Z" fill="white"/>
<path d="M416.707 60.1856C412.916 56.8133 407.712 55.1279 401.093 55.1279C397.423 55.1279 394.112 55.6298 391.162 56.6336C388.211 57.6373 385.378 59.062 382.668 60.9077L382.548 56.3324H363.047L357.089 84.8659L356.531 87.534L379.032 87.3557L379.547 84.8659L381.591 74.9932C384.302 72.7475 387.493 71.6224 391.162 71.6224C393.794 71.6224 395.769 72.1857 397.084 73.3078C398.401 74.4329 399.059 76.3595 399.059 79.0876C399.059 79.8906 398.999 80.734 398.879 81.6164C398.759 82.5003 398.62 83.4636 398.461 84.5048C398.435 84.6262 398.409 84.746 398.383 84.8659C398.202 85.6868 398.003 86.4674 397.785 87.2059L420.822 87.0232H420.824C420.994 86.3175 421.158 85.5984 421.312 84.8659C422.03 81.4951 422.389 78.4059 422.389 75.5954C422.389 68.6935 420.494 63.5564 416.707 60.1856Z" fill="white"/>
<path d="M427.176 113.4L435.67 72.8265H427.415L432.8 56.332H461.634L449.67 113.4H427.177H427.176Z" fill="white"/>
<path d="M490.824 114.606C482.128 114.606 475.349 112.739 470.485 109.007C465.619 105.275 463.188 99.7967 463.188 92.5727C463.188 91.3682 463.247 90.1248 463.367 88.8409C463.487 87.5585 463.706 86.2341 464.025 84.8678C466.098 75.2363 470.286 67.873 476.587 62.7749C482.886 57.6782 491.821 55.1299 503.387 55.1299C512.638 55.1299 519.618 57.0969 524.325 61.0295C529.03 64.9636 531.384 70.3809 531.384 77.2828C531.384 78.4873 531.324 79.7112 531.204 80.9547C531.084 82.1996 530.864 83.5045 530.546 84.8678C528.552 94.5802 524.284 101.964 517.745 107.021C511.204 112.077 502.23 114.606 490.825 114.606H490.824ZM494.295 98.1113C497.962 98.1113 500.855 97.0686 502.969 94.9802C505.081 92.8933 506.618 89.5225 507.576 84.8663C508.054 82.6985 508.293 80.7734 508.293 79.0865C508.293 76.5187 507.636 74.6311 506.319 73.4281C505.003 72.2236 502.869 71.6228 499.917 71.6228C496.328 71.6228 493.516 72.688 491.483 74.8138C489.448 76.9412 487.953 80.2925 486.996 84.8663C486.518 87.2738 486.278 89.3217 486.278 91.0071C486.278 93.4955 486.895 95.3023 488.133 96.4244C489.369 97.5495 491.423 98.1098 494.295 98.1098V98.1113Z" fill="white"/>
<path d="M533.055 113.401L545.019 56.3324H566.077L565.837 60.6665C568.309 59.2223 571.419 57.9384 575.169 56.8133C578.917 55.6897 582.826 55.1279 586.893 55.1279C592.715 55.1279 596.962 56.3519 599.635 58.7999C602.306 61.2493 603.642 64.8403 603.642 69.5759C603.642 70.6201 603.582 71.7437 603.462 72.9467C603.343 74.1512 603.122 75.4351 602.805 76.7999L595.148 113.401H572.655L579.834 79.0876C580.074 78.1243 580.193 77.2419 580.193 76.4389C580.193 73.3902 578.279 71.8636 574.451 71.8636C572.376 71.8636 570.363 72.2666 568.409 73.0681C566.454 73.8711 564.799 74.8344 563.444 75.958L555.548 113.402H533.055V113.401Z" fill="white"/>
<path d="M627.213 114.605C622.347 114.605 617.86 114.262 613.754 113.582C609.644 112.9 606.476 112.037 604.242 110.993L607.592 94.7396C610.143 96.025 613.274 97.0272 616.984 97.7493C620.693 98.4714 623.902 98.8325 626.615 98.8325C629.487 98.8325 631.679 98.7531 633.195 98.5913C634.71 98.431 635.588 97.7478 635.827 96.5448C636.145 95.1815 635.068 94.1373 632.597 93.4137C630.124 92.6916 627.014 91.6489 623.265 90.2826C619.276 88.6781 616.245 86.8519 614.173 84.804C612.098 82.7575 611.063 80.1298 611.063 76.9178C611.063 76.2766 611.102 75.6354 611.183 74.9912C611.261 74.35 611.381 73.6669 611.543 72.9448C612.74 67.2459 615.79 62.8518 620.695 59.7612C625.6 56.672 633.036 55.126 643.008 55.126C646.675 55.126 650.406 55.4076 654.194 55.9694C657.982 56.5312 660.914 57.1739 662.988 57.896L659.639 73.7882C657.484 72.7455 655.051 71.983 652.34 71.5006C649.627 71.0197 647.114 70.7785 644.803 70.7785C642.25 70.7785 639.958 70.8983 637.923 71.1395C635.889 71.3807 634.711 72.0639 634.394 73.186C634.154 74.4714 635.111 75.3942 637.266 75.9545C639.42 76.5163 642.29 77.3987 645.88 78.6032C650.825 80.1283 654.314 81.956 656.349 84.0819C658.383 86.2092 659.399 88.798 659.399 91.8482C659.399 92.5703 659.339 93.2924 659.219 94.016C659.099 94.7381 658.958 95.5411 658.8 96.4235C657.523 102.203 654.452 106.678 649.588 109.848C644.722 113.02 637.264 114.603 627.215 114.603L627.213 114.605Z" fill="white"/>
<path d="M420.822 87.0234C418.614 96.1261 415.047 102.911 410.125 107.382C404.82 112.197 397.303 114.606 387.572 114.606C382.184 114.606 377.76 113.596 374.303 111.576C374.179 111.504 374.055 111.43 373.933 111.355L372.82 116.677L369.435 132.883L367.998 133.271L367.995 133.28L369.435 132.883L386.864 128.086L355.408 197.899L355.442 197.069L362.034 151.508L341.527 157.247L346.925 133.534L356.531 87.5343L379.032 87.356L377.403 95.2212C379.078 97.1478 381.71 98.1111 385.3 98.1111C388.569 98.1111 391.321 97.0684 393.554 94.98C395.352 93.3006 396.763 90.7088 397.785 87.2062L420.822 87.0234Z" fill="white"/>
<path d="M435.121 48.1451L438.51 32.2529H467.037L463.649 48.1451H435.121Z" fill="white"/>
<path opacity="0.6" d="M417.203 48.1451L420.592 32.2529H429.966L426.578 48.1451H417.203Z" fill="white"/>
<path opacity="0.4" d="M405.848 48.1451L409.236 32.2529H415.183L411.794 48.1451H405.848Z" fill="white"/>
<path opacity="0.2" d="M398.094 48.1451L401.483 32.2529H403.827L400.438 48.1451H398.094Z" fill="white"/>
</svg>
