<svg width="70" height="84" viewBox="0 0 70 84" fill="none" xmlns="http://www.w3.org/2000/svg">
<path d="M60.0267 31.4521L69.5504 17.1667C69.9973 16.5134 70.0317 15.6539 69.6535 14.9662C69.2753 14.2614 68.5533 13.8317 67.7626 13.8317H42.1828C41.1857 8.93231 36.8365 5.23631 31.6621 5.23631H13.1821V2.22794C13.1821 1.04178 12.2194 0.0791016 11.0332 0.0791016C9.84709 0.0791016 8.88441 1.04178 8.88441 2.22794V79.1563H2.4379C1.25174 79.1563 0.289062 80.119 0.289062 81.3052C0.289062 82.4913 1.25174 83.454 2.4379 83.454H19.6286C20.8148 83.454 21.7774 82.4913 21.7774 81.3052C21.7774 80.119 20.8148 79.1563 19.6286 79.1563H13.1821V40.4772H38.3321C39.3291 45.3766 43.6784 49.0726 48.8528 49.0726H67.7626C68.5533 49.0726 69.2753 48.6428 69.6535 47.938C70.0317 47.2332 69.9801 46.3908 69.5504 45.7376L60.0267 31.4521ZM13.1821 9.53399H31.6621C35.2206 9.53399 38.1086 12.422 38.1086 15.9805V36.1796H13.1821V9.53399ZM48.8528 44.7749C45.2943 44.7749 42.4063 41.8869 42.4063 38.3284V18.1293H63.7399L55.6603 30.266C55.179 30.988 55.179 31.9335 55.6603 32.6555L63.7399 44.7921H48.8528V44.7749Z" fill="black" fill-opacity="0.5"/>
</svg>
