<svg width="157" height="151" viewBox="0 0 157 151" fill="none" xmlns="http://www.w3.org/2000/svg">
<g clip-path="url(#clip0_1313_6194)">
<path d="M85.0015 144.003C124.767 144.003 157.003 111.767 157.003 72.0015C157.003 32.2362 124.767 0 85.0015 0C45.2362 0 13 32.2362 13 72.0015C13 111.767 45.2362 144.003 85.0015 144.003Z" fill="#3AA7CB"/>
<path d="M84.9999 140.283C122.711 140.283 153.281 109.713 153.281 72.0019C153.281 34.2912 122.711 3.7207 84.9999 3.7207C47.2893 3.7207 16.7188 34.2912 16.7188 72.0019C16.7188 109.713 47.2893 140.283 84.9999 140.283Z" fill="white"/>
<path d="M85.0015 140.738C66.6397 140.738 49.3804 133.589 36.3971 120.606C23.4109 107.623 16.2617 90.3602 16.2617 72.0015C16.2617 53.6427 23.4108 36.3804 36.3941 23.3971C49.3773 10.4109 66.6397 3.26172 85.0015 3.26172C103.363 3.26172 120.623 10.4108 133.606 23.3941C146.589 36.3773 153.738 53.6397 153.738 71.9985C153.738 90.3572 146.589 107.62 133.606 120.603C120.623 133.586 103.36 140.735 85.0015 140.735V140.738ZM85.0015 4.17282C66.8857 4.17282 49.8511 11.2278 37.041 24.0379C24.2308 36.8481 17.1728 53.8827 17.1728 72.0015C17.1728 90.1203 24.2278 107.152 37.0379 119.962C49.8481 132.772 66.8827 139.827 84.9985 139.827C103.114 139.827 120.149 132.772 132.959 119.962C145.769 107.152 152.824 90.1173 152.824 72.0015C152.824 53.8857 145.769 36.8511 132.959 24.041C120.149 11.2308 103.117 4.17282 85.0015 4.17282Z" fill="#3AA7CB"/>
<path d="M47.4111 22.1729C47.4111 22.1729 54.8184 32.0492 48.0853 37.6616C41.3523 43.274 39.7791 46.4173 39.7791 46.4173C39.7791 46.4173 37.0853 38.3358 43.5936 32.9482C50.1019 27.5605 47.4081 22.1729 47.4081 22.1729H47.4111Z" fill="#FCCA45"/>
<path d="M118.31 31.1807C118.31 31.1807 115.625 38.3419 120.77 45.5032C125.917 52.6645 127.035 54.9028 127.035 54.9028C127.035 54.9028 131.733 46.6239 126.139 40.805C120.545 34.986 118.307 31.1837 118.307 31.1837L118.31 31.1807Z" fill="#FCCA45"/>
<path d="M37.8054 83.8243C40.071 93.5184 46.0144 101.254 53.1635 107.698H117.427C124.579 101.254 129.781 92.6893 132.047 82.9952H134.589C134.422 73.5956 129.9 62.796 115.687 52.458C115.687 52.458 118.475 62.2402 111.04 63.9652C103.605 65.6903 97.4068 59.3611 101.434 49.2904C105.461 39.2197 104.532 15.6281 76.0262 14.7656C76.0262 14.7656 87.8007 25.1249 77.2653 38.6457C66.7299 52.1695 76.6457 55.6226 76.6457 55.6226C76.6457 55.6226 54.9584 50.7299 67.0397 28.8634C67.0397 28.8634 34.1974 40.9477 52.787 72.885C52.787 72.885 43.1171 74.9532 40.3291 67.7585C40.3291 67.7585 37.3771 73.465 37.3164 82.1357L37.8023 83.8212L37.8054 83.8243Z" fill="#EC5D25"/>
<path d="M123.07 97.5758C123.07 97.5758 137.463 73.717 115.688 52.4609C115.688 52.4609 128.127 56.4151 134.56 63.1057C140.992 69.7932 132.33 96.5493 123.067 97.5788L123.07 97.5758Z" fill="white"/>
<path d="M36.9766 81.626C41.0917 102.436 61.7829 120.843 84.524 120.843C107.265 120.843 126.313 105.029 131.276 83.7974" fill="#EC5D25"/>
<path d="M36.9766 81.626C41.0917 102.436 61.7829 120.843 84.524 120.843C107.265 120.843 126.313 105.029 131.276 83.7974" stroke="white" stroke-width="15" stroke-miterlimit="10"/>
<path d="M51.6352 61.7244L54.1802 49.6492H49.9648L50.9154 45.1787H65.5599L64.6093 49.6492H60.397L57.852 61.7244H51.6352Z" fill="#151716"/>
<path d="M63.9922 61.7244L67.4878 45.1787H73.7046L72.5748 50.5755H76.7112L77.841 45.1787H84.0577L80.5621 61.7244H74.3454L75.4751 56.3276H71.3387L70.209 61.7244H63.9922Z" fill="#151716"/>
<path d="M83.4141 61.7244L86.9097 45.1787H100.142L99.1913 49.6492H92.1758L91.8691 51.1404H97.9067L96.9318 55.7657H90.8942L90.5602 57.2569H97.5757L96.6494 61.7274H83.4171L83.4141 61.7244Z" fill="#151716"/>
<path d="M25.1719 90.7276L30.0675 67.54H48.6115L47.2783 73.8054H37.4475L37.0162 75.8949H45.4773L44.1107 82.3758H35.6496L33.8851 90.7276H25.1719Z" fill="#151716"/>
<path d="M57.9704 91.089C55.9052 91.089 54.1012 90.8126 52.5524 90.2599C51.0035 89.7072 49.8039 88.8264 48.9505 87.6147C48.0971 86.4029 47.6719 84.7994 47.6719 82.8071C47.6719 81.7259 47.8146 80.502 48.1031 79.1353C48.7257 76.2076 49.6915 73.8722 51.0004 72.132C52.3094 70.3918 53.9706 69.1314 55.9872 68.3509C58.0038 67.5704 60.3666 67.1816 63.0817 67.1816C65.1924 67.1816 67.0177 67.4519 68.5544 67.9925C70.0911 68.5331 71.2786 69.4017 72.1198 70.6013C72.9611 71.8009 73.3802 73.3863 73.3802 75.3542C73.3802 76.4597 73.2375 77.7201 72.9489 79.1353C72.3233 82.0387 71.3636 84.3681 70.0699 86.1205C68.773 87.8728 67.1239 89.1392 65.1195 89.9198C63.1151 90.7003 60.731 91.089 57.9734 91.089H57.9704ZM59.5557 83.706C60.8282 83.706 61.8061 83.3628 62.4895 82.6795C63.1728 81.9962 63.6952 80.8148 64.0566 79.1323C64.1507 78.6767 64.2297 78.2637 64.2904 77.8901C64.3512 77.5196 64.3815 77.1764 64.3815 76.8636C64.3815 76.0224 64.1659 75.4302 63.7346 75.0809C63.3034 74.7347 62.5593 74.5585 61.5024 74.5585C60.2299 74.5585 59.252 74.9017 58.5687 75.5851C57.8854 76.2684 57.363 77.4528 57.0016 79.1323C56.9044 79.5878 56.8345 80.0039 56.786 80.3744C56.7374 80.748 56.7131 81.0881 56.7131 81.4009C56.7131 82.2179 56.9287 82.804 57.36 83.1654C57.7912 83.5268 58.5231 83.706 59.5557 83.706Z" fill="#151716"/>
<path d="M73.7804 90.7276L78.676 67.54H91.7109C93.9674 67.54 95.7258 68.1657 96.9862 69.4139C98.2466 70.6621 98.8752 72.2596 98.8752 74.2032C98.8752 74.8501 98.8023 75.5243 98.6596 76.2198C98.3468 77.7808 97.706 79.1414 96.7341 80.3076C95.7623 81.4708 94.5444 82.4487 93.0806 83.2414C93.4633 83.5542 93.7032 83.949 93.8004 84.4289L95.2035 90.7307H86.1289L84.9414 85.5829C84.8442 85.0788 84.5557 84.8267 84.0759 84.8267H83.7145L82.4905 90.7307H73.7773L73.7804 90.7276ZM85.1935 78.0177H87.3194C88.7346 78.0177 89.5637 77.4194 89.8037 76.2168C89.828 76.0983 89.8462 75.989 89.8583 75.8918C89.8705 75.7977 89.8766 75.7005 89.8766 75.6033C89.8766 74.7621 89.3238 74.3429 88.2214 74.3429H85.9527L85.1965 78.0147L85.1935 78.0177Z" fill="#151716"/>
<path d="M111.51 91.089C107.981 91.089 105.214 90.3449 103.21 88.8568C101.205 87.3687 100.203 85.1729 100.203 82.2665C100.203 81.7866 100.233 81.2825 100.294 80.7541C100.355 80.2256 100.443 79.685 100.565 79.1353C101.406 75.1994 103.185 72.2231 105.913 70.2065C108.637 68.1899 112.412 67.1816 117.238 67.1816C118.726 67.1816 120.041 67.2849 121.18 67.4884C122.319 67.6919 123.394 67.9864 124.402 68.3691L122.89 75.6428C121.857 75.2115 120.788 74.9169 119.686 74.759C118.58 74.6041 117.429 74.5251 116.229 74.5251C114.55 74.5251 113.098 74.8562 111.871 75.5152C110.647 76.1742 109.843 77.383 109.46 79.1353C109.293 79.8308 109.208 80.4929 109.208 81.1155C109.208 82.0752 109.509 82.7524 110.107 83.1503C110.705 83.5451 111.68 83.7455 113.022 83.7455C113.791 83.7455 114.523 83.6605 115.218 83.4934L115.543 82.0903H111.689L112.804 76.8333H123.858L121.301 88.8234C120.196 89.4247 118.823 89.9532 117.18 90.4087C115.534 90.8643 113.645 91.092 111.51 91.092V91.089Z" fill="#151716"/>
<path d="M124.547 90.7276L129.443 67.54H147.987L146.653 73.8054H136.822L136.391 75.8949H144.852L143.486 82.3758H135.025L134.557 84.4653H144.388L143.091 90.7307H124.547V90.7276Z" fill="#151716"/>
<path d="M34.1875 105.427L41.9957 99.4502L43.8786 101.91L42.4937 106.432L45.549 104.094L47.7964 107.028L39.9882 113.004L38.0961 110.532L39.4901 106.022L36.4349 108.361L34.1905 105.427H34.1875Z" fill="#233D4D"/>
<path d="M42.0117 115.048L48.5869 107.738L54.4331 112.998L52.6565 114.972L49.5587 112.184L48.9665 112.844L51.633 115.243L49.7956 117.287L47.1291 114.887L46.5369 115.546L49.6346 118.334L47.858 120.308L42.0117 115.051V115.048Z" fill="#233D4D"/>
<path d="M51.5664 123.023L54.4273 113.341L57.5615 115.117L56.3588 118.753L57.8834 117.213L58.7034 115.764L61.3213 117.249L60.4163 121.073L63.0068 118.206L66.1289 119.977L59.2986 127.408L56.4955 125.82L57.3853 121.866L54.3696 124.614L51.5664 123.026V123.023Z" fill="#233D4D"/>
<path d="M67.9258 130.756L69.9697 121.138L73.5837 121.906L72.9156 125.043L75.3209 125.554L75.989 122.416L79.6031 123.185L77.5592 132.803L73.9451 132.035L74.6133 128.897L72.208 128.387L71.5398 131.524L67.9258 130.756Z" fill="#233D4D"/>
<path d="M80.2227 132.921L80.7815 123.105L84.4714 123.315L83.9126 133.131L80.2227 132.921Z" fill="#233D4D"/>
<path d="M86.5309 133.282L85.6562 123.488L91.1624 122.996C92.0036 122.92 92.7112 123.017 93.2883 123.287C93.8653 123.558 94.3117 123.958 94.6306 124.487C94.9495 125.015 95.1378 125.629 95.2016 126.33C95.2593 126.989 95.1408 127.582 94.8463 128.11C94.5517 128.638 94.1812 129.085 93.7317 129.452C93.8501 129.513 93.9443 129.583 94.0111 129.665C94.0809 129.747 94.1386 129.829 94.1872 129.917L95.5812 132.474L91.7485 132.817L90.5944 130.728C90.5337 130.609 90.4699 130.534 90.4061 130.491C90.3424 130.452 90.2543 130.436 90.1419 130.445L89.9901 130.458L90.2118 132.951L86.5309 133.279V133.282ZM89.7319 127.585L90.6278 127.506C91.2261 127.451 91.5025 127.172 91.4569 126.664C91.4326 126.382 91.3446 126.185 91.1958 126.075C91.047 125.966 90.8313 125.923 90.5489 125.948L89.5922 126.033L89.7319 127.585Z" fill="#233D4D"/>
<path d="M98.2386 131.906L95.6055 122.434L103.18 120.326L103.89 122.886L99.8755 124.004L100.112 124.857L103.569 123.895L104.303 126.543L100.847 127.506L101.084 128.359L105.099 127.241L105.81 129.802L98.2325 131.909L98.2386 131.906Z" fill="#233D4D"/>
<path d="M111.62 127.366L106.879 118.753L113.767 114.96L115.048 117.286L111.398 119.297L111.826 120.071L114.97 118.34L116.294 120.749L113.15 122.48L114.86 125.583L111.623 127.366H111.62Z" fill="#233D4D"/>
<path d="M120.098 122.377L114.27 114.456L117.246 112.267L123.074 120.187L120.098 122.377Z" fill="#233D4D"/>
<path d="M125.185 118.635L118.27 111.643L122.199 107.756C122.801 107.161 123.408 106.784 124.025 106.626C124.641 106.468 125.239 106.49 125.823 106.696C126.406 106.9 126.943 107.252 127.435 107.753C127.9 108.224 128.188 108.755 128.295 109.351C128.404 109.946 128.401 110.526 128.292 111.094C128.422 111.066 128.538 111.06 128.641 111.079C128.744 111.097 128.844 111.124 128.939 111.161L131.642 112.245L128.905 114.951L126.685 114.076C126.564 114.025 126.463 114.006 126.387 114.015C126.312 114.025 126.236 114.07 126.154 114.149L126.044 114.255L127.806 116.035L125.179 118.632L125.185 118.635ZM124.022 112.205L124.662 111.574C125.091 111.151 125.124 110.76 124.766 110.398C124.565 110.195 124.374 110.098 124.189 110.11C124.006 110.119 123.812 110.225 123.609 110.426L122.925 111.103L124.022 112.211V112.205Z" fill="#233D4D"/>
<path d="M133.328 110.128L125.273 104.488L129.783 98.0469L131.961 99.5715L129.571 102.985L130.297 103.492L132.356 100.552L134.606 102.129L132.547 105.068L133.273 105.576L135.663 102.162L137.841 103.687L133.331 110.128H133.328Z" fill="#233D4D"/>
<path d="M508.423 -96.2793H-74.6836V231.718H508.423V-96.2793Z" stroke="black" stroke-miterlimit="10"/>
</g>
<defs>
<clipPath id="clip0_1313_6194">
<rect width="144" height="144" fill="white" transform="translate(13)"/>
</clipPath>
</defs>
</svg>
