<svg width="619" height="213" viewBox="0 0 619 213" fill="none" xmlns="http://www.w3.org/2000/svg">
<path d="M128.603 106.826H115.075L110.655 138.79C110.255 142.265 110.116 143.603 110.116 144.403C110.116 148.416 112.126 150.154 115.737 150.154C118.147 150.154 120.426 149.754 123.105 148.016C121.635 158.312 117.616 162.595 106.497 162.595C95.3788 162.595 92.9688 155.644 92.9688 148.416C92.9688 145.74 93.5077 143.203 94.039 138.79L98.4587 106.826H93.3691L94.9784 94.9239H100.199L102.07 81.6834L119.079 78.877L116.799 94.9239H130.189L128.58 106.826H128.603Z" fill="white"/>
<path d="M151.502 161.787L157.531 119.26C157.801 117.391 158.201 115.115 158.201 113.108C158.201 109.495 156.461 106.688 151.371 106.688C150.17 106.688 148.83 106.957 147.352 107.626L139.722 161.787H123.113L136.503 66.8438H153.111L148.153 101.744C151.502 95.862 156.723 94.1243 161.943 94.1243C170.243 94.1243 175.333 99.076 175.333 107.495C175.333 109.502 175.202 112.447 174.532 116.853L168.103 161.787H151.494H151.502Z" fill="white"/>
<path d="M176.805 139.589C176.805 110.44 186.714 94.124 205.863 94.124C217.783 94.124 223.812 100.406 223.812 112.178C223.812 120.466 221.132 128.355 217.921 134.107H194.083V137.052C194.083 145.34 196.762 150.023 205.602 150.023C208.951 150.023 213.232 149.485 216.581 147.885C215.242 158.05 209.482 162.594 196.092 162.594C182.703 162.594 176.812 154.836 176.812 139.597L176.805 139.589ZM194.753 124.342H206.803C207.604 122.335 208.812 118.46 208.812 113.908C208.812 110.163 207.873 106.688 204.393 106.688C199.973 106.688 196.223 112.039 194.753 124.342Z" fill="white"/>
<path d="M285.448 87.4813H269.879L259.562 161.788H237.117L247.62 87.4813H240.382L242.553 71.3883H249.791L251.238 61.8078C253.595 45.1765 263.366 33.4277 281.837 33.4277C287.45 33.4277 292.155 34.1505 297.229 35.596L292.701 51.6891C289.445 50.7818 286.911 50.4204 284.555 50.4204C278.041 50.4204 274.599 54.9415 273.514 62.3537L272.243 71.396H287.635L285.464 87.489L285.448 87.4813Z" fill="white"/>
<path d="M344.644 102.49C344.644 138.644 331.069 162.872 304.089 162.872C285.079 162.872 277.656 149.493 277.656 130.693C277.656 94.5395 291.231 70.3115 318.211 70.3115C337.398 70.3115 344.644 83.6904 344.644 102.49ZM321.468 98.8761C321.468 90.918 319.658 87.3042 314.954 87.3042C307.169 87.3042 300.832 108.272 300.832 134.307C300.832 142.265 302.827 145.879 307.346 145.879C315.131 145.879 321.468 124.911 321.468 98.8761Z" fill="white"/>
<path d="M376.321 88.2037C381.387 76.0935 387.909 70.3037 395.147 70.3037C399.127 70.3037 400.398 73.7407 400.398 78.0773C400.398 84.7667 397.68 93.6244 396.417 97.0614C393.884 95.9772 389.541 95.2545 385.191 95.2545C380.84 95.2545 377.583 96.5232 374.688 99.2297L365.995 161.78H343.543L356.217 71.3879H378.669L376.313 88.2037H376.321Z" fill="white"/>
<path d="M430.087 151.846C427.007 157.451 421.941 162.872 413.433 162.872C400.397 162.872 394.422 152.384 394.422 132.5C394.422 92.5481 407.458 70.3115 427.916 70.3115C432.443 70.3115 437.148 71.7571 440.951 75.0095L441.498 71.3957H463.951L450.191 169.561C447.658 187.276 436.432 199.756 412.717 199.756C403.485 199.756 395.515 198.126 389.902 195.957L394.607 179.864C401.483 182.394 407.458 182.755 410.722 182.755C421.04 182.755 426.291 178.419 427.562 169.922L430.095 151.846H430.087ZM426.468 145.879C427.739 145.879 429.363 145.702 430.996 144.972L439.142 88.027C436.609 87.481 434.976 87.3042 433.529 87.3042C425.021 87.3042 417.598 98.1533 417.598 130.332C417.598 140.635 419.954 145.879 426.468 145.879Z" fill="white"/>
<path d="M462.672 131.777C462.672 92.3635 476.069 70.3115 501.956 70.3115C518.071 70.3115 526.218 78.8079 526.218 94.7164C526.218 105.927 522.599 116.592 518.248 124.365H486.025V128.34C486.025 139.551 489.644 145.879 501.594 145.879C506.121 145.879 511.912 145.156 516.439 142.988C514.63 156.728 506.845 162.872 488.743 162.872C470.641 162.872 462.672 152.384 462.672 131.777ZM486.934 111.171H503.226C504.312 108.457 505.944 103.213 505.944 97.0692C505.944 92.0098 504.674 87.3042 499.969 87.3042C493.994 87.3042 488.928 94.5318 486.934 111.171Z" fill="white"/>
</svg>
