<svg width="74" height="75" viewBox="0 0 74 75" fill="none" xmlns="http://www.w3.org/2000/svg">
<g clip-path="url(#clip0_1856_754)">
<path d="M0.648674 13.4791C0.827393 12.8727 1.32326 12.4124 1.94115 12.2793L9.76991 10.5919L11.4572 2.76332C11.5905 2.14529 12.0507 1.64942 12.6572 1.47085C13.2638 1.29213 13.9193 1.4592 14.3662 1.90613L24.4906 12.0305C29.292 9.41877 34.6929 8.04327 40.1967 8.04327C48.9859 8.04327 57.249 11.466 63.4637 17.6808C69.6789 23.8956 73.1016 32.1587 73.1016 40.9478C73.1016 49.7369 69.6789 58.0001 63.4639 64.2148C57.2492 70.4297 48.986 73.8525 40.1969 73.8525C31.4077 73.8525 23.1447 70.4298 16.9299 64.2148C10.715 58.0001 7.29218 49.7369 7.29218 40.9478C7.29218 35.4822 8.65055 30.1132 11.2299 25.334L1.08411 15.1881C0.637024 14.741 0.469955 14.0854 0.648674 13.4791ZM33.0312 40.9478C33.0312 44.8989 36.2456 48.1134 40.1969 48.1134C44.1479 48.1134 47.3624 44.8989 47.3624 40.9478C47.3624 36.9967 44.1479 33.7823 40.1969 33.7823C38.8432 33.7823 37.5764 34.1597 36.4953 34.8146L41.4167 39.7256C42.0915 40.3993 42.0928 41.4925 41.4193 42.1676C41.082 42.5056 40.6395 42.6746 40.197 42.6746C39.7558 42.6746 39.3144 42.5064 38.9772 42.1701L34.0561 37.2594C33.406 38.3376 33.0312 39.5997 33.0312 40.9478ZM34.0046 32.3292C35.7492 31.0723 37.8872 30.3288 40.1969 30.3288C46.0521 30.3288 50.8159 35.0924 50.8159 40.9478C50.8159 46.8031 46.0523 51.5669 40.1969 51.5669C34.3415 51.5669 29.5777 46.8032 29.5777 40.9478C29.5777 38.6462 30.3162 36.515 31.5652 34.7737L26.0809 29.3009C23.463 32.4681 21.8883 36.5275 21.8883 40.9478C21.8883 51.0431 30.1015 59.2562 40.1967 59.2562C50.2918 59.2562 58.505 51.0431 58.505 40.9478C58.505 30.8526 50.2918 22.6394 40.1967 22.6394C35.7627 22.6394 31.6919 24.2243 28.5206 26.8567L34.0046 32.3292ZM40.1969 70.399C56.4363 70.399 69.6481 57.1873 69.6481 40.9478C69.6481 24.7084 56.4363 11.4968 40.1969 11.4968C35.3489 11.4968 30.591 12.6878 26.3471 14.9521C26.3442 14.9674 26.3435 14.9828 26.3402 14.9979L24.6226 22.9668L26.0686 24.4098C29.8732 21.1549 34.8091 19.186 40.1969 19.186C52.1964 19.186 61.9586 28.9482 61.9586 40.9478C61.9586 52.9474 52.1963 62.7097 40.1969 62.7097C28.1974 62.7097 18.435 52.9473 18.435 40.9478C18.435 35.5765 20.3923 30.6544 23.6295 26.8546L22.2041 25.432L14.176 27.1622C14.173 27.1628 14.1699 27.1631 14.1671 27.1637C11.9252 31.3919 10.746 36.1276 10.746 40.9478C10.7457 57.1873 23.9576 70.399 40.1969 70.399ZM14.3678 23.588L19.2925 22.5266L15.183 18.4258C14.5081 17.752 14.5068 16.6589 15.1804 15.9838C15.8541 15.3087 16.9473 15.3075 17.6224 15.9813L21.7152 20.0654L22.766 15.1898L14.1653 6.58921L12.911 12.4089C12.7681 13.0721 12.2499 13.5901 11.5869 13.733L5.76717 14.9874L14.3678 23.588Z" fill="black" fill-opacity="0.5"/>
</g>
<defs>
<clipPath id="clip0_1856_754">
<rect width="73.6744" height="73.6744" fill="white" transform="matrix(-1 0 0 1 73.6758 0.790039)"/>
</clipPath>
</defs>
</svg>
