<svg width="54" height="54" viewBox="0 0 54 54" fill="none" xmlns="http://www.w3.org/2000/svg">
<path d="M27.0145 48.9404C18.6715 48.9412 10.9782 44.1606 7.29351 36.636C3.56497 29.0195 4.69391 19.5205 10.104 12.9992C15.5083 6.48459 24.2942 3.642 32.4853 5.75728C33.3873 5.99015 33.9298 6.91069 33.6978 7.8135C33.4649 8.71631 32.5436 9.258 31.6416 9.02597C24.7127 7.23637 17.2759 9.64106 12.7019 15.155C8.12544 20.6722 7.17032 28.709 10.3251 35.1535C13.4681 41.5728 20.4012 45.7544 27.5173 45.5603C34.6327 45.3663 41.0899 41.0387 43.9679 34.5359C45.658 30.7171 46.0157 26.3929 44.9737 22.3589C44.7408 21.4569 45.2833 20.5364 46.1862 20.3027C47.0864 20.069 48.0087 20.6123 48.2424 21.5152C49.4726 26.2815 49.0515 31.3912 47.0552 35.9019C43.6532 43.5885 36.0198 48.7042 27.6102 48.9337C27.411 48.9379 27.2119 48.9404 27.0145 48.9404Z" fill="#3AA7CB"/>
<path d="M26.9998 32.2654C26.5678 32.2654 26.1358 32.1009 25.8067 31.771C25.1478 31.112 25.1478 30.0438 25.8067 29.3849L46.0567 9.13485C46.7148 8.47588 47.7847 8.47588 48.4429 9.13485C49.1018 9.79382 49.1018 10.862 48.4429 11.521L28.1929 31.771C27.8638 32.1 27.4318 32.2654 26.9998 32.2654Z" fill="#3AA7CB"/>
<path d="M26.9989 32.2655C26.5669 32.2655 26.1349 32.1009 25.8058 31.771L18.6466 24.6118C17.9876 23.9528 17.9876 22.8846 18.6466 22.2257C19.3047 21.5667 20.3746 21.5667 21.0327 22.2257L28.1919 29.3849C28.8509 30.0439 28.8509 31.112 28.1919 31.771C27.8629 32.1001 27.4309 32.2655 26.9989 32.2655Z" fill="#3AA7CB"/>
</svg>
