<svg width="216" height="216" viewBox="0 0 216 216" fill="none" xmlns="http://www.w3.org/2000/svg">
<path d="M107.966 213.722C166.373 213.722 213.722 166.374 213.722 107.967C213.722 49.5597 166.373 2.21143 107.966 2.21143C49.5593 2.21143 2.21094 49.5597 2.21094 107.967C2.21094 166.374 49.5593 213.722 107.966 213.722Z" fill="white"/>
<path d="M107.975 215.941C48.4308 215.941 0 167.502 0 107.967C0 48.4308 48.4308 0 107.975 0C167.519 0 215.941 48.4308 215.941 107.967C215.941 167.502 167.51 215.933 107.975 215.933V215.941ZM107.975 4.43867C50.8885 4.43867 4.43867 50.8803 4.43867 107.967C4.43867 165.053 50.8885 211.503 107.975 211.503C165.061 211.503 211.503 165.061 211.503 107.967C211.503 50.8721 165.061 4.43867 107.975 4.43867Z" fill="#3AA7CB"/>
<path d="M161.142 150.002C171.515 136.9 177.154 119.885 175.461 101.514C172.543 69.9747 147.152 44.0661 115.67 40.5973C74.7771 36.0847 40.1719 67.9856 40.1719 107.966C40.1719 123.863 45.6545 138.478 54.8195 150.043C57.6717 153.635 62.0282 155.715 66.6148 155.715H149.314C153.917 155.715 158.282 153.619 161.142 150.002Z" fill="#3AA7CB"/>
<path d="M142.795 135.774C123.29 129.502 92.6465 129.502 73.141 135.774L71.793 131.557C92.1369 124.998 123.816 125.006 144.152 131.557L142.803 135.774H142.795Z" fill="white"/>
<path d="M107.967 95.7437L106.939 94.8231C102.106 90.516 99.3359 84.3676 99.3359 77.9397C99.3359 71.5119 102.106 65.3635 106.939 61.0564L107.967 60.1357L108.994 61.0564C113.827 65.3471 116.597 71.5037 116.597 77.9397C116.597 84.3758 113.827 90.5324 108.994 94.8231L107.967 95.7437ZM107.967 64.3689C104.432 68.002 102.435 72.8764 102.435 77.9397C102.435 83.0031 104.432 87.8774 107.967 91.5106C111.501 87.8774 113.499 83.0113 113.499 77.9397C113.499 72.8681 111.501 68.002 107.967 64.3689Z" fill="white"/>
<path d="M118.917 96.1142C117.938 96.1142 116.96 96.0402 115.982 95.8923L114.609 95.6868L114.659 94.3059C114.856 88.8233 117.379 83.6859 121.58 80.209C125.772 76.732 131.287 75.2278 136.712 76.058L138.085 76.2635L138.036 77.6444C137.838 83.127 135.315 88.2643 131.115 91.7331C127.679 94.5853 123.347 96.1142 118.917 96.1142ZM117.873 92.9743C121.958 93.2619 125.977 91.9468 129.134 89.3411C132.29 86.7355 134.304 83.0119 134.814 78.9596C130.769 78.6965 126.692 79.9788 123.552 82.5927C120.396 85.1984 118.382 88.9219 117.873 92.9743Z" fill="white"/>
<path d="M120.666 114.362C119.688 114.362 118.71 114.288 117.74 114.14L116.367 113.935L116.417 112.554C116.606 107.071 119.137 101.934 123.338 98.457C127.538 94.98 133.07 93.484 138.47 94.306L139.843 94.5115L139.794 95.8924C139.604 101.375 137.073 106.512 132.872 109.989C129.428 112.833 125.105 114.37 120.666 114.37V114.362ZM119.63 111.23C123.691 111.502 127.735 110.203 130.891 107.597C134.048 104.992 136.062 101.268 136.571 97.2158C132.527 96.9856 128.467 98.2432 125.31 100.849C122.162 103.455 120.14 107.178 119.63 111.23Z" fill="white"/>
<path d="M111.799 128.55L110.344 96.0487L115.251 92.8677L117.174 95.8432L113.977 97.9228L115.35 128.393L111.799 128.55Z" fill="white"/>
<path d="M116.786 111.28L111.871 115.71L114.243 118.342L119.158 113.912L116.786 111.28Z" fill="white"/>
<path d="M97.0279 96.1137C92.5892 96.1137 88.2574 94.5848 84.8215 91.7326C80.6212 88.2556 78.0977 83.1183 77.9087 77.6439L77.8594 76.263L79.2321 76.0575C84.6489 75.2273 90.1726 76.7315 94.3647 80.2085C98.5649 83.6854 101.088 88.8228 101.286 94.3054L101.335 95.6863L99.9623 95.8918C98.9842 96.0397 98.006 96.1137 97.0279 96.1137ZM81.1226 78.9673C81.6322 83.0114 83.6543 86.735 86.7942 89.3488C89.9424 91.9627 93.9537 93.2368 98.0635 92.982C97.5539 88.9296 95.5319 85.2061 92.3837 82.6004C89.2355 79.9948 85.175 78.7207 81.1226 78.9673Z" fill="white"/>
<path d="M95.27 114.362C90.8314 114.362 86.516 112.833 83.0637 109.981C78.8634 106.512 76.3482 101.367 76.1509 95.8841L76.1016 94.5032L77.4743 94.2977C82.8829 93.4757 88.4065 94.9717 92.6068 98.4486C96.8154 101.926 99.3388 107.071 99.5197 112.546L99.5608 113.926L98.2045 114.132C97.2346 114.28 96.2564 114.354 95.2783 114.354L95.27 114.362ZM79.3648 97.2075C79.8744 101.26 81.8965 104.983 85.0364 107.589C88.1928 110.195 92.2287 111.461 96.2975 111.222C95.7961 107.17 93.774 103.446 90.6259 100.841C87.4777 98.2349 83.3925 96.9362 79.3648 97.2075Z" fill="white"/>
<path d="M104.922 128.508L101.371 128.442L101.996 97.9388L98.7656 95.8427L100.689 92.8672L105.58 96.0318L104.922 128.508Z" fill="white"/>
<path d="M102.486 119.022L96.7812 113.926L99.1403 111.279L104.837 116.367L102.486 119.022Z" fill="white"/>
<path d="M84.8759 32.6079L81.9414 16.2752L91.1229 14.6313C92.5285 14.3765 93.7368 14.4587 94.756 14.8696C95.7753 15.2806 96.589 15.93 97.2137 16.8095C97.8302 17.689 98.2494 18.7165 98.4549 19.8837C98.6686 21.0673 98.6029 22.1852 98.2576 23.2291C97.9124 24.2731 97.3206 25.1608 96.4822 25.8923C95.6437 26.6157 94.5834 27.1006 93.3011 27.3308L90.3584 27.8569L91.016 31.5064L84.8759 32.6079ZM89.5036 23.0565L90.9996 22.7853C91.4928 22.6949 91.838 22.4976 92.0435 22.177C92.249 21.8647 92.3065 21.4701 92.2243 20.9934C92.0353 19.9412 91.4763 19.5056 90.5475 19.67L88.9529 19.9577L89.5036 23.0483V23.0565Z" fill="#151716"/>
<path d="M100.738 29.8214L101.01 13.2339L110.331 13.3818C111.753 13.4065 112.928 13.6942 113.849 14.2531C114.769 14.8121 115.443 15.5601 115.887 16.5054C116.331 17.4506 116.537 18.511 116.52 19.6946C116.504 20.8125 116.2 21.7824 115.608 22.6209C115.016 23.451 114.317 24.1333 113.504 24.6758C113.693 24.7991 113.832 24.9306 113.931 25.0786C114.03 25.2265 114.112 25.3745 114.178 25.5306L116.06 30.068L109.566 29.9611L108.005 26.254C107.922 26.0485 107.832 25.9005 107.725 25.8266C107.626 25.7444 107.478 25.7033 107.289 25.7033H107.035L106.969 29.92L100.738 29.8214ZM107.117 20.8289L108.637 20.8536C109.649 20.87 110.166 20.4508 110.183 19.5878C110.183 19.111 110.084 18.7658 109.854 18.5521C109.624 18.3466 109.27 18.2315 108.794 18.2233L107.174 18.1986L107.133 20.8289H107.117Z" fill="#151716"/>
<path d="M125.549 32.0575C123.716 31.6711 122.212 31.0711 121.029 30.2491C119.845 29.4272 119.039 28.3339 118.612 26.9612C118.176 25.5885 118.176 23.887 118.612 21.8568C119.039 19.81 119.73 18.2483 120.675 17.1715C121.62 16.0947 122.796 15.4207 124.21 15.1494C125.615 14.8782 127.243 14.9275 129.067 15.3138C130.9 15.7002 132.405 16.3002 133.588 17.1222C134.764 17.9441 135.577 19.0292 136.005 20.3936C136.441 21.7581 136.441 23.4678 136.005 25.5145C135.577 27.5448 134.887 29.1066 133.942 30.1916C132.996 31.2766 131.821 31.9506 130.407 32.2219C129.002 32.4931 127.374 32.4438 125.549 32.0575ZM126.634 26.8955C127.522 27.0845 128.213 26.9777 128.689 26.5749C129.166 26.1721 129.528 25.383 129.783 24.2076C130.029 23.0322 130.013 22.1609 129.741 21.6019C129.462 21.043 128.878 20.6731 127.991 20.4841C127.103 20.295 126.412 20.4019 125.936 20.8046C125.459 21.2074 125.097 21.9965 124.842 23.1719C124.596 24.3473 124.612 25.2186 124.884 25.7776C125.163 26.3365 125.747 26.7064 126.634 26.8955Z" fill="#151716"/>
<path d="M155.313 40.022C154.688 40.022 154.162 39.7507 153.718 39.4055C153.275 38.9616 153.094 38.3369 153.094 37.8109C153.094 37.1944 153.275 36.6601 153.718 36.2162C154.335 35.5998 155.313 35.4189 156.11 35.7724C156.382 35.8628 156.645 36.0354 156.817 36.2162C157.261 36.6601 157.524 37.2848 157.524 37.8109C157.524 38.3369 157.253 38.9616 156.817 39.4055C156.373 39.759 155.839 40.022 155.313 40.022Z" fill="#3AA7CB"/>
<path d="M167.025 168.645C166.129 167.757 166.129 166.335 166.927 165.455C167.823 164.568 169.236 164.568 170.124 165.455C171.02 166.335 171.02 167.675 170.124 168.554C169.68 168.998 169.146 169.261 168.53 169.261C167.995 169.261 167.461 168.998 167.025 168.645ZM172.344 162.883C171.365 162.176 171.275 160.754 171.99 159.776C172.787 158.888 174.209 158.707 175.188 159.504C176.067 160.211 176.256 161.633 175.459 162.611C175.007 163.146 174.39 163.409 173.766 163.409C173.239 163.409 172.787 163.228 172.344 162.874V162.883ZM177.136 156.759C176.158 156.052 175.804 154.72 176.511 153.652C177.218 152.674 178.558 152.411 179.618 153.118C180.588 153.734 180.859 155.156 180.235 156.134C179.791 156.759 179.084 157.112 178.369 157.112C177.925 157.112 177.489 157.022 177.127 156.759H177.136ZM181.303 150.191C180.235 149.657 179.889 148.235 180.424 147.175C181.048 146.106 182.372 145.671 183.44 146.287C184.509 146.903 184.944 148.235 184.336 149.304C183.983 150.101 183.177 150.454 182.38 150.454C182.026 150.454 181.673 150.364 181.311 150.191H181.303ZM184.944 143.279C183.794 142.835 183.268 141.503 183.794 140.352C184.238 139.284 185.569 138.758 186.72 139.202C187.788 139.728 188.315 140.977 187.871 142.128C187.517 142.925 186.629 143.459 185.832 143.459C185.479 143.459 185.207 143.459 184.936 143.279H184.944ZM187.871 136.094C186.72 135.651 186.005 134.409 186.449 133.25C186.802 132.1 188.051 131.475 189.202 131.837C190.353 132.19 191.068 133.431 190.624 134.672C190.353 135.56 189.465 136.177 188.495 136.177C188.315 136.177 188.051 136.177 187.871 136.086V136.094ZM190.09 128.549C188.849 128.278 188.142 127.127 188.413 125.886C188.676 124.727 189.827 124.02 191.076 124.291C192.227 124.554 193.024 125.713 192.753 126.864C192.49 127.932 191.602 128.639 190.534 128.639C190.443 128.639 190.271 128.639 190.09 128.549ZM191.594 120.921C190.443 120.74 189.556 119.68 189.728 118.438C189.909 117.197 190.978 116.4 192.211 116.573C193.361 116.663 194.249 117.814 194.159 119.055C193.986 120.115 193.008 120.921 191.939 120.921H191.586H191.594ZM192.49 113.202C191.241 113.112 190.271 112.134 190.361 110.893C190.361 109.652 191.43 108.673 192.663 108.764C193.814 108.764 194.792 109.832 194.792 111.065C194.701 112.224 193.723 113.194 192.572 113.194H192.482L192.49 113.202ZM190.271 103.273C190.172 102.122 191.15 101.054 192.392 100.971C193.542 100.881 194.611 101.851 194.701 103.01C194.792 104.251 193.805 105.311 192.572 105.402H192.392C191.241 105.402 190.353 104.514 190.271 103.273ZM189.465 95.7273C189.293 94.5765 190.09 93.4257 191.331 93.2449C192.581 93.0641 193.731 93.8614 193.904 95.1108H193.814C194.085 96.352 193.197 97.4123 192.038 97.5931C191.865 97.6836 191.775 97.6836 191.685 97.6836C190.624 97.6836 189.646 96.8862 189.465 95.7273ZM188.051 88.2802H187.953C187.69 87.1294 188.405 85.9786 189.646 85.617C190.797 85.3457 192.038 86.0608 192.309 87.302C192.581 88.4528 191.865 89.6035 190.715 89.9652H190.18C189.21 89.9652 188.315 89.3487 188.06 88.2802H188.051ZM185.832 81.0057C185.479 79.8467 186.095 78.6137 187.246 78.252C188.405 77.8082 189.646 78.4329 190.09 79.5836C190.443 80.7344 189.819 81.9756 188.668 82.4195C188.405 82.5099 188.224 82.5099 187.961 82.5099C187.082 82.5099 186.194 81.9756 185.84 81.0057H185.832ZM183.079 73.9942C182.552 72.8352 183.079 71.6023 184.147 71.068C185.298 70.5337 186.629 71.068 187.164 72.1365C187.608 73.2873 187.164 74.6189 186.013 75.0628C185.742 75.2436 185.388 75.334 185.133 75.334C184.238 75.334 183.44 74.7997 183.087 74.0024L183.079 73.9942ZM179.626 67.254C179.002 66.1854 179.355 64.8621 180.506 64.2374C181.484 63.6209 182.906 63.9661 183.432 65.0347H183.522C184.057 66.1032 183.703 67.4266 182.643 68.0513C182.289 68.2322 181.936 68.3144 181.574 68.3144C180.777 68.3144 180.07 67.9609 179.626 67.2458V67.254ZM175.541 60.8673C174.834 59.7987 175.097 58.4753 176.158 57.7602C177.136 57.0533 178.467 57.3163 179.182 58.2945C179.889 59.2726 179.626 60.6864 178.648 61.4015C178.295 61.6646 177.851 61.755 177.407 61.755C176.7 61.755 175.985 61.492 175.541 60.8755V60.8673ZM170.922 54.8339C170.124 53.8558 170.305 52.5324 171.193 51.6447C172.072 50.9378 173.494 51.02 174.292 51.9077V51.9981C175.097 52.8776 174.999 54.2997 174.029 55.097C173.675 55.4504 173.133 55.6313 172.607 55.6313C171.982 55.6313 171.357 55.3682 170.913 54.8339H170.922ZM165.776 49.2445C164.896 48.3568 164.896 46.9348 165.776 46.1374C166.581 45.2497 167.995 45.2497 168.883 46.047C169.763 46.9265 169.763 48.3486 168.883 49.2363C168.439 49.6802 167.905 49.8528 167.28 49.8528C166.754 49.8528 166.22 49.6719 165.776 49.2363V49.2445ZM160.104 44.1894C159.225 43.392 159.036 41.97 159.833 41.0905C160.63 40.1124 161.962 39.9315 162.94 40.7371C163.91 41.5344 164.009 42.866 163.294 43.8441C162.841 44.3702 162.143 44.6414 161.518 44.6414C161.074 44.6414 160.54 44.551 160.096 44.1976L160.104 44.1894Z" fill="#3AA7CB"/>
<path d="M162.77 174.678C162.243 174.678 161.619 174.407 161.265 173.971C160.821 173.617 160.641 172.993 160.641 172.467C160.641 172.113 160.641 171.842 160.739 171.579C160.912 171.308 161.002 171.045 161.265 170.872C161.972 170.075 163.567 169.984 164.372 170.872C164.816 171.316 165.071 171.85 165.071 172.467C165.071 172.73 164.981 172.993 164.808 173.264C164.709 173.527 164.537 173.798 164.364 173.971C163.912 174.415 163.386 174.678 162.761 174.678H162.77Z" fill="#3AA7CB"/>
<path d="M53.6607 175.032C53.036 175.032 52.51 174.851 52.0661 174.416C51.614 173.972 51.4414 173.437 51.4414 172.821C51.4414 172.295 51.614 171.761 52.0661 171.317C52.9456 170.429 54.2854 170.429 55.2554 171.317C55.6088 171.761 55.8801 172.295 55.8801 172.821C55.8801 173.446 55.6088 173.98 55.2554 174.416C54.8115 174.859 54.1868 175.032 53.6607 175.032Z" fill="#3AA7CB"/>
<path d="M46.295 169.089C45.4154 168.292 45.4976 166.87 46.295 165.982C47.1745 165.102 48.5965 165.102 49.4924 165.982C50.372 166.87 50.372 168.292 49.4924 169.179C49.0486 169.533 48.4239 169.796 47.8896 169.796C47.3635 169.796 46.7388 169.533 46.295 169.089ZM40.9768 163.146C40.1795 162.258 40.2699 160.844 41.2398 160.039C42.218 159.242 43.5496 159.422 44.3469 160.31C45.1442 161.288 44.9634 162.702 44.0756 163.499C43.6318 163.763 43.0975 163.943 42.6536 163.943C42.0371 163.943 41.3302 163.68 40.9768 163.146ZM36.0942 156.759C35.3956 155.691 35.6504 154.367 36.7189 153.652C37.6971 152.945 39.1191 153.208 39.7356 154.269C40.4425 155.247 40.1877 156.661 39.2095 157.285C38.8561 157.557 38.4122 157.729 37.9683 157.729C37.2614 157.729 36.5463 157.376 36.0942 156.751V156.759ZM31.9268 149.929C31.3103 148.86 31.6556 147.446 32.8228 146.912C33.8831 146.296 35.2147 146.649 35.8394 147.709C36.3655 148.86 36.012 150.192 34.9435 150.726C34.59 150.907 34.2366 151.079 33.8749 151.079C33.0776 151.079 32.2803 150.636 31.9268 149.929ZM28.3841 142.654C27.8498 141.586 28.3841 140.262 29.5349 139.728C30.6034 139.284 31.9268 139.818 32.4611 140.887C32.905 142.038 32.3625 143.369 31.2117 143.813C30.9487 143.994 30.6856 143.994 30.4144 143.994C29.5349 143.994 28.7376 143.55 28.3759 142.662L28.3841 142.654ZM25.4496 135.207C25.0962 134.056 25.7127 132.815 26.8717 132.371C28.0224 132.018 29.3458 132.634 29.7075 133.785C30.0609 134.936 29.4362 136.177 28.2855 136.629C28.0224 136.72 27.8416 136.72 27.5786 136.72C26.6991 136.72 25.8113 136.103 25.4579 135.215L25.4496 135.207ZM23.3207 127.489C23.0495 126.248 23.7646 125.097 24.9976 124.826C26.1565 124.554 27.3977 125.269 27.669 126.42C27.932 127.661 27.1347 128.812 25.9757 129.083C25.8031 129.174 25.6223 129.174 25.4496 129.174C24.4715 129.174 23.5838 128.467 23.3207 127.489ZM21.8987 119.507V119.598C21.7261 118.357 22.6056 117.206 23.7646 117.033C25.0058 116.943 26.1648 117.74 26.247 118.981C26.4196 120.222 25.6223 121.291 24.3811 121.464H24.1098C22.9591 121.464 21.9809 120.666 21.8905 119.507H21.8987ZM21.1918 111.518C21.1014 110.367 22.0878 109.298 23.3207 109.208C24.5619 109.208 25.6223 110.186 25.6223 111.337V111.427C25.7127 112.586 24.7427 113.647 23.4933 113.647H23.4029C22.2522 113.647 21.274 112.759 21.1836 111.518H21.1918ZM23.3207 105.846C22.17 105.846 21.1918 104.778 21.274 103.545C21.274 102.303 22.3426 101.416 23.5838 101.416C24.8249 101.506 25.7045 102.566 25.7045 103.808C25.614 104.958 24.6441 105.846 23.4029 105.846H23.3125H23.3207ZM23.9454 98.0373C22.696 97.8565 21.8165 96.7057 21.9891 95.555C22.17 94.3138 23.3207 93.5164 24.5619 93.6069C25.7127 93.7877 26.6086 94.9385 26.4278 96.1797C26.2552 97.24 25.277 98.0455 24.2085 98.0455H23.9454V98.0373ZM25.1866 90.319C23.9454 90.0559 23.2385 88.8147 23.4933 87.6558C23.7646 86.4146 24.9976 85.6995 26.1648 85.9707C27.406 86.3242 28.1129 87.4749 27.8416 88.6339C27.5703 89.7025 26.6908 90.4094 25.7127 90.4094C25.5401 90.4094 25.3592 90.319 25.1866 90.319ZM27.1347 82.7814C25.9839 82.3376 25.3592 81.0964 25.7127 79.9456C26.1648 78.7949 27.406 78.1702 28.5567 78.5236C29.7075 78.9675 30.3322 80.2087 29.9787 81.3676C29.6253 82.2472 28.828 82.8719 27.8498 82.8719C27.5786 82.8719 27.406 82.8719 27.1429 82.7814H27.1347ZM29.7897 75.3261C28.7293 74.8823 28.195 73.5507 28.7293 72.3999C29.1732 71.3313 30.4966 70.8053 31.6473 71.3313C32.7159 71.8656 33.2502 73.1972 32.7159 74.2575C32.3625 75.0549 31.5652 75.5892 30.7678 75.5892C30.4144 75.5892 30.1431 75.4987 29.7897 75.3261ZM33.168 68.3229C32.0994 67.7064 31.746 66.3666 32.3625 65.3062C32.9872 64.2377 34.3188 63.802 35.3873 64.4185C36.4477 65.035 36.8011 66.3666 36.1847 67.4352C35.7408 68.1421 35.0339 68.5859 34.2284 68.5859C33.8749 68.5859 33.5297 68.4955 33.168 68.3229ZM37.1546 61.5827C36.1847 60.8758 35.9134 59.4538 36.6285 58.4756C37.3354 57.4975 38.667 57.2344 39.7274 57.9413C40.7055 58.6482 40.9768 59.9798 40.2617 61.0484C39.8178 61.6649 39.1109 61.9279 38.3958 61.9279C37.9519 61.9279 37.4998 61.8375 37.1464 61.5745L37.1546 61.5827ZM41.7741 55.1877C40.7959 54.4808 40.7055 53.0588 41.5028 52.0806C42.3002 51.1025 43.6318 51.0121 44.6099 51.8176C45.5798 52.6149 45.6703 54.0369 44.8729 54.9247C44.4291 55.4507 43.8044 55.722 43.1961 55.722C42.6618 55.722 42.218 55.5412 41.7741 55.1877ZM46.9197 49.3352C46.0237 48.4475 46.0237 47.0337 46.9197 46.2282C47.7992 45.3487 49.2212 45.3487 50.1089 46.2282C50.9145 47.1159 50.9145 48.5379 50.0185 49.3352C49.6651 49.7791 49.0486 49.9599 48.5143 49.9599C47.8896 49.9599 47.3635 49.7791 46.9197 49.3352ZM52.5913 43.9266C51.794 43.0389 51.9666 41.6251 52.9447 40.8196C53.8243 40.0223 55.2463 40.2031 56.0436 41.0908C56.7505 42.069 56.6683 43.4828 55.6984 44.2801C55.2463 44.6335 54.8024 44.724 54.2763 44.724C53.6516 44.724 53.0269 44.4609 52.5831 43.9266H52.5913Z" fill="#3AA7CB"/>
<path d="M60.6647 40.0224C60.0399 40.0224 59.5139 39.7512 59.07 39.4059C58.7166 38.9621 58.4453 38.4278 58.4453 37.8113C58.4453 37.1948 58.7166 36.6605 59.07 36.2167C59.333 36.0358 59.5139 35.8632 59.7769 35.7728C60.6564 35.4194 61.6428 35.592 62.2511 36.2167C62.6045 36.6605 62.8758 37.2852 62.8758 37.8113C62.8758 38.4278 62.6045 38.9621 62.2511 39.4059C61.8072 39.7594 61.2811 40.0224 60.6564 40.0224H60.6647Z" fill="#3AA7CB"/>
<path d="M65.4223 183.547V169.253H70.7898V179.462H76.6258V183.547H65.4141H65.4223Z" fill="#233D4D"/>
<path d="M77.8516 183.547V169.253H89.2853V173.116H83.2273V174.407H88.4386V178.402H83.2273V179.692H89.2853V183.555H77.8516V183.547Z" fill="#233D4D"/>
<path d="M90.1719 183.547L95.6791 169.253H101.252L106.759 183.547H101.17L100.151 180.884H96.797L95.7778 183.547H90.1883H90.1719ZM97.3559 177.218H99.5342L98.4492 174.489L97.3642 177.218H97.3559Z" fill="#233D4D"/>
<path d="M116.178 183.761C113.482 183.761 111.427 183.136 109.997 181.895C108.567 180.654 107.852 178.821 107.852 176.388C107.852 173.955 108.6 172.13 110.096 170.881C111.592 169.639 113.745 169.015 116.556 169.015C117.477 169.015 118.299 169.064 119.03 169.163C119.762 169.261 120.469 169.426 121.151 169.664V174.234C120.469 173.971 119.778 173.79 119.08 173.692C118.373 173.593 117.658 173.544 116.918 173.544C115.882 173.544 115.027 173.749 114.353 174.152C113.679 174.555 113.342 175.303 113.342 176.38C113.342 177.456 113.581 178.204 114.066 178.607C114.542 179.018 115.241 179.215 116.137 179.215C116.614 179.215 117.058 179.166 117.469 179.059V178.196H115.093V174.958H121.907V182.347C121.299 182.717 120.526 183.046 119.581 183.325C118.636 183.605 117.502 183.744 116.186 183.744L116.178 183.761Z" fill="#233D4D"/>
<path d="M130.722 183.761C129.373 183.761 128.165 183.539 127.08 183.095C126.003 182.651 125.149 181.993 124.516 181.122C123.891 180.251 123.57 179.174 123.57 177.9V169.245H128.938V177.21C128.938 178.541 129.53 179.207 130.713 179.207C131.897 179.207 132.489 178.541 132.489 177.21V169.245H137.856V177.9C137.856 179.174 137.544 180.243 136.911 181.122C136.278 181.993 135.431 182.651 134.346 183.095C133.27 183.539 132.053 183.761 130.705 183.761H130.722Z" fill="#233D4D"/>
<path d="M139.746 183.547V169.253H151.172V173.116H145.114V174.407H150.333V178.402H145.114V179.692H151.172V183.555H139.746V183.547Z" fill="#233D4D"/>
</svg>
