<svg width="216" height="216" viewBox="0 0 216 216" fill="none" xmlns="http://www.w3.org/2000/svg">
<path d="M107.966 213.722C166.373 213.722 213.722 166.373 213.722 107.966C213.722 49.5593 166.373 2.21094 107.966 2.21094C49.5593 2.21094 2.21094 49.5593 2.21094 107.966C2.21094 166.373 49.5593 213.722 107.966 213.722Z" fill="white"/>
<path d="M107.975 215.941C48.4308 215.941 0 167.502 0 107.967C0 48.4308 48.4308 0 107.975 0C167.519 0 215.941 48.4308 215.941 107.967C215.941 167.502 167.51 215.933 107.975 215.933V215.941ZM107.975 4.43867C50.8885 4.43867 4.43867 50.8803 4.43867 107.967C4.43867 165.053 50.8885 211.503 107.975 211.503C165.061 211.503 211.503 165.061 211.503 107.967C211.503 50.8721 165.061 4.43867 107.975 4.43867Z" fill="#3AA7CB"/>
<path d="M160.927 150.002C171.301 136.9 176.939 119.885 175.246 101.514C172.328 69.9747 146.937 44.0661 115.456 40.5973C74.5622 36.0847 39.957 67.9856 39.957 107.966C39.957 123.863 45.4396 138.478 54.6046 150.043C57.4569 153.635 61.8134 155.715 66.4 155.715H149.099C153.702 155.715 158.067 153.619 160.927 150.002Z" fill="#3AA7CB"/>
<path d="M121.988 125.729H89.1094V130.168H121.988V125.729Z" fill="white"/>
<path d="M107.767 103.881H103.328V127.941H107.767V103.881Z" fill="white"/>
<path d="M103.207 108.312L102.656 106.421C100.355 98.6702 101.464 90.3025 105.706 83.4636C109.939 76.633 116.95 71.9231 124.923 70.5504L126.871 70.2134L127.422 72.1039C129.724 79.8552 128.614 88.2229 124.381 95.0535C120.131 101.892 113.12 106.594 105.155 107.975L103.207 108.312ZM123.666 75.359C117.78 76.9043 112.684 80.6278 109.478 85.8063H109.47C106.256 90.9847 105.171 97.2153 106.404 103.175C112.29 101.629 117.386 97.9058 120.608 92.7191C123.814 87.5406 124.899 81.3183 123.666 75.359Z" fill="white"/>
<path d="M51.4658 51.2748L47.5039 35.5915L52.3125 32.1968L65.7764 41.1728L60.9514 44.584L58.4444 42.9071L55.5511 44.9538L56.2908 47.8719L51.4658 51.2831V51.2748ZM53.8167 41.4358L55.6908 40.1124L53.0851 38.4191L53.8085 41.4358H53.8167Z" fill="#151716"/>
<path d="M66.6656 40.8279L60.4844 27.0516L67.0273 24.1171C68.4822 23.4677 69.8467 23.1307 71.129 23.1143C72.403 23.0979 73.562 23.4677 74.6059 24.224C75.6498 24.9802 76.5458 26.2049 77.302 27.8818C78.0171 29.4764 78.313 30.9066 78.1815 32.1642C78.05 33.4219 77.565 34.5233 76.7102 35.4686C75.8553 36.4139 74.6881 37.2194 73.2086 37.8852L66.6656 40.8197V40.8279ZM70.0768 34.5726L70.8495 34.2274C71.3591 33.9973 71.7701 33.726 72.0825 33.4219C72.3866 33.1095 72.551 32.7068 72.5674 32.2053C72.5839 31.7039 72.4112 31.0546 72.0496 30.249C71.6879 29.4517 71.3345 28.901 70.9728 28.5887C70.6111 28.2763 70.2248 28.1448 69.8056 28.1859C69.3864 28.227 68.9014 28.3749 68.3425 28.6215L67.5698 28.9668L70.0851 34.5726H70.0768Z" fill="#151716"/>
<path d="M86.3355 33.1752L77.2773 19.7687L83.0312 18.4371L87.6836 25.9746L88.5795 17.1548L94.3333 15.8232L92.0647 31.8436L86.3273 33.1669L86.3355 33.1752Z" fill="#151716"/>
<path d="M98.2118 30.4873L103.694 15.2643L109.58 15.1328L115.72 30.101L109.81 30.2325L108.667 27.446L105.125 27.52L104.105 30.3558L98.1953 30.4873H98.2118ZM105.659 23.6485L107.952 23.5992L106.744 20.7387L105.659 23.6485Z" fill="#151716"/>
<path d="M116.656 30.3065L119.229 15.4287L123.923 16.2425L127.071 22.7854L128.082 16.9658L133.671 17.9357L131.098 32.8135L126.388 31.9997L123.257 25.465L122.246 31.2846L116.656 30.3147V30.3065Z" fill="#151716"/>
<path d="M140.469 36.3893C137.674 35.3783 135.784 33.9973 134.797 32.2465C133.811 30.4957 133.753 28.4161 134.625 25.9995C135.496 23.5911 136.86 22.0212 138.726 21.2978C140.592 20.5745 142.918 20.7142 145.713 21.7252C146.626 22.054 147.406 22.4075 148.056 22.7938C148.705 23.1801 149.322 23.6158 149.913 24.109L148.237 28.7614C147.119 27.6599 145.861 26.8544 144.447 26.3447C143.42 25.9749 142.532 25.8844 141.784 26.0653C141.036 26.2461 140.469 26.879 140.083 27.9558C139.696 29.0326 139.737 29.8792 140.206 30.5039C140.674 31.1286 141.431 31.6301 142.458 31.9999C143.872 32.5096 145.351 32.6986 146.913 32.5589L145.236 37.2113C144.472 37.2031 143.724 37.1455 142.968 37.0304C142.22 36.9154 141.39 36.6934 140.477 36.3646L140.469 36.3893Z" fill="#151716"/>
<path d="M145.969 38.3208L153.26 25.0952L163.831 30.923L161.858 34.4986L156.252 31.408L155.594 32.5999L160.419 35.2548L158.381 38.9537L153.556 36.2987L152.898 37.4906L158.504 40.5812L156.532 44.1568L145.961 38.329L145.969 38.3208Z" fill="#151716"/>
<path d="M157.246 44.535L166.6 32.6821L172.231 37.129C173.48 38.1154 174.409 39.1757 175.017 40.2936C175.625 41.4197 175.831 42.6198 175.642 43.8939C175.453 45.1679 174.787 46.5324 173.645 47.9791C172.56 49.3518 171.433 50.2724 170.258 50.7409C169.083 51.2095 167.882 51.2834 166.65 50.9629C165.417 50.6505 164.159 49.9847 162.885 48.9737L157.254 44.5268L157.246 44.535ZM164.373 44.6583L165.038 45.1844C165.482 45.5296 165.91 45.768 166.321 45.8995C166.74 46.031 167.167 45.9817 167.619 45.7598C168.072 45.5378 168.573 45.0857 169.115 44.3953C169.658 43.7048 169.978 43.1294 170.085 42.6691C170.192 42.2088 170.126 41.7978 169.896 41.4444C169.666 41.0909 169.313 40.7293 168.836 40.3512L168.17 39.8251L164.364 44.6501L164.373 44.6583Z" fill="#151716"/>
<path d="M181.065 62.8975C181.772 62.8975 182.487 63.2509 182.931 63.966C183.556 65.0264 183.202 66.358 182.134 66.9827C181.065 67.5992 179.733 67.2457 179.117 66.1854C178.492 65.2072 178.846 63.7934 179.914 63.1687C180.268 62.9879 180.621 62.9057 181.065 62.9057V62.8975ZM184.698 69.9089C185.578 69.9089 186.375 70.4432 186.737 71.2405C187.271 72.3091 186.737 73.6325 185.668 74.1668C184.517 74.701 183.194 74.2572 182.742 73.0982C182.216 71.9474 182.651 70.7062 183.81 70.172C184.082 69.9911 184.435 69.9089 184.706 69.9089H184.698ZM187.715 77.356C188.685 77.356 189.49 77.8903 189.844 78.778C190.288 79.9288 189.663 81.17 188.512 81.6139C187.361 82.0577 186.03 81.433 185.668 80.2823C185.224 79.1315 185.849 77.8903 187 77.4464C187.271 77.356 187.526 77.356 187.707 77.356H187.715ZM190.016 84.8935C190.995 84.8935 191.964 85.6004 192.236 86.5786C192.507 87.8198 191.792 88.9705 190.559 89.3322C189.4 89.5952 188.249 88.8883 187.887 87.7376C187.624 86.4964 188.34 85.3456 189.49 84.984C189.663 84.984 189.844 84.8935 190.016 84.8935ZM191.611 92.7927C192.68 92.7927 193.658 93.4996 193.83 94.6586C194.011 95.8998 193.214 96.9601 191.964 97.141C190.723 97.3218 189.573 96.5245 189.392 95.2751C189.219 94.1243 190.099 92.9736 191.258 92.7927H191.611ZM192.507 100.684C193.658 100.684 194.636 101.571 194.636 102.813C194.726 103.963 193.83 105.032 192.589 105.114C191.348 105.205 190.288 104.235 190.288 102.985C190.197 101.834 191.085 100.766 192.326 100.675H192.507V100.684ZM192.507 108.673H192.597C193.839 108.673 194.817 109.734 194.726 110.975C194.726 112.216 193.658 113.104 192.507 113.104C191.258 113.013 190.288 112.035 190.378 110.794C190.378 109.643 191.356 108.665 192.507 108.665V108.673ZM191.882 116.564C191.973 116.564 192.063 116.564 192.154 116.655C193.395 116.745 194.282 117.896 194.102 119.137C193.929 120.288 192.778 121.176 191.619 121.003C190.378 120.822 189.581 119.762 189.671 118.521C189.852 117.452 190.822 116.564 191.891 116.564H191.882ZM190.46 124.463H190.995C192.236 124.726 192.943 125.968 192.671 127.127C192.408 128.368 191.167 129.083 190.008 128.812C188.767 128.549 188.06 127.398 188.331 126.149C188.594 125.17 189.482 124.463 190.452 124.463H190.46ZM188.34 132.083C188.603 132.083 188.783 132.174 189.038 132.264C190.197 132.617 190.814 133.859 190.46 135.018C190.107 136.168 188.866 136.793 187.715 136.44C186.465 136.086 185.849 134.845 186.293 133.686C186.564 132.708 187.444 132.091 188.34 132.091V132.083ZM185.496 139.538C185.849 139.538 186.12 139.629 186.375 139.719C187.526 140.245 188.068 141.495 187.526 142.646C187.082 143.805 185.759 144.331 184.6 143.805C183.539 143.361 183.005 142.029 183.449 140.878C183.901 140.081 184.698 139.547 185.496 139.547V139.538ZM181.945 146.723C182.388 146.723 182.742 146.813 183.095 146.994C184.164 147.61 184.517 148.942 183.901 150.01C183.367 151.079 181.945 151.432 180.876 150.898C179.807 150.282 179.462 148.942 180.079 147.882C180.432 147.084 181.229 146.723 181.945 146.723ZM177.777 153.463C178.221 153.463 178.657 153.644 179.018 153.907C180.087 154.531 180.268 155.945 179.643 156.923C178.936 157.984 177.514 158.255 176.544 157.54C175.566 156.833 175.295 155.411 175.92 154.433C176.363 153.816 177.07 153.455 177.785 153.455L177.777 153.463ZM172.985 159.85C173.511 159.85 173.963 160.03 174.407 160.293C175.287 161.091 175.476 162.513 174.678 163.483C173.873 164.37 172.459 164.551 171.571 163.754C170.601 162.957 170.503 161.535 171.3 160.647C171.752 160.113 172.369 159.85 172.993 159.85H172.985ZM167.576 165.71C168.201 165.71 168.727 165.891 169.179 166.335C170.059 167.214 170.059 168.636 169.179 169.524C168.283 170.321 166.87 170.322 165.982 169.434C165.185 168.636 165.185 167.214 166.072 166.335C166.426 165.891 167.05 165.71 167.576 165.71ZM161.634 171.028C162.34 171.028 162.965 171.291 163.409 171.826C164.206 172.804 164.034 174.218 163.056 174.933C162.176 175.73 160.754 175.64 159.957 174.67C159.159 173.782 159.332 172.36 160.31 171.563C160.664 171.209 161.19 171.028 161.634 171.028Z" fill="#3AA7CB"/>
<path d="M176.626 56.0669C176.001 56.0669 175.475 56.3299 175.031 56.7738C174.579 57.2177 174.406 57.7519 174.406 58.3684C174.406 58.9027 174.579 59.437 175.031 59.8809C175.91 60.6782 177.332 60.6782 178.13 59.8809C178.574 59.437 178.837 58.9027 178.837 58.3684C178.837 57.7519 178.565 57.2177 178.13 56.7738C177.686 56.3299 177.152 56.0669 176.626 56.0669Z" fill="#3AA7CB"/>
<path d="M39.5705 55.7954C39.0444 55.7954 38.4197 55.9762 38.0663 56.4201C37.6224 56.864 37.3594 57.3983 37.3594 57.9243C37.3594 58.2778 37.4498 58.5408 37.5402 58.8121C37.7128 59.0751 37.8032 59.3464 38.0663 59.519C38.8636 60.3985 40.3678 60.3163 41.1651 59.519C41.6172 59.0751 41.872 58.5408 41.872 57.9243C41.872 57.39 41.609 56.8558 41.1651 56.4201C40.8117 55.9762 40.1952 55.7954 39.5705 55.7954Z" fill="#3AA7CB"/>
<path d="M35.2236 62.4536C35.577 62.4536 35.9305 62.544 36.2921 62.7249C37.3607 63.3413 37.7142 64.7634 37.0895 65.7415C36.473 66.8101 35.1414 67.1635 34.0728 66.5388C33.0042 65.9141 32.6508 64.5825 33.2755 63.5222C33.7194 62.8153 34.4263 62.4536 35.2236 62.4536ZM31.4096 69.4568C31.7631 69.4568 32.1165 69.5473 32.3878 69.7281C33.4481 70.2624 33.9824 71.594 33.4481 72.6543C32.922 73.7147 31.5822 74.249 30.5301 73.7147C29.3711 73.1886 28.9272 71.8488 29.4615 70.7884C29.815 69.9911 30.6123 69.4568 31.4096 69.4568ZM28.3108 76.9122C28.5738 76.9122 28.8368 76.9122 29.1081 77.0026C30.2588 77.4465 30.8835 78.6876 30.4315 79.8466C30.078 80.9974 28.7546 81.6221 27.5956 81.1782C26.4449 80.7344 25.8202 79.4932 26.264 78.3342C26.6175 77.4547 27.4148 76.9204 28.3108 76.9204V76.9122ZM26.001 84.5401H26.5353C27.7765 84.8936 28.4834 86.0443 28.1299 87.2937C27.8587 88.4445 26.6257 89.1596 25.4667 88.8884C24.316 88.5349 23.6008 87.3841 23.8721 86.143C24.1351 85.1648 25.0229 84.5483 25.9928 84.5483L26.001 84.5401ZM24.4064 92.3489H24.7598C26.001 92.5297 26.7983 93.6805 26.5353 94.9217C26.3545 96.0724 25.2859 96.9602 24.0529 96.7875C22.8117 96.5245 22.0144 95.4559 22.187 94.2148C22.3596 93.1544 23.3378 92.3489 24.4064 92.3489ZM23.5186 100.24H23.6912C24.842 100.33 25.8202 101.391 25.738 102.632C25.6393 103.873 24.579 104.761 23.3378 104.761C22.187 104.67 21.2089 103.61 21.2993 102.369C21.3897 101.218 22.3596 100.24 23.5186 100.24ZM23.4282 108.32C24.579 108.32 25.5571 109.199 25.6476 110.449C25.6476 111.69 24.6776 112.668 23.4282 112.668C22.2775 112.759 21.2089 111.78 21.2089 110.539C21.1185 109.38 22.1048 108.32 23.3378 108.32H23.4282ZM24.0529 116.211C25.1215 116.211 26.0996 117.099 26.1818 118.167C26.3545 119.408 25.4749 120.559 24.316 120.65C23.0665 120.83 21.9158 119.943 21.8336 118.701C21.661 117.551 22.5405 116.392 23.7817 116.309C23.7817 116.219 23.8803 116.219 24.0529 116.219V116.211ZM25.3845 124.102C26.3545 124.102 27.3326 124.809 27.5052 125.877C27.8587 127.028 27.0614 128.269 25.8284 128.54C24.6776 128.804 23.5269 128.006 23.1652 126.855C22.9844 125.614 23.6913 124.463 24.9324 124.192C25.0311 124.102 25.2037 124.102 25.3845 124.102ZM27.423 131.82C28.4012 131.82 29.2889 132.437 29.5519 133.415L29.6424 133.324C29.9958 134.566 29.3711 135.807 28.2203 136.16C26.9792 136.514 25.7462 135.897 25.3845 134.746C25.0311 133.587 25.6476 132.354 26.7983 131.902C27.0696 131.902 27.2504 131.812 27.423 131.812V131.82ZM30.3493 139.366C31.1466 139.366 31.9439 139.81 32.396 140.607V140.698C32.8398 141.766 32.2973 143.089 31.1466 143.533C30.078 144.068 28.7546 143.533 28.3108 142.465C27.7765 141.314 28.3108 139.982 29.4615 139.539C29.7246 139.358 29.9876 139.358 30.341 139.358L30.3493 139.366ZM33.8016 146.46C34.6071 146.46 35.4044 146.903 35.7579 147.61C36.3743 148.679 36.0209 150.093 34.8619 150.627C33.892 151.243 32.47 150.808 31.9357 149.83C31.3192 148.679 31.6726 147.347 32.7412 146.723C33.0947 146.542 33.4399 146.46 33.8016 146.46ZM38.0676 153.29C38.7745 153.29 39.4896 153.644 39.9335 154.268H39.8431C40.55 155.246 40.2869 156.66 39.3088 157.375C38.2402 158.082 36.9168 157.819 36.2099 156.759C35.503 155.781 35.7661 154.367 36.736 153.652C37.1881 153.381 37.632 153.298 38.0676 153.298V153.29ZM42.8597 159.677C43.4844 159.677 44.1009 159.94 44.5366 160.474C45.3421 161.452 45.2435 162.866 44.2735 163.581C43.2954 164.379 41.972 164.288 41.1665 163.31C40.3691 162.422 40.4596 161.009 41.4377 160.203C41.8816 159.85 42.3172 159.677 42.8597 159.677ZM48.2683 165.62C48.7944 165.62 49.4191 165.801 49.7725 166.236C50.6521 167.124 50.6521 168.546 49.7725 169.343C48.967 170.231 47.5532 170.231 46.6655 169.343C45.786 168.546 45.786 167.124 46.6655 166.236C47.1093 165.792 47.6436 165.62 48.2683 165.62ZM54.2112 170.938C54.6551 170.938 55.1811 171.119 55.625 171.472C56.521 172.27 56.6936 173.601 55.8963 174.579C55.0989 175.558 53.6769 175.648 52.7974 174.933C51.8193 174.135 51.6467 172.713 52.444 171.744C52.8878 171.209 53.5125 170.946 54.2194 170.946L54.2112 170.938Z" fill="#3AA7CB"/>
<path d="M65.207 187.271V172.977H70.5745V183.186H76.4106V187.271H65.207Z" fill="#233D4D"/>
<path d="M77.6367 187.271V172.977H89.0704V176.84H83.0124V178.13H88.2238V182.125H83.0124V183.416H89.0704V187.279H77.6367V187.271Z" fill="#233D4D"/>
<path d="M89.9492 187.271L95.4565 172.977H101.029L106.537 187.271H100.947L99.928 184.608H96.5743L95.5551 187.271H89.9657H89.9492ZM97.1415 180.942H99.3197L98.2347 178.213L97.1497 180.942H97.1415Z" fill="#233D4D"/>
<path d="M115.963 187.493C113.267 187.493 111.212 186.868 109.782 185.627C108.352 184.386 107.637 182.553 107.637 180.12C107.637 177.687 108.385 175.862 109.881 174.612C111.377 173.371 113.53 172.747 116.341 172.747C117.262 172.747 118.084 172.796 118.816 172.895C119.547 172.993 120.254 173.158 120.936 173.396V177.966C120.254 177.703 119.564 177.522 118.857 177.424C118.15 177.325 117.435 177.276 116.695 177.276C115.659 177.276 114.804 177.481 114.13 177.884C113.456 178.295 113.119 179.035 113.119 180.111C113.119 181.188 113.358 181.936 113.843 182.339C114.319 182.75 115.018 182.947 115.914 182.947C116.391 182.947 116.835 182.898 117.246 182.791V181.928H114.87V178.689H121.684V186.079C121.076 186.449 120.303 186.778 119.35 187.057C118.396 187.337 117.27 187.476 115.955 187.476L115.963 187.493Z" fill="#233D4D"/>
<path d="M130.499 187.493C129.151 187.493 127.934 187.271 126.857 186.827C125.781 186.383 124.926 185.725 124.293 184.854C123.66 183.983 123.348 182.906 123.348 181.632V172.977H128.723V180.942C128.723 182.273 129.315 182.939 130.499 182.939C131.682 182.939 132.274 182.273 132.274 180.942V172.977H137.642V181.632C137.642 182.906 137.329 183.975 136.697 184.854C136.064 185.725 135.217 186.383 134.132 186.827C133.047 187.271 131.839 187.493 130.491 187.493H130.499Z" fill="#233D4D"/>
<path d="M139.531 187.271V172.977H150.957V176.84H144.899V178.13H150.118V182.125H144.899V183.416H150.957V187.279H139.531V187.271Z" fill="#233D4D"/>
</svg>
