<svg width="216" height="216" viewBox="0 0 216 216" fill="none" xmlns="http://www.w3.org/2000/svg">
<path d="M107.966 213.722C166.373 213.722 213.722 166.374 213.722 107.967C213.722 49.5597 166.373 2.21143 107.966 2.21143C49.5593 2.21143 2.21094 49.5597 2.21094 107.967C2.21094 166.374 49.5593 213.722 107.966 213.722Z" fill="white"/>
<path d="M107.967 215.941C48.4308 215.941 0 167.502 0 107.967C0 48.4308 48.4308 0 107.967 0C167.502 0 215.941 48.4308 215.941 107.967C215.941 167.502 167.51 215.933 107.967 215.933V215.941ZM107.967 4.43867C50.8803 4.43867 4.43867 50.8803 4.43867 107.967C4.43867 165.053 50.8803 211.503 107.967 211.503C165.053 211.503 211.503 165.061 211.503 107.967C211.503 50.8721 165.053 4.43867 107.967 4.43867Z" fill="#3AA7CB"/>
<path d="M161.15 150.002C171.523 136.9 177.162 119.885 175.469 101.514C172.551 69.9747 147.16 44.0661 115.678 40.5973C74.7849 36.0847 40.1797 67.9856 40.1797 107.966C40.1797 123.863 45.6623 138.478 54.8273 150.043C57.6796 153.635 62.036 155.715 66.6227 155.715H149.322C153.925 155.715 158.289 153.619 161.15 150.002Z" fill="#3AA7CB"/>
<path d="M116.992 147.931H91.3464L100.495 145.325C102.953 144.618 103.339 139.538 103.273 137.812V117.6C103.273 115.857 102.657 114.559 101.859 113.605C100.248 119.186 95.2097 123.157 89.3326 123.157C82.0663 123.157 76.1481 117.271 76.0988 110.013C71.9313 107.654 69.375 103.363 69.375 98.5877C69.375 97.2643 69.712 96.0478 70.0326 95.0367C69.712 94.0257 69.375 92.8092 69.375 91.4776C69.375 85.9785 72.7698 81.244 77.9482 79.3123C77.6523 78.2602 77.4386 77.1916 77.4386 76.0244C77.4386 67.8211 84.113 61.1549 92.3163 61.1549C95.7029 61.1549 98.9333 62.2974 101.572 64.4017C104.087 61.1384 107.811 59.2314 111.814 59.2314C116.935 59.2314 121.513 62.2645 123.667 66.9251C125.598 65.8895 127.513 65.3716 129.478 65.3716C136.777 65.3716 142.72 71.3063 142.72 78.6054C142.72 80.5124 142.219 82.403 141.183 84.351C144.569 86.8663 146.55 90.6638 146.55 94.7326C146.55 99.3274 144.134 103.52 140.164 105.928C140.583 107.227 140.788 108.558 140.788 109.906C140.788 117.205 134.845 123.14 127.554 123.14C123.782 123.14 120.222 121.521 117.699 118.669C113.071 118.701 112.586 121.611 112.553 121.948V136.399C112.562 142.251 117.469 145.309 117.674 145.44L121.727 147.906H116.992V147.931ZM104.399 145.276H113.425C111.715 143.394 109.898 140.443 109.898 136.423V121.833C110.013 120.608 110.688 118.874 112.34 117.616C112.003 117.641 111.304 117.485 110.786 117.057C109.767 116.219 109.29 114.6 109.331 112.043C108.707 113.013 107.926 113.597 107.005 113.786C106.364 113.917 105.698 113.86 105.016 113.58C105.632 114.797 105.953 116.162 105.953 117.608V137.771C105.969 138.363 106.06 142.424 104.399 145.276ZM118.496 115.446L119.277 116.425C121.316 119.022 124.332 120.502 127.563 120.502C133.39 120.502 138.133 115.751 138.133 109.923C138.133 108.525 137.854 107.153 137.311 105.837L136.835 104.687L137.952 104.136C141.618 102.319 143.895 98.7192 143.895 94.749C143.895 91.1981 141.964 87.8938 138.733 85.9046L137.591 85.2059L138.298 84.0716C139.498 82.1317 140.057 80.4055 140.057 78.6219C140.057 72.7941 135.306 68.0512 129.478 68.0512C127.579 68.0512 125.705 68.6924 123.732 70.0076L122.269 70.9939L121.735 69.3171C120.305 64.8866 116.318 61.9111 111.814 61.9111C108.246 61.9111 104.934 63.851 102.953 67.106L102.081 68.5362L100.89 67.3608C98.5798 65.0839 95.5385 63.8345 92.3328 63.8345C85.6008 63.8345 80.1264 69.3171 80.1264 76.0409C80.1264 77.3067 80.4881 78.5314 80.8991 79.7891L81.3347 81.1207L79.9867 81.4823C75.2521 82.74 72.0711 86.7676 72.0711 91.494C72.0711 92.5872 72.4163 93.6805 72.7204 94.6504L72.852 95.0532L72.7204 95.4559C72.4163 96.4259 72.0711 97.5109 72.0711 98.6041C72.0711 102.665 74.3973 106.298 78.1619 108.09L78.951 108.46L78.8031 109.98C78.7948 115.759 83.5294 120.51 89.3655 120.51C94.6425 120.51 99.0812 116.449 99.6895 111.073L99.747 110.547L100.857 109.775L100.816 109.717L101.736 108.871C102.788 107.917 103.479 107.046 103.939 106.117L104.728 104.514L106.035 105.722C107.063 106.676 108.271 107.416 109.611 107.917L111.115 108.386C112.34 108.64 113.351 108.69 114.699 108.32C114.954 108.246 115.208 108.18 115.471 108.114L117.189 107.72L117 110.038C117.009 111.452 117.346 112.956 118.028 114.419L118.521 115.471L118.496 115.446ZM112.027 111.205C111.904 113.276 112.134 114.255 112.307 114.69C112.825 114.386 113.638 114.065 114.937 113.844C114.649 112.948 114.46 112.035 114.37 111.123C113.663 111.263 112.849 111.271 112.019 111.197L112.027 111.205ZM104.44 109.914C105.419 110.934 106.175 111.23 106.463 111.18C106.734 111.123 107.112 110.745 107.465 109.89C106.758 109.545 106.084 109.142 105.452 108.69C105.156 109.101 104.819 109.512 104.44 109.914Z" fill="white"/>
<path d="M126.693 147.931H101.047V145.268H113.146C111.116 142.753 110.269 139.456 110.22 139.259L112.801 138.61C113.212 140.213 114.848 144.553 117.536 145.325L126.684 147.931H126.693Z" fill="white"/>
<path d="M65.4219 188.898V174.604H70.7894V184.813H76.6254V188.898H65.4219Z" fill="#233D4D"/>
<path d="M77.8516 188.898V174.604H89.2853V178.467H83.2273V179.758H88.4468V183.753H83.2273V185.043H89.2853V188.906H77.8516V188.898Z" fill="#233D4D"/>
<path d="M90.1719 188.898L95.6791 174.604H101.252L106.759 188.898H101.17L100.151 186.235H96.797L95.7778 188.898H90.1883H90.1719ZM97.3642 182.577H99.5424L98.4574 179.848L97.3724 182.577H97.3642Z" fill="#233D4D"/>
<path d="M116.178 189.12C113.482 189.12 111.427 188.496 109.997 187.254C108.567 186.013 107.852 184.18 107.852 181.747C107.852 179.314 108.6 177.489 110.096 176.24C111.592 174.999 113.745 174.374 116.556 174.374C117.477 174.374 118.299 174.423 119.03 174.522C119.762 174.621 120.469 174.785 121.151 175.023V179.594C120.469 179.331 119.778 179.15 119.08 179.051C118.373 178.952 117.658 178.903 116.918 178.903C115.882 178.903 115.027 179.109 114.353 179.511C113.679 179.922 113.342 180.662 113.342 181.739C113.342 182.816 113.581 183.564 114.066 183.966C114.551 184.369 115.241 184.575 116.137 184.575C116.614 184.575 117.058 184.525 117.469 184.419V183.555H115.093V180.317H121.907V187.706C121.299 188.076 120.526 188.405 119.581 188.685C118.636 188.964 117.502 189.104 116.186 189.104L116.178 189.12Z" fill="#233D4D"/>
<path d="M130.722 189.12C129.373 189.12 128.165 188.898 127.08 188.454C126.003 188.01 125.149 187.353 124.516 186.482C123.891 185.61 123.57 184.533 123.57 183.259V174.604H128.938V182.569C128.938 183.901 129.53 184.566 130.713 184.566C131.897 184.566 132.489 183.901 132.489 182.569V174.604H137.856V183.259C137.856 184.533 137.544 185.602 136.911 186.482C136.278 187.353 135.431 188.01 134.346 188.454C133.27 188.898 132.053 189.12 130.705 189.12H130.722Z" fill="#233D4D"/>
<path d="M139.754 188.898V174.604H151.179V178.467H145.121V179.758H150.341V183.753H145.121V185.043H151.179V188.906H139.754V188.898Z" fill="#233D4D"/>
<path d="M64.9454 44.296L58.1641 30.8074L65.7427 26.9934C66.9017 26.4098 67.9785 26.1632 68.973 26.2619C69.9676 26.3605 70.8471 26.7058 71.6198 27.3222C72.3925 27.9305 73.0172 28.7196 73.5021 29.6813C73.9953 30.6595 74.2255 31.6458 74.1926 32.6486C74.1597 33.6514 73.8802 34.5803 73.3377 35.4269C72.7952 36.2818 71.9897 36.9722 70.9293 37.5065L68.4963 38.7313L70.017 41.7479L64.9454 44.296ZM66.5071 34.7693L67.7401 34.1446C68.1429 33.9391 68.3977 33.6761 68.4963 33.3473C68.5949 33.0185 68.5456 32.6569 68.3483 32.2705C67.9127 31.4075 67.3126 31.1691 66.54 31.5472L65.2166 32.213L66.4989 34.7693H66.5071Z" fill="#151716"/>
<path d="M78.1889 37.7533L73.8242 23.3029L81.9453 20.8452C83.1865 20.4671 84.2798 20.3931 85.2332 20.6233C86.1867 20.8535 86.9758 21.3138 87.6252 22.0042C88.2663 22.7029 88.7431 23.566 89.0554 24.5934C89.3513 25.5634 89.3596 26.4922 89.0801 27.3799C88.8006 28.2677 88.3814 29.0486 87.8225 29.7472C88.0197 29.8048 88.1841 29.8788 88.3074 29.9774C88.439 30.076 88.5458 30.1829 88.6527 30.298L91.546 33.7092L85.8908 35.4189L83.5071 32.6406C83.3756 32.4844 83.2605 32.3858 83.1454 32.3447C83.0304 32.3036 82.8988 32.3118 82.7344 32.3611L82.5125 32.4269L83.6222 36.1093L78.1889 37.7533ZM81.222 28.1937L82.5454 27.7909C83.4249 27.5279 83.7537 27.0183 83.5318 26.2703C83.4085 25.8511 83.2112 25.5798 82.9564 25.4647C82.7016 25.3497 82.3646 25.3497 81.9453 25.473L80.5315 25.9004L81.222 28.1937Z" fill="#151716"/>
<path d="M92.8364 33.5531L90.8555 18.5849L102.823 16.9985L103.358 21.0427L97.0121 21.8811L97.1929 23.2291L102.651 22.5058L103.202 26.6896L97.7436 27.413L97.9245 28.761L104.27 27.9226L104.804 31.9667L92.8364 33.5531Z" fill="#151716"/>
<path d="M105.567 31.761L106.249 16.6777L111.633 16.9161L114.419 23.2864L117.74 17.1956L123.124 17.434L122.45 32.5172L116.779 32.2624L117.017 26.9689L115.562 29.6239L112.685 29.4923L111.469 26.7141L111.23 32.0076L105.559 31.7528L105.567 31.761Z" fill="#151716"/>
<path d="M123.98 33.1088L126.857 18.2886L132.43 19.3736L129.553 34.1938L123.98 33.1088Z" fill="#151716"/>
<path d="M131.195 34.4407L135.79 20.0562L147.29 23.7304L146.048 27.6183L139.949 25.6702L139.538 26.969L144.783 28.6458L143.5 32.6653L138.256 30.9884L137.845 32.2872L143.944 34.2352L142.703 38.1232L131.204 34.449L131.195 34.4407Z" fill="#151716"/>
<path d="M143.477 38.4026L150.332 24.9551L157.894 28.8101C159.053 29.402 159.891 30.1089 160.417 30.9308C160.944 31.7528 161.198 32.6406 161.182 33.5858C161.165 34.5311 160.911 35.4846 160.417 36.4463C159.957 37.3505 159.316 38.0245 158.502 38.4684C157.689 38.9122 156.842 39.1917 155.962 39.2986C156.069 39.4712 156.127 39.6438 156.151 39.8C156.176 39.9644 156.184 40.1205 156.176 40.2685L155.897 44.7318L150.636 42.0522L150.841 38.3944C150.858 38.1889 150.841 38.0409 150.784 37.9341C150.735 37.8272 150.628 37.7368 150.48 37.6628L150.274 37.556L148.532 40.9836L143.477 38.4108V38.4026ZM152.296 33.6023L153.529 34.227C154.351 34.6462 154.935 34.5064 155.297 33.8078C155.494 33.4214 155.543 33.0926 155.445 32.8296C155.346 32.5666 155.091 32.3364 154.705 32.1391L153.39 31.4651L152.305 33.594L152.296 33.6023Z" fill="#151716"/>
<path d="M177.612 56.5845C178.319 56.5845 179.026 56.9379 179.379 57.5626C180.086 58.5408 179.831 59.8642 178.853 60.5793C177.875 61.2862 176.453 61.0231 175.754 60.045C175.048 59.0668 175.302 57.653 176.371 56.9461C176.724 56.6749 177.168 56.5927 177.62 56.5927L177.612 56.5845ZM181.78 63.2343C182.577 63.2343 183.284 63.6781 183.728 64.385C184.262 65.4536 183.908 66.777 182.848 67.4017C181.78 68.0264 180.448 67.5825 179.831 66.5139C179.207 65.4536 179.651 64.122 180.629 63.4973C180.982 63.3165 181.426 63.2343 181.78 63.2343ZM185.322 70.2457C186.128 70.2457 186.925 70.78 187.369 71.5773C187.813 72.7281 187.369 74.0597 186.218 74.5036C185.067 75.0378 183.818 74.5035 183.292 73.435C182.766 72.2842 183.292 70.9526 184.443 70.5087C184.714 70.3279 184.977 70.2457 185.322 70.2457ZM188.166 77.6024C189.062 77.6024 189.942 78.2271 190.295 79.1148C190.649 80.2656 190.024 81.5972 188.873 81.9507C187.722 82.3041 186.481 81.6876 186.029 80.5286C185.676 79.3779 186.3 78.1367 187.451 77.775C187.722 77.6846 187.895 77.5942 188.158 77.5942L188.166 77.6024ZM190.295 85.1481C191.364 85.1481 192.243 85.855 192.515 86.9236C192.786 88.0744 192.071 89.3156 190.821 89.5868C189.67 89.8581 188.429 89.1429 188.158 87.9018C187.887 86.751 188.602 85.5098 189.851 85.2386C190.024 85.2386 190.205 85.1481 190.295 85.1481ZM191.799 92.9569C192.868 92.9569 193.846 93.7542 193.928 94.8228H194.019C194.109 96.064 193.312 97.2147 192.071 97.3956C190.821 97.5682 189.761 96.6887 189.588 95.4393C189.416 94.2885 190.295 93.1295 191.454 92.9569H191.808H191.799ZM192.515 100.757C193.665 100.757 194.643 101.736 194.734 102.886C194.734 104.128 193.854 105.196 192.605 105.196C191.364 105.287 190.386 104.308 190.303 103.067C190.213 101.916 191.183 100.848 192.432 100.766H192.523L192.515 100.757ZM192.515 108.648H192.605C193.854 108.739 194.734 109.717 194.734 110.958C194.643 112.199 193.665 113.178 192.432 113.087C191.183 113.087 190.213 112.027 190.303 110.786C190.394 109.635 191.282 108.657 192.523 108.657L192.515 108.648ZM191.799 116.465C191.89 116.465 191.972 116.556 192.071 116.556C193.312 116.737 194.109 117.797 194.019 119.038H193.928C193.747 120.279 192.679 121.077 191.446 120.904C190.295 120.723 189.407 119.663 189.58 118.422C189.753 117.361 190.649 116.474 191.799 116.474V116.465ZM190.295 124.266H190.821C192.071 124.619 192.778 125.77 192.515 127.02C192.243 128.17 191.01 128.885 189.761 128.614C188.61 128.351 187.895 127.11 188.166 125.951C188.438 124.882 189.317 124.266 190.295 124.266ZM188.166 131.812C188.438 131.812 188.61 131.812 188.873 131.902C190.024 132.346 190.649 133.587 190.295 134.746C189.851 135.897 188.602 136.522 187.451 136.16C186.3 135.716 185.676 134.475 186.029 133.324C186.383 132.436 187.279 131.82 188.158 131.82L188.166 131.812ZM185.322 139.168C185.593 139.168 185.947 139.168 186.218 139.349C187.369 139.793 187.813 141.125 187.369 142.275C186.843 143.344 185.503 143.87 184.352 143.434C183.284 142.9 182.758 141.569 183.284 140.508V140.418C183.637 139.62 184.435 139.177 185.322 139.177V139.168ZM181.78 146.18C182.133 146.18 182.486 146.27 182.848 146.443C183.917 147.059 184.27 148.399 183.645 149.46C183.111 150.528 181.697 150.882 180.629 150.347C179.651 149.731 179.207 148.399 179.831 147.331C180.275 146.533 180.982 146.18 181.78 146.18ZM177.612 152.83C178.056 152.83 178.492 153.002 178.853 153.274C179.831 153.98 180.094 155.312 179.379 156.29C178.672 157.359 177.341 157.531 176.281 156.915C175.302 156.208 175.039 154.786 175.754 153.808C176.198 153.183 176.905 152.83 177.62 152.83H177.612ZM172.82 159.134C173.264 159.134 173.79 159.315 174.234 159.66C175.13 160.367 175.302 161.789 174.505 162.767C173.708 163.655 172.286 163.836 171.406 163.039C170.428 162.241 170.338 160.819 171.053 159.932C171.579 159.397 172.204 159.134 172.828 159.134H172.82ZM167.494 164.896C168.028 164.896 168.562 165.077 168.998 165.513C169.894 166.4 169.894 167.822 168.998 168.702C168.118 169.59 166.696 169.499 165.899 168.702C165.019 167.822 165.019 166.4 165.899 165.513C166.343 165.069 166.877 164.896 167.494 164.896ZM161.641 170.124C162.266 170.124 162.891 170.395 163.334 171.012C164.132 171.899 163.959 173.313 162.981 174.119C162.101 174.916 160.679 174.735 159.882 173.765C159.077 172.878 159.257 171.456 160.236 170.658C160.589 170.305 161.115 170.124 161.649 170.124H161.641Z" fill="#3AA7CB"/>
<path d="M172.731 50.1978C172.115 50.1978 171.58 50.469 171.136 50.8225C170.964 51.0855 170.783 51.3485 170.693 51.5294C170.602 51.8828 170.512 52.1541 170.512 52.4171C170.512 53.0418 170.783 53.5679 171.136 54.0117C171.934 54.809 173.438 54.809 174.334 54.0117C174.687 53.5679 174.95 53.0336 174.95 52.4171C174.95 51.8828 174.687 51.2663 174.334 50.8225C173.89 50.469 173.265 50.1978 172.731 50.1978Z" fill="#3AA7CB"/>
<path d="M43.9264 49.4003C43.3921 49.4003 42.7756 49.5811 42.3317 50.0168C41.9783 50.4607 41.707 50.9949 41.707 51.6114C41.707 52.1457 41.9783 52.7622 42.3317 53.1156C43.2112 53.913 44.7237 53.913 45.521 53.1156C45.9649 52.7622 46.1457 52.1375 46.1457 51.6114C46.1457 50.9867 45.9649 50.3702 45.521 50.0168C45.3484 49.836 45.0771 49.6633 44.8141 49.4825C44.5511 49.3921 44.1976 49.3921 43.9346 49.3921L43.9264 49.4003Z" fill="#3AA7CB"/>
<path d="M39.0532 55.6064C39.497 55.6064 39.9327 55.7873 40.3765 56.0503C41.3547 56.7572 41.5273 58.0888 40.8286 59.067C40.1217 60.1355 38.7819 60.3081 37.7216 59.6012C36.7434 58.8943 36.5708 57.5627 37.2777 56.5846C37.7216 55.9599 38.3463 55.6064 39.0532 55.6064ZM34.7871 62.2562C35.1406 62.2562 35.494 62.3466 35.8557 62.6097C36.9242 63.144 37.2777 64.566 36.653 65.6263C36.0365 66.6867 34.7049 67.0401 33.6363 66.4236C32.5678 65.8072 32.2143 64.4673 32.839 63.407C33.1925 62.7001 33.9898 62.248 34.7871 62.248V62.2562ZM31.0636 69.3581C31.417 69.3581 31.6883 69.3581 32.0417 69.5389C33.1103 70.0732 33.6363 71.4048 33.1103 72.4652C32.576 73.5255 31.2444 74.0598 30.184 73.5255C29.0333 72.9995 28.5812 71.7501 29.0333 70.5993C29.4771 69.802 30.2745 69.3581 31.0718 69.3581H31.0636ZM28.1373 76.6326C28.3182 76.6326 28.5812 76.723 28.8442 76.8134C29.995 77.1669 30.6197 78.4985 30.1758 79.6575C29.8224 80.8082 28.573 81.3425 27.3318 80.9891C26.2632 80.5452 25.6385 79.304 26.0002 78.145C26.3536 77.2655 27.1592 76.6408 28.1291 76.6408L28.1373 76.6326ZM25.8358 84.2605C26.0084 84.2605 26.1892 84.2605 26.3619 84.3509C27.6113 84.614 28.3182 85.8552 27.9647 87.0141C27.6935 88.2553 26.4605 88.9705 25.3015 88.6088C24.1425 88.3457 23.4274 87.1868 23.6987 85.9456C23.9699 84.9674 24.8494 84.2523 25.8276 84.2523L25.8358 84.2605ZM24.3234 92.0693H24.5946C25.8358 92.2501 26.6331 93.4009 26.4605 94.6421C26.3619 95.7928 25.2111 96.6806 23.9781 96.508C22.7369 96.3271 21.9314 95.1764 22.1122 93.9352C22.2849 92.8666 23.1808 92.0693 24.3316 92.0693H24.3234ZM23.4356 99.9603H23.6165C24.8576 100.051 25.7454 101.029 25.7454 102.27C25.6467 103.511 24.5946 104.489 23.3452 104.399C22.104 104.309 21.2163 103.248 21.3067 102.007C21.3067 100.856 22.2766 99.9685 23.4274 99.9685L23.4356 99.9603ZM23.4356 107.859C24.5946 107.859 25.5645 108.838 25.655 109.988C25.655 111.23 24.7754 112.29 23.5343 112.29C22.2849 112.38 21.2245 111.402 21.2245 110.161C21.1341 108.92 22.1205 107.942 23.3534 107.851H23.4438L23.4356 107.859ZM24.1425 115.841C25.2111 115.841 26.0988 116.638 26.2714 117.707C26.4523 118.948 25.5645 120.016 24.4056 120.189C23.1644 120.37 22.0136 119.573 21.8328 118.323C21.7424 117.082 22.5397 115.931 23.7809 115.841H24.1343H24.1425ZM25.4823 123.559C26.5509 123.559 27.4304 124.266 27.7017 125.335H27.6113C27.8743 126.576 27.1674 127.727 26.0084 127.998C24.7672 128.269 23.6165 127.464 23.3452 126.313C22.9918 125.162 23.7891 123.921 24.9481 123.65C25.1207 123.65 25.3015 123.559 25.4741 123.559H25.4823ZM27.6113 131.278C28.5812 131.278 29.3867 131.812 29.7402 132.782C30.0854 133.933 29.4689 135.174 28.3182 135.535C27.1674 135.979 25.918 135.355 25.4741 134.204C25.1207 133.045 25.7454 131.721 26.8961 131.36C27.1674 131.269 27.4222 131.269 27.603 131.269L27.6113 131.278ZM30.4389 138.642C31.3348 138.642 32.1321 139.177 32.4856 139.974C32.9294 141.125 32.4856 142.456 31.3348 142.9C30.184 143.435 28.9346 142.9 28.4086 141.75C27.9647 140.681 28.4086 139.358 29.5593 138.823C29.8306 138.733 30.184 138.642 30.4389 138.642ZM33.9898 145.827C34.7871 145.827 35.494 146.18 35.9379 146.887C36.5626 147.955 36.1187 149.369 35.0584 149.904C33.9898 150.52 32.6582 150.167 32.0417 149.106C31.417 148.046 31.8609 146.624 32.9212 146.09C33.2747 145.909 33.6281 145.827 33.9898 145.827ZM38.1572 152.567C38.8641 152.567 39.5792 152.838 40.0231 153.545C40.73 154.523 40.4752 155.855 39.4066 156.562C38.4285 157.268 37.0064 157.005 36.2995 156.027C35.5926 154.959 35.8557 153.635 36.9242 152.92C37.2777 152.657 37.7216 152.567 38.1654 152.567H38.1572ZM42.9493 158.863C43.574 158.863 44.1987 159.134 44.6426 159.66C45.4399 160.548 45.3495 161.97 44.3713 162.767C43.3932 163.565 42.0698 163.474 41.2725 162.504C40.4752 161.526 40.5656 160.112 41.5355 159.397C41.9876 159.044 42.4315 158.863 42.9576 158.863H42.9493ZM48.2757 164.716C48.8922 164.716 49.4265 164.896 49.8704 165.332C50.7499 166.22 50.7499 167.642 49.8704 168.521C49.0731 169.319 47.651 169.319 46.7715 168.521C45.8756 167.642 45.8756 166.22 46.7715 165.332C47.2154 164.888 47.7415 164.716 48.2757 164.716ZM54.2186 170.042C54.6625 170.042 55.1886 170.223 55.6406 170.576C56.5202 171.283 56.701 172.705 55.9037 173.675C55.1064 174.563 53.6843 174.744 52.8048 173.946C51.8267 173.149 51.7363 171.817 52.4514 170.839C52.8952 170.305 53.6021 170.042 54.2268 170.042H54.2186Z" fill="#3AA7CB"/>
</svg>
