<svg width="336" height="360" viewBox="0 0 336 360" fill="none" xmlns="http://www.w3.org/2000/svg">
<path d="M70.6618 254.754L47.6116 269.985L40.1196 258.639C38.903 256.807 38.2712 255.05 38.2074 253.375C38.1436 251.699 38.5458 250.158 39.3974 248.757C40.2491 247.355 41.4542 246.137 43.0068 245.112C44.5823 244.072 46.1989 243.486 47.8546 243.347C49.5102 243.208 51.0834 243.53 52.5823 244.31C54.073 245.093 55.3802 246.328 56.4957 248.017L60.0857 253.459L66.8502 248.987L70.6596 254.746L70.6618 254.754ZM55.6584 256.392L52.9149 252.237C52.1137 251.019 51.1766 250.329 50.1013 250.161C49.0344 249.99 47.9457 250.273 46.8498 250.996C45.6541 251.782 44.9178 252.678 44.6281 253.669C44.3406 254.669 44.596 255.756 45.3821 256.951L48.244 261.281L55.6478 256.386L55.6584 256.392Z" fill="black"/>
<path d="M56.9858 233.396L31.2018 243.305L26.2505 230.409C25.0765 227.365 25.0212 224.818 26.0654 222.765C27.118 220.71 28.9871 219.161 31.6833 218.125C33.4203 217.454 35.1116 217.314 36.7528 217.689C38.3962 218.073 39.8351 218.896 41.0632 220.17C41.2103 219.683 41.4278 219.258 41.6965 218.89C41.9653 218.523 42.3755 218.081 42.9105 217.571L48.7055 211.853L51.2949 218.575L45.8367 223.979C45.3679 224.435 45.0798 224.898 44.9722 225.366C44.8646 225.833 44.9417 226.422 45.2072 227.112L46.3504 230.074L54.5204 226.936L57.0002 233.383L56.9858 233.396ZM41.3752 231.999L39.5428 227.232C39.0642 225.981 38.3677 225.12 37.4721 224.652C36.5765 224.185 35.4875 224.199 34.2051 224.695C31.6153 225.693 30.7986 227.426 31.7512 229.911L33.6932 234.953L41.3752 231.999Z" fill="black"/>
<path d="M46.5599 196.629C47.1949 201.071 46.5408 204.614 44.6084 207.263C42.6737 209.904 39.3144 211.575 34.5345 212.255C29.4699 212.977 25.6626 212.34 23.1272 210.332C20.5919 208.325 19.0014 205.097 18.3664 200.654C17.7314 196.212 18.3582 192.668 20.2322 190.034C22.1061 187.4 25.5785 185.717 30.6515 184.994C35.4398 184.311 39.1278 184.971 41.7239 186.971C44.32 188.971 45.9355 192.193 46.5705 196.635L46.5599 196.629ZM40.7436 197.453C40.4154 195.158 39.5179 193.581 38.0551 192.701C36.5861 191.832 34.4518 191.589 31.6484 191.99C28.5937 192.424 26.5091 193.269 25.3987 194.507C24.2883 195.745 23.9025 197.514 24.2307 199.809C24.5572 202.13 25.4341 203.731 26.8446 204.616C28.2551 205.501 30.4896 205.717 33.5443 205.284C36.3478 204.882 38.3297 204.056 39.4925 202.813C40.6531 201.561 41.0723 199.783 40.7436 197.453Z" fill="black"/>
<path d="M45.9237 164.341L23.9147 160.727L22.601 168.728L17.3545 167.867L21.1036 145.054L26.3502 145.915L25.0364 153.915L47.0454 157.529L45.9237 164.341Z" fill="black"/>
<path d="M49.6171 146.828L23.3251 138.361L25.4435 131.792L51.7356 140.26L49.6171 146.828Z" fill="black"/>
<path d="M52.7835 136.19L28.098 123.79L34.2026 111.639C35.1896 109.673 36.3934 108.249 37.8202 107.356C39.247 106.463 40.7741 106.045 42.416 106.089C44.058 106.133 45.7148 106.566 47.3722 107.403C49.059 108.25 50.3767 109.357 51.3169 110.726C52.257 112.095 52.7654 113.625 52.8292 115.3C52.8953 116.984 52.4754 118.727 51.5658 120.547L48.6394 126.373L55.8844 130.012L52.7812 136.181L52.7835 136.19ZM43.8922 124L46.1218 119.551C46.7757 118.248 46.9137 117.091 46.5168 116.078C46.1305 115.071 45.351 114.268 44.1721 113.679C42.8979 113.035 41.7529 112.841 40.754 113.09C39.7466 113.342 38.9282 114.099 38.2866 115.382L35.9552 120.019L43.8922 124Z" fill="black"/>
<path d="M88.4638 87.2662L72.9981 64.3802L84.2598 56.768C86.0881 55.5348 87.8295 54.8801 89.5092 54.7972C91.1805 54.7166 92.7253 55.0998 94.1413 55.9384C95.5573 56.7771 96.782 57.9715 97.8216 59.5111C98.8762 61.0735 99.4867 62.6832 99.6363 64.3448C99.7859 66.0064 99.4829 67.5833 98.7189 69.0777C97.9571 70.5805 96.7326 71.8938 95.0497 73.0344L89.6502 76.6844L94.1913 83.4029L88.4744 87.2723L88.4638 87.2662ZM86.6672 72.2712L90.7926 69.482C91.9982 68.6663 92.6854 67.7209 92.8374 66.6502C92.9978 65.5773 92.7006 64.5015 91.9687 63.4079C91.1681 62.2253 90.2722 61.4891 89.277 61.2184C88.2797 60.9393 87.1865 61.2054 86.0037 62.0059L81.704 64.9134L86.6756 72.2689L86.6672 72.2712Z" fill="black"/>
<path d="M109.693 73.3566L99.5171 47.6828L112.36 42.5937C115.389 41.3969 117.935 41.3057 120.011 42.3347C122.077 43.3575 123.64 45.2135 124.709 47.9005C125.395 49.6244 125.554 51.3194 125.197 52.9644C124.833 54.6116 124.019 56.0565 122.758 57.299C123.245 57.4461 123.677 57.6529 124.045 57.9216C124.412 58.1903 124.86 58.5899 125.37 59.1248L131.152 64.8571L124.455 67.5112L118.994 62.1051C118.529 61.6387 118.069 61.3589 117.592 61.2536C117.116 61.1483 116.539 61.2315 115.851 61.5054L112.903 62.6715L116.122 70.8098L109.701 73.3544L109.693 73.3566ZM110.935 57.7354L115.68 55.8549C116.927 55.3596 117.788 54.6631 118.243 53.7531C118.698 52.8431 118.675 51.7564 118.173 50.4848C117.152 47.9103 115.405 47.1066 112.935 48.0821L107.906 50.0744L110.943 57.7331L110.935 57.7354Z" fill="black"/>
<path d="M146.364 62.5632C141.924 63.2424 138.373 62.6265 135.713 60.7239C133.054 58.8213 131.352 55.4797 130.617 50.697C129.844 45.6379 130.445 41.8316 132.427 39.2674C134.412 36.7116 137.615 35.0921 142.055 34.4129C146.494 33.7338 150.036 34.3162 152.691 36.1665C155.345 38.0167 157.059 41.4714 157.833 46.5304C158.565 51.3048 157.943 55.0003 155.975 57.6146C154.006 60.2289 150.802 61.8757 146.362 62.5548L146.364 62.5632ZM145.471 56.757C147.759 56.4037 149.334 55.4978 150.191 54.0145C151.047 52.5311 151.266 50.4037 150.837 47.5989C150.368 44.5451 149.508 42.4737 148.256 41.3763C147.003 40.2789 145.23 39.9121 142.94 40.2571C140.616 40.611 139.028 41.5023 138.162 42.9166C137.298 44.3393 137.09 46.5714 137.559 49.6252C137.985 52.4216 138.837 54.3967 140.095 55.5465C141.352 56.6963 143.143 57.0942 145.466 56.7403L145.471 56.757Z" fill="black"/>
<path d="M178.627 61.5849L182.018 39.5395L174.003 38.3105L174.807 33.0528L197.658 36.5669L196.854 41.8246L188.84 40.5956L185.449 62.6409L178.621 61.5955L178.627 61.5849Z" fill="black"/>
<path d="M196.175 65.096L204.37 38.7182L210.965 40.7664L202.77 67.1442L196.175 65.096Z" fill="black"/>
<path d="M206.855 68.1542L219.001 43.3509L231.217 49.3294C233.196 50.2949 234.634 51.4857 235.533 52.9018C236.432 54.3178 236.867 55.8403 236.851 57.4837C236.826 59.1294 236.409 60.7816 235.585 62.4533C234.757 64.144 233.663 65.4761 232.298 66.4329C230.941 67.3875 229.416 67.9127 227.736 67.9955C226.056 68.0784 224.302 67.6798 222.475 66.781L216.62 63.9165L213.053 71.1955L206.846 68.1565L206.855 68.1542ZM218.957 59.1345L223.422 61.3236C224.732 61.9667 225.893 62.0857 226.898 61.691C227.903 61.2964 228.702 60.5002 229.274 59.3258C229.905 58.0372 230.083 56.8968 229.833 55.8979C229.583 54.8991 228.799 54.0792 227.521 53.4543L222.862 51.1741L218.96 59.1428L218.957 59.1345Z" fill="black"/>
<path d="M256.148 103.319L278.876 87.6196L286.602 98.8046C287.858 100.617 288.53 102.354 288.621 104.032C288.72 105.707 288.354 107.247 287.525 108.669C286.697 110.091 285.524 111.328 283.997 112.382C282.447 113.451 280.842 114.078 279.184 114.244C277.527 114.411 275.946 114.127 274.437 113.376C272.928 112.625 271.6 111.413 270.448 109.752L266.735 104.388L260.069 108.995L256.146 103.311L256.148 103.319ZM271.121 101.367L273.948 105.464C274.78 106.665 275.729 107.333 276.8 107.485C277.869 107.629 278.953 107.33 280.034 106.583C281.212 105.766 281.929 104.866 282.198 103.863C282.467 102.859 282.194 101.777 281.377 100.599L278.424 96.3297L271.123 101.376L271.121 101.367Z" fill="black"/>
<path d="M270.28 124.413L295.86 113.976L301.078 126.764C302.308 129.785 302.427 132.332 301.417 134.412C300.415 136.49 298.574 138.076 295.901 139.168C294.182 139.87 292.491 140.046 290.84 139.7C289.189 139.354 287.731 138.563 286.483 137.312C286.344 137.797 286.137 138.229 285.871 138.604C285.602 138.972 285.211 139.417 284.68 139.944L278.998 145.784L276.28 139.114L281.627 133.598C282.085 133.134 282.363 132.666 282.468 132.19C282.565 131.716 282.482 131.138 282.197 130.444L280.998 127.506L272.9 130.813L270.291 124.419L270.28 124.413ZM285.913 125.49L287.841 130.213C288.345 131.457 289.056 132.306 289.963 132.752C290.871 133.198 291.964 133.165 293.231 132.647C295.799 131.6 296.582 129.841 295.573 127.38L293.533 122.373L285.91 125.482L285.913 125.49Z" fill="black"/>
<path d="M281.448 160.936C280.719 156.51 281.298 152.951 283.175 150.263C285.054 147.583 288.379 145.85 293.149 145.065C298.203 144.239 302.018 144.802 304.592 146.755C307.175 148.705 308.827 151.898 309.548 156.326C310.277 160.752 309.724 164.304 307.908 166.985C306.091 169.666 302.645 171.413 297.599 172.237C292.829 173.023 289.126 172.439 286.491 170.494C283.856 168.549 282.169 165.364 281.448 160.936ZM287.248 159.982C287.618 162.265 288.549 163.834 290.036 164.671C291.523 165.509 293.663 165.706 296.453 165.254C299.498 164.751 301.566 163.875 302.65 162.608C303.735 161.341 304.085 159.572 303.713 157.281C303.334 154.964 302.428 153.389 300.999 152.536C299.571 151.683 297.328 151.504 294.283 152.007C291.485 152.461 289.522 153.327 288.385 154.599C287.248 155.871 286.869 157.665 287.248 159.982Z" fill="black"/>
<path d="M282.758 193.204L304.833 196.361L305.979 188.334L311.242 189.091L307.969 211.974L302.705 211.217L303.85 203.19L281.776 200.032L282.756 193.195L282.758 193.204Z" fill="black"/>
<path d="M279.432 210.78L305.891 218.701L303.91 225.313L277.45 217.392L279.432 210.78Z" fill="black"/>
<path d="M276.472 221.497L301.405 233.382L295.548 245.654C294.601 247.637 293.423 249.09 292.022 250.012C290.618 250.925 289.092 251.379 287.451 251.371C285.809 251.363 284.142 250.958 282.469 250.162C280.764 249.347 279.428 248.272 278.456 246.92C277.485 245.568 276.945 244.056 276.844 242.373C276.742 240.689 277.132 238.937 278.002 237.101L280.805 231.217L273.494 227.731L276.464 221.499L276.472 221.497ZM285.621 233.51L283.482 237.997C282.849 239.313 282.747 240.468 283.152 241.479C283.563 242.48 284.357 243.27 285.546 243.829C286.839 244.441 287.979 244.619 288.982 244.351C289.985 244.082 290.788 243.302 291.4 242.01L293.63 237.328L285.621 233.51Z" fill="black"/>
<path d="M241.82 271.148L257.76 293.701L246.66 301.547C244.859 302.818 243.127 303.506 241.456 303.622C239.783 303.73 238.231 303.385 236.805 302.576C235.379 301.767 234.125 300.598 233.048 299.086C231.962 297.541 231.321 295.949 231.138 294.296C230.955 292.644 231.22 291.059 231.952 289.546C232.684 288.033 233.881 286.683 235.538 285.513L240.862 281.749L236.186 275.129L241.828 271.146L241.82 271.148ZM243.926 286.096L239.859 288.968C238.668 289.807 238.002 290.764 237.869 291.839C237.736 292.913 238.05 293.985 238.805 295.063C239.628 296.231 240.544 296.943 241.543 297.195C242.543 297.447 243.631 297.164 244.799 296.341L249.038 293.342L243.915 286.09L243.926 286.096Z" fill="black"/>
<path d="M220.886 285.489L231.587 310.951L218.852 316.306C215.849 317.568 213.299 317.714 211.216 316.723C209.132 315.732 207.525 313.914 206.41 311.257C205.691 309.542 205.499 307.856 205.817 306.203C206.144 304.549 206.926 303.085 208.164 301.822C207.67 301.686 207.241 301.487 206.867 301.229C206.493 300.971 206.038 300.574 205.512 300.052L199.619 294.439L206.261 291.647L211.834 296.934C212.305 297.39 212.772 297.659 213.245 297.756C213.719 297.853 214.301 297.75 214.987 297.468L217.908 296.238L214.52 288.171L220.889 285.497L220.886 285.489ZM219.972 301.13L215.262 303.109C214.022 303.629 213.184 304.346 212.748 305.26C212.312 306.174 212.354 307.264 212.889 308.527C213.969 311.086 215.724 311.852 218.179 310.818L223.161 308.721L219.972 301.13Z" fill="black"/>
<path d="M184.462 297.04C188.885 296.267 192.452 296.807 195.15 298.654C197.851 300.51 199.621 303.806 200.45 308.573C201.326 313.613 200.809 317.433 198.882 320.036C196.955 322.639 193.779 324.323 189.355 325.097C184.931 325.87 181.372 325.355 178.678 323.56C175.985 321.765 174.2 318.347 173.324 313.307C172.497 308.549 173.035 304.84 174.957 302.184C176.871 299.531 180.046 297.811 184.464 297.049L184.462 297.04ZM185.466 302.826C183.18 303.223 181.624 304.168 180.797 305.662C179.97 307.155 179.801 309.296 180.288 312.086C180.816 315.124 181.717 317.184 182.999 318.256C184.28 319.327 186.053 319.658 188.338 319.261C190.648 318.857 192.219 317.935 193.062 316.5C193.904 315.065 194.056 312.821 193.528 309.783C193.041 306.994 192.158 305.036 190.871 303.912C189.585 302.788 187.786 302.428 185.476 302.832L185.466 302.826Z" fill="black"/>
<path d="M152.192 298.684L149.258 320.795L157.291 321.858L156.59 327.133L133.67 324.094L134.37 318.819L142.403 319.882L145.337 297.771L152.182 298.678L152.192 298.684Z" fill="black"/>
<path d="M134.57 295.533L126.911 322.072L120.281 320.158L127.94 293.619L134.57 295.533Z" fill="black"/>
<path d="M123.859 292.706L112.227 317.757L99.8913 312.034C97.8967 311.109 96.429 309.943 95.5011 308.553C94.5733 307.163 94.1028 305.641 94.0919 303.996C94.0811 302.351 94.4687 300.689 95.2525 299.001C96.0486 297.292 97.111 295.941 98.4585 294.953C99.7977 293.967 101.308 293.419 102.985 293.293C104.662 293.166 106.42 293.545 108.269 294.393L114.181 297.135L117.594 289.781L123.855 292.689L123.859 292.706ZM111.947 301.97L107.435 299.874C106.116 299.26 104.951 299.16 103.953 299.58C102.955 300 102.177 300.808 101.626 301.995C101.025 303.294 100.866 304.438 101.143 305.438C101.42 306.439 102.205 307.231 103.504 307.833L108.21 310.02L111.947 301.97Z" fill="black"/>
</svg>
