<svg width="123" height="93" viewBox="0 0 123 93" fill="none" xmlns="http://www.w3.org/2000/svg">
<path d="M39.2755 32.2226C37.4458 33.928 33.2871 34.8259 32.6912 31.6923C31.6621 26.2809 39.0407 19.8331 38.0778 14.5723C37.1148 9.32966 30.2899 17.6094 29.1524 19.1401C23.1399 27.233 19.4445 39.255 18.7223 49.3065C18.4936 52.4581 18.2047 58.5263 20.0644 61.0392C24.6144 67.1978 32.8537 56.7306 35.5621 53.0969C36.1458 52.3195 37.9454 48.8425 38.1681 48.7159C39.0287 48.2459 40.2745 49.21 41.1954 47.9084C42.0139 46.7635 43.8254 36.9169 44.2528 34.7234C44.9509 31.1379 47.7315 10.2637 50.5421 9.40197C55.0319 8.02803 54.1291 15.1508 53.7259 17.5914C52.9194 22.5147 50.9995 27.8176 50.2412 32.8252C52.6125 30.8668 55.1824 27.4199 58.3601 30.3244C62.4045 34.0184 55.8564 44.6423 56.5425 49.5234C58.6791 48.7822 59.6782 46.5345 60.3462 44.5399C61.2309 41.9065 63.7527 27.456 65.167 26.5883C66.5212 26.3653 69.4522 26.1122 69.5545 28.0586C69.699 30.7643 64.2763 44.9135 65.5462 46.3658C66.4129 46.5164 66.8402 45.7812 67.3337 45.2268C70.0119 42.2198 71.9439 33.4037 72.9851 29.2277C73.9179 25.5036 72.5277 21.9904 78.173 23.1052L78.5943 26.0519C80.111 22.7015 84.4383 19.3992 87.8447 22.4303C89.879 24.2381 89.6142 29.1313 89.3734 31.6622C89.2711 32.6926 87.7605 34.8801 88.9521 35.5309C89.7285 31.397 94.2484 26.6244 93.3637 22.3218C92.8762 19.9717 89.4878 17.1695 92.5753 14.5603C95.9216 11.7401 98.1785 15.4642 97.5104 18.8327C99.2738 19.1822 104.095 17.4046 105.202 19.128C106.99 21.9181 100.61 32.0177 102.018 35.9768C105.118 36.3625 106.376 29.9327 109.186 32.6505C108.813 37.164 101.802 44.2988 97.4984 40.7254C93.3155 37.2544 97.2878 29.2879 98.4433 24.9673L96.1623 24.2381C96.3428 25.7145 95.8433 26.8414 95.3378 28.155C93.779 32.2407 88.3322 41.7558 85.1183 44.5399C82.4762 46.8237 77.6975 49.2824 75.0013 45.9078L74.0985 53.127C77.5712 51.753 81.2063 50.6443 84.8054 49.6439C88.5369 48.6074 105.353 43.8589 107.898 45.6487C108.879 46.3356 108.398 48.8967 107.453 49.7705C106.201 50.9214 94.7479 52.9824 92.0095 53.7055C89.2831 54.4226 73.7133 58.5323 72.7383 59.6592C70.9448 63.1905 72.3351 74.4893 69.9156 76.9178C67.9596 78.8763 64.6615 77.8097 64.2161 74.9895C63.9814 73.5131 65.9976 61.232 65.3115 61.2441C54.3157 65.5527 43.2717 70.1265 32.8176 75.6162C29.2908 77.4662 20.7626 83.426 17.5427 83.7815C13.8172 84.1973 13.107 81.1843 14.9066 78.4183C19.1376 71.9041 46.3773 61.8768 54.5023 58.9843C58.5647 57.5381 63.1689 56.6402 66.8221 54.6335L68.2425 48.6195C67.5504 48.5894 67.7309 49.4571 67.0749 49.9211C65.1369 51.271 62.2661 52.3978 61.2671 49.5234C59.7805 52.9161 54.5685 56.9535 51.824 52.663C49.5791 49.1498 53.6356 40.7977 53.3949 36.2119C53.3587 35.5309 53.7138 34.8922 52.7148 35.079C50.5361 36.7783 49.549 38.8513 48.6764 41.4123C47.8277 43.889 45.1736 57.1102 44.3791 57.8635C43.8555 58.3576 40.3468 59.2856 39.9074 58.9662L40.106 52.675C36.2963 57.6284 33.5158 63.5279 27.6598 66.3783C20.2691 69.9758 12.2223 68.4814 10.808 59.4664C9.01447 48.035 13.1913 31.3488 19.6973 21.8397C23.5852 16.1632 36.3144 1.86941 43.037 10.9205C46.1546 15.1147 42.9347 28.7938 39.2755 32.2045V32.2226ZM81.6276 27.0342C78.6545 27.8778 75.0374 39.6527 76.2411 42.2018C78.2392 46.4441 82.3017 37.8751 82.8855 35.9949C83.4572 34.151 85.5758 25.9194 81.6276 27.0342Z" fill="white"/>
<path d="M75.6279 63.7207H77.7464V73.0671H80.533V74.9352H75.6279V63.7207Z" fill="white"/>
<path d="M81.757 63.7207H86.6561V65.5828H83.8695V68.2884H86.5357V70.1565H83.8695V73.0671H86.6561V74.9292H81.757L81.751 63.7207H81.757Z" fill="white"/>
<path d="M91.949 72.8622H89.6318L89.2948 74.9292H87.2305L89.5656 63.7207H91.9971L94.3504 74.9292H92.286L91.949 72.8622ZM89.8846 70.9941H91.6962L90.7874 65.649L89.8786 70.9941H89.8846Z" fill="white"/>
<path d="M98.248 63.5312C99.8068 63.5312 100.68 64.7244 101.053 66.1707L99.3735 66.7913C99.1869 66.02 98.9041 65.4114 98.248 65.4114C97.4055 65.4114 96.9059 66.6407 96.9059 69.3283C96.9059 72.0159 97.4115 73.2452 98.248 73.2452C98.7175 73.2452 99.0365 73.0584 99.2531 72.7391V70.7083H97.9953V68.8402H101.119V73.649C100.379 74.589 99.5059 75.1314 98.248 75.1314C95.8286 75.1314 94.7393 72.7632 94.7393 69.3343C94.7393 65.8874 95.8286 63.5373 98.248 63.5373V63.5312Z" fill="white"/>
<path d="M102.698 63.7163H104.811V71.7852C104.811 72.8759 105.232 73.2676 105.888 73.2676C106.544 73.2676 106.965 72.8819 106.965 71.7852V63.7163H109.078V71.6827C109.078 74.0871 107.549 75.1296 105.888 75.1296C104.227 75.1296 102.698 74.0871 102.698 71.6827V63.7163Z" fill="white"/>
<path d="M110.817 63.7163H115.716V65.5844H112.929V68.2901H115.595V70.1582H112.929V73.0627H115.716V74.9308H110.817L110.811 63.7163H110.817Z" fill="white"/>
</svg>
