<svg width="216" height="216" viewBox="0 0 216 216" fill="none" xmlns="http://www.w3.org/2000/svg">
<path d="M107.966 213.722C166.373 213.722 213.722 166.373 213.722 107.966C213.722 49.5593 166.373 2.21094 107.966 2.21094C49.5593 2.21094 2.21094 49.5593 2.21094 107.966C2.21094 166.373 49.5593 213.722 107.966 213.722Z" fill="white"/>
<path d="M107.975 215.941C48.4308 215.941 0 167.502 0 107.967C0 48.4308 48.4308 0 107.975 0C167.519 0 215.941 48.4308 215.941 107.967C215.941 167.502 167.51 215.933 107.975 215.933V215.941ZM107.975 4.43867C50.8885 4.43867 4.43867 50.8803 4.43867 107.967C4.43867 165.053 50.8885 211.503 107.975 211.503C165.061 211.503 211.503 165.061 211.503 107.967C211.503 50.8721 165.061 4.43867 107.975 4.43867Z" fill="#3AA7CB"/>
<path d="M160.927 150.002C171.301 136.9 176.939 119.885 175.246 101.514C172.328 69.9747 146.937 44.0661 115.456 40.5973C74.5622 36.0847 39.957 67.9856 39.957 107.966C39.957 123.863 45.4396 138.478 54.6046 150.043C57.4569 153.635 61.8134 155.715 66.4 155.715H149.099C153.702 155.715 158.067 153.619 160.927 150.002Z" fill="#3AA7CB"/>
<path d="M121.988 125.729H89.1094V130.168H121.988V125.729Z" fill="white"/>
<path d="M107.767 103.881H103.328V127.94H107.767V103.881Z" fill="white"/>
<path d="M103.207 108.311L102.656 106.421C100.355 98.6697 101.464 90.302 105.706 83.4631C109.939 76.6325 116.95 71.9226 124.923 70.5499L126.871 70.2129L127.422 72.1034C129.724 79.8547 128.614 88.2224 124.381 95.053C120.131 101.892 113.12 106.594 105.155 107.974L103.207 108.311ZM123.666 75.3585C117.78 76.9038 112.684 80.6273 109.478 85.8058H109.47C106.256 90.9842 105.171 97.2148 106.404 103.174C112.29 101.629 117.386 97.9053 120.608 92.7186C123.814 87.5401 124.899 81.3178 123.666 75.3585Z" fill="white"/>
<path d="M51.4658 51.2744L47.5039 35.5911L52.3125 32.1963L65.7764 41.1723L60.9514 44.5835L58.4444 42.9066L55.5511 44.9534L56.2908 47.8714L51.4658 51.2826V51.2744ZM53.8167 41.4353L55.6908 40.1119L53.0851 38.4186L53.8085 41.4353H53.8167Z" fill="#151716"/>
<path d="M66.6656 40.8274L60.4844 27.0511L67.0273 24.1166C68.4822 23.4673 69.8467 23.1302 71.129 23.1138C72.403 23.0974 73.562 23.4673 74.6059 24.2235C75.6498 24.9797 76.5458 26.2044 77.302 27.8813C78.0171 29.4759 78.313 30.9061 78.1815 32.1638C78.05 33.4214 77.565 34.5228 76.7102 35.4681C75.8553 36.4134 74.6881 37.2189 73.2086 37.8847L66.6656 40.8192V40.8274ZM70.0768 34.5722L70.8495 34.2269C71.3591 33.9968 71.7701 33.7255 72.0825 33.4214C72.3866 33.109 72.551 32.7063 72.5674 32.2049C72.5839 31.7035 72.4112 31.0541 72.0496 30.2486C71.6879 29.4512 71.3345 28.9005 70.9728 28.5882C70.6111 28.2758 70.2248 28.1443 69.8056 28.1854C69.3864 28.2265 68.9014 28.3745 68.3425 28.621L67.5698 28.9663L70.0851 34.5722H70.0768Z" fill="#151716"/>
<path d="M86.3355 33.1752L77.2773 19.7687L83.0312 18.4371L87.6836 25.9746L88.5795 17.1548L94.3333 15.8232L92.0647 31.8436L86.3273 33.1669L86.3355 33.1752Z" fill="#151716"/>
<path d="M98.2118 30.4873L103.694 15.2643L109.58 15.1328L115.72 30.101L109.81 30.2325L108.667 27.446L105.125 27.52L104.105 30.3558L98.1953 30.4873H98.2118ZM105.659 23.6485L107.952 23.5992L106.744 20.7387L105.659 23.6485Z" fill="#151716"/>
<path d="M116.656 30.3065L119.229 15.4287L123.923 16.2425L127.071 22.7854L128.082 16.9658L133.671 17.9357L131.098 32.8135L126.388 31.9997L123.257 25.465L122.246 31.2846L116.656 30.3147V30.3065Z" fill="#151716"/>
<path d="M140.469 36.3893C137.674 35.3783 135.784 33.9973 134.797 32.2465C133.811 30.4957 133.753 28.4161 134.625 25.9995C135.496 23.5911 136.86 22.0212 138.726 21.2978C140.592 20.5745 142.918 20.7142 145.713 21.7252C146.626 22.054 147.406 22.4075 148.056 22.7938C148.705 23.1801 149.322 23.6158 149.913 24.109L148.237 28.7614C147.119 27.6599 145.861 26.8544 144.447 26.3447C143.42 25.9749 142.532 25.8844 141.784 26.0653C141.036 26.2461 140.469 26.879 140.083 27.9558C139.696 29.0326 139.737 29.8792 140.206 30.5039C140.674 31.1286 141.431 31.6301 142.458 31.9999C143.872 32.5096 145.351 32.6986 146.913 32.5589L145.236 37.2113C144.472 37.2031 143.724 37.1455 142.968 37.0304C142.22 36.9154 141.39 36.6934 140.477 36.3646L140.469 36.3893Z" fill="#151716"/>
<path d="M145.969 38.3203L153.26 25.0947L163.831 30.9225L161.858 34.4981L156.252 31.4075L155.594 32.5994L160.419 35.2543L158.381 38.9532L153.556 36.2983L152.898 37.4901L158.504 40.5808L156.532 44.1563L145.961 38.3285L145.969 38.3203Z" fill="#151716"/>
<path d="M157.246 44.5345L166.6 32.6816L172.231 37.1285C173.48 38.1149 174.409 39.1753 175.017 40.2931C175.625 41.4192 175.831 42.6193 175.642 43.8934C175.453 45.1675 174.787 46.5319 173.645 47.9786C172.56 49.3513 171.433 50.2719 170.258 50.7405C169.083 51.209 167.882 51.283 166.65 50.9624C165.417 50.65 164.159 49.9842 162.885 48.9732L157.254 44.5263L157.246 44.5345ZM164.373 44.6578L165.038 45.1839C165.482 45.5291 165.91 45.7675 166.321 45.899C166.74 46.0305 167.167 45.9812 167.619 45.7593C168.072 45.5373 168.573 45.0853 169.115 44.3948C169.658 43.7043 169.978 43.129 170.085 42.6686C170.192 42.2083 170.126 41.7974 169.896 41.4439C169.666 41.0905 169.313 40.7288 168.836 40.3507L168.17 39.8246L164.364 44.6496L164.373 44.6578Z" fill="#151716"/>
<path d="M181.065 62.8984C181.772 62.8984 182.487 63.2519 182.931 63.967C183.556 65.0274 183.202 66.359 182.134 66.9837C181.065 67.6001 179.733 67.2467 179.117 66.1863C178.492 65.2082 178.846 63.7944 179.914 63.1697C180.268 62.9889 180.621 62.9067 181.065 62.9067V62.8984ZM184.698 69.9099C185.578 69.9099 186.375 70.4442 186.737 71.2415C187.271 72.3101 186.737 73.6334 185.668 74.1677C184.517 74.702 183.194 74.2581 182.742 73.0992C182.216 71.9484 182.651 70.7072 183.81 70.1729C184.082 69.9921 184.435 69.9099 184.706 69.9099H184.698ZM187.715 77.357C188.685 77.357 189.49 77.8913 189.844 78.779C190.288 79.9298 189.663 81.171 188.512 81.6148C187.361 82.0587 186.03 81.434 185.668 80.2832C185.224 79.1325 185.849 77.8913 187 77.4474C187.271 77.357 187.526 77.357 187.707 77.357H187.715ZM190.016 84.8945C190.995 84.8945 191.964 85.6014 192.236 86.5796C192.507 87.8208 191.792 88.9715 190.559 89.3332C189.4 89.5962 188.249 88.8893 187.887 87.7386C187.624 86.4974 188.34 85.3466 189.49 84.9849C189.663 84.9849 189.844 84.8945 190.016 84.8945ZM191.611 92.7937C192.68 92.7937 193.658 93.5006 193.83 94.6596C194.011 95.9008 193.214 96.9611 191.964 97.142C190.723 97.3228 189.573 96.5255 189.392 95.2761C189.219 94.1253 190.099 92.9745 191.258 92.7937H191.611ZM192.507 100.685C193.658 100.685 194.636 101.572 194.636 102.814C194.726 103.964 193.83 105.033 192.589 105.115C191.348 105.206 190.288 104.236 190.288 102.986C190.197 101.835 191.085 100.767 192.326 100.676H192.507V100.685ZM192.507 108.674H192.597C193.839 108.674 194.817 109.735 194.726 110.976C194.726 112.217 193.658 113.105 192.507 113.105C191.258 113.014 190.288 112.036 190.378 110.795C190.378 109.644 191.356 108.666 192.507 108.666V108.674ZM191.882 116.565C191.973 116.565 192.063 116.565 192.154 116.656C193.395 116.746 194.282 117.897 194.102 119.138C193.929 120.289 192.778 121.177 191.619 121.004C190.378 120.823 189.581 119.763 189.671 118.522C189.852 117.453 190.822 116.565 191.891 116.565H191.882ZM190.46 124.464H190.995C192.236 124.727 192.943 125.969 192.671 127.128C192.408 128.369 191.167 129.084 190.008 128.813C188.767 128.55 188.06 127.399 188.331 126.149C188.594 125.171 189.482 124.464 190.452 124.464H190.46ZM188.34 132.084C188.603 132.084 188.783 132.175 189.038 132.265C190.197 132.618 190.814 133.86 190.46 135.019C190.107 136.169 188.866 136.794 187.715 136.441C186.465 136.087 185.849 134.846 186.293 133.687C186.564 132.709 187.444 132.092 188.34 132.092V132.084ZM185.496 139.539C185.849 139.539 186.12 139.63 186.375 139.72C187.526 140.246 188.068 141.496 187.526 142.647C187.082 143.806 185.759 144.332 184.6 143.806C183.539 143.362 183.005 142.03 183.449 140.879C183.901 140.082 184.698 139.548 185.496 139.548V139.539ZM181.945 146.724C182.388 146.724 182.742 146.814 183.095 146.995C184.164 147.611 184.517 148.943 183.901 150.011C183.367 151.08 181.945 151.433 180.876 150.899C179.807 150.283 179.462 148.943 180.079 147.883C180.432 147.085 181.229 146.724 181.945 146.724ZM177.777 153.464C178.221 153.464 178.657 153.645 179.018 153.908C180.087 154.532 180.268 155.946 179.643 156.924C178.936 157.985 177.514 158.256 176.544 157.541C175.566 156.834 175.295 155.412 175.92 154.434C176.363 153.817 177.07 153.456 177.785 153.456L177.777 153.464ZM172.985 159.851C173.511 159.851 173.963 160.031 174.407 160.294C175.287 161.092 175.476 162.514 174.678 163.484C173.873 164.371 172.459 164.552 171.571 163.755C170.601 162.958 170.503 161.536 171.3 160.648C171.752 160.114 172.369 159.851 172.993 159.851H172.985ZM167.576 165.711C168.201 165.711 168.727 165.892 169.179 166.336C170.059 167.215 170.059 168.637 169.179 169.525C168.283 170.322 166.87 170.322 165.982 169.435C165.185 168.637 165.185 167.215 166.072 166.336C166.426 165.892 167.05 165.711 167.576 165.711ZM161.634 171.029C162.34 171.029 162.965 171.292 163.409 171.827C164.206 172.805 164.034 174.219 163.056 174.934C162.176 175.731 160.754 175.641 159.957 174.671C159.159 173.783 159.332 172.361 160.31 171.564C160.664 171.21 161.19 171.029 161.634 171.029Z" fill="#3AA7CB"/>
<path d="M176.626 56.0674C176.001 56.0674 175.475 56.3304 175.031 56.7743C174.579 57.2181 174.406 57.7524 174.406 58.3689C174.406 58.9032 174.579 59.4375 175.031 59.8814C175.91 60.6787 177.332 60.6787 178.13 59.8814C178.574 59.4375 178.837 58.9032 178.837 58.3689C178.837 57.7524 178.565 57.2181 178.13 56.7743C177.686 56.3304 177.152 56.0674 176.626 56.0674Z" fill="#3AA7CB"/>
<path d="M39.5705 55.7959C39.0444 55.7959 38.4197 55.9767 38.0663 56.4206C37.6224 56.8645 37.3594 57.3988 37.3594 57.9248C37.3594 58.2783 37.4498 58.5413 37.5402 58.8126C37.7128 59.0756 37.8032 59.3468 38.0663 59.5195C38.8636 60.399 40.3678 60.3168 41.1651 59.5195C41.6172 59.0756 41.872 58.5413 41.872 57.9248C41.872 57.3905 41.609 56.8562 41.1651 56.4206C40.8117 55.9767 40.1952 55.7959 39.5705 55.7959Z" fill="#3AA7CB"/>
<path d="M35.2236 62.4541C35.577 62.4541 35.9305 62.5445 36.2921 62.7253C37.3607 63.3418 37.7142 64.7639 37.0895 65.742C36.473 66.8106 35.1414 67.164 34.0728 66.5393C33.0042 65.9146 32.6508 64.583 33.2755 63.5227C33.7194 62.8158 34.4263 62.4541 35.2236 62.4541ZM31.4096 69.4573C31.7631 69.4573 32.1165 69.5478 32.3878 69.7286C33.4481 70.2629 33.9824 71.5945 33.4481 72.6548C32.922 73.7152 31.5822 74.2495 30.5301 73.7152C29.3711 73.1891 28.9272 71.8493 29.4615 70.7889C29.815 69.9916 30.6123 69.4573 31.4096 69.4573ZM28.3108 76.9127C28.5738 76.9127 28.8368 76.9127 29.1081 77.0031C30.2588 77.4469 30.8835 78.6881 30.4315 79.8471C30.078 80.9979 28.7546 81.6226 27.5956 81.1787C26.4449 80.7348 25.8202 79.4937 26.264 78.3347C26.6175 77.4552 27.4148 76.9209 28.3108 76.9209V76.9127ZM26.001 84.5406H26.5353C27.7765 84.894 28.4834 86.0448 28.1299 87.2942C27.8587 88.445 26.6257 89.1601 25.4667 88.8888C24.316 88.5354 23.6008 87.3846 23.8721 86.1434C24.1351 85.1653 25.0229 84.5488 25.9928 84.5488L26.001 84.5406ZM24.4064 92.3494H24.7598C26.001 92.5302 26.7983 93.681 26.5353 94.9221C26.3545 96.0729 25.2859 96.9606 24.0529 96.788C22.8117 96.525 22.0144 95.4564 22.187 94.2153C22.3596 93.1549 23.3378 92.3494 24.4064 92.3494ZM23.5186 100.24H23.6912C24.842 100.331 25.8202 101.391 25.738 102.632C25.6393 103.873 24.579 104.761 23.3378 104.761C22.187 104.671 21.2089 103.61 21.2993 102.369C21.3897 101.218 22.3596 100.24 23.5186 100.24ZM23.4282 108.32C24.579 108.32 25.5571 109.2 25.6476 110.449C25.6476 111.69 24.6776 112.669 23.4282 112.669C22.2775 112.759 21.2089 111.781 21.2089 110.54C21.1185 109.381 22.1048 108.32 23.3378 108.32H23.4282ZM24.0529 116.211C25.1215 116.211 26.0996 117.099 26.1818 118.168C26.3545 119.409 25.4749 120.56 24.316 120.65C23.0665 120.831 21.9158 119.943 21.8336 118.702C21.661 117.551 22.5405 116.392 23.7817 116.31C23.7817 116.22 23.8803 116.22 24.0529 116.22V116.211ZM25.3845 124.102C26.3545 124.102 27.3326 124.809 27.5052 125.878C27.8587 127.029 27.0614 128.27 25.8284 128.541C24.6776 128.804 23.5269 128.007 23.1652 126.856C22.9844 125.615 23.6913 124.464 24.9324 124.193C25.0311 124.102 25.2037 124.102 25.3845 124.102ZM27.423 131.821C28.4012 131.821 29.2889 132.437 29.5519 133.415L29.6424 133.325C29.9958 134.566 29.3711 135.807 28.2203 136.161C26.9792 136.514 25.7462 135.898 25.3845 134.747C25.0311 133.588 25.6476 132.355 26.7983 131.903C27.0696 131.903 27.2504 131.812 27.423 131.812V131.821ZM30.3493 139.366C31.1466 139.366 31.9439 139.81 32.396 140.608V140.698C32.8398 141.767 32.2973 143.09 31.1466 143.534C30.078 144.068 28.7546 143.534 28.3108 142.465C27.7765 141.314 28.3108 139.983 29.4615 139.539C29.7246 139.358 29.9876 139.358 30.341 139.358L30.3493 139.366ZM33.8016 146.46C34.6071 146.46 35.4044 146.904 35.7579 147.611C36.3743 148.679 36.0209 150.093 34.8619 150.627C33.892 151.244 32.47 150.808 31.9357 149.83C31.3192 148.679 31.6726 147.348 32.7412 146.723C33.0947 146.542 33.4399 146.46 33.8016 146.46ZM38.0676 153.291C38.7745 153.291 39.4896 153.644 39.9335 154.269H39.8431C40.55 155.247 40.2869 156.661 39.3088 157.376C38.2402 158.083 36.9168 157.82 36.2099 156.759C35.503 155.781 35.7661 154.367 36.736 153.652C37.1881 153.381 37.632 153.299 38.0676 153.299V153.291ZM42.8597 159.677C43.4844 159.677 44.1009 159.94 44.5366 160.475C45.3421 161.453 45.2435 162.867 44.2735 163.582C43.2954 164.379 41.972 164.289 41.1665 163.311C40.3691 162.423 40.4596 161.009 41.4377 160.203C41.8816 159.85 42.3172 159.677 42.8597 159.677ZM48.2683 165.62C48.7944 165.62 49.4191 165.801 49.7725 166.237C50.6521 167.125 50.6521 168.547 49.7725 169.344C48.967 170.232 47.5532 170.232 46.6655 169.344C45.786 168.547 45.786 167.125 46.6655 166.237C47.1093 165.793 47.6436 165.62 48.2683 165.62ZM54.2112 170.938C54.6551 170.938 55.1811 171.119 55.625 171.473C56.521 172.27 56.6936 173.602 55.8963 174.58C55.0989 175.558 53.6769 175.648 52.7974 174.933C51.8193 174.136 51.6467 172.714 52.444 171.744C52.8878 171.21 53.5125 170.947 54.2194 170.947L54.2112 170.938Z" fill="#3AA7CB"/>
<path d="M65.207 187.271V172.977H70.5745V183.186H76.4106V187.271H65.207Z" fill="#233D4D"/>
<path d="M77.6367 187.271V172.977H89.0704V176.84H83.0124V178.13H88.2238V182.125H83.0124V183.416H89.0704V187.279H77.6367V187.271Z" fill="#233D4D"/>
<path d="M89.9492 187.271L95.4565 172.977H101.029L106.537 187.271H100.947L99.928 184.608H96.5743L95.5551 187.271H89.9657H89.9492ZM97.1415 180.942H99.3197L98.2347 178.213L97.1497 180.942H97.1415Z" fill="#233D4D"/>
<path d="M115.963 187.493C113.267 187.493 111.212 186.869 109.782 185.627C108.352 184.386 107.637 182.553 107.637 180.12C107.637 177.687 108.385 175.862 109.881 174.613C111.377 173.372 113.53 172.747 116.341 172.747C117.262 172.747 118.084 172.796 118.816 172.895C119.547 172.994 120.254 173.158 120.936 173.396V177.967C120.254 177.704 119.564 177.523 118.857 177.424C118.15 177.325 117.435 177.276 116.695 177.276C115.659 177.276 114.804 177.482 114.13 177.884C113.456 178.295 113.119 179.035 113.119 180.112C113.119 181.189 113.358 181.937 113.843 182.34C114.319 182.751 115.018 182.948 115.914 182.948C116.391 182.948 116.835 182.898 117.246 182.792V181.929H114.87V178.69H121.684V186.08C121.076 186.449 120.303 186.778 119.35 187.058C118.396 187.337 117.27 187.477 115.955 187.477L115.963 187.493Z" fill="#233D4D"/>
<path d="M130.499 187.493C129.151 187.493 127.934 187.271 126.857 186.827C125.781 186.383 124.926 185.725 124.293 184.854C123.66 183.983 123.348 182.906 123.348 181.632V172.977H128.723V180.942C128.723 182.273 129.315 182.939 130.499 182.939C131.682 182.939 132.274 182.273 132.274 180.942V172.977H137.642V181.632C137.642 182.906 137.329 183.975 136.697 184.854C136.064 185.725 135.217 186.383 134.132 186.827C133.047 187.271 131.839 187.493 130.491 187.493H130.499Z" fill="#233D4D"/>
<path d="M139.531 187.271V172.977H150.957V176.84H144.899V178.13H150.118V182.125H144.899V183.416H150.957V187.279H139.531V187.271Z" fill="#233D4D"/>
</svg>
