<svg width="216" height="216" viewBox="0 0 216 216" fill="none" xmlns="http://www.w3.org/2000/svg">
<path d="M107.81 213.566C166.217 213.566 213.566 166.217 213.566 107.81C213.566 49.403 166.217 2.05469 107.81 2.05469C49.403 2.05469 2.05469 49.403 2.05469 107.81C2.05469 166.217 49.403 213.566 107.81 213.566Z" fill="white"/>
<path d="M107.81 215.612C48.3651 215.612 0 167.256 0 107.81C0 48.3651 48.3651 0 107.81 0C167.256 0 215.621 48.3651 215.621 107.81C215.621 167.256 167.256 215.621 107.81 215.621V215.612ZM107.81 4.10988C50.6255 4.10988 4.10988 50.6255 4.10988 107.81C4.10988 164.995 50.6255 211.511 107.81 211.511C164.995 211.511 211.511 164.995 211.511 107.81C211.511 50.6255 164.987 4.10988 107.81 4.10988Z" fill="#3AA7CB"/>
<path d="M62.8246 185.701V171.407H68.1921V181.616H74.0282V185.701H62.8164H62.8246Z" fill="#233D4D"/>
<path d="M75.2539 185.701V171.407H86.6876V175.271H80.6296V176.561H85.841V180.556H80.6296V181.846H86.6876V185.71H75.2539V185.701Z" fill="#233D4D"/>
<path d="M87.5664 185.701L93.0736 171.407H98.6466L104.154 185.701H98.5644L97.5452 183.038H94.1915L93.1723 185.701H87.5828H87.5664ZM94.7587 179.372H96.9369L95.8519 176.643L94.7669 179.372H94.7587Z" fill="#233D4D"/>
<path d="M113.581 185.923C110.884 185.923 108.83 185.298 107.399 184.057C105.969 182.816 105.254 180.983 105.254 178.55C105.254 176.117 106.002 174.292 107.498 173.043C108.994 171.801 111.147 171.177 113.959 171.177C114.879 171.177 115.701 171.226 116.433 171.325C117.164 171.423 117.871 171.588 118.553 171.826V176.396C117.871 176.133 117.181 175.952 116.482 175.854C115.775 175.755 115.06 175.706 114.32 175.706C113.285 175.706 112.43 175.911 111.756 176.314C111.082 176.717 110.745 177.465 110.745 178.542C110.745 179.618 110.983 180.366 111.468 180.769C111.945 181.18 112.643 181.377 113.539 181.377C114.016 181.377 114.46 181.328 114.871 181.221V180.358H112.496V177.12H119.31V184.509C118.701 184.879 117.929 185.208 116.984 185.487C116.038 185.767 114.904 185.907 113.589 185.907L113.581 185.923Z" fill="#233D4D"/>
<path d="M128.116 185.923C126.768 185.923 125.56 185.701 124.475 185.258C123.398 184.814 122.543 184.156 121.91 183.285C121.285 182.413 120.965 181.337 120.965 180.063V171.407H126.332V179.372C126.332 180.704 126.924 181.37 128.108 181.37C129.291 181.37 129.883 180.704 129.883 179.372V171.407H135.251V180.063C135.251 181.337 134.938 182.405 134.306 183.285C133.673 184.156 132.826 184.814 131.741 185.258C130.664 185.701 129.448 185.923 128.1 185.923H128.116Z" fill="#233D4D"/>
<path d="M137.148 185.701V171.407H148.574V175.271H142.516V176.561H147.735V180.556H142.516V181.846H148.574V185.71H137.148V185.701Z" fill="#233D4D"/>
<path d="M158.544 149.846C168.918 136.744 174.557 119.729 172.863 101.358C169.945 69.8185 144.554 43.9098 113.073 40.4411C72.1794 35.9284 37.5742 67.8293 37.5742 107.81C37.5742 123.707 43.0568 138.322 52.2218 149.887C55.0741 153.479 59.4306 155.559 64.0172 155.559H146.716C151.319 155.559 155.684 153.463 158.544 149.846Z" fill="#3AA7CB"/>
<path d="M118.152 76.23H106.849L103.981 70.4926C101.811 66.1443 97.446 63.4482 92.5799 63.4482C91.2565 63.4482 90.1798 64.5168 90.1798 65.8402C90.1798 67.1636 91.2483 68.2404 92.5799 68.2404C95.613 68.2404 98.3338 69.9254 99.69 72.6297L101.49 76.23H92.5881C84.2204 76.23 77.4062 83.0359 77.4062 91.4119C77.4062 92.7352 78.4748 93.812 79.8064 93.812H130.95C132.273 93.812 133.342 92.7435 133.342 91.4119C133.342 83.0441 126.536 76.23 118.16 76.23M82.4696 89.0117C83.5546 84.4333 87.6727 81.0221 92.5799 81.0221H118.152C123.059 81.0221 127.177 84.4415 128.262 89.0117H82.4696ZM124.801 97.8068H129.692C127.719 111.937 119.302 124.57 106.734 131.754C106.323 131.993 105.806 132.124 105.304 132.124C104.901 132.124 104.507 132.042 104.186 131.853C91.4703 124.587 83.0368 111.937 81.0558 97.8068H85.9384C87.8125 109.816 94.8568 120.576 105.362 126.987C115.932 120.485 122.927 109.758 124.801 97.8068Z" fill="white"/>
<path d="M153.594 38.9618C152.97 38.9618 152.353 38.6905 152 38.3371C151.819 38.074 151.646 37.8932 151.465 37.6302C151.375 37.3589 151.375 37.0055 151.375 36.7424C151.375 36.1177 151.556 35.5917 152 35.1478C152.797 34.3505 154.301 34.3505 155.099 35.1478C155.279 35.419 155.452 35.5917 155.633 35.8547C155.723 36.1177 155.805 36.4712 155.805 36.7424C155.805 37.3589 155.534 37.8932 155.099 38.3371C154.745 38.6905 154.129 38.9618 153.594 38.9618Z" fill="#3AA7CB"/>
<path d="M165.307 167.585C164.411 166.697 164.411 165.275 165.216 164.395C166.096 163.598 167.518 163.508 168.405 164.395C169.301 165.193 169.301 166.615 168.405 167.494C167.962 167.938 167.436 168.201 166.811 168.201C166.277 168.201 165.742 167.938 165.307 167.585ZM170.625 161.905C169.655 161.108 169.556 159.685 170.271 158.798C171.069 157.82 172.491 157.647 173.378 158.444C174.348 159.151 174.529 160.573 173.732 161.551C173.28 162.086 172.663 162.349 172.039 162.349C171.513 162.349 171.06 162.176 170.617 161.905H170.625ZM175.417 155.691C174.348 155.074 174.094 153.652 174.8 152.674C175.499 151.605 176.839 151.342 177.899 152.058C178.877 152.674 179.14 154.096 178.524 155.074C178.072 155.781 177.365 156.052 176.658 156.052C176.206 156.052 175.762 155.962 175.409 155.699L175.417 155.691ZM179.584 149.131C178.524 148.597 178.171 147.175 178.705 146.115C179.33 145.046 180.653 144.693 181.721 145.227C182.79 145.843 183.226 147.175 182.617 148.244C182.264 149.041 181.467 149.394 180.661 149.394C180.308 149.394 179.954 149.304 179.593 149.131H179.584ZM183.226 142.219C182.075 141.775 181.549 140.443 182.075 139.292C182.519 138.224 183.85 137.698 184.919 138.133C186.07 138.668 186.596 139.909 186.16 141.06C185.716 141.947 184.919 142.391 184.031 142.391C183.768 142.391 183.505 142.391 183.234 142.219H183.226ZM186.152 135.026C184.911 134.673 184.286 133.341 184.73 132.182C185.083 131.031 186.333 130.407 187.484 130.768C188.634 131.122 189.259 132.363 188.906 133.604C188.634 134.492 187.755 135.108 186.859 135.108C186.588 135.108 186.333 135.018 186.152 135.018V135.026ZM188.371 127.571C187.13 127.217 186.423 126.067 186.694 124.908C186.957 123.667 188.116 122.951 189.358 123.223C190.508 123.486 191.306 124.636 191.034 125.795C190.771 126.856 189.884 127.571 188.815 127.571H188.371ZM189.875 119.861C188.725 119.68 187.837 118.62 188.01 117.378C188.108 116.228 189.259 115.34 190.492 115.513C191.643 115.603 192.539 116.754 192.358 117.995C192.267 119.063 191.289 119.951 190.139 119.951C190.048 119.951 189.966 119.861 189.867 119.861H189.875ZM190.771 112.142C189.522 112.052 188.552 111.074 188.642 109.833C188.642 108.591 189.711 107.613 190.862 107.704C192.103 107.704 193.081 108.772 193.081 110.005C192.991 111.164 192.013 112.134 190.862 112.134H190.771V112.142ZM188.552 102.205C188.453 101.054 189.349 99.9854 190.591 99.9032C191.84 99.8128 192.892 100.783 192.991 102.032C192.991 103.273 192.095 104.251 190.862 104.342H190.771C189.522 104.342 188.552 103.454 188.552 102.213V102.205ZM187.755 94.6672C187.574 93.5164 188.371 92.3657 189.621 92.1848C190.862 92.004 191.922 92.8013 192.193 94.0507H192.095C192.366 95.2919 191.478 96.3522 190.229 96.5331C190.138 96.6235 190.056 96.6235 189.966 96.6235C188.807 96.6235 187.919 95.8262 187.747 94.6672H187.755ZM186.333 87.2119H186.234C185.971 86.0611 186.686 84.9021 187.927 84.5487C189.078 84.2774 190.328 84.9925 190.591 86.2337C190.862 87.3845 190.147 88.5353 188.996 88.8969H188.462C187.492 88.8969 186.514 88.2804 186.341 87.2119H186.333ZM184.113 80.0278C183.76 78.7866 184.376 77.5454 185.535 77.192C186.686 76.7481 187.927 77.3728 188.371 78.5236C188.725 79.6744 188.108 81.006 186.949 81.3594C186.686 81.4498 186.505 81.4498 186.242 81.4498C185.363 81.4498 184.475 80.9155 184.122 80.0278H184.113ZM181.36 72.9342C180.834 71.7752 181.36 70.4518 182.428 70.0079C183.579 69.4736 184.911 70.0079 185.355 71.0765C185.889 72.2273 185.355 73.5589 184.286 74.0027C183.933 74.1836 183.67 74.274 183.407 74.274C182.511 74.274 181.713 73.7397 181.36 72.9424V72.9342ZM177.907 66.1939C177.283 65.1254 177.636 63.802 178.705 63.1773C179.773 62.5526 181.105 62.906 181.721 63.9746C182.346 65.0432 181.993 66.457 180.924 66.9913C180.571 67.1721 180.217 67.2625 179.856 67.2625C179.058 67.2625 178.261 66.9091 177.907 66.1939ZM173.822 59.8072C173.115 58.7386 173.378 57.4152 174.348 56.7001C175.417 55.9932 176.749 56.2563 177.455 57.2344C178.162 58.2126 177.899 59.6264 176.921 60.3333C176.568 60.6045 176.124 60.6867 175.68 60.6867C174.973 60.6867 174.258 60.4237 173.814 59.8072H173.822ZM169.203 53.7739C168.405 52.7957 168.496 51.3819 169.474 50.5846C170.37 49.8777 171.776 49.9599 172.581 50.9381V50.8477C173.378 51.8258 173.28 53.2396 172.31 54.0369C171.956 54.3904 171.414 54.5712 170.888 54.5712C170.263 54.5712 169.647 54.3082 169.195 53.7739H169.203ZM164.057 48.1845C163.178 47.2967 163.178 45.8747 164.057 45.0774C164.863 44.1897 166.277 44.1897 167.164 44.987C168.044 45.8747 168.044 47.2967 167.164 48.1845C166.72 48.6283 166.186 48.8009 165.57 48.8009C165.035 48.8009 164.501 48.6201 164.057 48.1845ZM158.386 43.1293C157.506 42.332 157.317 41.0004 158.114 40.0305C158.821 39.0523 160.243 38.8715 161.221 39.677C162.101 40.4743 162.29 41.8963 161.493 42.7759C161.041 43.3101 160.424 43.6636 159.799 43.6636C159.273 43.6636 158.821 43.4828 158.377 43.1293H158.386Z" fill="#3AA7CB"/>
<path d="M161.051 173.609C160.525 173.609 159.9 173.346 159.547 172.903C159.103 172.549 158.84 171.924 158.84 171.39C158.84 170.774 159.111 170.239 159.547 169.795C160.344 168.998 161.766 168.908 162.654 169.795C163.098 170.239 163.27 170.774 163.27 171.39C163.27 171.924 163.098 172.549 162.654 172.903C162.202 173.346 161.676 173.609 161.051 173.609Z" fill="#3AA7CB"/>
<path d="M51.942 173.972C51.3173 173.972 50.7912 173.791 50.3474 173.355C49.9035 172.92 49.7227 172.377 49.7227 171.761C49.7227 171.226 49.9035 170.7 50.3474 170.256C51.2269 169.459 52.6489 169.369 53.5366 170.256C53.8901 170.7 54.1613 171.235 54.1613 171.761C54.1613 172.385 53.8901 172.92 53.5366 173.355C53.0928 173.799 52.4763 173.972 51.942 173.972Z" fill="#3AA7CB"/>
<path d="M44.5762 168.029C43.6967 167.231 43.6967 165.809 44.5762 164.922C45.4722 164.042 46.8777 164.042 47.7737 164.922C48.571 165.809 48.571 167.231 47.7737 168.119C47.3298 168.472 46.7051 168.736 46.1791 168.736C45.6448 168.736 45.0201 168.472 44.5762 168.029ZM39.1676 162.086C38.4607 161.198 38.5429 159.784 39.5211 158.979C40.4006 158.181 41.8226 158.362 42.6199 159.25C43.4172 160.228 43.2446 161.642 42.3487 162.439C41.9048 162.793 41.3787 162.883 40.9266 162.883C40.2197 162.883 39.6033 162.62 39.1594 162.086H39.1676ZM34.3837 155.691C33.6768 154.63 33.9316 153.299 35.0002 152.592C35.9783 151.885 37.4004 152.148 38.1073 153.208C38.7237 154.187 38.4607 155.6 37.4826 156.315C37.1291 156.496 36.6852 156.669 36.2414 156.669C35.5345 156.669 34.8194 156.315 34.3755 155.691H34.3837ZM30.2081 148.868C29.5916 147.8 29.945 146.476 31.0054 145.852C32.1644 145.235 33.4878 145.589 34.0303 146.739C34.6467 147.808 34.2933 149.131 33.2247 149.756C32.8795 149.937 32.526 150.027 32.1644 150.027C31.3588 150.027 30.5615 149.583 30.2081 148.877V148.868ZM26.6654 141.684C26.1311 140.525 26.6654 139.202 27.8161 138.758C28.8847 138.224 30.2081 138.758 30.6602 139.827C31.1862 140.977 30.6602 142.309 29.5916 142.753C29.2381 142.934 28.9669 143.024 28.6956 143.024C27.8161 143.024 27.0188 142.49 26.6571 141.693L26.6654 141.684ZM23.7309 134.139C23.3774 132.988 24.0022 131.747 25.1529 131.295C26.3037 130.941 27.6271 131.566 27.9887 132.717C28.3422 133.867 27.7257 135.108 26.5667 135.561C26.3037 135.651 26.1228 135.651 25.868 135.651C24.9721 135.651 24.0926 135.035 23.7391 134.147L23.7309 134.139ZM21.602 126.42C21.3307 125.179 22.0458 124.028 23.2953 123.757C24.446 123.486 25.6872 124.201 25.9585 125.442C26.2297 126.593 25.4242 127.744 24.2652 128.105H23.7391C22.761 128.105 21.8732 127.398 21.6102 126.42H21.602ZM20.18 118.529C20.0073 117.288 20.8869 116.137 22.0458 116.047C23.2953 115.866 24.446 116.663 24.6186 117.913C24.7091 119.154 23.9117 120.214 22.6705 120.395H22.3171C21.2485 120.395 20.369 119.598 20.1882 118.529H20.18ZM19.4731 110.457C19.4731 109.298 20.369 108.238 21.602 108.238C22.8432 108.148 23.8213 109.118 23.9035 110.277C24.0022 111.518 23.024 112.578 21.7828 112.578H21.6842C20.443 112.578 19.5635 111.69 19.4648 110.449L19.4731 110.457ZM21.602 104.778C20.3608 104.778 19.4731 103.709 19.4731 102.468H19.5717C19.5717 101.227 20.632 100.339 21.8732 100.339C23.1144 100.429 24.0022 101.49 23.9117 102.64H24.0104C23.9117 103.882 22.9418 104.769 21.7006 104.769H21.6102L21.602 104.778ZM22.128 96.977C20.9773 96.7962 20.0895 95.7358 20.2622 94.4947C20.443 93.2535 21.5938 92.4562 22.8349 92.6288C23.9939 92.8096 24.8817 93.8699 24.7008 95.1111C24.5282 96.1715 23.5501 96.977 22.4815 96.977H22.128ZM23.4679 89.2587C22.2267 88.9956 21.5198 87.7544 21.791 86.5955C22.0541 85.3543 23.2953 84.6392 24.4542 84.9022C25.6954 85.2556 26.4023 86.4146 26.1311 87.6558C25.868 88.634 24.9803 89.3409 23.9117 89.3409C23.7391 89.3409 23.6487 89.3409 23.4679 89.2504V89.2587ZM25.4159 81.7129C24.2652 81.2691 23.6487 80.0279 24.0022 78.8771H24.0926C24.446 77.7263 25.6872 77.1016 26.838 77.4551C27.9887 77.899 28.6134 79.1401 28.26 80.2909C27.9065 81.2691 27.1092 81.8033 26.1311 81.8033C25.868 81.8033 25.6872 81.8033 25.4242 81.7129H25.4159ZM28.0792 74.348C27.0106 73.8137 26.4763 72.4821 27.0106 71.4218C27.4545 70.271 28.7778 69.7367 29.9368 70.271C30.9972 70.8053 31.5315 72.0465 30.9972 73.1973C30.6519 73.9946 29.8464 74.5289 28.9587 74.5289C28.6874 74.5289 28.334 74.4384 28.0792 74.348ZM31.4493 67.2544C30.3807 66.6379 30.0272 65.2981 30.5533 64.2377C31.178 63.1692 32.6 62.7253 33.6604 63.35C34.6303 63.9665 35.0824 65.2981 34.4577 66.3666C34.0138 67.1639 33.3069 67.5174 32.5096 67.5174C32.1562 67.5174 31.8027 67.427 31.441 67.2544H31.4493ZM35.4358 60.5142C34.3755 59.8073 34.1947 58.3852 34.9098 57.4153C35.6167 56.4372 36.9565 56.1741 38.0086 56.881C38.9868 57.5879 39.258 58.9195 38.5429 59.9881C38.099 60.6046 37.3921 60.8676 36.677 60.8676C36.2332 60.8676 35.7811 60.7772 35.4276 60.5142H35.4358ZM40.0553 54.1274C39.0772 53.3301 38.9868 51.9985 39.7841 51.0203C40.5814 50.1326 42.0034 49.9518 42.8912 50.7573C43.7707 51.5546 43.9597 52.9766 43.1542 53.8562C42.7103 54.3904 42.0856 54.6535 41.4774 54.6535C40.9431 54.6535 40.4992 54.4726 40.0553 54.1192V54.1274ZM45.2009 48.2749C44.305 47.3872 44.305 45.9734 45.2009 45.1679C46.0804 44.2884 47.5024 44.2884 48.2998 45.1679C49.1957 46.0556 49.1957 47.3872 48.2998 48.2749C47.8559 48.7188 47.3298 48.8996 46.7955 48.8996C46.1791 48.8996 45.6448 48.7188 45.2009 48.2749ZM50.8725 42.8581C50.0752 41.9704 50.2561 40.5484 51.1438 39.7511C52.122 38.9537 53.5357 39.1346 54.2426 40.1045C55.0482 40.9922 54.9495 42.4143 53.9796 43.2116C53.5275 43.565 53.0837 43.6554 52.5576 43.6554C51.9329 43.6554 51.3082 43.3924 50.8643 42.8581H50.8725Z" fill="#3AA7CB"/>
<path d="M58.9455 38.9618C58.6742 38.9618 58.3208 38.8713 58.066 38.7809C57.7947 38.6905 57.5317 38.5097 57.3591 38.3371C56.9152 37.8932 56.7344 37.3589 56.7344 36.7424C56.7344 36.1259 56.9152 35.5917 57.3591 35.1478C58.1564 34.3505 59.751 34.3505 60.4579 35.1478C60.9018 35.5917 61.1648 36.1259 61.1648 36.7424C61.1648 37.3589 60.8936 37.8932 60.4579 38.3371C60.2853 38.5179 60.0141 38.6905 59.751 38.7809C59.488 38.8713 59.225 38.9618 58.9537 38.9618H58.9455Z" fill="#3AA7CB"/>
<path d="M78.0069 37.7282L74.0039 23.171L82.6429 20.7955C84.1307 20.3845 85.3883 20.4256 86.4075 20.9023C87.4268 21.3873 88.1172 22.2915 88.4789 23.6148C88.6762 24.3382 88.7255 24.9875 88.6186 25.5711C88.5118 26.1547 88.2981 26.6479 87.9693 27.0589C88.6186 27.174 89.1694 27.3959 89.6132 27.7412C90.0571 28.0864 90.4023 28.67 90.6325 29.5166C91.0106 30.8893 90.8544 32.0894 90.1722 33.1169C89.4899 34.1443 88.3474 34.8841 86.7281 35.328L77.9987 37.7282H78.0069ZM80.6701 27.3384L82.7086 26.7794C83.432 26.5822 83.7032 26.1547 83.5306 25.5054C83.3662 24.9053 82.9223 24.6998 82.199 24.8971L80.1687 25.4561L80.6866 27.3302L80.6701 27.3384ZM82.1168 32.6072L84.1553 32.0483C84.8786 31.851 85.1499 31.4236 84.9773 30.7742C84.8129 30.1742 84.369 29.9687 83.6457 30.166L81.6154 30.7249L82.1332 32.599L82.1168 32.6072Z" fill="#151716"/>
<path d="M92.2109 33.7421L96.8304 18.2396L102.699 17.7793L109.67 32.3776L103.776 32.8379L102.486 30.1172L98.9594 30.3884L98.1045 33.2735L92.2109 33.7339V33.7421ZM99.2635 26.4922L101.557 26.3114L100.184 23.5249L99.2635 26.4922Z" fill="#151716"/>
<path d="M115.851 33.3888C114.791 33.2819 113.78 33.0929 112.818 32.8216C111.856 32.5504 111.059 32.2052 110.418 31.8024L110.829 27.5774C111.528 28.0049 112.317 28.383 113.213 28.7035C114.109 29.0241 114.914 29.2214 115.629 29.2954C116.098 29.3447 116.468 29.32 116.739 29.2296C117.018 29.1392 117.166 28.983 117.183 28.7693C117.207 28.4898 116.986 28.2514 116.501 28.046C116.016 27.8405 115.383 27.5528 114.61 27.1747C113.681 26.7061 112.958 26.2458 112.44 25.7855C111.922 25.3252 111.569 24.7992 111.38 24.2073C111.191 23.6155 111.141 22.8922 111.224 22.0373C111.528 18.9138 113.878 17.5658 118.284 17.9932C118.786 18.0425 119.336 18.1329 119.945 18.2644C120.553 18.396 121.145 18.5439 121.712 18.7083C122.287 18.8727 122.764 19.0371 123.159 19.2015L122.748 23.4511C121.926 23.0072 121.194 22.6949 120.553 22.5058C119.912 22.3168 119.345 22.2017 118.843 22.1524C118.457 22.1113 118.054 22.1113 117.643 22.1442C117.232 22.177 117.01 22.3168 116.994 22.5634C116.977 22.7689 117.134 22.9415 117.487 23.0977C117.832 23.2456 118.383 23.4758 119.139 23.7635C120.347 24.2238 121.243 24.7252 121.819 25.2595C122.394 25.7937 122.756 26.3938 122.904 27.0596C123.052 27.7254 123.085 28.4816 123.002 29.32C122.863 30.7503 122.189 31.8435 120.989 32.5997C119.788 33.3559 118.071 33.619 115.843 33.4052L115.851 33.3888Z" fill="#151716"/>
<path d="M123.66 34.0378L127.343 19.3984L139.048 22.3493L138.053 26.303L131.847 24.7413L131.518 26.0564L136.861 27.4045L135.834 31.4979L130.491 30.1499L130.162 31.465L136.368 33.0268L135.373 36.9805L123.668 34.0378H123.66Z" fill="#151716"/>
</svg>
