<svg width="138" height="138" viewBox="0 0 138 138" fill="none" xmlns="http://www.w3.org/2000/svg">
<path d="M73.7281 102.071C74.5107 102.629 74.5519 104.782 73.3918 105.165L7.72292 105.428C3.53195 105.298 0.380997 102.619 0 98.413V6.67311C0.181918 3.6685 2.41985 1.11219 5.22756 0.249814L131.317 0C134.331 0.181372 136.895 2.41259 137.76 5.21187L137.997 98.745C137.475 102.461 134.743 105.09 130.974 105.432C128.959 105.613 122.455 105.74 120.67 105.408C119.125 105.12 118.535 103.043 119.819 102.181C123.354 99.8092 133.737 104.932 134.533 98.0298L134.578 8.04538C134.485 5.58146 132.934 3.39473 130.287 3.42553H7.71949C5.40948 3.54188 3.37749 5.31796 3.43241 7.70317V97.3898C3.52165 99.3746 4.54108 101.496 6.70006 101.661C27.7545 102.626 49.9965 100.35 70.9101 101.637C71.4971 101.674 73.3746 101.821 73.7281 102.075V102.071Z" fill="#3AA7CB"/>
<path d="M104.963 16.8675C105.516 18.9413 105.413 20.8816 106.251 22.9383C108.162 27.6266 113.246 30.4293 118.007 31.4081C119.232 31.6613 121.71 31.1138 122.383 32.5202C123.402 34.6522 121.978 43.8098 122.544 46.7152C121.871 48.984 119.16 48.6486 118.799 46.3593C118.295 43.1596 118.978 38.5671 118.971 35.2477C110.85 34.2518 102.482 28.5437 101.96 19.855H36.0578C35.5498 28.205 27.2571 34.6488 19.2356 34.9123L19.2734 69.4448C28.1084 70.5125 35.4469 76.378 36.4354 85.5287L63.723 85.8744L64.1521 88.0748L63.6647 88.6189L33.9023 88.9132C31.9698 88.0337 32.8176 86.0831 32.5911 84.4028C31.7948 78.5579 26.1382 74.489 20.6944 73.3357C18.5388 72.8806 15.2197 73.6951 15.4531 70.6905L15.6213 32.8385C16.3627 30.929 18.2711 31.7229 19.7264 31.456C25.9391 30.3061 31.1495 26.6821 32.5465 20.2828C32.8142 19.0577 32.2787 17.5862 33.3153 16.6006L104.974 16.8607L104.963 16.8675Z" fill="#3AA7CB"/>
<path d="M94.6601 50.7428C99.8018 49.8805 99.8636 51.9509 103.481 53.0767C106.766 54.0999 108.613 52.5087 111.915 55.2771C113.779 56.8376 113.803 58.3981 114.997 59.7327C116.418 61.324 118.855 61.4814 120.437 63.8906C122.384 66.8576 121.361 68.7329 122.016 71.5561C122.809 74.9645 125.5 75.0124 124.457 80.4468C124.069 82.4658 122.418 83.7286 122.027 85.2103C121.193 88.3758 122.641 90.1108 119.988 93.4439C118.508 95.2987 116.741 95.5314 115.371 96.712C113.542 98.2896 113.607 100.973 110.308 102.615C107.648 103.94 106.378 103.012 104 103.515C100.265 104.306 100.042 107.108 94.3889 105.948C92.4839 105.558 91.0663 103.751 89.3501 103.443C86.1031 102.862 83.9544 103.994 81.0094 101.151C79.7806 99.963 79.403 98.187 78.2909 97.0166C76.7841 95.4356 74.553 95.1789 73.0599 92.9922C70.8666 89.7754 72.2773 87.664 71.3918 85.0735C70.6332 82.8525 68.7557 81.5316 68.7042 78.5167C68.6424 75.0706 71.2922 73.2193 71.6217 70.8614C71.8448 69.2873 71.3265 67.9321 71.9204 66.0568C73.1183 62.2754 75.5759 62.1077 77.9442 60.0852C79.935 58.381 79.7977 55.9684 82.8491 54.3669C85.65 52.8954 87.071 53.8467 89.6281 53.2547C91.2688 52.8748 92.6487 51.0851 94.6635 50.7463L94.6601 50.7428ZM112.375 62.1795C111.04 60.6841 110.906 58.5624 108.719 57.4365C106.646 56.3722 104.889 57.149 102.894 56.7418C101.542 56.468 99.9288 54.976 98.6245 54.4969C94.509 52.9809 93.8157 56.0197 90.651 56.6699C88.468 57.1182 86.412 56.338 84.3319 57.5563C82.5162 58.6205 82.221 60.9544 80.6867 62.4773C79.3584 63.7914 77.5049 64.1301 76.4065 65.3963C74.4775 67.6241 75.5827 69.958 74.9477 72.4972C74.5221 74.2048 72.9398 75.4847 72.5862 76.9836C71.7178 80.6624 74.4672 81.7609 75.0267 84.8647C75.4042 86.9625 74.7795 88.5332 75.8608 90.5351C77.0655 92.7629 79.633 92.8998 81.1982 94.7957C82.324 96.1611 82.5505 98.0227 84.126 99.063C86.2541 100.473 88.3788 99.6208 90.651 100.086C93.342 100.637 94.255 103.125 97.5845 102.591C99.3934 102.304 101.062 100.48 102.97 100.083C105.17 99.6277 106.859 100.47 108.939 99.1897C111.019 97.9098 111.064 96.0447 112.375 94.5732C113.329 93.5021 114.973 92.9785 116.01 92.2086C119.545 89.5872 117.561 87.2568 118.673 83.9134C119.669 80.9156 122.274 79.9574 120.558 76.0801C118.677 71.823 118.79 73.3698 118.368 68.3736C118.031 64.4347 114.352 64.3834 112.375 62.1693V62.1795Z" fill="#3AA7CB"/>
<path d="M73.8133 127.997C75.6462 127.986 78.6187 127.127 80.3246 127.836C81.7902 128.445 82.2055 131.446 82.9915 132.695C83.2112 133.048 82.9744 133.294 83.7604 133.13L95.1423 113.162C95.7429 112.269 97.0679 111.858 97.8642 112.744L109.857 133.472C110.286 133.766 111.906 129.051 112.304 128.558C113.746 126.765 117.738 127.969 119.808 127.993L108.893 108.915C108.254 106.917 110.471 105.558 111.934 106.934C112.404 107.375 113.749 109.966 114.247 110.784C116.921 115.16 119.873 120.174 122.269 124.688C123.278 126.587 125.22 128.801 123.425 130.748C121.562 132.767 117.508 131.101 115.033 131.097C113.9 132.938 113.399 137.5 111.034 137.9C109.112 138.225 108.58 137.726 107.509 136.319C104.025 131.734 101.098 124.633 97.8916 119.554C97.6514 119.175 97.1399 117.843 96.6388 118.073L85.2844 137.209C80.7227 140.118 79.7548 134.208 78.6015 131.09C74.7366 131.494 67.4771 133.544 69.8489 126.953C73.7412 121.139 76.597 114.579 80.4001 108.727C81.8794 106.451 83.8256 104.781 84.6494 108.491L73.8098 127.993L73.8133 127.997Z" fill="#3AA7CB"/>
<path d="M95.6961 30.8946C96.4993 31.6988 96.2418 33.6117 95.0027 33.9745L44.1139 34.2414C41.3473 34.1832 41.0178 30.8022 43.7603 30.4531H93.9044C94.4364 30.501 95.3151 30.5147 95.6961 30.8946Z" fill="#3AA7CB"/>
<path d="M43.1606 43.546L94.2486 43.457C96.9911 43.8061 96.6616 47.1871 93.895 47.2453H44.1079C41.7053 47.0845 40.9364 44.7506 43.1572 43.546H43.1606Z" fill="#3AA7CB"/>
<path d="M95.0164 63.076C115.786 60.9098 118.12 92.2563 98.006 93.7723C77.8509 95.2917 75.4002 65.1224 95.0164 63.076ZM94.323 66.8335C81.9011 68.6267 82.0453 88.427 94.6148 89.9772C113.236 92.2734 112.827 64.1642 94.323 66.8335Z" fill="#3AA7CB"/>
<path d="M90.3728 75.3827C92.8819 72.8948 95.4013 79.7938 96.4619 79.0614C97.1106 77.7405 100.227 72.7442 101.501 72.6347C102.959 72.5081 103.879 74.1747 103.131 75.6017C102.441 76.9124 98.8577 81.9463 97.8383 82.9935C96.3898 84.4821 95.8818 84.4718 94.3956 83.014C93.7022 82.333 90.0124 77.4394 89.9575 76.8165C89.9231 76.4162 90.0948 75.6633 90.3762 75.3827H90.3728Z" fill="#3AA7CB"/>
</svg>
