<svg width="99" height="33" viewBox="0 0 99 33" fill="none" xmlns="http://www.w3.org/2000/svg">
<mask id="path-1-outside-1_1313_6021" maskUnits="userSpaceOnUse" x="-0.597656" y="0.712891" width="100" height="32" fill="black">
<rect fill="white" x="-0.597656" y="0.712891" width="100" height="32"/>
<path d="M1.09045 9.25054V1.92683H22.615V11.528H15.5146V9.25054H11.6741V13.225H19.2657V19.8342H11.6741V24.3892H14.2642V31.7129H1.09045V24.3892H3.05534V9.25054H1.09045ZM3.45725 26.3987V29.7033H11.8974V26.3987H9.30729V17.8246H16.8989V15.2345H9.30729V7.24099H17.5688V9.51848H20.2482V3.93639H3.45725V7.24099H5.42215V26.3987H3.45725ZM23.0748 31.7129V24.3892H25.3523L33.0779 1.92683H41.0715L48.1273 24.3892H50.3155V31.7129H38.3028V24.3892H40.1784L39.5532 22.3796H33.7031L33.0779 24.3892H34.8642V31.7129H23.0748ZM25.4416 29.7033H32.81V26.3987H30.5325L32.6314 20.3701H40.6696L42.5898 26.3987H40.357V29.7033H47.77V26.3987H46.341L39.2406 3.93639H34.8196L27.0939 26.3987H25.4416V29.7033ZM33.4352 18.0479L36.8291 8.22344L39.9551 18.0479H33.4352ZM35.6234 16.4403H37.6776L36.7398 13.4036L35.6234 16.4403ZM52.2887 9.25054V1.92683H65.5071V9.25054H62.8724V24.3892H66.4449V20.7273H73.8133V31.7129H52.2887V24.3892H54.2536V9.25054H52.2887ZM54.6555 26.3987V29.7033H71.4465V22.7369H68.4991V26.3987H60.5056V7.24099H63.1403V3.93639H54.6555V7.24099H56.6204V26.3987H54.6555ZM76.3179 9.25054V1.92683H89.5363V9.25054H86.9015V24.3892H90.4741V20.7273H97.8424V31.7129H76.3179V24.3892H78.2828V9.25054H76.3179ZM78.6847 26.3987V29.7033H95.4756V22.7369H92.5283V26.3987H84.5347V7.24099H87.1695V3.93639H78.6847V7.24099H80.6496V26.3987H78.6847Z"/>
</mask>
<path d="M1.09045 9.25054V1.92683H22.615V11.528H15.5146V9.25054H11.6741V13.225H19.2657V19.8342H11.6741V24.3892H14.2642V31.7129H1.09045V24.3892H3.05534V9.25054H1.09045ZM3.45725 26.3987V29.7033H11.8974V26.3987H9.30729V17.8246H16.8989V15.2345H9.30729V7.24099H17.5688V9.51848H20.2482V3.93639H3.45725V7.24099H5.42215V26.3987H3.45725ZM23.0748 31.7129V24.3892H25.3523L33.0779 1.92683H41.0715L48.1273 24.3892H50.3155V31.7129H38.3028V24.3892H40.1784L39.5532 22.3796H33.7031L33.0779 24.3892H34.8642V31.7129H23.0748ZM25.4416 29.7033H32.81V26.3987H30.5325L32.6314 20.3701H40.6696L42.5898 26.3987H40.357V29.7033H47.77V26.3987H46.341L39.2406 3.93639H34.8196L27.0939 26.3987H25.4416V29.7033ZM33.4352 18.0479L36.8291 8.22344L39.9551 18.0479H33.4352ZM35.6234 16.4403H37.6776L36.7398 13.4036L35.6234 16.4403ZM52.2887 9.25054V1.92683H65.5071V9.25054H62.8724V24.3892H66.4449V20.7273H73.8133V31.7129H52.2887V24.3892H54.2536V9.25054H52.2887ZM54.6555 26.3987V29.7033H71.4465V22.7369H68.4991V26.3987H60.5056V7.24099H63.1403V3.93639H54.6555V7.24099H56.6204V26.3987H54.6555ZM76.3179 9.25054V1.92683H89.5363V9.25054H86.9015V24.3892H90.4741V20.7273H97.8424V31.7129H76.3179V24.3892H78.2828V9.25054H76.3179ZM78.6847 26.3987V29.7033H95.4756V22.7369H92.5283V26.3987H84.5347V7.24099H87.1695V3.93639H78.6847V7.24099H80.6496V26.3987H78.6847Z" fill="#EC5E25"/>
<path d="M1.09045 9.25054H0.0904465V10.2505H1.09045V9.25054ZM1.09045 1.92683V0.926831H0.0904465V1.92683H1.09045ZM22.615 1.92683H23.615V0.926831H22.615V1.92683ZM22.615 11.528V12.528H23.615V11.528H22.615ZM15.5146 11.528H14.5146V12.528H15.5146V11.528ZM15.5146 9.25054H16.5146V8.25054H15.5146V9.25054ZM11.6741 9.25054V8.25054H10.6741V9.25054H11.6741ZM11.6741 13.225H10.6741V14.225H11.6741V13.225ZM19.2657 13.225H20.2657V12.225H19.2657V13.225ZM19.2657 19.8342V20.8342H20.2657V19.8342H19.2657ZM11.6741 19.8342V18.8342H10.6741V19.8342H11.6741ZM11.6741 24.3892H10.6741V25.3892H11.6741V24.3892ZM14.2642 24.3892H15.2642V23.3892H14.2642V24.3892ZM14.2642 31.7129V32.7129H15.2642V31.7129H14.2642ZM1.09045 31.7129H0.0904465V32.7129H1.09045V31.7129ZM1.09045 24.3892V23.3892H0.0904465V24.3892H1.09045ZM3.05534 24.3892V25.3892H4.05534V24.3892H3.05534ZM3.05534 9.25054H4.05534V8.25054H3.05534V9.25054ZM3.45725 26.3987V25.3987H2.45725V26.3987H3.45725ZM3.45725 29.7033H2.45725V30.7033H3.45725V29.7033ZM11.8974 29.7033V30.7033H12.8974V29.7033H11.8974ZM11.8974 26.3987H12.8974V25.3987H11.8974V26.3987ZM9.30729 26.3987H8.30729V27.3987H9.30729V26.3987ZM9.30729 17.8246V16.8246H8.30729V17.8246H9.30729ZM16.8989 17.8246V18.8246H17.8989V17.8246H16.8989ZM16.8989 15.2345H17.8989V14.2345H16.8989V15.2345ZM9.30729 15.2345H8.30729V16.2345H9.30729V15.2345ZM9.30729 7.24099V6.24099H8.30729V7.24099H9.30729ZM17.5688 7.24099H18.5688V6.24099H17.5688V7.24099ZM17.5688 9.51848H16.5688V10.5185H17.5688V9.51848ZM20.2482 9.51848V10.5185H21.2482V9.51848H20.2482ZM20.2482 3.93639H21.2482V2.93639H20.2482V3.93639ZM3.45725 3.93639V2.93639H2.45725V3.93639H3.45725ZM3.45725 7.24099H2.45725V8.24099H3.45725V7.24099ZM5.42215 7.24099H6.42215V6.24099H5.42215V7.24099ZM5.42215 26.3987V27.3987H6.42215V26.3987H5.42215ZM2.09045 9.25054V1.92683H0.0904465V9.25054H2.09045ZM1.09045 2.92683H22.615V0.926831H1.09045V2.92683ZM21.615 1.92683V11.528H23.615V1.92683H21.615ZM22.615 10.528H15.5146V12.528H22.615V10.528ZM16.5146 11.528V9.25054H14.5146V11.528H16.5146ZM15.5146 8.25054H11.6741V10.2505H15.5146V8.25054ZM10.6741 9.25054V13.225H12.6741V9.25054H10.6741ZM11.6741 14.225H19.2657V12.225H11.6741V14.225ZM18.2657 13.225V19.8342H20.2657V13.225H18.2657ZM19.2657 18.8342H11.6741V20.8342H19.2657V18.8342ZM10.6741 19.8342V24.3892H12.6741V19.8342H10.6741ZM11.6741 25.3892H14.2642V23.3892H11.6741V25.3892ZM13.2642 24.3892V31.7129H15.2642V24.3892H13.2642ZM14.2642 30.7129H1.09045V32.7129H14.2642V30.7129ZM2.09045 31.7129V24.3892H0.0904465V31.7129H2.09045ZM1.09045 25.3892H3.05534V23.3892H1.09045V25.3892ZM4.05534 24.3892V9.25054H2.05534V24.3892H4.05534ZM3.05534 8.25054H1.09045V10.2505H3.05534V8.25054ZM2.45725 26.3987V29.7033H4.45725V26.3987H2.45725ZM3.45725 30.7033H11.8974V28.7033H3.45725V30.7033ZM12.8974 29.7033V26.3987H10.8974V29.7033H12.8974ZM11.8974 25.3987H9.30729V27.3987H11.8974V25.3987ZM10.3073 26.3987V17.8246H8.30729V26.3987H10.3073ZM9.30729 18.8246H16.8989V16.8246H9.30729V18.8246ZM17.8989 17.8246V15.2345H15.8989V17.8246H17.8989ZM16.8989 14.2345H9.30729V16.2345H16.8989V14.2345ZM10.3073 15.2345V7.24099H8.30729V15.2345H10.3073ZM9.30729 8.24099H17.5688V6.24099H9.30729V8.24099ZM16.5688 7.24099V9.51848H18.5688V7.24099H16.5688ZM17.5688 10.5185H20.2482V8.51848H17.5688V10.5185ZM21.2482 9.51848V3.93639H19.2482V9.51848H21.2482ZM20.2482 2.93639H3.45725V4.93639H20.2482V2.93639ZM2.45725 3.93639V7.24099H4.45725V3.93639H2.45725ZM3.45725 8.24099H5.42215V6.24099H3.45725V8.24099ZM4.42215 7.24099V26.3987H6.42215V7.24099H4.42215ZM5.42215 25.3987H3.45725V27.3987H5.42215V25.3987ZM23.0748 31.7129H22.0748V32.7129H23.0748V31.7129ZM23.0748 24.3892V23.3892H22.0748V24.3892H23.0748ZM25.3523 24.3892V25.3892H26.0659L26.298 24.7144L25.3523 24.3892ZM33.0779 1.92683V0.926831H32.3644L32.1323 1.60159L33.0779 1.92683ZM41.0715 1.92683L42.0255 1.62715L41.8056 0.926831H41.0715V1.92683ZM48.1273 24.3892L47.1732 24.6889L47.3932 25.3892H48.1273V24.3892ZM50.3155 24.3892H51.3155V23.3892H50.3155V24.3892ZM50.3155 31.7129V32.7129H51.3155V31.7129H50.3155ZM38.3028 31.7129H37.3028V32.7129H38.3028V31.7129ZM38.3028 24.3892V23.3892H37.3028V24.3892H38.3028ZM40.1784 24.3892V25.3892H41.5368L41.1332 24.0921L40.1784 24.3892ZM39.5532 22.3796L40.508 22.0826L40.2893 21.3796H39.5532V22.3796ZM33.7031 22.3796V21.3796H32.967L32.7483 22.0826L33.7031 22.3796ZM33.0779 24.3892L32.1231 24.0921L31.7196 25.3892H33.0779V24.3892ZM34.8642 24.3892H35.8642V23.3892H34.8642V24.3892ZM34.8642 31.7129V32.7129H35.8642V31.7129H34.8642ZM25.4416 29.7033H24.4416V30.7033H25.4416V29.7033ZM32.81 29.7033V30.7033H33.81V29.7033H32.81ZM32.81 26.3987H33.81V25.3987H32.81V26.3987ZM30.5325 26.3987L29.5881 26.0699L29.1255 27.3987H30.5325V26.3987ZM32.6314 20.3701V19.3701H31.9207L31.687 20.0413L32.6314 20.3701ZM40.6696 20.3701L41.6224 20.0666L41.4006 19.3701H40.6696V20.3701ZM42.5898 26.3987V27.3987H43.9579L43.5427 26.0952L42.5898 26.3987ZM40.357 26.3987V25.3987H39.357V26.3987H40.357ZM40.357 29.7033H39.357V30.7033H40.357V29.7033ZM47.77 29.7033V30.7033H48.77V29.7033H47.77ZM47.77 26.3987H48.77V25.3987H47.77V26.3987ZM46.341 26.3987L45.3875 26.7001L45.6083 27.3987H46.341V26.3987ZM39.2406 3.93639L40.1941 3.63498L39.9732 2.93639H39.2406V3.93639ZM34.8196 3.93639V2.93639H34.106L33.8739 3.61115L34.8196 3.93639ZM27.0939 26.3987V27.3987H27.8075L28.0396 26.724L27.0939 26.3987ZM25.4416 26.3987V25.3987H24.4416V26.3987H25.4416ZM33.4352 18.0479L32.49 17.7214L32.0318 19.0479H33.4352V18.0479ZM36.8291 8.22344L37.782 7.92023L36.8681 5.04792L35.8839 7.89692L36.8291 8.22344ZM39.9551 18.0479V19.0479H41.3227L40.908 17.7447L39.9551 18.0479ZM35.6234 16.4403L34.6848 16.0952L34.1903 17.4403H35.6234V16.4403ZM37.6776 16.4403V17.4403H39.033L38.6331 16.1452L37.6776 16.4403ZM36.7398 13.4036L37.6953 13.1085L36.8222 10.2815L35.8012 13.0586L36.7398 13.4036ZM24.0748 31.7129V24.3892H22.0748V31.7129H24.0748ZM23.0748 25.3892H25.3523V23.3892H23.0748V25.3892ZM26.298 24.7144L34.0236 2.25207L32.1323 1.60159L24.4067 24.0639L26.298 24.7144ZM33.0779 2.92683H41.0715V0.926831H33.0779V2.92683ZM40.1175 2.22651L47.1732 24.6889L49.0813 24.0895L42.0255 1.62715L40.1175 2.22651ZM48.1273 25.3892H50.3155V23.3892H48.1273V25.3892ZM49.3155 24.3892V31.7129H51.3155V24.3892H49.3155ZM50.3155 30.7129H38.3028V32.7129H50.3155V30.7129ZM39.3028 31.7129V24.3892H37.3028V31.7129H39.3028ZM38.3028 25.3892H40.1784V23.3892H38.3028V25.3892ZM41.1332 24.0921L40.508 22.0826L38.5983 22.6767L39.2235 24.6862L41.1332 24.0921ZM39.5532 21.3796H33.7031V23.3796H39.5532V21.3796ZM32.7483 22.0826L32.1231 24.0921L34.0328 24.6862L34.658 22.6767L32.7483 22.0826ZM33.0779 25.3892H34.8642V23.3892H33.0779V25.3892ZM33.8642 24.3892V31.7129H35.8642V24.3892H33.8642ZM34.8642 30.7129H23.0748V32.7129H34.8642V30.7129ZM25.4416 30.7033H32.81V28.7033H25.4416V30.7033ZM33.81 29.7033V26.3987H31.81V29.7033H33.81ZM32.81 25.3987H30.5325V27.3987H32.81V25.3987ZM31.4769 26.7275L33.5758 20.6989L31.687 20.0413L29.5881 26.0699L31.4769 26.7275ZM32.6314 21.3701H40.6696V19.3701H32.6314V21.3701ZM39.7168 20.6736L41.637 26.7022L43.5427 26.0952L41.6224 20.0666L39.7168 20.6736ZM42.5898 25.3987H40.357V27.3987H42.5898V25.3987ZM39.357 26.3987V29.7033H41.357V26.3987H39.357ZM40.357 30.7033H47.77V28.7033H40.357V30.7033ZM48.77 29.7033V26.3987H46.77V29.7033H48.77ZM47.77 25.3987H46.341V27.3987H47.77V25.3987ZM47.2945 26.0973L40.1941 3.63498L38.2871 4.23779L45.3875 26.7001L47.2945 26.0973ZM39.2406 2.93639H34.8196V4.93639H39.2406V2.93639ZM33.8739 3.61115L26.1483 26.0735L28.0396 26.724L35.7652 4.26162L33.8739 3.61115ZM27.0939 25.3987H25.4416V27.3987H27.0939V25.3987ZM24.4416 26.3987V29.7033H26.4416V26.3987H24.4416ZM34.3804 18.3744L37.7743 8.54996L35.8839 7.89692L32.49 17.7214L34.3804 18.3744ZM35.8762 8.52664L39.0022 18.3511L40.908 17.7447L37.782 7.92023L35.8762 8.52664ZM39.9551 17.0479H33.4352V19.0479H39.9551V17.0479ZM35.6234 17.4403H37.6776V15.4403H35.6234V17.4403ZM38.6331 16.1452L37.6953 13.1085L35.7843 13.6987L36.7221 16.7354L38.6331 16.1452ZM35.8012 13.0586L34.6848 16.0952L36.562 16.7853L37.6784 13.7487L35.8012 13.0586ZM52.2887 9.25054H51.2887V10.2505H52.2887V9.25054ZM52.2887 1.92683V0.926831H51.2887V1.92683H52.2887ZM65.5071 1.92683H66.5071V0.926831H65.5071V1.92683ZM65.5071 9.25054V10.2505H66.5071V9.25054H65.5071ZM62.8724 9.25054V8.25054H61.8724V9.25054H62.8724ZM62.8724 24.3892H61.8724V25.3892H62.8724V24.3892ZM66.4449 24.3892V25.3892H67.4449V24.3892H66.4449ZM66.4449 20.7273V19.7273H65.4449V20.7273H66.4449ZM73.8133 20.7273H74.8133V19.7273H73.8133V20.7273ZM73.8133 31.7129V32.7129H74.8133V31.7129H73.8133ZM52.2887 31.7129H51.2887V32.7129H52.2887V31.7129ZM52.2887 24.3892V23.3892H51.2887V24.3892H52.2887ZM54.2536 24.3892V25.3892H55.2536V24.3892H54.2536ZM54.2536 9.25054H55.2536V8.25054H54.2536V9.25054ZM54.6555 26.3987V25.3987H53.6555V26.3987H54.6555ZM54.6555 29.7033H53.6555V30.7033H54.6555V29.7033ZM71.4465 29.7033V30.7033H72.4465V29.7033H71.4465ZM71.4465 22.7369H72.4465V21.7369H71.4465V22.7369ZM68.4991 22.7369V21.7369H67.4991V22.7369H68.4991ZM68.4991 26.3987V27.3987H69.4991V26.3987H68.4991ZM60.5056 26.3987H59.5056V27.3987H60.5056V26.3987ZM60.5056 7.24099V6.24099H59.5056V7.24099H60.5056ZM63.1403 7.24099V8.24099H64.1403V7.24099H63.1403ZM63.1403 3.93639H64.1403V2.93639H63.1403V3.93639ZM54.6555 3.93639V2.93639H53.6555V3.93639H54.6555ZM54.6555 7.24099H53.6555V8.24099H54.6555V7.24099ZM56.6204 7.24099H57.6204V6.24099H56.6204V7.24099ZM56.6204 26.3987V27.3987H57.6204V26.3987H56.6204ZM53.2887 9.25054V1.92683H51.2887V9.25054H53.2887ZM52.2887 2.92683H65.5071V0.926831H52.2887V2.92683ZM64.5071 1.92683V9.25054H66.5071V1.92683H64.5071ZM65.5071 8.25054H62.8724V10.2505H65.5071V8.25054ZM61.8724 9.25054V24.3892H63.8724V9.25054H61.8724ZM62.8724 25.3892H66.4449V23.3892H62.8724V25.3892ZM67.4449 24.3892V20.7273H65.4449V24.3892H67.4449ZM66.4449 21.7273H73.8133V19.7273H66.4449V21.7273ZM72.8133 20.7273V31.7129H74.8133V20.7273H72.8133ZM73.8133 30.7129H52.2887V32.7129H73.8133V30.7129ZM53.2887 31.7129V24.3892H51.2887V31.7129H53.2887ZM52.2887 25.3892H54.2536V23.3892H52.2887V25.3892ZM55.2536 24.3892V9.25054H53.2536V24.3892H55.2536ZM54.2536 8.25054H52.2887V10.2505H54.2536V8.25054ZM53.6555 26.3987V29.7033H55.6555V26.3987H53.6555ZM54.6555 30.7033H71.4465V28.7033H54.6555V30.7033ZM72.4465 29.7033V22.7369H70.4465V29.7033H72.4465ZM71.4465 21.7369H68.4991V23.7369H71.4465V21.7369ZM67.4991 22.7369V26.3987H69.4991V22.7369H67.4991ZM68.4991 25.3987H60.5056V27.3987H68.4991V25.3987ZM61.5056 26.3987V7.24099H59.5056V26.3987H61.5056ZM60.5056 8.24099H63.1403V6.24099H60.5056V8.24099ZM64.1403 7.24099V3.93639H62.1403V7.24099H64.1403ZM63.1403 2.93639H54.6555V4.93639H63.1403V2.93639ZM53.6555 3.93639V7.24099H55.6555V3.93639H53.6555ZM54.6555 8.24099H56.6204V6.24099H54.6555V8.24099ZM55.6204 7.24099V26.3987H57.6204V7.24099H55.6204ZM56.6204 25.3987H54.6555V27.3987H56.6204V25.3987ZM76.3179 9.25054H75.3179V10.2505H76.3179V9.25054ZM76.3179 1.92683V0.926831H75.3179V1.92683H76.3179ZM89.5363 1.92683H90.5363V0.926831H89.5363V1.92683ZM89.5363 9.25054V10.2505H90.5363V9.25054H89.5363ZM86.9015 9.25054V8.25054H85.9015V9.25054H86.9015ZM86.9015 24.3892H85.9015V25.3892H86.9015V24.3892ZM90.4741 24.3892V25.3892H91.4741V24.3892H90.4741ZM90.4741 20.7273V19.7273H89.4741V20.7273H90.4741ZM97.8424 20.7273H98.8424V19.7273H97.8424V20.7273ZM97.8424 31.7129V32.7129H98.8424V31.7129H97.8424ZM76.3179 31.7129H75.3179V32.7129H76.3179V31.7129ZM76.3179 24.3892V23.3892H75.3179V24.3892H76.3179ZM78.2828 24.3892V25.3892H79.2828V24.3892H78.2828ZM78.2828 9.25054H79.2828V8.25054H78.2828V9.25054ZM78.6847 26.3987V25.3987H77.6847V26.3987H78.6847ZM78.6847 29.7033H77.6847V30.7033H78.6847V29.7033ZM95.4756 29.7033V30.7033H96.4756V29.7033H95.4756ZM95.4756 22.7369H96.4756V21.7369H95.4756V22.7369ZM92.5283 22.7369V21.7369H91.5283V22.7369H92.5283ZM92.5283 26.3987V27.3987H93.5283V26.3987H92.5283ZM84.5347 26.3987H83.5347V27.3987H84.5347V26.3987ZM84.5347 7.24099V6.24099H83.5347V7.24099H84.5347ZM87.1695 7.24099V8.24099H88.1695V7.24099H87.1695ZM87.1695 3.93639H88.1695V2.93639H87.1695V3.93639ZM78.6847 3.93639V2.93639H77.6847V3.93639H78.6847ZM78.6847 7.24099H77.6847V8.24099H78.6847V7.24099ZM80.6496 7.24099H81.6496V6.24099H80.6496V7.24099ZM80.6496 26.3987V27.3987H81.6496V26.3987H80.6496ZM77.3179 9.25054V1.92683H75.3179V9.25054H77.3179ZM76.3179 2.92683H89.5363V0.926831H76.3179V2.92683ZM88.5363 1.92683V9.25054H90.5363V1.92683H88.5363ZM89.5363 8.25054H86.9015V10.2505H89.5363V8.25054ZM85.9015 9.25054V24.3892H87.9015V9.25054H85.9015ZM86.9015 25.3892H90.4741V23.3892H86.9015V25.3892ZM91.4741 24.3892V20.7273H89.4741V24.3892H91.4741ZM90.4741 21.7273H97.8424V19.7273H90.4741V21.7273ZM96.8424 20.7273V31.7129H98.8424V20.7273H96.8424ZM97.8424 30.7129H76.3179V32.7129H97.8424V30.7129ZM77.3179 31.7129V24.3892H75.3179V31.7129H77.3179ZM76.3179 25.3892H78.2828V23.3892H76.3179V25.3892ZM79.2828 24.3892V9.25054H77.2828V24.3892H79.2828ZM78.2828 8.25054H76.3179V10.2505H78.2828V8.25054ZM77.6847 26.3987V29.7033H79.6847V26.3987H77.6847ZM78.6847 30.7033H95.4756V28.7033H78.6847V30.7033ZM96.4756 29.7033V22.7369H94.4756V29.7033H96.4756ZM95.4756 21.7369H92.5283V23.7369H95.4756V21.7369ZM91.5283 22.7369V26.3987H93.5283V22.7369H91.5283ZM92.5283 25.3987H84.5347V27.3987H92.5283V25.3987ZM85.5347 26.3987V7.24099H83.5347V26.3987H85.5347ZM84.5347 8.24099H87.1695V6.24099H84.5347V8.24099ZM88.1695 7.24099V3.93639H86.1695V7.24099H88.1695ZM87.1695 2.93639H78.6847V4.93639H87.1695V2.93639ZM77.6847 3.93639V7.24099H79.6847V3.93639H77.6847ZM78.6847 8.24099H80.6496V6.24099H78.6847V8.24099ZM79.6496 7.24099V26.3987H81.6496V7.24099H79.6496ZM80.6496 25.3987H78.6847V27.3987H80.6496V25.3987Z" fill="#55281A" mask="url(#path-1-outside-1_1313_6021)"/>
</svg>
