<svg width="216" height="216" viewBox="0 0 216 216" fill="none" xmlns="http://www.w3.org/2000/svg">
<path d="M107.966 213.722C166.373 213.722 213.722 166.373 213.722 107.966C213.722 49.5593 166.373 2.21094 107.966 2.21094C49.5593 2.21094 2.21094 49.5593 2.21094 107.966C2.21094 166.373 49.5593 213.722 107.966 213.722Z" fill="white"/>
<path d="M107.967 215.941C48.4308 215.941 0 167.502 0 107.967C0 48.4308 48.4308 0 107.967 0C167.502 0 215.941 48.4308 215.941 107.967C215.941 167.502 167.51 215.933 107.967 215.933V215.941ZM107.967 4.43867C50.8803 4.43867 4.43867 50.8803 4.43867 107.967C4.43867 165.053 50.8803 211.503 107.967 211.503C165.053 211.503 211.503 165.061 211.503 107.967C211.503 50.8721 165.053 4.43867 107.967 4.43867Z" fill="#3AA7CB"/>
<path d="M161.15 150.002C171.523 136.9 177.162 119.885 175.469 101.514C172.551 69.9747 147.16 44.0661 115.678 40.5973C74.7849 36.0847 40.1797 67.9856 40.1797 107.966C40.1797 123.863 45.6623 138.478 54.8273 150.043C57.6796 153.635 62.036 155.715 66.6227 155.715H149.322C153.925 155.715 158.289 153.619 161.15 150.002Z" fill="#3AA7CB"/>
<path d="M116.992 147.931H91.3464L100.495 145.325C102.953 144.618 103.339 139.538 103.273 137.812V117.6C103.273 115.857 102.657 114.559 101.859 113.605C100.248 119.186 95.2097 123.157 89.3326 123.157C82.0663 123.157 76.1481 117.271 76.0988 110.013C71.9313 107.654 69.375 103.363 69.375 98.5877C69.375 97.2643 69.712 96.0478 70.0326 95.0367C69.712 94.0257 69.375 92.8092 69.375 91.4776C69.375 85.9785 72.7698 81.244 77.9482 79.3123C77.6523 78.2602 77.4386 77.1916 77.4386 76.0244C77.4386 67.8211 84.113 61.1549 92.3163 61.1549C95.7029 61.1549 98.9333 62.2974 101.572 64.4017C104.087 61.1384 107.811 59.2314 111.814 59.2314C116.935 59.2314 121.513 62.2645 123.667 66.9251C125.598 65.8895 127.513 65.3716 129.478 65.3716C136.777 65.3716 142.72 71.3063 142.72 78.6054C142.72 80.5124 142.219 82.403 141.183 84.351C144.569 86.8663 146.55 90.6638 146.55 94.7326C146.55 99.3274 144.134 103.52 140.164 105.928C140.583 107.227 140.788 108.558 140.788 109.906C140.788 117.205 134.845 123.14 127.554 123.14C123.782 123.14 120.222 121.521 117.699 118.669C113.071 118.701 112.586 121.611 112.553 121.948V136.399C112.562 142.251 117.469 145.309 117.674 145.44L121.727 147.906H116.992V147.931ZM104.399 145.276H113.425C111.715 143.394 109.898 140.443 109.898 136.423V121.833C110.013 120.608 110.688 118.874 112.34 117.616C112.003 117.641 111.304 117.485 110.786 117.057C109.767 116.219 109.29 114.6 109.331 112.043C108.707 113.013 107.926 113.597 107.005 113.786C106.364 113.917 105.698 113.86 105.016 113.58C105.632 114.797 105.953 116.162 105.953 117.608V137.771C105.969 138.363 106.06 142.424 104.399 145.276ZM118.496 115.446L119.277 116.425C121.316 119.022 124.332 120.502 127.563 120.502C133.39 120.502 138.133 115.751 138.133 109.923C138.133 108.525 137.854 107.153 137.311 105.837L136.835 104.687L137.952 104.136C141.618 102.319 143.895 98.7192 143.895 94.749C143.895 91.1981 141.964 87.8938 138.733 85.9046L137.591 85.2059L138.298 84.0716C139.498 82.1317 140.057 80.4055 140.057 78.6219C140.057 72.7941 135.306 68.0512 129.478 68.0512C127.579 68.0512 125.705 68.6924 123.732 70.0076L122.269 70.9939L121.735 69.3171C120.305 64.8866 116.318 61.9111 111.814 61.9111C108.246 61.9111 104.934 63.851 102.953 67.106L102.081 68.5362L100.89 67.3608C98.5798 65.0839 95.5385 63.8345 92.3328 63.8345C85.6008 63.8345 80.1264 69.3171 80.1264 76.0409C80.1264 77.3067 80.4881 78.5314 80.8991 79.7891L81.3347 81.1207L79.9867 81.4823C75.2521 82.74 72.0711 86.7676 72.0711 91.494C72.0711 92.5872 72.4163 93.6805 72.7204 94.6504L72.852 95.0532L72.7204 95.4559C72.4163 96.4259 72.0711 97.5109 72.0711 98.6041C72.0711 102.665 74.3973 106.298 78.1619 108.09L78.951 108.46L78.8031 109.98C78.7948 115.759 83.5294 120.51 89.3655 120.51C94.6425 120.51 99.0812 116.449 99.6895 111.073L99.747 110.547L100.857 109.775L100.816 109.717L101.736 108.871C102.788 107.917 103.479 107.046 103.939 106.117L104.728 104.514L106.035 105.722C107.063 106.676 108.271 107.416 109.611 107.917L111.115 108.386C112.34 108.64 113.351 108.69 114.699 108.32C114.954 108.246 115.208 108.18 115.471 108.114L117.189 107.72L117 110.038C117.009 111.452 117.346 112.956 118.028 114.419L118.521 115.471L118.496 115.446ZM112.027 111.205C111.904 113.276 112.134 114.255 112.307 114.69C112.825 114.386 113.638 114.065 114.937 113.844C114.649 112.948 114.46 112.035 114.37 111.123C113.663 111.263 112.849 111.271 112.019 111.197L112.027 111.205ZM104.44 109.914C105.419 110.934 106.175 111.23 106.463 111.18C106.734 111.123 107.112 110.745 107.465 109.89C106.758 109.545 106.084 109.142 105.452 108.69C105.156 109.101 104.819 109.512 104.44 109.914Z" fill="white"/>
<path d="M126.693 147.931H101.047V145.267H113.146C111.116 142.752 110.269 139.456 110.22 139.259L112.801 138.609C113.212 140.212 114.848 144.552 117.536 145.325L126.684 147.931H126.693Z" fill="white"/>
<path d="M65.4219 188.899V174.604H70.7894V184.813H76.6254V188.899H65.4219Z" fill="#233D4D"/>
<path d="M77.8516 188.899V174.604H89.2853V178.468H83.2273V179.758H88.4468V183.753H83.2273V185.044H89.2853V188.907H77.8516V188.899Z" fill="#233D4D"/>
<path d="M90.1719 188.899L95.6791 174.604H101.252L106.759 188.899H101.17L100.151 186.235H96.797L95.7778 188.899H90.1883H90.1719ZM97.3642 182.578H99.5424L98.4574 179.849L97.3724 182.578H97.3642Z" fill="#233D4D"/>
<path d="M116.178 189.12C113.482 189.12 111.427 188.496 109.997 187.254C108.567 186.013 107.852 184.18 107.852 181.747C107.852 179.314 108.6 177.489 110.096 176.24C111.592 174.999 113.745 174.374 116.556 174.374C117.477 174.374 118.299 174.423 119.03 174.522C119.762 174.621 120.469 174.785 121.151 175.023V179.594C120.469 179.331 119.778 179.15 119.08 179.051C118.373 178.952 117.658 178.903 116.918 178.903C115.882 178.903 115.027 179.109 114.353 179.511C113.679 179.922 113.342 180.662 113.342 181.739C113.342 182.816 113.581 183.564 114.066 183.966C114.551 184.369 115.241 184.575 116.137 184.575C116.614 184.575 117.058 184.525 117.469 184.419V183.555H115.093V180.317H121.907V187.706C121.299 188.076 120.526 188.405 119.581 188.685C118.636 188.964 117.502 189.104 116.186 189.104L116.178 189.12Z" fill="#233D4D"/>
<path d="M130.722 189.121C129.373 189.121 128.165 188.899 127.08 188.455C126.003 188.011 125.149 187.353 124.516 186.482C123.891 185.611 123.57 184.534 123.57 183.26V174.604H128.938V182.569C128.938 183.901 129.53 184.567 130.713 184.567C131.897 184.567 132.489 183.901 132.489 182.569V174.604H137.856V183.26C137.856 184.534 137.544 185.603 136.911 186.482C136.278 187.353 135.431 188.011 134.346 188.455C133.27 188.899 132.053 189.121 130.705 189.121H130.722Z" fill="#233D4D"/>
<path d="M139.754 188.899V174.604H151.179V178.468H145.121V179.758H150.341V183.753H145.121V185.044H151.179V188.907H139.754V188.899Z" fill="#233D4D"/>
<path d="M64.9454 44.2965L58.1641 30.8079L65.7427 26.9939C66.9017 26.4103 67.9785 26.1637 68.973 26.2624C69.9676 26.361 70.8471 26.7062 71.6198 27.3227C72.3925 27.931 73.0172 28.7201 73.5021 29.6818C73.9953 30.6599 74.2255 31.6463 74.1926 32.6491C74.1597 33.6519 73.8802 34.5808 73.3377 35.4274C72.7952 36.2823 71.9897 36.9727 70.9293 37.507L68.4963 38.7317L70.017 41.7484L64.9454 44.2965ZM66.5071 34.7698L67.7401 34.1451C68.1429 33.9396 68.3977 33.6766 68.4963 33.3478C68.5949 33.019 68.5456 32.6573 68.3483 32.271C67.9127 31.4079 67.3126 31.1696 66.54 31.5477L65.2166 32.2135L66.4989 34.7698H66.5071Z" fill="#151716"/>
<path d="M78.1889 37.7528L73.8242 23.3025L81.9453 20.8447C83.1865 20.4666 84.2798 20.3927 85.2332 20.6228C86.1867 20.853 86.9758 21.3133 87.6252 22.0037C88.2663 22.7024 88.7431 23.5655 89.0554 24.593C89.3513 25.5629 89.3596 26.4917 89.0801 27.3795C88.8006 28.2672 88.3814 29.0481 87.8225 29.7467C88.0197 29.8043 88.1841 29.8783 88.3074 29.9769C88.439 30.0755 88.5458 30.1824 88.6527 30.2975L91.546 33.7087L85.8908 35.4184L83.5071 32.6401C83.3756 32.4839 83.2605 32.3853 83.1454 32.3442C83.0304 32.3031 82.8988 32.3113 82.7344 32.3606L82.5125 32.4264L83.6222 36.1088L78.1889 37.7528ZM81.222 28.1932L82.5454 27.7904C83.4249 27.5274 83.7537 27.0178 83.5318 26.2698C83.4085 25.8506 83.2112 25.5793 82.9564 25.4643C82.7016 25.3492 82.3646 25.3492 81.9453 25.4725L80.5315 25.8999L81.222 28.1932Z" fill="#151716"/>
<path d="M92.8364 33.5526L90.8555 18.5845L102.823 16.998L103.358 21.0422L97.0121 21.8806L97.1929 23.2286L102.651 22.5053L103.202 26.6891L97.7436 27.4125L97.9245 28.7605L104.27 27.9221L104.804 31.9662L92.8364 33.5526Z" fill="#151716"/>
<path d="M105.567 31.761L106.249 16.6777L111.633 16.9161L114.419 23.2864L117.74 17.1956L123.124 17.434L122.45 32.5172L116.779 32.2624L117.017 26.9689L115.562 29.6239L112.685 29.4923L111.469 26.7141L111.23 32.0076L105.559 31.7528L105.567 31.761Z" fill="#151716"/>
<path d="M123.98 33.1093L126.857 18.2891L132.43 19.3741L129.553 34.1943L123.98 33.1093Z" fill="#151716"/>
<path d="M131.195 34.4402L135.79 20.0557L147.29 23.7299L146.048 27.6178L139.949 25.6698L139.538 26.9685L144.783 28.6453L143.5 32.6648L138.256 30.9879L137.845 32.2867L143.944 34.2348L142.703 38.1227L131.204 34.4485L131.195 34.4402Z" fill="#151716"/>
<path d="M143.477 38.4026L150.332 24.9551L157.894 28.8101C159.053 29.402 159.891 30.1089 160.417 30.9308C160.944 31.7528 161.198 32.6406 161.182 33.5858C161.165 34.5311 160.911 35.4846 160.417 36.4463C159.957 37.3505 159.316 38.0245 158.502 38.4684C157.689 38.9122 156.842 39.1917 155.962 39.2986C156.069 39.4712 156.127 39.6438 156.151 39.8C156.176 39.9644 156.184 40.1205 156.176 40.2685L155.897 44.7318L150.636 42.0522L150.841 38.3944C150.858 38.1889 150.841 38.0409 150.784 37.9341C150.735 37.8272 150.628 37.7368 150.48 37.6628L150.274 37.556L148.532 40.9836L143.477 38.4108V38.4026ZM152.296 33.6023L153.529 34.227C154.351 34.6462 154.935 34.5064 155.297 33.8078C155.494 33.4214 155.543 33.0926 155.445 32.8296C155.346 32.5666 155.091 32.3364 154.705 32.1391L153.39 31.4651L152.305 33.594L152.296 33.6023Z" fill="#151716"/>
</svg>
