<svg width="216" height="216" viewBox="0 0 216 216" fill="none" xmlns="http://www.w3.org/2000/svg">
<path d="M107.966 213.722C166.373 213.722 213.722 166.373 213.722 107.966C213.722 49.5593 166.373 2.21094 107.966 2.21094C49.5593 2.21094 2.21094 49.5593 2.21094 107.966C2.21094 166.373 49.5593 213.722 107.966 213.722Z" fill="white"/>
<path d="M107.975 215.941C48.4308 215.941 0 167.502 0 107.967C0 48.4308 48.4308 0 107.975 0C167.519 0 215.941 48.4308 215.941 107.967C215.941 167.502 167.51 215.933 107.975 215.933V215.941ZM107.975 4.43867C50.8885 4.43867 4.43867 50.8803 4.43867 107.967C4.43867 165.053 50.8885 211.503 107.975 211.503C165.061 211.503 211.503 165.061 211.503 107.967C211.503 50.8721 165.061 4.43867 107.975 4.43867Z" fill="#3AA7CB"/>
<path d="M161.142 150.002C171.515 136.9 177.154 119.885 175.461 101.514C172.543 69.9747 147.152 44.0661 115.67 40.5973C74.7771 36.0847 40.1719 67.9856 40.1719 107.966C40.1719 123.863 45.6545 138.478 54.8195 150.043C57.6717 153.635 62.0282 155.715 66.6148 155.715H149.314C153.917 155.715 158.282 153.619 161.142 150.002Z" fill="#3AA7CB"/>
<path d="M142.795 135.774C123.29 129.502 92.6465 129.502 73.141 135.774L71.793 131.557C92.1369 124.998 123.816 125.006 144.152 131.557L142.803 135.774H142.795Z" fill="white"/>
<path d="M107.967 95.7437L106.939 94.8231C102.106 90.516 99.3359 84.3676 99.3359 77.9397C99.3359 71.5119 102.106 65.3635 106.939 61.0564L107.967 60.1357L108.994 61.0564C113.827 65.3471 116.597 71.5037 116.597 77.9397C116.597 84.3758 113.827 90.5324 108.994 94.8231L107.967 95.7437ZM107.967 64.3689C104.432 68.002 102.435 72.8764 102.435 77.9397C102.435 83.0031 104.432 87.8774 107.967 91.5106C111.501 87.8774 113.499 83.0113 113.499 77.9397C113.499 72.8681 111.501 68.002 107.967 64.3689Z" fill="white"/>
<path d="M118.917 96.1137C117.938 96.1137 116.96 96.0397 115.982 95.8918L114.609 95.6863L114.659 94.3054C114.856 88.8228 117.379 83.6854 121.58 80.2085C125.772 76.7315 131.287 75.2273 136.712 76.0575L138.085 76.263L138.036 77.6439C137.838 83.1265 135.315 88.2638 131.115 91.7326C127.679 94.5848 123.347 96.1137 118.917 96.1137ZM117.873 92.9738C121.958 93.2615 125.977 91.9463 129.134 89.3406C132.29 86.735 134.304 83.0114 134.814 78.9591C130.769 78.696 126.692 79.9783 123.552 82.5922C120.396 85.1979 118.382 88.9214 117.873 92.9738Z" fill="white"/>
<path d="M120.666 114.362C119.688 114.362 118.71 114.288 117.74 114.14L116.367 113.934L116.417 112.553C116.606 107.071 119.137 101.933 123.338 98.4565C127.538 94.9795 133.07 93.4835 138.47 94.3055L139.843 94.511L139.794 95.8919C139.604 101.374 137.073 106.512 132.872 109.989C129.428 112.833 125.105 114.37 120.666 114.37V114.362ZM119.63 111.23C123.691 111.501 127.735 110.202 130.891 107.597C134.048 104.991 136.062 101.268 136.571 97.2153C132.527 96.9851 128.467 98.2428 125.31 100.848C122.162 103.454 120.14 107.178 119.63 111.23Z" fill="white"/>
<path d="M111.799 128.549L110.344 96.0482L115.251 92.8672L117.174 95.8427L113.977 97.9223L115.35 128.393L111.799 128.549Z" fill="white"/>
<path d="M116.786 111.28L111.871 115.71L114.243 118.341L119.158 113.911L116.786 111.28Z" fill="white"/>
<path d="M97.0279 96.1137C92.5892 96.1137 88.2574 94.5848 84.8215 91.7326C80.6212 88.2556 78.0977 83.1183 77.9087 77.6439L77.8594 76.263L79.2321 76.0575C84.6489 75.2273 90.1726 76.7315 94.3647 80.2085C98.5649 83.6854 101.088 88.8228 101.286 94.3054L101.335 95.6863L99.9623 95.8918C98.9842 96.0397 98.006 96.1137 97.0279 96.1137ZM81.1226 78.9673C81.6322 83.0114 83.6543 86.735 86.7942 89.3488C89.9424 91.9627 93.9537 93.2368 98.0635 92.982C97.5539 88.9296 95.5319 85.2061 92.3837 82.6004C89.2355 79.9948 85.175 78.7207 81.1226 78.9673Z" fill="white"/>
<path d="M95.27 114.362C90.8314 114.362 86.516 112.833 83.0637 109.981C78.8634 106.512 76.3482 101.367 76.1509 95.8841L76.1016 94.5032L77.4743 94.2977C82.8829 93.4757 88.4065 94.9717 92.6068 98.4486C96.8154 101.926 99.3388 107.071 99.5197 112.546L99.5608 113.926L98.2045 114.132C97.2346 114.28 96.2564 114.354 95.2783 114.354L95.27 114.362ZM79.3648 97.2075C79.8744 101.26 81.8965 104.983 85.0364 107.589C88.1928 110.195 92.2287 111.461 96.2975 111.222C95.7961 107.17 93.774 103.446 90.6259 100.841C87.4777 98.2349 83.3925 96.9362 79.3648 97.2075Z" fill="white"/>
<path d="M104.922 128.508L101.371 128.442L101.996 97.9388L98.7656 95.8427L100.689 92.8672L105.58 96.0318L104.922 128.508Z" fill="white"/>
<path d="M102.486 119.022L96.7812 113.926L99.1403 111.279L104.837 116.367L102.486 119.022Z" fill="white"/>
<path d="M84.8759 32.6079L81.9414 16.2752L91.1229 14.6313C92.5285 14.3765 93.7368 14.4587 94.756 14.8696C95.7753 15.2806 96.589 15.93 97.2137 16.8095C97.8302 17.689 98.2494 18.7165 98.4549 19.8837C98.6686 21.0673 98.6029 22.1852 98.2576 23.2291C97.9124 24.2731 97.3206 25.1608 96.4822 25.8923C95.6437 26.6157 94.5834 27.1006 93.3011 27.3308L90.3584 27.8569L91.016 31.5064L84.8759 32.6079ZM89.5036 23.0565L90.9996 22.7853C91.4928 22.6949 91.838 22.4976 92.0435 22.177C92.249 21.8647 92.3065 21.4701 92.2243 20.9934C92.0353 19.9412 91.4763 19.5056 90.5475 19.67L88.9529 19.9577L89.5036 23.0483V23.0565Z" fill="#151716"/>
<path d="M100.738 29.8218L101.01 13.2344L110.331 13.3823C111.753 13.407 112.928 13.6947 113.849 14.2536C114.769 14.8126 115.443 15.5606 115.887 16.5058C116.331 17.4511 116.537 18.5115 116.52 19.6951C116.504 20.813 116.2 21.7829 115.608 22.6213C115.016 23.4515 114.317 24.1338 113.504 24.6763C113.693 24.7996 113.832 24.9311 113.931 25.079C114.03 25.227 114.112 25.375 114.178 25.5311L116.06 30.0684L109.566 29.9616L108.005 26.2545C107.922 26.049 107.832 25.901 107.725 25.827C107.626 25.7448 107.478 25.7038 107.289 25.7038H107.035L106.969 29.9205L100.738 29.8218ZM107.117 20.8294L108.637 20.8541C109.649 20.8705 110.166 20.4513 110.183 19.5882C110.183 19.1115 110.084 18.7663 109.854 18.5526C109.624 18.3471 109.27 18.232 108.794 18.2238L107.174 18.1991L107.133 20.8294H107.117Z" fill="#151716"/>
<path d="M125.549 32.0575C123.716 31.6711 122.212 31.0711 121.029 30.2491C119.845 29.4272 119.039 28.3339 118.612 26.9612C118.176 25.5885 118.176 23.887 118.612 21.8568C119.039 19.81 119.73 18.2483 120.675 17.1715C121.62 16.0947 122.796 15.4207 124.21 15.1494C125.615 14.8782 127.243 14.9275 129.067 15.3138C130.9 15.7002 132.405 16.3002 133.588 17.1222C134.764 17.9441 135.577 19.0292 136.005 20.3936C136.441 21.7581 136.441 23.4678 136.005 25.5145C135.577 27.5448 134.887 29.1066 133.942 30.1916C132.996 31.2766 131.821 31.9506 130.407 32.2219C129.002 32.4931 127.374 32.4438 125.549 32.0575ZM126.634 26.8955C127.522 27.0845 128.213 26.9777 128.689 26.5749C129.166 26.1721 129.528 25.383 129.783 24.2076C130.029 23.0322 130.013 22.1609 129.741 21.6019C129.462 21.043 128.878 20.6731 127.991 20.4841C127.103 20.295 126.412 20.4019 125.936 20.8046C125.459 21.2074 125.097 21.9965 124.842 23.1719C124.596 24.3473 124.612 25.2186 124.884 25.7776C125.163 26.3365 125.747 26.7064 126.634 26.8955Z" fill="#151716"/>
<path d="M155.313 40.0225C154.688 40.0225 154.162 39.7512 153.718 39.406C153.275 38.9621 153.094 38.3374 153.094 37.8114C153.094 37.1949 153.275 36.6606 153.718 36.2167C154.335 35.6002 155.313 35.4194 156.11 35.7729C156.382 35.8633 156.645 36.0359 156.817 36.2167C157.261 36.6606 157.524 37.2853 157.524 37.8114C157.524 38.3374 157.253 38.9621 156.817 39.406C156.373 39.7594 155.839 40.0225 155.313 40.0225Z" fill="#3AA7CB"/>
<path d="M167.025 168.645C166.129 167.757 166.129 166.335 166.927 165.456C167.823 164.568 169.236 164.568 170.124 165.456C171.02 166.335 171.02 167.675 170.124 168.555C169.68 168.999 169.146 169.262 168.53 169.262C167.995 169.262 167.461 168.999 167.025 168.645ZM172.344 162.883C171.365 162.176 171.275 160.754 171.99 159.776C172.787 158.888 174.209 158.708 175.188 159.505C176.067 160.212 176.256 161.634 175.459 162.612C175.007 163.146 174.39 163.409 173.766 163.409C173.239 163.409 172.787 163.228 172.344 162.875V162.883ZM177.136 156.759C176.158 156.053 175.804 154.721 176.511 153.652C177.218 152.674 178.558 152.411 179.618 153.118C180.588 153.735 180.859 155.157 180.235 156.135C179.791 156.759 179.084 157.113 178.369 157.113C177.925 157.113 177.489 157.022 177.127 156.759H177.136ZM181.303 150.192C180.235 149.658 179.889 148.236 180.424 147.175C181.048 146.107 182.372 145.671 183.44 146.287C184.509 146.904 184.944 148.236 184.336 149.304C183.983 150.101 183.177 150.455 182.38 150.455C182.026 150.455 181.673 150.364 181.311 150.192H181.303ZM184.944 143.279C183.794 142.835 183.268 141.504 183.794 140.353C184.238 139.284 185.569 138.758 186.72 139.202C187.788 139.728 188.315 140.978 187.871 142.128C187.517 142.926 186.629 143.46 185.832 143.46C185.479 143.46 185.207 143.46 184.936 143.279H184.944ZM187.871 136.095C186.72 135.651 186.005 134.41 186.449 133.251C186.802 132.1 188.051 131.475 189.202 131.837C190.353 132.191 191.068 133.432 190.624 134.673C190.353 135.561 189.465 136.177 188.495 136.177C188.315 136.177 188.051 136.177 187.871 136.087V136.095ZM190.09 128.549C188.849 128.278 188.142 127.127 188.413 125.886C188.676 124.727 189.827 124.02 191.076 124.291C192.227 124.554 193.024 125.713 192.753 126.864C192.49 127.933 191.602 128.64 190.534 128.64C190.443 128.64 190.271 128.64 190.09 128.549ZM191.594 120.921C190.443 120.74 189.556 119.68 189.728 118.439C189.909 117.198 190.978 116.4 192.211 116.573C193.361 116.663 194.249 117.814 194.159 119.055C193.986 120.116 193.008 120.921 191.939 120.921H191.586H191.594ZM192.49 113.203C191.241 113.113 190.271 112.134 190.361 110.893C190.361 109.652 191.43 108.674 192.663 108.764C193.814 108.764 194.792 109.833 194.792 111.066C194.701 112.225 193.723 113.195 192.572 113.195H192.482L192.49 113.203ZM190.271 103.273C190.172 102.123 191.15 101.054 192.392 100.972C193.542 100.882 194.611 101.851 194.701 103.01C194.792 104.252 193.805 105.312 192.572 105.402H192.392C191.241 105.402 190.353 104.515 190.271 103.273ZM189.465 95.7277C189.293 94.577 190.09 93.4262 191.331 93.2454C192.581 93.0645 193.731 93.8619 193.904 95.1113H193.814C194.085 96.3524 193.197 97.4128 192.038 97.5936C191.865 97.684 191.775 97.684 191.685 97.684C190.624 97.684 189.646 96.8867 189.465 95.7277ZM188.051 88.2806H187.953C187.69 87.1299 188.405 85.9791 189.646 85.6174C190.797 85.3462 192.038 86.0613 192.309 87.3025C192.581 88.4533 191.865 89.604 190.715 89.9657H190.18C189.21 89.9657 188.315 89.3492 188.06 88.2806H188.051ZM185.832 81.0062C185.479 79.8472 186.095 78.6142 187.246 78.2525C188.405 77.8087 189.646 78.4334 190.09 79.5841C190.443 80.7349 189.819 81.9761 188.668 82.4199C188.405 82.5104 188.224 82.5104 187.961 82.5104C187.082 82.5104 186.194 81.9761 185.84 81.0062H185.832ZM183.079 73.9947C182.552 72.8357 183.079 71.6027 184.147 71.0685C185.298 70.5342 186.629 71.0685 187.164 72.137C187.608 73.2878 187.164 74.6194 186.013 75.0633C185.742 75.2441 185.388 75.3345 185.133 75.3345C184.238 75.3345 183.44 74.8002 183.087 74.0029L183.079 73.9947ZM179.626 67.2545C179.002 66.1859 179.355 64.8625 180.506 64.2378C181.484 63.6214 182.906 63.9666 183.432 65.0352H183.522C184.057 66.1037 183.703 67.4271 182.643 68.0518C182.289 68.2326 181.936 68.3148 181.574 68.3148C180.777 68.3148 180.07 67.9614 179.626 67.2463V67.2545ZM175.541 60.8677C174.834 59.7992 175.097 58.4758 176.158 57.7607C177.136 57.0538 178.467 57.3168 179.182 58.295C179.889 59.2731 179.626 60.6869 178.648 61.402C178.295 61.6651 177.851 61.7555 177.407 61.7555C176.7 61.7555 175.985 61.4924 175.541 60.876V60.8677ZM170.922 54.8344C170.124 53.8563 170.305 52.5329 171.193 51.6452C172.072 50.9383 173.494 51.0205 174.292 51.9082V51.9986C175.097 52.8781 174.999 54.3002 174.029 55.0975C173.675 55.4509 173.133 55.6318 172.607 55.6318C171.982 55.6318 171.357 55.3687 170.913 54.8344H170.922ZM165.776 49.245C164.896 48.3573 164.896 46.9353 165.776 46.1379C166.581 45.2502 167.995 45.2502 168.883 46.0475C169.763 46.927 169.763 48.349 168.883 49.2368C168.439 49.6807 167.905 49.8533 167.28 49.8533C166.754 49.8533 166.22 49.6724 165.776 49.2368V49.245ZM160.104 44.1898C159.225 43.3925 159.036 41.9705 159.833 41.091C160.63 40.1129 161.962 39.932 162.94 40.7376C163.91 41.5349 164.009 42.8665 163.294 43.8446C162.841 44.3707 162.143 44.6419 161.518 44.6419C161.074 44.6419 160.54 44.5515 160.096 44.1981L160.104 44.1898Z" fill="#3AA7CB"/>
<path d="M162.77 174.678C162.243 174.678 161.619 174.407 161.265 173.971C160.821 173.618 160.641 172.993 160.641 172.467C160.641 172.114 160.641 171.843 160.739 171.579C160.912 171.308 161.002 171.045 161.265 170.873C161.972 170.075 163.567 169.985 164.372 170.873C164.816 171.316 165.071 171.851 165.071 172.467C165.071 172.73 164.981 172.993 164.808 173.265C164.709 173.528 164.537 173.799 164.364 173.971C163.912 174.415 163.386 174.678 162.761 174.678H162.77Z" fill="#3AA7CB"/>
<path d="M53.6607 175.032C53.036 175.032 52.51 174.851 52.0661 174.415C51.614 173.971 51.4414 173.437 51.4414 172.82C51.4414 172.294 51.614 171.76 52.0661 171.316C52.9456 170.428 54.2854 170.428 55.2554 171.316C55.6088 171.76 55.8801 172.294 55.8801 172.82C55.8801 173.445 55.6088 173.979 55.2554 174.415C54.8115 174.859 54.1868 175.032 53.6607 175.032Z" fill="#3AA7CB"/>
<path d="M46.295 169.089C45.4154 168.292 45.4976 166.87 46.295 165.982C47.1745 165.103 48.5965 165.103 49.4924 165.982C50.372 166.87 50.372 168.292 49.4924 169.18C49.0486 169.533 48.4239 169.796 47.8896 169.796C47.3635 169.796 46.7388 169.533 46.295 169.089ZM40.9768 163.147C40.1795 162.259 40.2699 160.845 41.2398 160.039C42.218 159.242 43.5496 159.423 44.3469 160.311C45.1442 161.289 44.9634 162.703 44.0756 163.5C43.6318 163.763 43.0975 163.944 42.6536 163.944C42.0371 163.944 41.3302 163.681 40.9768 163.147ZM36.0942 156.76C35.3956 155.691 35.6504 154.368 36.7189 153.653C37.6971 152.946 39.1191 153.209 39.7356 154.269C40.4425 155.247 40.1877 156.661 39.2095 157.286C38.8561 157.557 38.4122 157.73 37.9683 157.73C37.2614 157.73 36.5463 157.376 36.0942 156.752V156.76ZM31.9268 149.929C31.3103 148.861 31.6556 147.447 32.8228 146.912C33.8831 146.296 35.2147 146.649 35.8394 147.71C36.3655 148.861 36.012 150.192 34.9435 150.726C34.59 150.907 34.2366 151.08 33.8749 151.08C33.0776 151.08 32.2803 150.636 31.9268 149.929ZM28.3841 142.655C27.8498 141.586 28.3841 140.263 29.5349 139.728C30.6034 139.285 31.9268 139.819 32.4611 140.887C32.905 142.038 32.3625 143.37 31.2117 143.814C30.9487 143.994 30.6856 143.994 30.4144 143.994C29.5349 143.994 28.7376 143.551 28.3759 142.663L28.3841 142.655ZM25.4496 135.208C25.0962 134.057 25.7127 132.816 26.8717 132.372C28.0224 132.018 29.3458 132.635 29.7075 133.786C30.0609 134.936 29.4362 136.177 28.2855 136.63C28.0224 136.72 27.8416 136.72 27.5786 136.72C26.6991 136.72 25.8113 136.104 25.4579 135.216L25.4496 135.208ZM23.3207 127.489C23.0495 126.248 23.7646 125.097 24.9976 124.826C26.1565 124.555 27.3977 125.27 27.669 126.421C27.932 127.662 27.1347 128.813 25.9757 129.084C25.8031 129.174 25.6223 129.174 25.4496 129.174C24.4715 129.174 23.5838 128.467 23.3207 127.489ZM21.8987 119.508V119.598C21.7261 118.357 22.6056 117.206 23.7646 117.034C25.0058 116.943 26.1648 117.741 26.247 118.982C26.4196 120.223 25.6223 121.292 24.3811 121.464H24.1098C22.9591 121.464 21.9809 120.667 21.8905 119.508H21.8987ZM21.1918 111.518C21.1014 110.367 22.0878 109.299 23.3207 109.208C24.5619 109.208 25.6223 110.187 25.6223 111.337V111.428C25.7127 112.587 24.7427 113.647 23.4933 113.647H23.4029C22.2522 113.647 21.274 112.759 21.1836 111.518H21.1918ZM23.3207 105.847C22.17 105.847 21.1918 104.778 21.274 103.545C21.274 102.304 22.3426 101.416 23.5838 101.416C24.8249 101.507 25.7045 102.567 25.7045 103.808C25.614 104.959 24.6441 105.847 23.4029 105.847H23.3125H23.3207ZM23.9454 98.0378C22.696 97.857 21.8165 96.7062 21.9891 95.5554C22.17 94.3143 23.3207 93.5169 24.5619 93.6074C25.7127 93.7882 26.6086 94.939 26.4278 96.1801C26.2552 97.2405 25.277 98.046 24.2085 98.046H23.9454V98.0378ZM25.1866 90.3194C23.9454 90.0564 23.2385 88.8152 23.4933 87.6562C23.7646 86.4151 24.9976 85.6999 26.1648 85.9712C27.406 86.3246 28.1129 87.4754 27.8416 88.6344C27.5703 89.703 26.6908 90.4099 25.7127 90.4099C25.5401 90.4099 25.3592 90.3194 25.1866 90.3194ZM27.1347 82.7819C25.9839 82.3381 25.3592 81.0969 25.7127 79.9461C26.1648 78.7953 27.406 78.1706 28.5567 78.5241C29.7075 78.968 30.3322 80.2091 29.9787 81.3681C29.6253 82.2476 28.828 82.8723 27.8498 82.8723C27.5786 82.8723 27.406 82.8723 27.1429 82.7819H27.1347ZM29.7897 75.3266C28.7293 74.8827 28.195 73.5511 28.7293 72.4004C29.1732 71.3318 30.4966 70.8057 31.6473 71.3318C32.7159 71.8661 33.2502 73.1977 32.7159 74.258C32.3625 75.0554 31.5652 75.5896 30.7678 75.5896C30.4144 75.5896 30.1431 75.4992 29.7897 75.3266ZM33.168 68.3234C32.0994 67.7069 31.746 66.3671 32.3625 65.3067C32.9872 64.2381 34.3188 63.8025 35.3873 64.419C36.4477 65.0355 36.8011 66.3671 36.1847 67.4356C35.7408 68.1425 35.0339 68.5864 34.2284 68.5864C33.8749 68.5864 33.5297 68.496 33.168 68.3234ZM37.1546 61.5832C36.1847 60.8763 35.9134 59.4543 36.6285 58.4761C37.3354 57.4979 38.667 57.2349 39.7274 57.9418C40.7055 58.6487 40.9768 59.9803 40.2617 61.0489C39.8178 61.6654 39.1109 61.9284 38.3958 61.9284C37.9519 61.9284 37.4998 61.838 37.1464 61.575L37.1546 61.5832ZM41.7741 55.1882C40.7959 54.4813 40.7055 53.0593 41.5028 52.0811C42.3002 51.103 43.6318 51.0126 44.6099 51.8181C45.5798 52.6154 45.6703 54.0374 44.8729 54.9252C44.4291 55.4512 43.8044 55.7225 43.1961 55.7225C42.6618 55.7225 42.218 55.5416 41.7741 55.1882ZM46.9197 49.3357C46.0237 48.448 46.0237 47.0342 46.9197 46.2287C47.7992 45.3491 49.2212 45.3491 50.1089 46.2287C50.9145 47.1164 50.9145 48.5384 50.0185 49.3357C49.6651 49.7796 49.0486 49.9604 48.5143 49.9604C47.8896 49.9604 47.3635 49.7796 46.9197 49.3357ZM52.5913 43.9271C51.794 43.0394 51.9666 41.6256 52.9447 40.8201C53.8243 40.0227 55.2463 40.2036 56.0436 41.0913C56.7505 42.0695 56.6683 43.4833 55.6984 44.2806C55.2463 44.634 54.8024 44.7244 54.2763 44.7244C53.6516 44.7244 53.0269 44.4614 52.5831 43.9271H52.5913Z" fill="#3AA7CB"/>
<path d="M60.6647 40.0224C60.0399 40.0224 59.5139 39.7512 59.07 39.4059C58.7166 38.9621 58.4453 38.4278 58.4453 37.8113C58.4453 37.1948 58.7166 36.6605 59.07 36.2167C59.333 36.0358 59.5139 35.8632 59.7769 35.7728C60.6564 35.4194 61.6428 35.592 62.2511 36.2167C62.6045 36.6605 62.8758 37.2852 62.8758 37.8113C62.8758 38.4278 62.6045 38.9621 62.2511 39.4059C61.8072 39.7594 61.2811 40.0224 60.6564 40.0224H60.6647Z" fill="#3AA7CB"/>
<path d="M65.4223 183.547V169.253H70.7898V179.462H76.6258V183.547H65.4141H65.4223Z" fill="#233D4D"/>
<path d="M77.8516 183.547V169.253H89.2853V173.116H83.2273V174.407H88.4386V178.402H83.2273V179.692H89.2853V183.555H77.8516V183.547Z" fill="#233D4D"/>
<path d="M90.1719 183.547L95.6791 169.253H101.252L106.759 183.547H101.17L100.151 180.884H96.797L95.7778 183.547H90.1883H90.1719ZM97.3559 177.218H99.5342L98.4492 174.489L97.3642 177.218H97.3559Z" fill="#233D4D"/>
<path d="M116.178 183.761C113.482 183.761 111.427 183.136 109.997 181.895C108.567 180.654 107.852 178.821 107.852 176.388C107.852 173.955 108.6 172.13 110.096 170.881C111.592 169.639 113.745 169.015 116.556 169.015C117.477 169.015 118.299 169.064 119.03 169.163C119.762 169.261 120.469 169.426 121.151 169.664V174.234C120.469 173.971 119.778 173.79 119.08 173.692C118.373 173.593 117.658 173.544 116.918 173.544C115.882 173.544 115.027 173.749 114.353 174.152C113.679 174.555 113.342 175.303 113.342 176.38C113.342 177.456 113.581 178.204 114.066 178.607C114.542 179.018 115.241 179.215 116.137 179.215C116.614 179.215 117.058 179.166 117.469 179.059V178.196H115.093V174.958H121.907V182.347C121.299 182.717 120.526 183.046 119.581 183.325C118.636 183.605 117.502 183.744 116.186 183.744L116.178 183.761Z" fill="#233D4D"/>
<path d="M130.722 183.76C129.373 183.76 128.165 183.538 127.08 183.094C126.003 182.651 125.149 181.993 124.516 181.122C123.891 180.25 123.57 179.174 123.57 177.9V169.244H128.938V177.209C128.938 178.541 129.53 179.206 130.713 179.206C131.897 179.206 132.489 178.541 132.489 177.209V169.244H137.856V177.9C137.856 179.174 137.544 180.242 136.911 181.122C136.278 181.993 135.431 182.651 134.346 183.094C133.27 183.538 132.053 183.76 130.705 183.76H130.722Z" fill="#233D4D"/>
<path d="M139.746 183.547V169.253H151.172V173.116H145.114V174.407H150.333V178.402H145.114V179.692H151.172V183.555H139.746V183.547Z" fill="#233D4D"/>
</svg>
