<svg width="163" height="42" viewBox="0 0 163 42" fill="none" xmlns="http://www.w3.org/2000/svg">
<path d="M0.25 31.4391L5.5539 28.8077C6.0691 31.0403 7.28851 33.7722 10.2944 34.0182V23.7949C6.0691 21.9574 0.813377 20.3697 0.813377 13.62C0.813377 7.61194 4.94234 3.54199 10.8096 3.54199C15.502 3.54199 19.4456 6.12485 20.5242 10.6905L15.3166 13.2734C14.6124 11.0893 13.0631 9.30403 10.8578 9.30403C8.88598 9.30403 6.8215 10.6942 6.8215 13.0274C6.8215 19.2814 21.5583 16.7992 21.5583 28.8115C21.5583 35.5612 16.9104 39.8809 10.8096 39.8809C4.70884 39.8809 1.09507 35.7065 0.25 31.4391ZM10.6688 23.9439V34.0219C10.9986 34.0219 11.2803 33.9735 11.6065 33.9213V24.3427C11.3248 24.2421 10.9949 24.093 10.6688 23.9439ZM11.9809 24.5403V33.8728C12.3107 33.7722 12.6369 33.6753 12.9186 33.5262V25.0881C12.6369 24.8906 12.307 24.7415 11.9809 24.544V24.5403ZM13.2966 25.3341V33.325C13.6265 33.1274 13.9527 32.9262 14.2344 32.6317V26.0795C13.9527 25.8298 13.6228 25.5354 13.2966 25.3341ZM14.6124 26.5231V32.1807C15.224 31.4353 15.5501 30.4439 15.5501 29.3034C15.5501 28.163 15.2203 27.2685 14.6124 26.5231Z" fill="#3AA7CB"/>
<path d="M26.7188 20.8165H36.6223C39.5319 20.8165 42.1597 19.676 42.1597 15.457C42.1597 11.2379 39.4837 10.0974 36.6223 10.0974H26.7188V4.1416H37.2784C43.4718 4.1416 48.6831 7.56677 48.6831 15.4085C48.6831 23.2503 43.4755 26.7761 37.2784 26.7761H26.7188V20.8202V20.8165ZM26.7188 11.4839V11.0851H37.2302V11.4839H26.7188ZM37.2302 12.4753V12.8741H26.7188V12.4753H37.2302ZM37.2302 13.8655V14.2643H26.7188V13.8655H37.2302ZM26.7188 15.6545V15.2557H37.2302V15.6545H26.7188ZM37.2302 16.6459V17.0447H26.7188V16.6459H37.2302ZM37.2302 18.0361V18.4349H26.7188V18.0361H37.2302ZM26.7188 19.8214V19.4226H37.2302V19.8214H26.7188ZM37.2302 27.7637V28.1625H26.7188V27.7637H37.2302ZM37.2302 29.1539V29.5527H26.7188V29.1539H37.2302ZM26.7188 30.9429V30.5441H37.2302V30.9429H26.7188ZM26.7188 32.3294V31.9343H37.2302V32.3294H26.7188ZM26.7188 33.7196V33.3208H37.2302V33.7196H26.7188ZM26.7188 35.1098V34.711H37.2302V35.1098H26.7188ZM37.2302 36.1049V36.5037H26.7188V36.1049H37.2302ZM37.2302 37.4951V37.8902H26.7188V37.4951H37.2302ZM37.2302 38.8816V39.2803H26.7188V38.8816H37.2302Z" fill="#3AA7CB"/>
<path d="M53.7969 18.0359H63.5114C65.2016 18.0359 66.61 17.9875 67.4551 17.0445H53.8932V16.6457H67.7368C67.8776 16.3476 68.0184 16.0494 68.1111 15.6543H53.8932V15.2555H68.1593C68.2075 14.9574 68.252 14.6107 68.252 14.2641H53.8932V13.8653H68.252C68.252 13.5187 68.2038 13.1721 68.1111 12.8739H53.8932V12.4751H68.0184C67.8776 12.0763 67.6886 11.7819 67.4551 11.4837H53.8932V11.0849H67.0807C66.2838 10.3917 65.0644 10.0935 63.5151 10.0935H53.8932V4.1377H64.0785C70.272 4.1377 74.8272 7.01499 74.8272 14.1635C74.8272 20.7157 71.0244 23.9918 65.1126 23.9918L75.3905 39.2802H53.897V38.8814H67.7405L67.0844 37.89H53.897V37.4949H66.8509L66.1467 36.5035H53.897V36.1047H65.9095L65.2535 35.1133H53.897V34.7145H64.9718L64.3157 33.7231H53.897V33.3243H64.034L63.378 32.3329H53.897V31.9379H63.0963L62.4403 30.9465H53.9007V30.5477H62.1586L61.5025 29.5563H53.9007V29.1575H61.269L60.5648 28.1661H53.9007V27.7673H60.3313L59.6753 26.7759H53.9044V26.3808H59.3936L58.7375 25.3894H53.9044V24.9906H58.4559L57.7998 23.9992H53.9044V23.6004H57.5181L56.8621 22.609H53.9044V22.2102H56.5804L55.9244 21.2188H53.9081V20.82H55.6909L54.9866 19.8286H53.9081V19.4298H54.7531L53.8154 18.0396L53.7969 18.0359Z" fill="#3AA7CB"/>
<path d="M79.6094 4.1377H90.1208V4.53649H86.1772V5.52789H90.1208V5.92669H86.1772V6.91808H90.1208V7.31688H86.1772V8.30828H90.1208V8.70707H86.1772V9.69847H90.1208V10.0973H86.1772V11.0887H90.1208V11.4875H86.1772V12.4789H90.1208V12.8777H86.1772V13.8691H90.1208V14.2679H86.1772V15.2593H90.1208V15.658H86.1772V16.6494H90.1208V17.0482H86.1772V18.0396H90.1208V18.4384H86.1772V19.4298H90.1208V19.8286H86.1772V20.82H90.1208V21.2188H86.1772V22.2102H90.1208V22.609H86.1772V23.6004H90.1208V23.9992H86.1772V24.9906H90.1208V25.3894H86.1772V26.3808H90.1208V26.7759H86.1772V27.7673H90.1208V28.1661H86.1772V29.1575H90.1208V29.5563H86.1772V30.5477H90.1208V30.9465H86.1772V31.9379H90.1208V32.3329H86.1772V33.3243H90.1208V33.7231H86.1772V34.7145H90.1208V35.1133H86.1772V36.1047H90.1208V36.5035H86.1772V37.4949H90.1208V37.89H86.1772V38.8814H90.1208V39.2802H79.6094V4.1377Z" fill="#3AA7CB"/>
<path d="M96.5938 0.712891L103.165 6.42275V39.2805H96.5938V0.712891ZM104.477 7.56323V26.2768L104.103 25.9302V7.21662L104.477 7.56323ZM105.793 8.75589V27.4173L105.419 27.0707V8.40555L105.793 8.75216V8.75589ZM107.105 9.84419V28.5093L106.731 28.2112V9.49758L107.105 9.84419ZM108.421 10.9884V29.6535L108.047 29.3554V10.6902L108.421 10.9884ZM109.737 12.1289V30.794L109.362 30.4958V11.7823L109.737 12.1289ZM111.049 13.2694V31.9345L110.674 31.6363V12.9227L111.049 13.2694ZM112.365 14.4136V33.0787L111.99 32.7805V14.067L112.365 14.4136ZM113.677 15.5541V34.2192L113.302 33.8726V15.2074L113.677 15.5541ZM114.992 16.6945V35.3559L114.618 35.0578V16.3442L114.992 16.6908V16.6945ZM115.93 4.53313H122.502V41.9603L115.93 36.202V4.53313Z" fill="#3AA7CB"/>
<path d="M127.664 21.7077C127.664 11.0856 135.362 3.54199 144.747 3.54199V20.8169H161.971C162.019 21.1151 162.019 21.4133 162.019 21.7114C162.019 32.3336 154.321 39.8771 144.843 39.8771C135.366 39.8771 127.668 32.3336 127.668 21.7114L127.664 21.7077ZM134.236 21.7599C134.236 23.6458 134.565 25.3341 135.173 26.8212V16.6948C134.562 18.1856 134.236 19.8703 134.236 21.7561V21.7599ZM135.548 15.8525V27.6673C135.829 28.2114 136.159 28.7108 136.485 29.2065V14.3169C136.155 14.7642 135.829 15.3083 135.548 15.8562V15.8525ZM136.863 13.8175V29.7022C137.145 30.0489 137.475 30.347 137.801 30.6936V12.8261C137.471 13.1243 137.145 13.4709 136.863 13.8175ZM138.175 12.4758V30.9918C138.457 31.2415 138.787 31.4875 139.113 31.6888V11.7825C138.783 11.9801 138.457 12.2298 138.175 12.4758ZM139.491 11.5328V31.9348C139.773 32.1323 140.103 32.2814 140.429 32.4305V11.0371C140.099 11.1862 139.773 11.3353 139.491 11.5328ZM140.807 10.888V32.5795C141.137 32.7286 141.419 32.8292 141.745 32.9262V10.5414C141.415 10.642 141.133 10.7389 140.807 10.888ZM142.119 10.4408V33.0268C142.449 33.0752 142.731 33.1759 143.057 33.2243V10.2433C142.727 10.2917 142.445 10.3439 142.119 10.4408ZM143.435 10.1948V33.2765C143.765 33.2765 144.046 33.325 144.373 33.325V10.0942C144.043 10.0942 143.761 10.1426 143.435 10.1948ZM144.747 26.374V33.3212C145.077 33.3212 145.359 33.3212 145.685 33.2728V26.374H144.747ZM146.063 26.374V33.2243C146.393 33.1759 146.674 33.1237 147.001 33.0752V26.374H146.063ZM147.375 26.374V32.9746C147.705 32.9262 147.986 32.8255 148.313 32.7249V26.3702H147.375V26.374ZM148.691 26.374V32.5795C149.021 32.4789 149.347 32.3298 149.628 32.1807V26.374H148.691ZM150.003 26.374V31.9832C150.333 31.7857 150.659 31.5844 150.94 31.3869V26.374H150.003ZM151.318 26.374V31.0887C151.648 30.839 151.975 30.5446 152.256 30.2464V26.374H151.318ZM152.631 26.374V29.8476C152.96 29.4488 153.287 29.0537 153.568 28.6065V26.374H152.631ZM153.946 26.374V27.9617C154.228 27.466 154.462 26.9181 154.651 26.374H153.946Z" fill="#3AA7CB"/>
</svg>
