<svg width="175" height="29" viewBox="0 0 175 29" fill="none" xmlns="http://www.w3.org/2000/svg">
<path d="M9.77019 19.4557L2.70878 11.9951H15.0351L19.9256 17.3098C21.1899 18.6739 21.822 20.2625 21.822 22.0757C21.822 23.3233 21.5226 24.4544 20.9237 25.4691C20.3415 26.4838 19.4682 27.2823 18.3038 27.8645C17.156 28.4301 15.8086 28.7129 14.2615 28.7129H0.213581V19.4557H9.77019ZM6.50148 0.716763H20.5494V1.2158H3.83162C4.66335 0.88311 5.55331 0.716763 6.50148 0.716763ZM2.65888 1.88951H20.5494V2.38855H2.10993C2.37609 2.12239 2.55907 1.95605 2.65888 1.88951ZM20.5494 3.6611H1.18671C1.21998 3.62783 1.2782 3.53634 1.36137 3.38663C1.44455 3.23691 1.48613 3.16206 1.48613 3.16206H20.5494V3.6611ZM20.5494 4.85879H0.712621C0.712621 4.82552 0.74589 4.74235 0.812429 4.60927C0.895602 4.4762 0.937189 4.38471 0.937189 4.3348H20.5494V4.85879ZM0.513005 6.08144L0.562909 5.55745H20.5494V6.08144H0.513005ZM0.463101 7.35399V6.83H20.5494V7.35399H0.463101ZM0.612813 8.57664L0.562909 8.0776H20.5494V8.57664H0.612813ZM20.5494 9.84919H1.0869C1.05363 9.78265 1.02036 9.7078 0.987093 9.62462C0.970458 9.54145 0.937189 9.44996 0.887285 9.35015H20.5494V9.84919ZM40.8853 11.8953H49.8181V21.6016C49.8181 23.0155 49.5104 24.2548 48.8949 25.3194C48.2794 26.384 47.4394 27.2075 46.3748 27.7897C45.3101 28.3719 44.1124 28.663 42.7817 28.663H33.0254C30.996 28.663 29.2993 28.0142 27.9352 26.7167C26.5878 25.4026 25.9141 23.6975 25.9141 21.6016V11.8953H34.8469V16.3866C34.8469 18.3994 35.7036 19.4058 37.417 19.4058H38.3901C40.0536 19.4058 40.8853 18.3994 40.8853 16.3866V11.8953ZM25.9141 6.83H34.8469V7.35399H25.9141V6.83ZM25.9141 8.0776H34.8469V8.57664H25.9141V8.0776ZM25.9141 9.35015H34.8469V9.84919H25.9141V9.35015ZM25.9141 3.11215H34.8469V3.61119H25.9141V3.11215ZM25.9141 4.3348H34.8469V4.85879H25.9141V4.3348ZM25.9141 5.55745H34.8469V6.08144H25.9141V5.55745ZM25.9141 0.716763H34.8469V1.2158H25.9141V0.716763ZM25.9141 1.93941H34.8469V2.43845H25.9141V1.93941ZM40.8853 6.83H49.8181V7.35399H40.8853V6.83ZM40.8853 8.0776H49.8181V8.57664H40.8853V8.0776ZM40.8853 9.35015H49.8181V9.84919H40.8853V9.35015ZM40.8853 3.11215H49.8181V3.61119H40.8853V3.11215ZM40.8853 4.3348H49.8181V4.85879H40.8853V4.3348ZM40.8853 5.55745H49.8181V6.08144H40.8853V5.55745ZM40.8853 0.716763H49.8181V1.2158H40.8853V0.716763ZM40.8853 1.93941H49.8181V2.43845H40.8853V1.93941ZM53.9602 28.7129V11.9452H63.2672V28.7129H53.9602ZM67.2845 28.7129V11.9452H76.392V28.7129H67.2845ZM80.534 28.7129V11.9452H89.8411V28.7129H80.534ZM53.9602 1.2158V0.716763H83.7528C84.6844 0.716763 85.566 0.88311 86.3977 1.2158H53.9602ZM53.9602 2.38855V1.88951H87.5206C87.7202 2.00595 87.9281 2.1723 88.1444 2.38855H53.9602ZM53.9602 3.16206H88.7183C88.7515 3.21196 88.7848 3.27018 88.8181 3.33672C88.8513 3.38663 88.8846 3.44485 88.9179 3.51139C88.9512 3.56129 88.9844 3.61119 89.0177 3.6611H53.9602V3.16206ZM53.9602 4.3348H89.3171C89.3338 4.35144 89.367 4.42629 89.4169 4.55937C89.4835 4.69245 89.5167 4.79225 89.5167 4.85879H53.9602V4.3348ZM53.9602 5.55745H89.6664L89.7413 6.08144H53.9602V5.55745ZM53.9602 6.83H89.8411V7.35399H53.9602V6.83ZM53.9602 8.0776H89.8411V8.57664H53.9602V8.0776ZM53.9602 9.35015H89.8411V9.84919H53.9602V9.35015ZM93.8334 28.7129V11.9452H103.141V28.7129H93.8334ZM107.158 28.7129V11.9452H116.265V28.7129H107.158ZM120.407 28.7129V11.9452H129.714V28.7129H120.407ZM93.8334 1.2158V0.716763H123.626C124.558 0.716763 125.439 0.88311 126.271 1.2158H93.8334ZM93.8334 2.38855V1.88951H127.394C127.593 2.00595 127.801 2.1723 128.018 2.38855H93.8334ZM93.8334 3.16206H128.592C128.625 3.21196 128.658 3.27018 128.691 3.33672C128.725 3.38663 128.758 3.44485 128.791 3.51139C128.824 3.56129 128.858 3.61119 128.891 3.6611H93.8334V3.16206ZM93.8334 4.3348H129.19C129.207 4.35144 129.24 4.42629 129.29 4.55937C129.357 4.69245 129.39 4.79225 129.39 4.85879H93.8334V4.3348ZM93.8334 5.55745H129.54L129.615 6.08144H93.8334V5.55745ZM93.8334 6.83H129.714V7.35399H93.8334V6.83ZM93.8334 8.0776H129.714V8.57664H93.8334V8.0776ZM93.8334 9.35015H129.714V9.84919H93.8334V9.35015ZM155.989 19.4557V28.7129H140.818C138.805 28.7129 137.117 28.0558 135.753 26.7417C134.389 25.4109 133.707 23.6975 133.707 21.6016V12.3194H153.02V17.0104H142.864C142.864 17.576 142.914 18.0334 143.014 18.3828C143.114 18.7321 143.322 18.9983 143.638 19.1812C143.954 19.3642 144.428 19.4557 145.06 19.4557H155.989ZM139.745 0.716763H155.989V1.2158H137.025C137.84 0.88311 138.747 0.716763 139.745 0.716763ZM135.902 1.88951H155.989V2.38855H135.329C135.378 2.35528 135.462 2.28874 135.578 2.18893C135.695 2.07249 135.803 1.97268 135.902 1.88951ZM155.989 3.6611H134.43C134.464 3.62783 134.522 3.53634 134.605 3.38663C134.688 3.23691 134.73 3.16206 134.73 3.16206H155.989V3.6611ZM155.989 4.85879H133.956C133.956 4.60927 134.006 4.43461 134.106 4.3348H155.989V4.85879ZM155.989 6.08144H133.707C133.707 6.04817 133.723 5.95668 133.757 5.80697C133.79 5.65726 133.807 5.57408 133.807 5.55745H155.989V6.08144ZM133.707 7.35399V6.83H155.989V7.35399H133.707ZM133.707 8.57664V8.0776H155.989V8.57664H133.707ZM133.707 9.84919V9.35015H155.989V9.84919H133.707ZM160.006 28.7129V11.9951H168.939V28.7129H160.006ZM166.094 0.716763H174.628V1.2158H163.375C164.206 0.88311 165.113 0.716763 166.094 0.716763ZM162.252 1.88951H174.628V2.38855H161.678C161.728 2.35528 161.811 2.28874 161.927 2.18893C162.044 2.07249 162.152 1.97268 162.252 1.88951ZM174.628 3.6611H160.78C160.813 3.62783 160.871 3.53634 160.954 3.38663C161.037 3.23691 161.079 3.16206 161.079 3.16206H174.628V3.6611ZM174.628 4.85879H160.306C160.306 4.60927 160.355 4.43461 160.455 4.3348H174.628V4.85879ZM174.628 6.08144H160.056C160.056 6.04817 160.073 5.95668 160.106 5.80697C160.139 5.65726 160.156 5.57408 160.156 5.55745H174.628V6.08144ZM160.006 7.35399V6.83H174.628V7.35399H160.006ZM160.006 8.57664V8.0776H174.628V8.57664H160.006ZM160.006 9.84919V9.35015H174.628V9.84919H160.006Z" fill="#E5B52E"/>
</svg>
